%TF.GenerationSoftware,KiCad,Pcbnew,9.0.5-1.fc42*%
%TF.CreationDate,2025-11-09T17:32:50+08:00*%
%TF.ProjectId,JACC64-512K,4a414343-3634-42d3-9531-324b2e6b6963,rev?*%
%TF.SameCoordinates,Original*%
%TF.FileFunction,Plated,1,2,PTH,Drill*%
%TF.FilePolarity,Positive*%
%FSLAX46Y46*%
G04 Gerber Fmt 4.6, Leading zero omitted, Abs format (unit mm)*
G04 Created by KiCad (PCBNEW 9.0.5-1.fc42) date 2025-11-09 17:32:50*
%MOMM*%
%LPD*%
G01*
G04 APERTURE LIST*
%TA.AperFunction,ViaDrill*%
%ADD10C,0.300000*%
%TD*%
%TA.AperFunction,ComponentDrill*%
%ADD11C,0.800000*%
%TD*%
%TA.AperFunction,ComponentDrill*%
%ADD12C,0.900000*%
%TD*%
%TA.AperFunction,ComponentDrill*%
%ADD13C,1.100000*%
%TD*%
G04 APERTURE END LIST*
D10*
X127000000Y-139700000D03*
X133285785Y-91569540D03*
X133327930Y-86006428D03*
X133589399Y-108158600D03*
X134615300Y-74546900D03*
X134622200Y-95677800D03*
X135546500Y-140155400D03*
X135898762Y-84236347D03*
X137160000Y-139700000D03*
X137712249Y-123107388D03*
X141366300Y-73251400D03*
X141379000Y-112081803D03*
X143324451Y-114058443D03*
X143326700Y-124872900D03*
X143366596Y-118778660D03*
X143575537Y-107984152D03*
X144276200Y-128583800D03*
X145313700Y-108158600D03*
X145425600Y-122897100D03*
X146063863Y-99476347D03*
X146335424Y-132858547D03*
X146499500Y-139750800D03*
X147320000Y-116840000D03*
X147320000Y-119380000D03*
X147581075Y-123541021D03*
X148054400Y-140155400D03*
X148550405Y-99476347D03*
X150706852Y-119592269D03*
X150910513Y-100867125D03*
X151215446Y-140037942D03*
X151793000Y-138513600D03*
X152843200Y-113099000D03*
X153635290Y-133790084D03*
X153653937Y-139304802D03*
X153656600Y-114306900D03*
X154986700Y-140319400D03*
X156324400Y-111067400D03*
X156324400Y-140972600D03*
X156848800Y-108397900D03*
X156851600Y-139003200D03*
X156969800Y-106637800D03*
X158284800Y-108700500D03*
X158572658Y-100925683D03*
X159170892Y-123667455D03*
X160020000Y-114300000D03*
X160020000Y-116840000D03*
X160020000Y-119380000D03*
X160067800Y-135530138D03*
X160393090Y-107146698D03*
X161017056Y-99071312D03*
X161294100Y-141065300D03*
X161549400Y-140019300D03*
X162419600Y-94300200D03*
X162972100Y-138919400D03*
X163511805Y-114479891D03*
X163558900Y-91052700D03*
X163714322Y-98944878D03*
X164911810Y-122702600D03*
X165849200Y-138449700D03*
X166444600Y-128520200D03*
X168246200Y-140499500D03*
X168704155Y-122925609D03*
X168912505Y-133773147D03*
X169024565Y-116139951D03*
X170093800Y-109159700D03*
X170668212Y-107120967D03*
X170889900Y-111878700D03*
X171089660Y-93171042D03*
X171122400Y-140155400D03*
X171455100Y-138723500D03*
X171511108Y-98481285D03*
X172941000Y-109070800D03*
X173446900Y-108230300D03*
X174426200Y-139723800D03*
D11*
%TO.C,SW2*%
X128317800Y-71791400D03*
X128317800Y-79411400D03*
%TO.C,C1*%
X130488200Y-95307000D03*
X130488200Y-100307000D03*
%TO.C,SW2*%
X130857800Y-71791400D03*
X130857800Y-79411400D03*
X133397800Y-71791400D03*
X133397800Y-79411400D03*
%TO.C,U2*%
X135748100Y-89145200D03*
X135748100Y-104385200D03*
%TO.C,SW2*%
X135937800Y-71791400D03*
X135937800Y-79411400D03*
%TO.C,U2*%
X138288100Y-89145200D03*
X138288100Y-104385200D03*
%TO.C,SW2*%
X138477800Y-71791400D03*
X138477800Y-79411400D03*
%TO.C,U2*%
X140828100Y-89145200D03*
X140828100Y-104385200D03*
X143368100Y-89145200D03*
X143368100Y-104385200D03*
%TO.C,R7*%
X143496600Y-126393100D03*
X143496600Y-136553100D03*
%TO.C,U2*%
X145908100Y-89145200D03*
X145908100Y-104385200D03*
%TO.C,R1*%
X147320000Y-83820000D03*
%TO.C,U2*%
X148448100Y-89145200D03*
X148448100Y-104385200D03*
%TO.C,R6*%
X148576600Y-126393100D03*
X148576600Y-136553100D03*
%TO.C,U2*%
X150988100Y-89145200D03*
X150988100Y-104385200D03*
X153528100Y-89145200D03*
X153528100Y-104385200D03*
%TO.C,R5*%
X153656600Y-126393100D03*
X153656600Y-136553100D03*
%TO.C,U2*%
X156068100Y-89145200D03*
X156068100Y-104385200D03*
%TO.C,R1*%
X157480000Y-83820000D03*
%TO.C,U2*%
X158608100Y-89145200D03*
X158608100Y-104385200D03*
%TO.C,R4*%
X158736600Y-126393100D03*
X158736600Y-136553100D03*
%TO.C,U2*%
X161148100Y-89145200D03*
X161148100Y-104385200D03*
X163688100Y-89145200D03*
X163688100Y-104385200D03*
%TO.C,R3*%
X163816600Y-126393100D03*
X163816600Y-136553100D03*
%TO.C,U2*%
X166228100Y-89145200D03*
X166228100Y-104385200D03*
X168768100Y-89145200D03*
X168768100Y-104385200D03*
%TO.C,R2*%
X168896600Y-126393100D03*
X168896600Y-136553100D03*
%TO.C,U2*%
X171308100Y-89145200D03*
X171308100Y-104385200D03*
X173848100Y-89145200D03*
X173848100Y-104385200D03*
D12*
%TO.C,D3*%
X154935200Y-75643900D03*
X157475200Y-75643900D03*
D13*
%TO.C,D1*%
X123237800Y-123903900D03*
%TO.C,D2*%
X123237800Y-128983900D03*
%TO.C,D1*%
X130857800Y-123903900D03*
%TO.C,D2*%
X130857800Y-128983900D03*
%TO.C,SW1*%
X165707800Y-73393900D03*
X165707800Y-77893900D03*
X172207800Y-73393900D03*
X172207800Y-77893900D03*
M02*
