%TF.GenerationSoftware,KiCad,Pcbnew,9.0.5-1.fc42*%
%TF.CreationDate,2025-11-09T17:32:47+08:00*%
%TF.ProjectId,JACC64-512K,4a414343-3634-42d3-9531-324b2e6b6963,rev?*%
%TF.SameCoordinates,Original*%
%TF.FileFunction,Legend,Top*%
%TF.FilePolarity,Positive*%
%FSLAX46Y46*%
G04 Gerber Fmt 4.6, Leading zero omitted, Abs format (unit mm)*
G04 Created by KiCad (PCBNEW 9.0.5-1.fc42) date 2025-11-09 17:32:47*
%MOMM*%
%LPD*%
G01*
G04 APERTURE LIST*
G04 Aperture macros list*
%AMRoundRect*
0 Rectangle with rounded corners*
0 $1 Rounding radius*
0 $2 $3 $4 $5 $6 $7 $8 $9 X,Y pos of 4 corners*
0 Add a 4 corners polygon primitive as box body*
4,1,4,$2,$3,$4,$5,$6,$7,$8,$9,$2,$3,0*
0 Add four circle primitives for the rounded corners*
1,1,$1+$1,$2,$3*
1,1,$1+$1,$4,$5*
1,1,$1+$1,$6,$7*
1,1,$1+$1,$8,$9*
0 Add four rect primitives between the rounded corners*
20,1,$1+$1,$2,$3,$4,$5,0*
20,1,$1+$1,$4,$5,$6,$7,0*
20,1,$1+$1,$6,$7,$8,$9,0*
20,1,$1+$1,$8,$9,$2,$3,0*%
G04 Aperture macros list end*
%ADD10C,0.000000*%
%ADD11C,0.052916*%
%ADD12C,0.005291*%
%ADD13C,0.100000*%
%ADD14C,0.300000*%
%ADD15C,0.150000*%
%ADD16C,0.120000*%
%ADD17C,1.600000*%
%ADD18RoundRect,0.249999X0.850001X0.850001X-0.850001X0.850001X-0.850001X-0.850001X0.850001X-0.850001X0*%
%ADD19C,2.200000*%
%ADD20RoundRect,0.250000X0.550000X-0.550000X0.550000X0.550000X-0.550000X0.550000X-0.550000X-0.550000X0*%
%ADD21C,2.000000*%
%ADD22R,1.800000X1.800000*%
%ADD23C,1.800000*%
%ADD24R,1.524000X11.430000*%
G04 APERTURE END LIST*
D10*
G36*
X123595200Y-85318500D02*
G01*
X123609388Y-85319579D01*
X123623369Y-85321355D01*
X123637126Y-85323812D01*
X123650642Y-85326932D01*
X123663899Y-85330696D01*
X123676879Y-85335088D01*
X123689566Y-85340090D01*
X123701941Y-85345685D01*
X123713986Y-85351854D01*
X123725685Y-85358581D01*
X123737020Y-85365848D01*
X123747973Y-85373637D01*
X123758527Y-85381930D01*
X123768663Y-85390711D01*
X123778365Y-85399961D01*
X123787616Y-85409663D01*
X123796396Y-85419800D01*
X123804690Y-85430353D01*
X123812478Y-85441306D01*
X123819745Y-85452641D01*
X123826472Y-85464340D01*
X123832641Y-85476386D01*
X123838236Y-85488760D01*
X123843238Y-85501447D01*
X123847630Y-85514427D01*
X123851395Y-85527684D01*
X123854514Y-85541200D01*
X123856971Y-85554957D01*
X123858748Y-85568939D01*
X123859826Y-85583126D01*
X123860190Y-85597502D01*
X123859826Y-85611878D01*
X123858748Y-85626066D01*
X123856971Y-85640047D01*
X123854514Y-85653804D01*
X123851395Y-85667320D01*
X123847630Y-85680577D01*
X123843238Y-85693557D01*
X123838236Y-85706244D01*
X123832641Y-85718619D01*
X123826472Y-85730664D01*
X123819745Y-85742363D01*
X123812478Y-85753698D01*
X123804690Y-85764651D01*
X123796396Y-85775205D01*
X123787616Y-85785341D01*
X123778365Y-85795044D01*
X123768663Y-85804294D01*
X123758527Y-85813074D01*
X123747973Y-85821368D01*
X123737020Y-85829157D01*
X123725685Y-85836423D01*
X123713986Y-85843150D01*
X123701941Y-85849319D01*
X123689566Y-85854914D01*
X123676879Y-85859916D01*
X123663899Y-85864308D01*
X123650642Y-85868073D01*
X123637126Y-85871192D01*
X123623369Y-85873649D01*
X123609388Y-85875426D01*
X123595200Y-85876504D01*
X123580824Y-85876868D01*
X123566448Y-85876504D01*
X123552261Y-85875426D01*
X123538279Y-85873649D01*
X123524522Y-85871192D01*
X123511006Y-85868073D01*
X123497749Y-85864308D01*
X123484769Y-85859916D01*
X123472082Y-85854914D01*
X123459708Y-85849319D01*
X123447662Y-85843150D01*
X123435963Y-85836423D01*
X123424628Y-85829157D01*
X123413675Y-85821368D01*
X123403122Y-85813074D01*
X123392985Y-85804294D01*
X123383283Y-85795044D01*
X123374033Y-85785341D01*
X123365252Y-85775205D01*
X123356959Y-85764651D01*
X123349170Y-85753698D01*
X123341903Y-85742363D01*
X123335176Y-85730664D01*
X123329007Y-85718619D01*
X123323412Y-85706244D01*
X123318410Y-85693557D01*
X123314018Y-85680577D01*
X123310254Y-85667320D01*
X123307134Y-85653804D01*
X123304677Y-85640047D01*
X123302901Y-85626066D01*
X123301822Y-85611878D01*
X123301458Y-85597502D01*
X123301822Y-85583126D01*
X123302901Y-85568939D01*
X123304677Y-85554957D01*
X123307134Y-85541200D01*
X123310254Y-85527684D01*
X123314018Y-85514427D01*
X123318410Y-85501447D01*
X123323412Y-85488760D01*
X123329007Y-85476386D01*
X123335176Y-85464340D01*
X123341903Y-85452641D01*
X123349170Y-85441306D01*
X123356959Y-85430353D01*
X123365252Y-85419800D01*
X123374033Y-85409663D01*
X123383283Y-85399961D01*
X123392985Y-85390711D01*
X123403122Y-85381930D01*
X123413675Y-85373637D01*
X123424628Y-85365848D01*
X123435963Y-85358581D01*
X123447662Y-85351854D01*
X123459708Y-85345685D01*
X123472082Y-85340090D01*
X123484769Y-85335088D01*
X123497749Y-85330696D01*
X123511006Y-85326932D01*
X123524522Y-85323812D01*
X123538279Y-85321355D01*
X123552261Y-85319579D01*
X123566448Y-85318500D01*
X123580824Y-85318137D01*
X123595200Y-85318500D01*
G37*
G36*
X122467282Y-84806002D02*
G01*
X122481469Y-84807080D01*
X122495451Y-84808857D01*
X122509208Y-84811314D01*
X122522724Y-84814433D01*
X122535981Y-84818198D01*
X122548961Y-84822590D01*
X122561648Y-84827592D01*
X122574022Y-84833187D01*
X122586068Y-84839356D01*
X122597767Y-84846083D01*
X122609102Y-84853349D01*
X122620055Y-84861138D01*
X122630608Y-84869432D01*
X122640745Y-84878212D01*
X122650447Y-84887462D01*
X122659697Y-84897165D01*
X122668478Y-84907301D01*
X122676771Y-84917855D01*
X122684560Y-84928808D01*
X122691827Y-84940143D01*
X122698554Y-84951842D01*
X122704723Y-84963887D01*
X122710318Y-84976262D01*
X122715320Y-84988949D01*
X122719712Y-85001929D01*
X122723476Y-85015186D01*
X122726596Y-85028702D01*
X122729053Y-85042459D01*
X122730829Y-85056440D01*
X122731908Y-85070628D01*
X122732272Y-85085004D01*
X122731908Y-85099380D01*
X122730829Y-85113567D01*
X122729053Y-85127549D01*
X122726596Y-85141306D01*
X122723476Y-85154822D01*
X122719712Y-85168079D01*
X122715320Y-85181059D01*
X122710318Y-85193746D01*
X122704723Y-85206120D01*
X122698554Y-85218166D01*
X122691827Y-85229865D01*
X122684560Y-85241200D01*
X122676771Y-85252153D01*
X122668478Y-85262706D01*
X122659697Y-85272843D01*
X122650447Y-85282545D01*
X122640745Y-85291795D01*
X122630608Y-85300576D01*
X122620055Y-85308869D01*
X122609102Y-85316658D01*
X122597767Y-85323925D01*
X122586068Y-85330652D01*
X122574022Y-85336821D01*
X122561648Y-85342416D01*
X122548961Y-85347418D01*
X122535981Y-85351810D01*
X122522724Y-85355574D01*
X122509208Y-85358694D01*
X122495451Y-85361151D01*
X122481469Y-85362927D01*
X122467282Y-85364006D01*
X122452906Y-85364369D01*
X122438530Y-85364006D01*
X122424342Y-85362927D01*
X122410361Y-85361151D01*
X122396604Y-85358694D01*
X122383088Y-85355574D01*
X122369831Y-85351810D01*
X122356851Y-85347418D01*
X122344164Y-85342416D01*
X122331789Y-85336821D01*
X122319744Y-85330652D01*
X122308045Y-85323925D01*
X122296710Y-85316658D01*
X122285757Y-85308869D01*
X122275203Y-85300576D01*
X122265067Y-85291795D01*
X122255365Y-85282545D01*
X122246114Y-85272843D01*
X122237334Y-85262706D01*
X122229040Y-85252153D01*
X122221252Y-85241200D01*
X122213985Y-85229865D01*
X122207258Y-85218166D01*
X122201089Y-85206120D01*
X122195494Y-85193746D01*
X122190492Y-85181059D01*
X122186100Y-85168079D01*
X122182335Y-85154822D01*
X122179216Y-85141306D01*
X122176759Y-85127549D01*
X122174983Y-85113567D01*
X122173904Y-85099380D01*
X122173540Y-85085004D01*
X122173904Y-85070628D01*
X122174983Y-85056440D01*
X122176759Y-85042459D01*
X122179216Y-85028702D01*
X122182335Y-85015186D01*
X122186100Y-85001929D01*
X122190492Y-84988949D01*
X122195494Y-84976262D01*
X122201089Y-84963887D01*
X122207258Y-84951842D01*
X122213985Y-84940143D01*
X122221252Y-84928808D01*
X122229040Y-84917855D01*
X122237334Y-84907301D01*
X122246114Y-84897165D01*
X122255365Y-84887462D01*
X122265067Y-84878212D01*
X122275203Y-84869432D01*
X122285757Y-84861138D01*
X122296710Y-84853349D01*
X122308045Y-84846083D01*
X122319744Y-84839356D01*
X122331789Y-84833187D01*
X122344164Y-84827592D01*
X122356851Y-84822590D01*
X122369831Y-84818198D01*
X122383088Y-84814433D01*
X122396604Y-84811314D01*
X122410361Y-84808857D01*
X122424342Y-84807080D01*
X122438530Y-84806002D01*
X122452906Y-84805638D01*
X122467282Y-84806002D01*
G37*
D11*
X123233525Y-84269909D02*
X123270566Y-84269909D01*
X123275858Y-84275201D01*
X123297025Y-84275201D01*
X123302317Y-84280492D01*
X123318192Y-84280492D01*
X123323483Y-84285784D01*
X123334067Y-84285784D01*
X123339358Y-84291076D01*
X123349941Y-84291076D01*
X123355233Y-84296367D01*
X123360525Y-84296367D01*
X123365816Y-84301659D01*
X123376400Y-84301659D01*
X123381692Y-84306951D01*
X123386983Y-84306951D01*
X123392275Y-84312243D01*
X123397567Y-84312243D01*
X123402858Y-84317534D01*
X123408150Y-84317534D01*
X123413442Y-84322826D01*
X123418733Y-84322826D01*
X123424025Y-84328118D01*
X123429316Y-84328118D01*
X123439900Y-84338701D01*
X123445191Y-84338701D01*
X123455775Y-84349284D01*
X123461067Y-84349284D01*
X123471650Y-84359867D01*
X123476942Y-84359867D01*
X123492817Y-84375742D01*
X123498108Y-84375742D01*
X123598650Y-84476284D01*
X123598650Y-84481576D01*
X123619817Y-84502743D01*
X123619817Y-84508034D01*
X123640983Y-84529201D01*
X123640983Y-84534492D01*
X123656858Y-84550368D01*
X123656858Y-84555659D01*
X123672733Y-84571534D01*
X123672733Y-84576826D01*
X123683316Y-84587409D01*
X123683316Y-84592701D01*
X123715067Y-84624451D01*
X123715067Y-84629743D01*
X123730942Y-84645618D01*
X123730942Y-84650909D01*
X123820900Y-84740868D01*
X123826191Y-84740868D01*
X123852650Y-84767326D01*
X123857942Y-84767326D01*
X123884400Y-84793784D01*
X123889692Y-84793784D01*
X123910858Y-84814951D01*
X123916150Y-84814951D01*
X123932025Y-84830826D01*
X123937317Y-84830826D01*
X123953192Y-84846701D01*
X123958483Y-84846701D01*
X123974358Y-84862576D01*
X123979650Y-84862576D01*
X123990233Y-84873159D01*
X123995525Y-84873159D01*
X124006108Y-84883743D01*
X124011400Y-84883743D01*
X124021983Y-84894326D01*
X124027275Y-84894326D01*
X124032567Y-84899618D01*
X124037858Y-84899618D01*
X124048442Y-84910201D01*
X124053733Y-84910201D01*
X124059025Y-84915492D01*
X124064316Y-84915492D01*
X124069608Y-84920784D01*
X124074900Y-84920784D01*
X124085483Y-84931367D01*
X124090775Y-84931367D01*
X124096067Y-84936659D01*
X124101358Y-84936659D01*
X124111942Y-84947243D01*
X124117233Y-84947243D01*
X124122525Y-84952534D01*
X124127817Y-84952534D01*
X124133108Y-84957826D01*
X124138400Y-84957826D01*
X124148983Y-84968409D01*
X124154275Y-84968409D01*
X124159566Y-84973701D01*
X124164858Y-84973701D01*
X124170150Y-84978993D01*
X124175441Y-84978993D01*
X124180733Y-84984284D01*
X124186025Y-84984284D01*
X124191317Y-84989576D01*
X124196608Y-84989576D01*
X124207192Y-85000159D01*
X124212483Y-85000159D01*
X124217775Y-85005451D01*
X124223066Y-85005451D01*
X124228358Y-85010742D01*
X124233650Y-85010742D01*
X124238941Y-85016034D01*
X124244233Y-85016034D01*
X124254816Y-85026618D01*
X124260108Y-85026618D01*
X124265400Y-85031909D01*
X124270692Y-85031909D01*
X124275983Y-85037201D01*
X124281275Y-85037201D01*
X124286567Y-85042493D01*
X124291858Y-85042493D01*
X124297150Y-85047784D01*
X124302441Y-85047784D01*
X124313025Y-85058368D01*
X124318316Y-85058368D01*
X124323608Y-85063659D01*
X124328900Y-85063659D01*
X124334191Y-85068951D01*
X124339483Y-85068951D01*
X124344775Y-85074242D01*
X124350067Y-85074242D01*
X124355358Y-85079534D01*
X124360650Y-85079534D01*
X124365942Y-85084826D01*
X124371233Y-85084826D01*
X124381816Y-85095409D01*
X124387108Y-85095409D01*
X124392400Y-85100701D01*
X124397691Y-85100701D01*
X124402983Y-85105992D01*
X124408275Y-85105992D01*
X124413566Y-85111284D01*
X124418858Y-85111284D01*
X124424150Y-85116576D01*
X124429442Y-85116576D01*
X124434733Y-85121868D01*
X124440025Y-85121868D01*
X124450608Y-85132451D01*
X124461191Y-85132451D01*
X124471775Y-85143034D01*
X124477066Y-85143034D01*
X124482358Y-85148326D01*
X124487650Y-85148326D01*
X124492941Y-85153617D01*
X124498233Y-85153617D01*
X124503525Y-85158909D01*
X124508817Y-85158909D01*
X124514108Y-85164201D01*
X124519400Y-85164201D01*
X124524692Y-85169492D01*
X124529983Y-85169492D01*
X124535275Y-85174784D01*
X124540566Y-85174784D01*
X124545858Y-85180076D01*
X124551150Y-85180076D01*
X124561733Y-85190659D01*
X124567025Y-85190659D01*
X124572316Y-85195951D01*
X124577608Y-85195951D01*
X124582900Y-85201243D01*
X124588192Y-85201243D01*
X124593483Y-85206534D01*
X124598775Y-85206534D01*
X124604067Y-85211826D01*
X124609358Y-85211826D01*
X124619941Y-85222409D01*
X124625233Y-85222409D01*
X124630525Y-85227701D01*
X124635816Y-85227701D01*
X124641108Y-85232992D01*
X124646400Y-85232992D01*
X124656983Y-85243576D01*
X124662275Y-85243576D01*
X124667567Y-85248867D01*
X124672858Y-85248867D01*
X124683442Y-85259451D01*
X124688733Y-85259451D01*
X124699316Y-85270034D01*
X124704608Y-85270034D01*
X124709900Y-85275326D01*
X124715191Y-85275326D01*
X124725775Y-85285909D01*
X124731066Y-85285909D01*
X124741650Y-85296493D01*
X124746942Y-85296493D01*
X124762817Y-85312367D01*
X124768108Y-85312367D01*
X124783983Y-85328242D01*
X124789275Y-85328242D01*
X124810441Y-85349409D01*
X124815733Y-85349409D01*
X124884525Y-85418201D01*
X124884525Y-85423492D01*
X124926858Y-85465826D01*
X124926858Y-85471117D01*
X124948025Y-85492284D01*
X124948025Y-85497576D01*
X124963900Y-85513451D01*
X124963900Y-85518743D01*
X124979775Y-85534618D01*
X124979775Y-85539909D01*
X124995650Y-85555784D01*
X124995650Y-85561076D01*
X125006233Y-85571659D01*
X125006233Y-85576951D01*
X125016816Y-85587534D01*
X125016816Y-85592826D01*
X125027400Y-85603409D01*
X125027400Y-85608701D01*
X125037983Y-85619284D01*
X125037983Y-85624576D01*
X125048566Y-85635159D01*
X125048566Y-85640451D01*
X125053858Y-85645742D01*
X125053858Y-85651034D01*
X125059150Y-85656326D01*
X125059150Y-85661617D01*
X125064442Y-85666909D01*
X125064442Y-85672201D01*
X125069733Y-85677493D01*
X125069733Y-85682784D01*
X125075025Y-85688076D01*
X125075025Y-85693368D01*
X125080317Y-85698659D01*
X125080317Y-85703951D01*
X125085608Y-85709242D01*
X125085608Y-85714534D01*
X125090900Y-85719826D01*
X125090900Y-85730409D01*
X125096191Y-85735701D01*
X125096191Y-85740992D01*
X125101483Y-85746284D01*
X125101483Y-85756868D01*
X125106775Y-85762159D01*
X125106775Y-85772743D01*
X125112066Y-85778034D01*
X125112066Y-85788617D01*
X125117358Y-85793909D01*
X125117358Y-85809784D01*
X125122650Y-85815076D01*
X125122650Y-85830951D01*
X125127941Y-85836243D01*
X125127941Y-85852118D01*
X125133233Y-85857409D01*
X125133233Y-85878576D01*
X125138525Y-85883867D01*
X125138525Y-85915618D01*
X125143817Y-85920909D01*
X125143817Y-85979117D01*
X125149108Y-85984409D01*
X125149108Y-86021451D01*
X125143817Y-86026742D01*
X125143817Y-86084951D01*
X125138525Y-86090243D01*
X125138525Y-86111409D01*
X125133233Y-86116701D01*
X125133233Y-86137867D01*
X125127941Y-86143159D01*
X125127941Y-86159034D01*
X125122650Y-86164326D01*
X125122650Y-86174909D01*
X125117358Y-86180201D01*
X125117358Y-86190784D01*
X125112066Y-86196076D01*
X125112066Y-86206659D01*
X125106775Y-86211951D01*
X125106775Y-86217243D01*
X125101483Y-86222534D01*
X125101483Y-86227826D01*
X125096191Y-86233117D01*
X125096191Y-86238409D01*
X125090900Y-86243701D01*
X125090900Y-86248992D01*
X125085608Y-86254284D01*
X125085608Y-86259576D01*
X125080317Y-86264867D01*
X125080317Y-86270159D01*
X125075025Y-86275451D01*
X125075025Y-86280742D01*
X125069733Y-86286034D01*
X125069733Y-86291326D01*
X125064442Y-86296618D01*
X125064442Y-86301909D01*
X125053858Y-86312492D01*
X125053858Y-86317784D01*
X125043275Y-86328367D01*
X125043275Y-86333659D01*
X125032691Y-86344242D01*
X125032691Y-86349534D01*
X125016816Y-86365409D01*
X125016816Y-86370701D01*
X124995650Y-86391867D01*
X124995650Y-86397159D01*
X124953316Y-86439492D01*
X124948025Y-86439492D01*
X124921567Y-86465951D01*
X124916275Y-86465951D01*
X124900400Y-86481826D01*
X124895108Y-86481826D01*
X124884525Y-86492409D01*
X124879233Y-86492409D01*
X124868650Y-86502992D01*
X124863358Y-86502992D01*
X124858066Y-86508284D01*
X124852775Y-86508284D01*
X124847483Y-86513576D01*
X124842192Y-86513576D01*
X124836900Y-86518867D01*
X124831608Y-86518867D01*
X124826317Y-86524159D01*
X124821025Y-86524159D01*
X124815733Y-86529451D01*
X124810441Y-86529451D01*
X124805150Y-86534742D01*
X124799858Y-86534742D01*
X124794566Y-86540034D01*
X124783983Y-86540034D01*
X124778691Y-86545326D01*
X124773400Y-86545326D01*
X124768108Y-86550617D01*
X124757525Y-86550617D01*
X124752233Y-86555909D01*
X124741650Y-86555909D01*
X124736358Y-86561201D01*
X124720483Y-86561201D01*
X124715191Y-86566492D01*
X124699316Y-86566492D01*
X124694025Y-86571784D01*
X124672858Y-86571784D01*
X124667567Y-86577076D01*
X124635816Y-86577076D01*
X124630525Y-86582367D01*
X124503525Y-86582367D01*
X124498233Y-86577076D01*
X124466483Y-86577076D01*
X124461191Y-86571784D01*
X124440025Y-86571784D01*
X124434733Y-86566492D01*
X124418858Y-86566492D01*
X124413566Y-86561201D01*
X124397691Y-86561201D01*
X124392400Y-86555909D01*
X124381816Y-86555909D01*
X124376525Y-86550617D01*
X124360650Y-86550617D01*
X124355358Y-86545326D01*
X124350067Y-86545326D01*
X124344775Y-86540034D01*
X124334191Y-86540034D01*
X124328900Y-86534742D01*
X124318316Y-86534742D01*
X124313025Y-86529451D01*
X124302441Y-86529451D01*
X124297150Y-86524159D01*
X124286567Y-86524159D01*
X124281275Y-86518867D01*
X124275983Y-86518867D01*
X124270692Y-86513576D01*
X124265400Y-86513576D01*
X124260108Y-86508284D01*
X124249525Y-86508284D01*
X124244233Y-86502992D01*
X124238941Y-86502992D01*
X124233650Y-86497701D01*
X124228358Y-86497701D01*
X124223066Y-86492409D01*
X124217775Y-86492409D01*
X124212483Y-86487117D01*
X124201900Y-86487117D01*
X124196608Y-86481826D01*
X124191317Y-86481826D01*
X124186025Y-86476534D01*
X124180733Y-86476534D01*
X124175441Y-86471242D01*
X124170150Y-86471242D01*
X124164858Y-86465951D01*
X124159566Y-86465951D01*
X124148983Y-86455368D01*
X124143691Y-86455368D01*
X124138400Y-86450076D01*
X124133108Y-86450076D01*
X124127817Y-86444784D01*
X124122525Y-86444784D01*
X124117233Y-86439492D01*
X124111942Y-86439492D01*
X124106650Y-86434201D01*
X124101358Y-86434201D01*
X124096067Y-86428909D01*
X124090775Y-86428909D01*
X124085483Y-86423617D01*
X124080191Y-86423617D01*
X124074900Y-86418326D01*
X124069608Y-86418326D01*
X124059025Y-86407742D01*
X124048442Y-86407742D01*
X124037858Y-86397159D01*
X124032567Y-86397159D01*
X124027275Y-86391867D01*
X124021983Y-86391867D01*
X124016692Y-86386576D01*
X124011400Y-86386576D01*
X124000816Y-86375993D01*
X123995525Y-86375993D01*
X123990233Y-86370701D01*
X123984941Y-86370701D01*
X123979650Y-86365409D01*
X123974358Y-86365409D01*
X123969067Y-86360117D01*
X123963775Y-86360117D01*
X123953192Y-86349534D01*
X123947900Y-86349534D01*
X123937317Y-86338951D01*
X123932025Y-86338951D01*
X123926733Y-86333659D01*
X123921441Y-86333659D01*
X123910858Y-86323076D01*
X123905566Y-86323076D01*
X123900275Y-86317784D01*
X123894983Y-86317784D01*
X123884400Y-86307201D01*
X123879108Y-86307201D01*
X123873817Y-86301909D01*
X123868525Y-86301909D01*
X123857942Y-86291326D01*
X123852650Y-86291326D01*
X123847358Y-86286034D01*
X123842066Y-86286034D01*
X123836775Y-86280742D01*
X123831483Y-86280742D01*
X123820900Y-86270159D01*
X123815608Y-86270159D01*
X123810317Y-86264867D01*
X123805025Y-86264867D01*
X123794442Y-86254284D01*
X123789150Y-86254284D01*
X123783858Y-86248992D01*
X123778567Y-86248992D01*
X123767983Y-86238409D01*
X123762691Y-86238409D01*
X123757400Y-86233117D01*
X123752108Y-86233117D01*
X123741525Y-86222534D01*
X123736233Y-86222534D01*
X123730942Y-86217243D01*
X123725650Y-86217243D01*
X123715067Y-86206659D01*
X123709775Y-86206659D01*
X123704483Y-86201367D01*
X123699192Y-86201367D01*
X123693900Y-86196076D01*
X123688608Y-86196076D01*
X123678025Y-86185492D01*
X123672733Y-86185492D01*
X123662150Y-86174909D01*
X123656858Y-86174909D01*
X123646275Y-86164326D01*
X123635692Y-86164326D01*
X123625108Y-86153743D01*
X123619817Y-86153743D01*
X123614525Y-86148451D01*
X123609233Y-86148451D01*
X123598650Y-86137867D01*
X123593358Y-86137867D01*
X123588066Y-86132576D01*
X123582775Y-86132576D01*
X123577483Y-86127284D01*
X123572192Y-86127284D01*
X123566900Y-86121992D01*
X123561608Y-86121992D01*
X123551025Y-86111409D01*
X123545733Y-86111409D01*
X123540442Y-86106117D01*
X123535150Y-86106117D01*
X123529858Y-86100826D01*
X123524566Y-86100826D01*
X123513983Y-86090243D01*
X123508691Y-86090243D01*
X123503400Y-86084951D01*
X123498108Y-86084951D01*
X123492817Y-86079659D01*
X123487525Y-86079659D01*
X123476942Y-86069076D01*
X123471650Y-86069076D01*
X123466358Y-86063784D01*
X123461067Y-86063784D01*
X123455775Y-86058492D01*
X123450483Y-86058492D01*
X123439900Y-86047909D01*
X123434608Y-86047909D01*
X123429316Y-86042617D01*
X123424025Y-86042617D01*
X123418733Y-86037326D01*
X123413442Y-86037326D01*
X123402858Y-86026742D01*
X123397567Y-86026742D01*
X123392275Y-86021451D01*
X123386983Y-86021451D01*
X123381692Y-86016159D01*
X123376400Y-86016159D01*
X123365816Y-86005576D01*
X123360525Y-86005576D01*
X123355233Y-86000284D01*
X123349941Y-86000284D01*
X123339358Y-85989701D01*
X123334067Y-85989701D01*
X123328775Y-85984409D01*
X123323483Y-85984409D01*
X123318192Y-85979117D01*
X123312900Y-85979117D01*
X123302317Y-85968534D01*
X123297025Y-85968534D01*
X123291733Y-85963242D01*
X123286441Y-85963242D01*
X123275858Y-85952659D01*
X123270566Y-85952659D01*
X123259983Y-85942076D01*
X123254692Y-85942076D01*
X123249400Y-85936784D01*
X123244108Y-85936784D01*
X123233525Y-85926201D01*
X123228233Y-85926201D01*
X123222942Y-85920909D01*
X123217650Y-85920909D01*
X123207066Y-85910326D01*
X123201775Y-85910326D01*
X123196483Y-85905034D01*
X123191191Y-85905034D01*
X123175317Y-85889159D01*
X123164733Y-85889159D01*
X123159442Y-85883867D01*
X123154150Y-85883867D01*
X123143567Y-85873284D01*
X123138275Y-85873284D01*
X123132983Y-85867992D01*
X123127691Y-85867992D01*
X123122400Y-85862701D01*
X123111816Y-85862701D01*
X123106525Y-85857409D01*
X123095942Y-85857409D01*
X123090650Y-85852118D01*
X123080067Y-85852118D01*
X123074775Y-85846826D01*
X123064192Y-85846826D01*
X123058900Y-85841534D01*
X123048316Y-85841534D01*
X123043025Y-85836243D01*
X123032442Y-85836243D01*
X123027150Y-85830951D01*
X123011275Y-85830951D01*
X123005983Y-85825659D01*
X122990108Y-85825659D01*
X122984816Y-85820367D01*
X122968942Y-85820367D01*
X122963650Y-85815076D01*
X122942483Y-85815076D01*
X122937192Y-85809784D01*
X122910733Y-85809784D01*
X122905441Y-85804492D01*
X122863108Y-85804492D01*
X122857817Y-85799201D01*
X122751983Y-85799201D01*
X122746691Y-85804492D01*
X122688483Y-85804492D01*
X122683192Y-85809784D01*
X122646150Y-85809784D01*
X122640858Y-85815076D01*
X122635567Y-85809784D01*
X122630275Y-85815076D01*
X122582650Y-85815076D01*
X122577358Y-85820367D01*
X122572067Y-85820367D01*
X122566775Y-85815076D01*
X122561483Y-85820367D01*
X122503275Y-85820367D01*
X122497983Y-85825659D01*
X122455650Y-85825659D01*
X122450358Y-85830951D01*
X122423900Y-85830951D01*
X122418608Y-85836243D01*
X122392150Y-85836243D01*
X122386858Y-85841534D01*
X122365692Y-85841534D01*
X122360400Y-85846826D01*
X122339233Y-85846826D01*
X122333942Y-85852118D01*
X122312775Y-85852118D01*
X122307483Y-85857409D01*
X122281025Y-85857409D01*
X122275733Y-85862701D01*
X122249275Y-85862701D01*
X122243983Y-85867992D01*
X122217525Y-85867992D01*
X122212233Y-85873284D01*
X122191067Y-85873284D01*
X122185775Y-85878576D01*
X122164608Y-85878576D01*
X122159317Y-85883867D01*
X122132858Y-85883867D01*
X122127567Y-85889159D01*
X122106400Y-85889159D01*
X122101108Y-85894451D01*
X122074650Y-85894451D01*
X122069358Y-85899742D01*
X122037608Y-85899742D01*
X122032317Y-85905034D01*
X122005858Y-85905034D01*
X122000567Y-85910326D01*
X121968817Y-85910326D01*
X121963525Y-85915618D01*
X121942358Y-85915618D01*
X121937067Y-85920909D01*
X121915900Y-85920909D01*
X121910608Y-85926201D01*
X121884150Y-85926201D01*
X121878858Y-85931493D01*
X121857692Y-85931493D01*
X121852400Y-85936784D01*
X121825942Y-85936784D01*
X121820650Y-85942076D01*
X121799483Y-85942076D01*
X121794192Y-85947367D01*
X121767733Y-85947367D01*
X121762442Y-85952659D01*
X121735983Y-85952659D01*
X121730692Y-85957951D01*
X121709525Y-85957951D01*
X121704233Y-85963242D01*
X121677775Y-85963242D01*
X121672483Y-85968534D01*
X121646025Y-85968534D01*
X121640733Y-85973826D01*
X121614275Y-85973826D01*
X121608983Y-85979117D01*
X121582525Y-85979117D01*
X121577233Y-85984409D01*
X121550775Y-85984409D01*
X121545483Y-85989701D01*
X121513733Y-85989701D01*
X121508442Y-85994993D01*
X121476692Y-85994993D01*
X121471400Y-86000284D01*
X121423775Y-86000284D01*
X121418483Y-86005576D01*
X121392025Y-86005576D01*
X121386733Y-86010868D01*
X121360275Y-86010868D01*
X121354983Y-86016159D01*
X121328525Y-86016159D01*
X121323233Y-86021451D01*
X121296775Y-86021451D01*
X121291483Y-86026742D01*
X121265025Y-86026742D01*
X121259733Y-86032034D01*
X121233275Y-86032034D01*
X121227983Y-86037326D01*
X121201525Y-86037326D01*
X121196233Y-86042617D01*
X121169775Y-86042617D01*
X121164483Y-86047909D01*
X121138025Y-86047909D01*
X121132733Y-86053201D01*
X121100983Y-86053201D01*
X121095692Y-86058492D01*
X121069233Y-86058492D01*
X121063942Y-86063784D01*
X121037483Y-86063784D01*
X121032192Y-86069076D01*
X121000442Y-86069076D01*
X120995150Y-86063784D01*
X120989858Y-86063784D01*
X120984567Y-86058492D01*
X120979275Y-86058492D01*
X120963400Y-86042617D01*
X120963400Y-86037326D01*
X120958108Y-86032034D01*
X120958108Y-86026742D01*
X120952817Y-86021451D01*
X120952817Y-86005576D01*
X120947525Y-86000284D01*
X120947525Y-85968534D01*
X120942233Y-85963242D01*
X120942233Y-85931493D01*
X120936942Y-85926201D01*
X120936942Y-85894451D01*
X120931650Y-85889159D01*
X120931650Y-85852118D01*
X120926358Y-85846826D01*
X120926358Y-85815076D01*
X120921067Y-85809784D01*
X120921067Y-85778034D01*
X120915775Y-85772743D01*
X120915775Y-85735701D01*
X120910483Y-85730409D01*
X120910483Y-85693368D01*
X120905192Y-85688076D01*
X120905192Y-85656326D01*
X120899900Y-85651034D01*
X120899900Y-85608701D01*
X120894608Y-85603409D01*
X120894608Y-85571659D01*
X120889317Y-85566367D01*
X120889317Y-85529326D01*
X120884025Y-85524034D01*
X120884025Y-85486992D01*
X120878733Y-85481701D01*
X120878733Y-85449951D01*
X120873442Y-85444659D01*
X120873442Y-85412909D01*
X120868150Y-85407617D01*
X120868150Y-85370576D01*
X120862858Y-85365284D01*
X120862858Y-85333534D01*
X120857567Y-85328242D01*
X120857567Y-85291201D01*
X120852275Y-85285909D01*
X120852275Y-85254159D01*
X120846983Y-85248867D01*
X120846983Y-85217118D01*
X120841692Y-85211826D01*
X120841692Y-85180076D01*
X120836400Y-85174784D01*
X120836400Y-85143034D01*
X120831108Y-85137743D01*
X120831108Y-85095409D01*
X120825817Y-85090117D01*
X120825817Y-85053076D01*
X120820525Y-85047784D01*
X120820525Y-85010742D01*
X120815233Y-85005451D01*
X120815233Y-84968409D01*
X120809942Y-84963118D01*
X120809942Y-84920784D01*
X120815233Y-84915492D01*
X120815233Y-84904909D01*
X120820525Y-84899618D01*
X120820525Y-84894326D01*
X120841692Y-84873159D01*
X120852275Y-84873159D01*
X120857567Y-84867868D01*
X120868150Y-84867868D01*
X120873442Y-84862576D01*
X120905192Y-84862576D01*
X120910483Y-84857284D01*
X120936942Y-84857284D01*
X120942233Y-84851992D01*
X120973983Y-84851992D01*
X120979275Y-84846701D01*
X121005733Y-84846701D01*
X121011025Y-84841409D01*
X121037483Y-84841409D01*
X121042775Y-84836117D01*
X121069233Y-84836117D01*
X121074525Y-84830826D01*
X121106275Y-84830826D01*
X121111567Y-84825534D01*
X121138025Y-84825534D01*
X121143317Y-84820243D01*
X121175067Y-84820243D01*
X121180358Y-84814951D01*
X121206817Y-84814951D01*
X121212108Y-84809659D01*
X121238567Y-84809659D01*
X121243858Y-84804368D01*
X121270317Y-84804368D01*
X121275608Y-84799076D01*
X121302067Y-84799076D01*
X121307358Y-84793784D01*
X121333817Y-84793784D01*
X121339108Y-84788493D01*
X121365567Y-84788493D01*
X121370858Y-84783201D01*
X121402608Y-84783201D01*
X121407900Y-84777909D01*
X121434358Y-84777909D01*
X121439650Y-84772617D01*
X121476692Y-84772617D01*
X121481983Y-84767326D01*
X121513733Y-84767326D01*
X121519025Y-84762034D01*
X121550775Y-84762034D01*
X121556067Y-84756742D01*
X121582525Y-84756742D01*
X121587817Y-84751451D01*
X121614275Y-84751451D01*
X121619567Y-84746159D01*
X121651317Y-84746159D01*
X121656608Y-84740868D01*
X121688358Y-84740868D01*
X121693650Y-84735576D01*
X121720108Y-84735576D01*
X121725400Y-84730284D01*
X121746567Y-84730284D01*
X121751858Y-84724993D01*
X121773025Y-84724993D01*
X121778317Y-84719701D01*
X121804775Y-84719701D01*
X121810067Y-84714409D01*
X121836525Y-84714409D01*
X121841817Y-84709118D01*
X121868275Y-84709118D01*
X121873567Y-84703826D01*
X121905317Y-84703826D01*
X121910608Y-84698534D01*
X121942358Y-84698534D01*
X121947650Y-84693242D01*
X121968817Y-84693242D01*
X121974108Y-84687951D01*
X122005858Y-84687951D01*
X122011150Y-84682659D01*
X122048192Y-84682659D01*
X122053483Y-84677367D01*
X122079942Y-84677367D01*
X122085233Y-84672076D01*
X122122275Y-84672076D01*
X122127567Y-84666784D01*
X122159317Y-84666784D01*
X122164608Y-84661493D01*
X122196358Y-84661493D01*
X122201650Y-84656201D01*
X122233400Y-84656201D01*
X122238692Y-84650909D01*
X122265150Y-84650909D01*
X122270442Y-84645618D01*
X122291608Y-84645618D01*
X122296900Y-84640326D01*
X122318067Y-84640326D01*
X122323358Y-84635034D01*
X122339233Y-84635034D01*
X122344525Y-84629743D01*
X122360400Y-84629743D01*
X122365692Y-84624451D01*
X122381567Y-84624451D01*
X122386858Y-84619159D01*
X122402733Y-84619159D01*
X122408025Y-84613867D01*
X122429192Y-84613867D01*
X122434483Y-84608576D01*
X122450358Y-84608576D01*
X122455650Y-84603284D01*
X122471525Y-84603284D01*
X122476817Y-84597992D01*
X122492692Y-84597992D01*
X122497983Y-84592701D01*
X122519150Y-84592701D01*
X122524442Y-84587409D01*
X122540317Y-84587409D01*
X122545608Y-84582118D01*
X122556192Y-84582118D01*
X122561483Y-84576826D01*
X122572067Y-84576826D01*
X122577358Y-84571534D01*
X122582650Y-84571534D01*
X122587942Y-84566243D01*
X122593233Y-84571534D01*
X122603817Y-84560951D01*
X122609108Y-84560951D01*
X122614400Y-84555659D01*
X122624983Y-84555659D01*
X122630275Y-84550368D01*
X122635567Y-84550368D01*
X122640858Y-84545076D01*
X122646150Y-84545076D01*
X122651442Y-84539784D01*
X122656733Y-84539784D01*
X122662025Y-84534492D01*
X122672608Y-84534492D01*
X122677900Y-84529201D01*
X122683192Y-84529201D01*
X122688483Y-84523909D01*
X122693775Y-84523909D01*
X122699067Y-84518617D01*
X122704358Y-84518617D01*
X122709650Y-84513326D01*
X122714942Y-84513326D01*
X122725525Y-84502743D01*
X122730817Y-84502743D01*
X122741400Y-84492159D01*
X122746691Y-84492159D01*
X122757275Y-84481576D01*
X122762567Y-84481576D01*
X122773150Y-84470993D01*
X122778442Y-84470993D01*
X122794317Y-84455117D01*
X122799608Y-84455117D01*
X122810192Y-84444534D01*
X122815483Y-84444534D01*
X122831358Y-84428659D01*
X122836650Y-84428659D01*
X122847233Y-84418076D01*
X122852525Y-84418076D01*
X122863108Y-84407493D01*
X122868400Y-84407493D01*
X122884275Y-84391618D01*
X122889567Y-84391618D01*
X122900150Y-84381034D01*
X122905441Y-84381034D01*
X122921317Y-84365159D01*
X122926608Y-84365159D01*
X122937192Y-84354576D01*
X122942483Y-84354576D01*
X122953067Y-84343993D01*
X122958358Y-84343993D01*
X122968942Y-84333409D01*
X122974233Y-84333409D01*
X122979525Y-84328118D01*
X122984816Y-84328118D01*
X122990108Y-84322826D01*
X122995400Y-84322826D01*
X123005983Y-84312243D01*
X123016567Y-84312243D01*
X123021858Y-84306951D01*
X123027150Y-84306951D01*
X123032442Y-84301659D01*
X123037733Y-84301659D01*
X123043025Y-84296367D01*
X123048316Y-84296367D01*
X123053608Y-84291076D01*
X123064192Y-84291076D01*
X123069483Y-84285784D01*
X123080067Y-84285784D01*
X123085358Y-84280492D01*
X123101233Y-84280492D01*
X123106525Y-84275201D01*
X123122400Y-84275201D01*
X123127691Y-84269909D01*
X123164733Y-84269909D01*
X123170025Y-84264618D01*
X123228233Y-84264618D01*
X123233525Y-84269909D01*
D10*
G36*
X121899183Y-85325997D02*
G01*
X121913370Y-85327076D01*
X121927351Y-85328852D01*
X121941109Y-85331309D01*
X121954625Y-85334428D01*
X121967882Y-85338193D01*
X121980862Y-85342585D01*
X121993549Y-85347587D01*
X122005923Y-85353182D01*
X122017969Y-85359351D01*
X122029668Y-85366078D01*
X122041003Y-85373344D01*
X122051956Y-85381133D01*
X122062509Y-85389427D01*
X122072646Y-85398207D01*
X122082348Y-85407457D01*
X122091598Y-85417160D01*
X122100379Y-85427296D01*
X122108672Y-85437850D01*
X122116461Y-85448803D01*
X122123728Y-85460138D01*
X122130455Y-85471837D01*
X122136624Y-85483882D01*
X122142219Y-85496257D01*
X122147221Y-85508944D01*
X122151613Y-85521924D01*
X122155377Y-85535181D01*
X122158497Y-85548697D01*
X122160954Y-85562454D01*
X122162730Y-85576435D01*
X122163809Y-85590623D01*
X122164173Y-85604999D01*
X122163809Y-85619375D01*
X122162730Y-85633562D01*
X122160954Y-85647543D01*
X122158497Y-85661301D01*
X122155377Y-85674817D01*
X122151613Y-85688074D01*
X122147221Y-85701054D01*
X122142219Y-85713741D01*
X122136624Y-85726115D01*
X122130455Y-85738161D01*
X122123728Y-85749860D01*
X122116461Y-85761195D01*
X122108672Y-85772148D01*
X122100379Y-85782701D01*
X122091598Y-85792838D01*
X122082348Y-85802540D01*
X122072646Y-85811790D01*
X122062509Y-85820571D01*
X122051956Y-85828864D01*
X122041003Y-85836653D01*
X122029668Y-85843920D01*
X122017969Y-85850647D01*
X122005923Y-85856816D01*
X121993549Y-85862411D01*
X121980862Y-85867413D01*
X121967882Y-85871805D01*
X121954625Y-85875569D01*
X121941109Y-85878689D01*
X121927351Y-85881146D01*
X121913370Y-85882922D01*
X121899183Y-85884001D01*
X121884807Y-85884365D01*
X121870431Y-85884001D01*
X121856243Y-85882922D01*
X121842262Y-85881146D01*
X121828505Y-85878689D01*
X121814989Y-85875569D01*
X121801732Y-85871805D01*
X121788752Y-85867413D01*
X121776065Y-85862411D01*
X121763690Y-85856816D01*
X121751645Y-85850647D01*
X121739946Y-85843920D01*
X121728611Y-85836653D01*
X121717658Y-85828864D01*
X121707104Y-85820571D01*
X121696968Y-85811790D01*
X121687266Y-85802540D01*
X121678015Y-85792838D01*
X121669235Y-85782701D01*
X121660941Y-85772148D01*
X121653152Y-85761195D01*
X121645886Y-85749860D01*
X121639159Y-85738161D01*
X121632990Y-85726115D01*
X121627395Y-85713741D01*
X121622393Y-85701054D01*
X121618001Y-85688074D01*
X121614236Y-85674817D01*
X121611117Y-85661301D01*
X121608660Y-85647543D01*
X121606884Y-85633562D01*
X121605805Y-85619375D01*
X121605441Y-85604999D01*
X121605805Y-85590623D01*
X121606884Y-85576435D01*
X121608660Y-85562454D01*
X121611117Y-85548697D01*
X121614236Y-85535181D01*
X121618001Y-85521924D01*
X121622393Y-85508944D01*
X121627395Y-85496257D01*
X121632990Y-85483882D01*
X121639159Y-85471837D01*
X121645886Y-85460138D01*
X121653152Y-85448803D01*
X121660941Y-85437850D01*
X121669235Y-85427296D01*
X121678015Y-85417160D01*
X121687266Y-85407457D01*
X121696968Y-85398207D01*
X121707104Y-85389427D01*
X121717658Y-85381133D01*
X121728611Y-85373344D01*
X121739946Y-85366078D01*
X121751645Y-85359351D01*
X121763690Y-85353182D01*
X121776065Y-85347587D01*
X121788752Y-85342585D01*
X121801732Y-85338193D01*
X121814989Y-85334428D01*
X121828505Y-85331309D01*
X121842262Y-85328852D01*
X121856243Y-85327076D01*
X121870431Y-85325997D01*
X121884807Y-85325633D01*
X121899183Y-85325997D01*
G37*
G36*
X121251611Y-84932105D02*
G01*
X121265798Y-84933184D01*
X121279779Y-84934961D01*
X121293537Y-84937418D01*
X121307052Y-84940537D01*
X121320309Y-84944302D01*
X121333290Y-84948694D01*
X121345976Y-84953696D01*
X121358351Y-84959290D01*
X121370397Y-84965460D01*
X121382096Y-84972187D01*
X121393431Y-84979453D01*
X121404384Y-84987242D01*
X121414937Y-84995535D01*
X121425074Y-85004316D01*
X121434776Y-85013566D01*
X121444026Y-85023268D01*
X121452807Y-85033405D01*
X121461100Y-85043959D01*
X121468889Y-85054912D01*
X121476156Y-85066246D01*
X121482882Y-85077945D01*
X121489052Y-85089991D01*
X121494646Y-85102366D01*
X121499648Y-85115052D01*
X121504041Y-85128033D01*
X121507805Y-85141290D01*
X121510925Y-85154806D01*
X121513381Y-85168563D01*
X121515158Y-85182544D01*
X121516237Y-85196731D01*
X121516600Y-85211107D01*
X121516237Y-85225484D01*
X121515158Y-85239671D01*
X121513381Y-85253652D01*
X121510925Y-85267409D01*
X121507805Y-85280925D01*
X121504041Y-85294182D01*
X121499648Y-85307163D01*
X121494646Y-85319849D01*
X121489052Y-85332224D01*
X121482882Y-85344270D01*
X121476156Y-85355969D01*
X121468889Y-85367304D01*
X121461100Y-85378256D01*
X121452807Y-85388810D01*
X121444026Y-85398947D01*
X121434776Y-85408649D01*
X121425074Y-85417899D01*
X121414937Y-85426680D01*
X121404384Y-85434973D01*
X121393431Y-85442762D01*
X121382096Y-85450029D01*
X121370397Y-85456755D01*
X121358351Y-85462925D01*
X121345976Y-85468519D01*
X121333290Y-85473521D01*
X121320309Y-85477914D01*
X121307052Y-85481678D01*
X121293537Y-85484798D01*
X121279779Y-85487254D01*
X121265798Y-85489031D01*
X121251611Y-85490110D01*
X121237235Y-85490473D01*
X121222858Y-85490110D01*
X121208671Y-85489031D01*
X121194690Y-85487254D01*
X121180933Y-85484798D01*
X121167417Y-85481678D01*
X121154160Y-85477914D01*
X121141179Y-85473521D01*
X121128493Y-85468519D01*
X121116118Y-85462925D01*
X121104072Y-85456755D01*
X121092373Y-85450029D01*
X121081039Y-85442762D01*
X121070086Y-85434973D01*
X121059532Y-85426680D01*
X121049395Y-85417899D01*
X121039693Y-85408649D01*
X121030443Y-85398947D01*
X121021662Y-85388810D01*
X121013369Y-85378256D01*
X121005580Y-85367304D01*
X120998314Y-85355969D01*
X120991587Y-85344270D01*
X120985417Y-85332224D01*
X120979823Y-85319849D01*
X120974821Y-85307163D01*
X120970429Y-85294182D01*
X120966664Y-85280925D01*
X120963545Y-85267409D01*
X120961088Y-85253652D01*
X120959311Y-85239671D01*
X120958232Y-85225484D01*
X120957869Y-85211107D01*
X120958232Y-85196731D01*
X120959311Y-85182544D01*
X120961088Y-85168563D01*
X120963545Y-85154806D01*
X120966664Y-85141290D01*
X120970429Y-85128033D01*
X120974821Y-85115052D01*
X120979823Y-85102366D01*
X120985417Y-85089991D01*
X120991587Y-85077945D01*
X120998314Y-85066246D01*
X121005580Y-85054912D01*
X121013369Y-85043959D01*
X121021662Y-85033405D01*
X121030443Y-85023268D01*
X121039693Y-85013566D01*
X121049395Y-85004316D01*
X121059532Y-84995535D01*
X121070086Y-84987242D01*
X121081039Y-84979453D01*
X121092373Y-84972187D01*
X121104072Y-84965460D01*
X121116118Y-84959290D01*
X121128493Y-84953696D01*
X121141179Y-84948694D01*
X121154160Y-84944302D01*
X121167417Y-84940537D01*
X121180933Y-84937418D01*
X121194690Y-84934961D01*
X121208671Y-84933184D01*
X121222858Y-84932105D01*
X121237235Y-84931742D01*
X121251611Y-84932105D01*
G37*
D12*
X121016317Y-86254284D02*
X121048067Y-86254284D01*
X121053358Y-86259576D01*
X121085108Y-86259576D01*
X121090400Y-86264867D01*
X121122150Y-86264867D01*
X121127442Y-86270159D01*
X121159192Y-86270159D01*
X121164483Y-86275451D01*
X121196233Y-86275451D01*
X121201525Y-86280742D01*
X121233275Y-86280742D01*
X121238567Y-86286034D01*
X121270317Y-86286034D01*
X121275608Y-86291326D01*
X121307358Y-86291326D01*
X121312650Y-86296618D01*
X121339108Y-86296618D01*
X121344400Y-86301909D01*
X121376150Y-86301909D01*
X121381442Y-86307201D01*
X121402608Y-86307201D01*
X121407900Y-86312492D01*
X121444942Y-86312492D01*
X121450233Y-86317784D01*
X121481983Y-86317784D01*
X121487275Y-86323076D01*
X121519025Y-86323076D01*
X121524317Y-86328367D01*
X121556067Y-86328367D01*
X121561358Y-86333659D01*
X121598400Y-86333659D01*
X121603692Y-86338951D01*
X121646025Y-86338951D01*
X121651317Y-86344242D01*
X121693650Y-86344242D01*
X121698942Y-86349534D01*
X121741275Y-86349534D01*
X121746567Y-86354826D01*
X121778317Y-86354826D01*
X121783608Y-86360117D01*
X121825942Y-86360117D01*
X121831233Y-86365409D01*
X121868275Y-86365409D01*
X121873567Y-86370701D01*
X121910608Y-86370701D01*
X121915900Y-86375993D01*
X121947650Y-86375993D01*
X121952942Y-86381284D01*
X121989983Y-86381284D01*
X121995275Y-86386576D01*
X122032317Y-86386576D01*
X122037608Y-86391867D01*
X122074650Y-86391867D01*
X122079942Y-86397159D01*
X122116983Y-86397159D01*
X122122275Y-86402451D01*
X122154025Y-86402451D01*
X122159317Y-86407742D01*
X122185775Y-86407742D01*
X122191067Y-86413034D01*
X122228108Y-86413034D01*
X122233400Y-86418326D01*
X122275733Y-86418326D01*
X122281025Y-86423617D01*
X122312775Y-86423617D01*
X122318067Y-86428909D01*
X122349817Y-86428909D01*
X122355108Y-86434201D01*
X122402733Y-86434201D01*
X122408025Y-86439492D01*
X122434483Y-86439492D01*
X122439775Y-86444784D01*
X122471525Y-86444784D01*
X122476817Y-86450076D01*
X122513858Y-86450076D01*
X122519150Y-86455368D01*
X122535025Y-86455368D01*
X122540317Y-86460659D01*
X122545608Y-86455368D01*
X122550900Y-86455368D01*
X122556192Y-86460659D01*
X122603817Y-86460659D01*
X122609108Y-86465951D01*
X122751983Y-86465951D01*
X122757275Y-86460659D01*
X122804900Y-86460659D01*
X122810192Y-86455368D01*
X122847233Y-86455368D01*
X122852525Y-86450076D01*
X122878983Y-86450076D01*
X122884275Y-86444784D01*
X122910733Y-86444784D01*
X122916025Y-86439492D01*
X122931900Y-86439492D01*
X122937192Y-86434201D01*
X122953067Y-86434201D01*
X122958358Y-86428909D01*
X122974233Y-86428909D01*
X122979525Y-86423617D01*
X122995400Y-86423617D01*
X123000692Y-86418326D01*
X123016567Y-86418326D01*
X123021858Y-86413034D01*
X123037733Y-86413034D01*
X123043025Y-86407742D01*
X123058900Y-86407742D01*
X123064192Y-86402451D01*
X123080067Y-86402451D01*
X123085358Y-86397159D01*
X123101233Y-86397159D01*
X123106525Y-86391867D01*
X123127691Y-86391867D01*
X123132983Y-86386576D01*
X123154150Y-86386576D01*
X123159442Y-86381284D01*
X123185900Y-86381284D01*
X123191191Y-86375993D01*
X123217650Y-86375993D01*
X123222942Y-86370701D01*
X123339358Y-86370701D01*
X123344650Y-86375993D01*
X123365816Y-86375993D01*
X123371108Y-86381284D01*
X123386983Y-86381284D01*
X123392275Y-86386576D01*
X123402858Y-86386576D01*
X123408150Y-86391867D01*
X123418733Y-86391867D01*
X123424025Y-86397159D01*
X123434608Y-86397159D01*
X123439900Y-86402451D01*
X123445191Y-86402451D01*
X123450483Y-86407742D01*
X123461067Y-86407742D01*
X123466358Y-86413034D01*
X123471650Y-86413034D01*
X123476942Y-86418326D01*
X123482233Y-86418326D01*
X123492817Y-86428909D01*
X123498108Y-86428909D01*
X123503400Y-86434201D01*
X123508691Y-86434201D01*
X123513983Y-86439492D01*
X123519275Y-86439492D01*
X123529858Y-86450076D01*
X123535150Y-86450076D01*
X123561608Y-86476534D01*
X123566900Y-86476534D01*
X123566900Y-86481826D01*
X123630400Y-86545326D01*
X123630400Y-86550617D01*
X123662150Y-86582367D01*
X123662150Y-86587659D01*
X123683316Y-86608826D01*
X123683316Y-86614117D01*
X123699192Y-86629992D01*
X123699192Y-86635284D01*
X123709775Y-86645867D01*
X123709775Y-86651159D01*
X123725650Y-86667034D01*
X123725650Y-86672326D01*
X123736233Y-86682909D01*
X123736233Y-86688201D01*
X123746816Y-86698784D01*
X123746816Y-86704076D01*
X123762691Y-86719951D01*
X123762691Y-86725242D01*
X123773275Y-86735826D01*
X123773275Y-86741117D01*
X123783858Y-86751701D01*
X123783858Y-86756992D01*
X123789150Y-86762284D01*
X123789150Y-86767576D01*
X123799733Y-86778159D01*
X123799733Y-86783451D01*
X123805025Y-86788742D01*
X123805025Y-86794034D01*
X123815608Y-86804617D01*
X123815608Y-86809909D01*
X123831483Y-86825784D01*
X123831483Y-86831076D01*
X123847358Y-86846951D01*
X123847358Y-86852242D01*
X123863233Y-86868117D01*
X123863233Y-86873409D01*
X123884400Y-86894576D01*
X123884400Y-86899867D01*
X123969067Y-86984534D01*
X123974358Y-86984534D01*
X124000816Y-87010992D01*
X124006108Y-87010992D01*
X124021983Y-87026867D01*
X124027275Y-87026867D01*
X124032567Y-87032159D01*
X124037858Y-87032159D01*
X124048442Y-87042742D01*
X124053733Y-87042742D01*
X124064316Y-87053326D01*
X124069608Y-87053326D01*
X124080191Y-87063909D01*
X124085483Y-87063909D01*
X124101358Y-87079784D01*
X124106650Y-87079784D01*
X124117233Y-87090367D01*
X124122525Y-87090367D01*
X124133108Y-87100951D01*
X124138400Y-87100951D01*
X124148983Y-87111534D01*
X124154275Y-87111534D01*
X124164858Y-87122117D01*
X124170150Y-87122117D01*
X124180733Y-87132701D01*
X124186025Y-87132701D01*
X124196608Y-87143284D01*
X124201900Y-87143284D01*
X124207192Y-87148576D01*
X124212483Y-87148576D01*
X124223066Y-87159159D01*
X124228358Y-87159159D01*
X124244233Y-87175034D01*
X124249525Y-87175034D01*
X124270692Y-87196201D01*
X124275983Y-87196201D01*
X124286567Y-87206784D01*
X124291858Y-87206784D01*
X124302441Y-87217367D01*
X124307733Y-87217367D01*
X124318316Y-87227951D01*
X124323608Y-87227951D01*
X124334191Y-87238534D01*
X124339483Y-87238534D01*
X124355358Y-87254409D01*
X124360650Y-87254409D01*
X124371233Y-87264992D01*
X124376525Y-87264992D01*
X124392400Y-87280867D01*
X124397691Y-87280867D01*
X124413566Y-87296742D01*
X124418858Y-87296742D01*
X124434733Y-87312617D01*
X124440025Y-87312617D01*
X124455900Y-87328492D01*
X124461191Y-87328492D01*
X124487650Y-87354951D01*
X124492941Y-87354951D01*
X124519400Y-87381409D01*
X124524692Y-87381409D01*
X124561733Y-87418451D01*
X124567025Y-87418451D01*
X124614650Y-87466076D01*
X124619941Y-87466076D01*
X124709900Y-87556034D01*
X124709900Y-87561326D01*
X124725775Y-87577201D01*
X124725775Y-87582492D01*
X124741650Y-87598367D01*
X124741650Y-87603659D01*
X124752233Y-87614242D01*
X124752233Y-87619534D01*
X124762817Y-87630117D01*
X124762817Y-87635409D01*
X124773400Y-87645992D01*
X124773400Y-87651284D01*
X124783983Y-87661867D01*
X124783983Y-87667159D01*
X124794566Y-87677742D01*
X124794566Y-87683034D01*
X124805150Y-87693617D01*
X124805150Y-87698909D01*
X124815733Y-87709492D01*
X124815733Y-87714784D01*
X124821025Y-87720076D01*
X124821025Y-87725367D01*
X124826317Y-87730659D01*
X124826317Y-87735951D01*
X124831608Y-87741242D01*
X124831608Y-87746534D01*
X124836900Y-87751826D01*
X124836900Y-87757117D01*
X124842192Y-87762409D01*
X124842192Y-87767701D01*
X124847483Y-87772992D01*
X124847483Y-87778284D01*
X124852775Y-87783576D01*
X124852775Y-87788867D01*
X124858066Y-87794159D01*
X124858066Y-87799451D01*
X124863358Y-87804742D01*
X124863358Y-87815326D01*
X124868650Y-87820617D01*
X124868650Y-87825909D01*
X124873941Y-87831201D01*
X124873941Y-87836492D01*
X124879233Y-87841784D01*
X124879233Y-87852367D01*
X124884525Y-87857659D01*
X124884525Y-87868242D01*
X124889816Y-87873534D01*
X124889816Y-87884117D01*
X124895108Y-87889409D01*
X124895108Y-87899992D01*
X124900400Y-87905284D01*
X124900400Y-87921159D01*
X124905692Y-87926451D01*
X124905692Y-87937034D01*
X124910983Y-87942326D01*
X124910983Y-87958201D01*
X124916275Y-87963492D01*
X124916275Y-87984659D01*
X124921567Y-87989951D01*
X124921567Y-88011117D01*
X124926858Y-88016409D01*
X124926858Y-88048159D01*
X124932150Y-88053451D01*
X124932150Y-88191034D01*
X124926858Y-88196326D01*
X124926858Y-88222784D01*
X124921567Y-88228076D01*
X124921567Y-88249242D01*
X124916275Y-88254534D01*
X124916275Y-88270409D01*
X124910983Y-88275701D01*
X124910983Y-88286284D01*
X124905692Y-88291576D01*
X124905692Y-88302159D01*
X124900400Y-88307451D01*
X124900400Y-88323326D01*
X124895108Y-88328617D01*
X124895108Y-88333909D01*
X124889816Y-88339201D01*
X124889816Y-88349784D01*
X124884525Y-88355076D01*
X124884525Y-88360367D01*
X124879233Y-88365659D01*
X124879233Y-88370951D01*
X124873941Y-88376242D01*
X124873941Y-88381534D01*
X124868650Y-88386826D01*
X124868650Y-88392117D01*
X124863358Y-88397409D01*
X124863358Y-88402701D01*
X124858066Y-88407992D01*
X124858066Y-88413284D01*
X124852775Y-88418576D01*
X124852775Y-88423867D01*
X124847483Y-88429159D01*
X124847483Y-88434451D01*
X124836900Y-88445034D01*
X124836900Y-88450326D01*
X124826317Y-88460909D01*
X124826317Y-88466201D01*
X124815733Y-88476784D01*
X124815733Y-88482076D01*
X124799858Y-88497951D01*
X124799858Y-88503242D01*
X124725775Y-88577326D01*
X124720483Y-88577326D01*
X124704608Y-88593201D01*
X124699316Y-88593201D01*
X124688733Y-88603784D01*
X124683442Y-88603784D01*
X124672858Y-88614367D01*
X124667567Y-88614367D01*
X124656983Y-88624951D01*
X124651691Y-88624951D01*
X124646400Y-88630242D01*
X124641108Y-88630242D01*
X124630525Y-88640826D01*
X124625233Y-88640826D01*
X124619941Y-88646117D01*
X124614650Y-88646117D01*
X124609358Y-88651409D01*
X124604067Y-88651409D01*
X124598775Y-88656701D01*
X124588192Y-88656701D01*
X124582900Y-88661992D01*
X124577608Y-88661992D01*
X124572316Y-88667284D01*
X124567025Y-88667284D01*
X124561733Y-88672576D01*
X124551150Y-88672576D01*
X124545858Y-88677867D01*
X124535275Y-88677867D01*
X124529983Y-88683159D01*
X124519400Y-88683159D01*
X124514108Y-88688451D01*
X124503525Y-88688451D01*
X124498233Y-88693742D01*
X124482358Y-88693742D01*
X124477066Y-88699034D01*
X124455900Y-88699034D01*
X124450608Y-88704326D01*
X124429442Y-88704326D01*
X124424150Y-88709617D01*
X124376525Y-88709617D01*
X124371233Y-88714909D01*
X124291858Y-88714909D01*
X124286567Y-88709617D01*
X124244233Y-88709617D01*
X124238941Y-88704326D01*
X124212483Y-88704326D01*
X124207192Y-88699034D01*
X124191317Y-88699034D01*
X124186025Y-88693742D01*
X124170150Y-88693742D01*
X124164858Y-88688451D01*
X124148983Y-88688451D01*
X124143691Y-88683159D01*
X124127817Y-88683159D01*
X124122525Y-88677867D01*
X124111942Y-88677867D01*
X124106650Y-88672576D01*
X124096067Y-88672576D01*
X124090775Y-88667284D01*
X124085483Y-88667284D01*
X124080191Y-88661992D01*
X124069608Y-88661992D01*
X124064316Y-88656701D01*
X124059025Y-88656701D01*
X124053733Y-88651409D01*
X124043150Y-88651409D01*
X124037858Y-88646117D01*
X124032567Y-88646117D01*
X124027275Y-88640826D01*
X124016692Y-88640826D01*
X124011400Y-88635534D01*
X124006108Y-88635534D01*
X124000816Y-88630242D01*
X123995525Y-88630242D01*
X123990233Y-88624951D01*
X123979650Y-88624951D01*
X123974358Y-88619659D01*
X123969067Y-88619659D01*
X123963775Y-88614367D01*
X123958483Y-88614367D01*
X123953192Y-88609076D01*
X123947900Y-88609076D01*
X123942608Y-88603784D01*
X123937317Y-88603784D01*
X123932025Y-88598492D01*
X123926733Y-88598492D01*
X123921441Y-88593201D01*
X123916150Y-88593201D01*
X123910858Y-88587909D01*
X123905566Y-88587909D01*
X123900275Y-88582617D01*
X123894983Y-88582617D01*
X123884400Y-88572034D01*
X123879108Y-88572034D01*
X123873817Y-88566742D01*
X123868525Y-88566742D01*
X123857942Y-88556159D01*
X123852650Y-88556159D01*
X123842066Y-88545576D01*
X123836775Y-88545576D01*
X123831483Y-88540284D01*
X123826191Y-88540284D01*
X123815608Y-88529701D01*
X123810317Y-88529701D01*
X123799733Y-88519117D01*
X123794442Y-88519117D01*
X123783858Y-88508534D01*
X123778567Y-88508534D01*
X123767983Y-88497951D01*
X123762691Y-88497951D01*
X123752108Y-88487367D01*
X123746816Y-88487367D01*
X123736233Y-88476784D01*
X123730942Y-88476784D01*
X123720358Y-88466201D01*
X123715067Y-88466201D01*
X123704483Y-88455617D01*
X123699192Y-88455617D01*
X123688608Y-88445034D01*
X123683316Y-88445034D01*
X123672733Y-88434451D01*
X123667441Y-88434451D01*
X123651567Y-88418576D01*
X123646275Y-88418576D01*
X123635692Y-88407992D01*
X123630400Y-88407992D01*
X123619817Y-88397409D01*
X123614525Y-88397409D01*
X123598650Y-88381534D01*
X123593358Y-88381534D01*
X123588066Y-88376242D01*
X123582775Y-88376242D01*
X123566900Y-88360367D01*
X123561608Y-88360367D01*
X123551025Y-88349784D01*
X123545733Y-88349784D01*
X123529858Y-88333909D01*
X123524566Y-88333909D01*
X123513983Y-88323326D01*
X123508691Y-88323326D01*
X123492817Y-88307451D01*
X123487525Y-88307451D01*
X123471650Y-88291576D01*
X123466358Y-88291576D01*
X123455775Y-88280992D01*
X123450483Y-88280992D01*
X123434608Y-88265117D01*
X123429316Y-88265117D01*
X123413442Y-88249242D01*
X123408150Y-88249242D01*
X123392275Y-88233367D01*
X123386983Y-88233367D01*
X123371108Y-88217492D01*
X123365816Y-88217492D01*
X123349941Y-88201617D01*
X123344650Y-88201617D01*
X123328775Y-88185742D01*
X123323483Y-88185742D01*
X123312900Y-88175159D01*
X123307608Y-88175159D01*
X123291733Y-88159284D01*
X123286441Y-88159284D01*
X123270566Y-88143409D01*
X123265275Y-88143409D01*
X123249400Y-88127534D01*
X123244108Y-88127534D01*
X123228233Y-88111659D01*
X123222942Y-88111659D01*
X123207066Y-88095784D01*
X123201775Y-88095784D01*
X123185900Y-88079909D01*
X123180608Y-88079909D01*
X123164733Y-88064034D01*
X123159442Y-88064034D01*
X123143567Y-88048159D01*
X123138275Y-88048159D01*
X123132983Y-88042867D01*
X123127691Y-88042867D01*
X123117108Y-88032284D01*
X123111816Y-88032284D01*
X123095942Y-88016409D01*
X123090650Y-88016409D01*
X123080067Y-88005826D01*
X123074775Y-88005826D01*
X123058900Y-87989951D01*
X123053608Y-87989951D01*
X123043025Y-87979367D01*
X123037733Y-87979367D01*
X123021858Y-87963492D01*
X123016567Y-87963492D01*
X123000692Y-87947617D01*
X122995400Y-87947617D01*
X122984816Y-87937034D01*
X122979525Y-87937034D01*
X122963650Y-87921159D01*
X122958358Y-87921159D01*
X122947775Y-87910576D01*
X122942483Y-87910576D01*
X122931900Y-87899992D01*
X122926608Y-87899992D01*
X122916025Y-87889409D01*
X122910733Y-87889409D01*
X122900150Y-87878826D01*
X122894858Y-87878826D01*
X122884275Y-87868242D01*
X122878983Y-87868242D01*
X122868400Y-87857659D01*
X122863108Y-87857659D01*
X122857817Y-87852367D01*
X122852525Y-87852367D01*
X122841942Y-87841784D01*
X122836650Y-87841784D01*
X122826066Y-87831201D01*
X122820775Y-87831201D01*
X122815483Y-87825909D01*
X122810192Y-87825909D01*
X122804900Y-87820617D01*
X122799608Y-87820617D01*
X122794317Y-87815326D01*
X122789025Y-87815326D01*
X122783733Y-87810034D01*
X122778442Y-87810034D01*
X122767858Y-87799451D01*
X122762567Y-87799451D01*
X122757275Y-87794159D01*
X122751983Y-87794159D01*
X122746691Y-87788867D01*
X122741400Y-87788867D01*
X122736108Y-87783576D01*
X122725525Y-87783576D01*
X122720233Y-87778284D01*
X122714942Y-87778284D01*
X122709650Y-87772992D01*
X122704358Y-87772992D01*
X122699067Y-87767701D01*
X122693775Y-87767701D01*
X122688483Y-87762409D01*
X122683192Y-87762409D01*
X122677900Y-87757117D01*
X122667317Y-87757117D01*
X122662025Y-87751826D01*
X122651442Y-87751826D01*
X122646150Y-87746534D01*
X122640858Y-87746534D01*
X122635567Y-87741242D01*
X122624983Y-87741242D01*
X122619692Y-87735951D01*
X122614400Y-87735951D01*
X122609108Y-87730659D01*
X122598525Y-87730659D01*
X122593233Y-87725367D01*
X122582650Y-87725367D01*
X122577358Y-87720076D01*
X122566775Y-87720076D01*
X122561483Y-87714784D01*
X122545608Y-87714784D01*
X122540317Y-87709492D01*
X122524442Y-87709492D01*
X122519150Y-87704201D01*
X122492692Y-87704201D01*
X122487400Y-87698909D01*
X122466233Y-87698909D01*
X122460942Y-87693617D01*
X122429192Y-87693617D01*
X122423900Y-87688326D01*
X122376275Y-87688326D01*
X122370983Y-87683034D01*
X122333942Y-87683034D01*
X122328650Y-87677742D01*
X122296900Y-87677742D01*
X122291608Y-87672451D01*
X122254567Y-87672451D01*
X122249275Y-87667159D01*
X122222817Y-87667159D01*
X122217525Y-87661867D01*
X122185775Y-87661867D01*
X122180483Y-87656576D01*
X122143442Y-87656576D01*
X122138150Y-87651284D01*
X122111692Y-87651284D01*
X122106400Y-87645992D01*
X122079942Y-87645992D01*
X122074650Y-87640701D01*
X122042900Y-87640701D01*
X122037608Y-87635409D01*
X122005858Y-87635409D01*
X122000567Y-87630117D01*
X121968817Y-87630117D01*
X121963525Y-87624826D01*
X121937067Y-87624826D01*
X121931775Y-87619534D01*
X121905317Y-87619534D01*
X121900025Y-87614242D01*
X121873567Y-87614242D01*
X121868275Y-87608951D01*
X121841817Y-87608951D01*
X121836525Y-87603659D01*
X121810067Y-87603659D01*
X121804775Y-87598367D01*
X121778317Y-87598367D01*
X121773025Y-87593076D01*
X121746567Y-87593076D01*
X121741275Y-87587784D01*
X121714817Y-87587784D01*
X121709525Y-87582492D01*
X121683067Y-87582492D01*
X121677775Y-87577201D01*
X121656608Y-87577201D01*
X121651317Y-87571909D01*
X121624858Y-87571909D01*
X121619567Y-87566617D01*
X121593108Y-87566617D01*
X121587817Y-87561326D01*
X121566650Y-87561326D01*
X121561358Y-87556034D01*
X121529608Y-87556034D01*
X121524317Y-87550742D01*
X121497858Y-87550742D01*
X121492567Y-87545451D01*
X121471400Y-87545451D01*
X121466108Y-87540159D01*
X121439650Y-87540159D01*
X121434358Y-87534867D01*
X121407900Y-87534867D01*
X121402608Y-87529576D01*
X121370858Y-87529576D01*
X121365567Y-87524284D01*
X121344400Y-87524284D01*
X121339108Y-87518992D01*
X121312650Y-87518992D01*
X121307358Y-87513701D01*
X121280900Y-87513701D01*
X121275608Y-87508409D01*
X121243858Y-87508409D01*
X121238567Y-87503117D01*
X121217400Y-87503117D01*
X121212108Y-87497826D01*
X121185650Y-87497826D01*
X121180358Y-87492534D01*
X121153900Y-87492534D01*
X121148608Y-87487242D01*
X121122150Y-87487242D01*
X121116858Y-87481951D01*
X121090400Y-87481951D01*
X121085108Y-87476659D01*
X121058650Y-87476659D01*
X121053358Y-87471367D01*
X121026900Y-87471367D01*
X121021608Y-87466076D01*
X120989858Y-87466076D01*
X120984567Y-87460784D01*
X120958108Y-87460784D01*
X120952817Y-87455492D01*
X120926358Y-87455492D01*
X120921067Y-87450201D01*
X120889317Y-87450201D01*
X120884025Y-87444909D01*
X120857567Y-87444909D01*
X120852275Y-87439617D01*
X120841692Y-87439617D01*
X120836400Y-87434326D01*
X120831108Y-87434326D01*
X120825817Y-87429034D01*
X120820525Y-87429034D01*
X120804650Y-87413159D01*
X120804650Y-87407867D01*
X120799358Y-87402576D01*
X120799358Y-87397284D01*
X120794067Y-87391992D01*
X120794067Y-87323201D01*
X120799358Y-87317909D01*
X120799358Y-87275576D01*
X120804650Y-87270284D01*
X120804650Y-87217367D01*
X120809942Y-87212076D01*
X120809942Y-87164451D01*
X120815233Y-87159159D01*
X120815233Y-87116826D01*
X120820525Y-87111534D01*
X120820525Y-87063909D01*
X120825817Y-87058617D01*
X120825817Y-87010992D01*
X120831108Y-87005701D01*
X120831108Y-86958076D01*
X120836400Y-86952784D01*
X120836400Y-86905159D01*
X120841692Y-86899867D01*
X120841692Y-86857534D01*
X120846983Y-86852242D01*
X120846983Y-86809909D01*
X120852275Y-86804617D01*
X120852275Y-86751701D01*
X120857567Y-86746409D01*
X120857567Y-86704076D01*
X120862858Y-86698784D01*
X120862858Y-86651159D01*
X120868150Y-86645867D01*
X120868150Y-86603534D01*
X120873442Y-86598242D01*
X120873442Y-86550617D01*
X120878733Y-86545326D01*
X120878733Y-86502992D01*
X120884025Y-86497701D01*
X120884025Y-86450076D01*
X120889317Y-86444784D01*
X120889317Y-86397159D01*
X120894608Y-86391867D01*
X120894608Y-86349534D01*
X120899900Y-86344242D01*
X120899900Y-86307201D01*
X120905192Y-86301909D01*
X120905192Y-86291326D01*
X120910483Y-86286034D01*
X120910483Y-86280742D01*
X120931650Y-86259576D01*
X120936942Y-86259576D01*
X120942233Y-86254284D01*
X120947525Y-86254284D01*
X120952817Y-86248992D01*
X121011025Y-86248992D01*
X121016317Y-86254284D01*
G36*
X121016317Y-86254284D02*
G01*
X121048067Y-86254284D01*
X121053358Y-86259576D01*
X121085108Y-86259576D01*
X121090400Y-86264867D01*
X121122150Y-86264867D01*
X121127442Y-86270159D01*
X121159192Y-86270159D01*
X121164483Y-86275451D01*
X121196233Y-86275451D01*
X121201525Y-86280742D01*
X121233275Y-86280742D01*
X121238567Y-86286034D01*
X121270317Y-86286034D01*
X121275608Y-86291326D01*
X121307358Y-86291326D01*
X121312650Y-86296618D01*
X121339108Y-86296618D01*
X121344400Y-86301909D01*
X121376150Y-86301909D01*
X121381442Y-86307201D01*
X121402608Y-86307201D01*
X121407900Y-86312492D01*
X121444942Y-86312492D01*
X121450233Y-86317784D01*
X121481983Y-86317784D01*
X121487275Y-86323076D01*
X121519025Y-86323076D01*
X121524317Y-86328367D01*
X121556067Y-86328367D01*
X121561358Y-86333659D01*
X121598400Y-86333659D01*
X121603692Y-86338951D01*
X121646025Y-86338951D01*
X121651317Y-86344242D01*
X121693650Y-86344242D01*
X121698942Y-86349534D01*
X121741275Y-86349534D01*
X121746567Y-86354826D01*
X121778317Y-86354826D01*
X121783608Y-86360117D01*
X121825942Y-86360117D01*
X121831233Y-86365409D01*
X121868275Y-86365409D01*
X121873567Y-86370701D01*
X121910608Y-86370701D01*
X121915900Y-86375993D01*
X121947650Y-86375993D01*
X121952942Y-86381284D01*
X121989983Y-86381284D01*
X121995275Y-86386576D01*
X122032317Y-86386576D01*
X122037608Y-86391867D01*
X122074650Y-86391867D01*
X122079942Y-86397159D01*
X122116983Y-86397159D01*
X122122275Y-86402451D01*
X122154025Y-86402451D01*
X122159317Y-86407742D01*
X122185775Y-86407742D01*
X122191067Y-86413034D01*
X122228108Y-86413034D01*
X122233400Y-86418326D01*
X122275733Y-86418326D01*
X122281025Y-86423617D01*
X122312775Y-86423617D01*
X122318067Y-86428909D01*
X122349817Y-86428909D01*
X122355108Y-86434201D01*
X122402733Y-86434201D01*
X122408025Y-86439492D01*
X122434483Y-86439492D01*
X122439775Y-86444784D01*
X122471525Y-86444784D01*
X122476817Y-86450076D01*
X122513858Y-86450076D01*
X122519150Y-86455368D01*
X122535025Y-86455368D01*
X122540317Y-86460659D01*
X122545608Y-86455368D01*
X122550900Y-86455368D01*
X122556192Y-86460659D01*
X122603817Y-86460659D01*
X122609108Y-86465951D01*
X122751983Y-86465951D01*
X122757275Y-86460659D01*
X122804900Y-86460659D01*
X122810192Y-86455368D01*
X122847233Y-86455368D01*
X122852525Y-86450076D01*
X122878983Y-86450076D01*
X122884275Y-86444784D01*
X122910733Y-86444784D01*
X122916025Y-86439492D01*
X122931900Y-86439492D01*
X122937192Y-86434201D01*
X122953067Y-86434201D01*
X122958358Y-86428909D01*
X122974233Y-86428909D01*
X122979525Y-86423617D01*
X122995400Y-86423617D01*
X123000692Y-86418326D01*
X123016567Y-86418326D01*
X123021858Y-86413034D01*
X123037733Y-86413034D01*
X123043025Y-86407742D01*
X123058900Y-86407742D01*
X123064192Y-86402451D01*
X123080067Y-86402451D01*
X123085358Y-86397159D01*
X123101233Y-86397159D01*
X123106525Y-86391867D01*
X123127691Y-86391867D01*
X123132983Y-86386576D01*
X123154150Y-86386576D01*
X123159442Y-86381284D01*
X123185900Y-86381284D01*
X123191191Y-86375993D01*
X123217650Y-86375993D01*
X123222942Y-86370701D01*
X123339358Y-86370701D01*
X123344650Y-86375993D01*
X123365816Y-86375993D01*
X123371108Y-86381284D01*
X123386983Y-86381284D01*
X123392275Y-86386576D01*
X123402858Y-86386576D01*
X123408150Y-86391867D01*
X123418733Y-86391867D01*
X123424025Y-86397159D01*
X123434608Y-86397159D01*
X123439900Y-86402451D01*
X123445191Y-86402451D01*
X123450483Y-86407742D01*
X123461067Y-86407742D01*
X123466358Y-86413034D01*
X123471650Y-86413034D01*
X123476942Y-86418326D01*
X123482233Y-86418326D01*
X123492817Y-86428909D01*
X123498108Y-86428909D01*
X123503400Y-86434201D01*
X123508691Y-86434201D01*
X123513983Y-86439492D01*
X123519275Y-86439492D01*
X123529858Y-86450076D01*
X123535150Y-86450076D01*
X123561608Y-86476534D01*
X123566900Y-86476534D01*
X123566900Y-86481826D01*
X123630400Y-86545326D01*
X123630400Y-86550617D01*
X123662150Y-86582367D01*
X123662150Y-86587659D01*
X123683316Y-86608826D01*
X123683316Y-86614117D01*
X123699192Y-86629992D01*
X123699192Y-86635284D01*
X123709775Y-86645867D01*
X123709775Y-86651159D01*
X123725650Y-86667034D01*
X123725650Y-86672326D01*
X123736233Y-86682909D01*
X123736233Y-86688201D01*
X123746816Y-86698784D01*
X123746816Y-86704076D01*
X123762691Y-86719951D01*
X123762691Y-86725242D01*
X123773275Y-86735826D01*
X123773275Y-86741117D01*
X123783858Y-86751701D01*
X123783858Y-86756992D01*
X123789150Y-86762284D01*
X123789150Y-86767576D01*
X123799733Y-86778159D01*
X123799733Y-86783451D01*
X123805025Y-86788742D01*
X123805025Y-86794034D01*
X123815608Y-86804617D01*
X123815608Y-86809909D01*
X123831483Y-86825784D01*
X123831483Y-86831076D01*
X123847358Y-86846951D01*
X123847358Y-86852242D01*
X123863233Y-86868117D01*
X123863233Y-86873409D01*
X123884400Y-86894576D01*
X123884400Y-86899867D01*
X123969067Y-86984534D01*
X123974358Y-86984534D01*
X124000816Y-87010992D01*
X124006108Y-87010992D01*
X124021983Y-87026867D01*
X124027275Y-87026867D01*
X124032567Y-87032159D01*
X124037858Y-87032159D01*
X124048442Y-87042742D01*
X124053733Y-87042742D01*
X124064316Y-87053326D01*
X124069608Y-87053326D01*
X124080191Y-87063909D01*
X124085483Y-87063909D01*
X124101358Y-87079784D01*
X124106650Y-87079784D01*
X124117233Y-87090367D01*
X124122525Y-87090367D01*
X124133108Y-87100951D01*
X124138400Y-87100951D01*
X124148983Y-87111534D01*
X124154275Y-87111534D01*
X124164858Y-87122117D01*
X124170150Y-87122117D01*
X124180733Y-87132701D01*
X124186025Y-87132701D01*
X124196608Y-87143284D01*
X124201900Y-87143284D01*
X124207192Y-87148576D01*
X124212483Y-87148576D01*
X124223066Y-87159159D01*
X124228358Y-87159159D01*
X124244233Y-87175034D01*
X124249525Y-87175034D01*
X124270692Y-87196201D01*
X124275983Y-87196201D01*
X124286567Y-87206784D01*
X124291858Y-87206784D01*
X124302441Y-87217367D01*
X124307733Y-87217367D01*
X124318316Y-87227951D01*
X124323608Y-87227951D01*
X124334191Y-87238534D01*
X124339483Y-87238534D01*
X124355358Y-87254409D01*
X124360650Y-87254409D01*
X124371233Y-87264992D01*
X124376525Y-87264992D01*
X124392400Y-87280867D01*
X124397691Y-87280867D01*
X124413566Y-87296742D01*
X124418858Y-87296742D01*
X124434733Y-87312617D01*
X124440025Y-87312617D01*
X124455900Y-87328492D01*
X124461191Y-87328492D01*
X124487650Y-87354951D01*
X124492941Y-87354951D01*
X124519400Y-87381409D01*
X124524692Y-87381409D01*
X124561733Y-87418451D01*
X124567025Y-87418451D01*
X124614650Y-87466076D01*
X124619941Y-87466076D01*
X124709900Y-87556034D01*
X124709900Y-87561326D01*
X124725775Y-87577201D01*
X124725775Y-87582492D01*
X124741650Y-87598367D01*
X124741650Y-87603659D01*
X124752233Y-87614242D01*
X124752233Y-87619534D01*
X124762817Y-87630117D01*
X124762817Y-87635409D01*
X124773400Y-87645992D01*
X124773400Y-87651284D01*
X124783983Y-87661867D01*
X124783983Y-87667159D01*
X124794566Y-87677742D01*
X124794566Y-87683034D01*
X124805150Y-87693617D01*
X124805150Y-87698909D01*
X124815733Y-87709492D01*
X124815733Y-87714784D01*
X124821025Y-87720076D01*
X124821025Y-87725367D01*
X124826317Y-87730659D01*
X124826317Y-87735951D01*
X124831608Y-87741242D01*
X124831608Y-87746534D01*
X124836900Y-87751826D01*
X124836900Y-87757117D01*
X124842192Y-87762409D01*
X124842192Y-87767701D01*
X124847483Y-87772992D01*
X124847483Y-87778284D01*
X124852775Y-87783576D01*
X124852775Y-87788867D01*
X124858066Y-87794159D01*
X124858066Y-87799451D01*
X124863358Y-87804742D01*
X124863358Y-87815326D01*
X124868650Y-87820617D01*
X124868650Y-87825909D01*
X124873941Y-87831201D01*
X124873941Y-87836492D01*
X124879233Y-87841784D01*
X124879233Y-87852367D01*
X124884525Y-87857659D01*
X124884525Y-87868242D01*
X124889816Y-87873534D01*
X124889816Y-87884117D01*
X124895108Y-87889409D01*
X124895108Y-87899992D01*
X124900400Y-87905284D01*
X124900400Y-87921159D01*
X124905692Y-87926451D01*
X124905692Y-87937034D01*
X124910983Y-87942326D01*
X124910983Y-87958201D01*
X124916275Y-87963492D01*
X124916275Y-87984659D01*
X124921567Y-87989951D01*
X124921567Y-88011117D01*
X124926858Y-88016409D01*
X124926858Y-88048159D01*
X124932150Y-88053451D01*
X124932150Y-88191034D01*
X124926858Y-88196326D01*
X124926858Y-88222784D01*
X124921567Y-88228076D01*
X124921567Y-88249242D01*
X124916275Y-88254534D01*
X124916275Y-88270409D01*
X124910983Y-88275701D01*
X124910983Y-88286284D01*
X124905692Y-88291576D01*
X124905692Y-88302159D01*
X124900400Y-88307451D01*
X124900400Y-88323326D01*
X124895108Y-88328617D01*
X124895108Y-88333909D01*
X124889816Y-88339201D01*
X124889816Y-88349784D01*
X124884525Y-88355076D01*
X124884525Y-88360367D01*
X124879233Y-88365659D01*
X124879233Y-88370951D01*
X124873941Y-88376242D01*
X124873941Y-88381534D01*
X124868650Y-88386826D01*
X124868650Y-88392117D01*
X124863358Y-88397409D01*
X124863358Y-88402701D01*
X124858066Y-88407992D01*
X124858066Y-88413284D01*
X124852775Y-88418576D01*
X124852775Y-88423867D01*
X124847483Y-88429159D01*
X124847483Y-88434451D01*
X124836900Y-88445034D01*
X124836900Y-88450326D01*
X124826317Y-88460909D01*
X124826317Y-88466201D01*
X124815733Y-88476784D01*
X124815733Y-88482076D01*
X124799858Y-88497951D01*
X124799858Y-88503242D01*
X124725775Y-88577326D01*
X124720483Y-88577326D01*
X124704608Y-88593201D01*
X124699316Y-88593201D01*
X124688733Y-88603784D01*
X124683442Y-88603784D01*
X124672858Y-88614367D01*
X124667567Y-88614367D01*
X124656983Y-88624951D01*
X124651691Y-88624951D01*
X124646400Y-88630242D01*
X124641108Y-88630242D01*
X124630525Y-88640826D01*
X124625233Y-88640826D01*
X124619941Y-88646117D01*
X124614650Y-88646117D01*
X124609358Y-88651409D01*
X124604067Y-88651409D01*
X124598775Y-88656701D01*
X124588192Y-88656701D01*
X124582900Y-88661992D01*
X124577608Y-88661992D01*
X124572316Y-88667284D01*
X124567025Y-88667284D01*
X124561733Y-88672576D01*
X124551150Y-88672576D01*
X124545858Y-88677867D01*
X124535275Y-88677867D01*
X124529983Y-88683159D01*
X124519400Y-88683159D01*
X124514108Y-88688451D01*
X124503525Y-88688451D01*
X124498233Y-88693742D01*
X124482358Y-88693742D01*
X124477066Y-88699034D01*
X124455900Y-88699034D01*
X124450608Y-88704326D01*
X124429442Y-88704326D01*
X124424150Y-88709617D01*
X124376525Y-88709617D01*
X124371233Y-88714909D01*
X124291858Y-88714909D01*
X124286567Y-88709617D01*
X124244233Y-88709617D01*
X124238941Y-88704326D01*
X124212483Y-88704326D01*
X124207192Y-88699034D01*
X124191317Y-88699034D01*
X124186025Y-88693742D01*
X124170150Y-88693742D01*
X124164858Y-88688451D01*
X124148983Y-88688451D01*
X124143691Y-88683159D01*
X124127817Y-88683159D01*
X124122525Y-88677867D01*
X124111942Y-88677867D01*
X124106650Y-88672576D01*
X124096067Y-88672576D01*
X124090775Y-88667284D01*
X124085483Y-88667284D01*
X124080191Y-88661992D01*
X124069608Y-88661992D01*
X124064316Y-88656701D01*
X124059025Y-88656701D01*
X124053733Y-88651409D01*
X124043150Y-88651409D01*
X124037858Y-88646117D01*
X124032567Y-88646117D01*
X124027275Y-88640826D01*
X124016692Y-88640826D01*
X124011400Y-88635534D01*
X124006108Y-88635534D01*
X124000816Y-88630242D01*
X123995525Y-88630242D01*
X123990233Y-88624951D01*
X123979650Y-88624951D01*
X123974358Y-88619659D01*
X123969067Y-88619659D01*
X123963775Y-88614367D01*
X123958483Y-88614367D01*
X123953192Y-88609076D01*
X123947900Y-88609076D01*
X123942608Y-88603784D01*
X123937317Y-88603784D01*
X123932025Y-88598492D01*
X123926733Y-88598492D01*
X123921441Y-88593201D01*
X123916150Y-88593201D01*
X123910858Y-88587909D01*
X123905566Y-88587909D01*
X123900275Y-88582617D01*
X123894983Y-88582617D01*
X123884400Y-88572034D01*
X123879108Y-88572034D01*
X123873817Y-88566742D01*
X123868525Y-88566742D01*
X123857942Y-88556159D01*
X123852650Y-88556159D01*
X123842066Y-88545576D01*
X123836775Y-88545576D01*
X123831483Y-88540284D01*
X123826191Y-88540284D01*
X123815608Y-88529701D01*
X123810317Y-88529701D01*
X123799733Y-88519117D01*
X123794442Y-88519117D01*
X123783858Y-88508534D01*
X123778567Y-88508534D01*
X123767983Y-88497951D01*
X123762691Y-88497951D01*
X123752108Y-88487367D01*
X123746816Y-88487367D01*
X123736233Y-88476784D01*
X123730942Y-88476784D01*
X123720358Y-88466201D01*
X123715067Y-88466201D01*
X123704483Y-88455617D01*
X123699192Y-88455617D01*
X123688608Y-88445034D01*
X123683316Y-88445034D01*
X123672733Y-88434451D01*
X123667441Y-88434451D01*
X123651567Y-88418576D01*
X123646275Y-88418576D01*
X123635692Y-88407992D01*
X123630400Y-88407992D01*
X123619817Y-88397409D01*
X123614525Y-88397409D01*
X123598650Y-88381534D01*
X123593358Y-88381534D01*
X123588066Y-88376242D01*
X123582775Y-88376242D01*
X123566900Y-88360367D01*
X123561608Y-88360367D01*
X123551025Y-88349784D01*
X123545733Y-88349784D01*
X123529858Y-88333909D01*
X123524566Y-88333909D01*
X123513983Y-88323326D01*
X123508691Y-88323326D01*
X123492817Y-88307451D01*
X123487525Y-88307451D01*
X123471650Y-88291576D01*
X123466358Y-88291576D01*
X123455775Y-88280992D01*
X123450483Y-88280992D01*
X123434608Y-88265117D01*
X123429316Y-88265117D01*
X123413442Y-88249242D01*
X123408150Y-88249242D01*
X123392275Y-88233367D01*
X123386983Y-88233367D01*
X123371108Y-88217492D01*
X123365816Y-88217492D01*
X123349941Y-88201617D01*
X123344650Y-88201617D01*
X123328775Y-88185742D01*
X123323483Y-88185742D01*
X123312900Y-88175159D01*
X123307608Y-88175159D01*
X123291733Y-88159284D01*
X123286441Y-88159284D01*
X123270566Y-88143409D01*
X123265275Y-88143409D01*
X123249400Y-88127534D01*
X123244108Y-88127534D01*
X123228233Y-88111659D01*
X123222942Y-88111659D01*
X123207066Y-88095784D01*
X123201775Y-88095784D01*
X123185900Y-88079909D01*
X123180608Y-88079909D01*
X123164733Y-88064034D01*
X123159442Y-88064034D01*
X123143567Y-88048159D01*
X123138275Y-88048159D01*
X123132983Y-88042867D01*
X123127691Y-88042867D01*
X123117108Y-88032284D01*
X123111816Y-88032284D01*
X123095942Y-88016409D01*
X123090650Y-88016409D01*
X123080067Y-88005826D01*
X123074775Y-88005826D01*
X123058900Y-87989951D01*
X123053608Y-87989951D01*
X123043025Y-87979367D01*
X123037733Y-87979367D01*
X123021858Y-87963492D01*
X123016567Y-87963492D01*
X123000692Y-87947617D01*
X122995400Y-87947617D01*
X122984816Y-87937034D01*
X122979525Y-87937034D01*
X122963650Y-87921159D01*
X122958358Y-87921159D01*
X122947775Y-87910576D01*
X122942483Y-87910576D01*
X122931900Y-87899992D01*
X122926608Y-87899992D01*
X122916025Y-87889409D01*
X122910733Y-87889409D01*
X122900150Y-87878826D01*
X122894858Y-87878826D01*
X122884275Y-87868242D01*
X122878983Y-87868242D01*
X122868400Y-87857659D01*
X122863108Y-87857659D01*
X122857817Y-87852367D01*
X122852525Y-87852367D01*
X122841942Y-87841784D01*
X122836650Y-87841784D01*
X122826066Y-87831201D01*
X122820775Y-87831201D01*
X122815483Y-87825909D01*
X122810192Y-87825909D01*
X122804900Y-87820617D01*
X122799608Y-87820617D01*
X122794317Y-87815326D01*
X122789025Y-87815326D01*
X122783733Y-87810034D01*
X122778442Y-87810034D01*
X122767858Y-87799451D01*
X122762567Y-87799451D01*
X122757275Y-87794159D01*
X122751983Y-87794159D01*
X122746691Y-87788867D01*
X122741400Y-87788867D01*
X122736108Y-87783576D01*
X122725525Y-87783576D01*
X122720233Y-87778284D01*
X122714942Y-87778284D01*
X122709650Y-87772992D01*
X122704358Y-87772992D01*
X122699067Y-87767701D01*
X122693775Y-87767701D01*
X122688483Y-87762409D01*
X122683192Y-87762409D01*
X122677900Y-87757117D01*
X122667317Y-87757117D01*
X122662025Y-87751826D01*
X122651442Y-87751826D01*
X122646150Y-87746534D01*
X122640858Y-87746534D01*
X122635567Y-87741242D01*
X122624983Y-87741242D01*
X122619692Y-87735951D01*
X122614400Y-87735951D01*
X122609108Y-87730659D01*
X122598525Y-87730659D01*
X122593233Y-87725367D01*
X122582650Y-87725367D01*
X122577358Y-87720076D01*
X122566775Y-87720076D01*
X122561483Y-87714784D01*
X122545608Y-87714784D01*
X122540317Y-87709492D01*
X122524442Y-87709492D01*
X122519150Y-87704201D01*
X122492692Y-87704201D01*
X122487400Y-87698909D01*
X122466233Y-87698909D01*
X122460942Y-87693617D01*
X122429192Y-87693617D01*
X122423900Y-87688326D01*
X122376275Y-87688326D01*
X122370983Y-87683034D01*
X122333942Y-87683034D01*
X122328650Y-87677742D01*
X122296900Y-87677742D01*
X122291608Y-87672451D01*
X122254567Y-87672451D01*
X122249275Y-87667159D01*
X122222817Y-87667159D01*
X122217525Y-87661867D01*
X122185775Y-87661867D01*
X122180483Y-87656576D01*
X122143442Y-87656576D01*
X122138150Y-87651284D01*
X122111692Y-87651284D01*
X122106400Y-87645992D01*
X122079942Y-87645992D01*
X122074650Y-87640701D01*
X122042900Y-87640701D01*
X122037608Y-87635409D01*
X122005858Y-87635409D01*
X122000567Y-87630117D01*
X121968817Y-87630117D01*
X121963525Y-87624826D01*
X121937067Y-87624826D01*
X121931775Y-87619534D01*
X121905317Y-87619534D01*
X121900025Y-87614242D01*
X121873567Y-87614242D01*
X121868275Y-87608951D01*
X121841817Y-87608951D01*
X121836525Y-87603659D01*
X121810067Y-87603659D01*
X121804775Y-87598367D01*
X121778317Y-87598367D01*
X121773025Y-87593076D01*
X121746567Y-87593076D01*
X121741275Y-87587784D01*
X121714817Y-87587784D01*
X121709525Y-87582492D01*
X121683067Y-87582492D01*
X121677775Y-87577201D01*
X121656608Y-87577201D01*
X121651317Y-87571909D01*
X121624858Y-87571909D01*
X121619567Y-87566617D01*
X121593108Y-87566617D01*
X121587817Y-87561326D01*
X121566650Y-87561326D01*
X121561358Y-87556034D01*
X121529608Y-87556034D01*
X121524317Y-87550742D01*
X121497858Y-87550742D01*
X121492567Y-87545451D01*
X121471400Y-87545451D01*
X121466108Y-87540159D01*
X121439650Y-87540159D01*
X121434358Y-87534867D01*
X121407900Y-87534867D01*
X121402608Y-87529576D01*
X121370858Y-87529576D01*
X121365567Y-87524284D01*
X121344400Y-87524284D01*
X121339108Y-87518992D01*
X121312650Y-87518992D01*
X121307358Y-87513701D01*
X121280900Y-87513701D01*
X121275608Y-87508409D01*
X121243858Y-87508409D01*
X121238567Y-87503117D01*
X121217400Y-87503117D01*
X121212108Y-87497826D01*
X121185650Y-87497826D01*
X121180358Y-87492534D01*
X121153900Y-87492534D01*
X121148608Y-87487242D01*
X121122150Y-87487242D01*
X121116858Y-87481951D01*
X121090400Y-87481951D01*
X121085108Y-87476659D01*
X121058650Y-87476659D01*
X121053358Y-87471367D01*
X121026900Y-87471367D01*
X121021608Y-87466076D01*
X120989858Y-87466076D01*
X120984567Y-87460784D01*
X120958108Y-87460784D01*
X120952817Y-87455492D01*
X120926358Y-87455492D01*
X120921067Y-87450201D01*
X120889317Y-87450201D01*
X120884025Y-87444909D01*
X120857567Y-87444909D01*
X120852275Y-87439617D01*
X120841692Y-87439617D01*
X120836400Y-87434326D01*
X120831108Y-87434326D01*
X120825817Y-87429034D01*
X120820525Y-87429034D01*
X120804650Y-87413159D01*
X120804650Y-87407867D01*
X120799358Y-87402576D01*
X120799358Y-87397284D01*
X120794067Y-87391992D01*
X120794067Y-87323201D01*
X120799358Y-87317909D01*
X120799358Y-87275576D01*
X120804650Y-87270284D01*
X120804650Y-87217367D01*
X120809942Y-87212076D01*
X120809942Y-87164451D01*
X120815233Y-87159159D01*
X120815233Y-87116826D01*
X120820525Y-87111534D01*
X120820525Y-87063909D01*
X120825817Y-87058617D01*
X120825817Y-87010992D01*
X120831108Y-87005701D01*
X120831108Y-86958076D01*
X120836400Y-86952784D01*
X120836400Y-86905159D01*
X120841692Y-86899867D01*
X120841692Y-86857534D01*
X120846983Y-86852242D01*
X120846983Y-86809909D01*
X120852275Y-86804617D01*
X120852275Y-86751701D01*
X120857567Y-86746409D01*
X120857567Y-86704076D01*
X120862858Y-86698784D01*
X120862858Y-86651159D01*
X120868150Y-86645867D01*
X120868150Y-86603534D01*
X120873442Y-86598242D01*
X120873442Y-86550617D01*
X120878733Y-86545326D01*
X120878733Y-86502992D01*
X120884025Y-86497701D01*
X120884025Y-86450076D01*
X120889317Y-86444784D01*
X120889317Y-86397159D01*
X120894608Y-86391867D01*
X120894608Y-86349534D01*
X120899900Y-86344242D01*
X120899900Y-86307201D01*
X120905192Y-86301909D01*
X120905192Y-86291326D01*
X120910483Y-86286034D01*
X120910483Y-86280742D01*
X120931650Y-86259576D01*
X120936942Y-86259576D01*
X120942233Y-86254284D01*
X120947525Y-86254284D01*
X120952817Y-86248992D01*
X121011025Y-86248992D01*
X121016317Y-86254284D01*
G37*
D10*
G36*
X123299486Y-84631892D02*
G01*
X123313673Y-84632971D01*
X123327654Y-84634747D01*
X123341411Y-84637204D01*
X123354927Y-84640324D01*
X123368184Y-84644088D01*
X123381165Y-84648480D01*
X123393851Y-84653483D01*
X123406226Y-84659077D01*
X123418272Y-84665247D01*
X123429971Y-84671973D01*
X123441305Y-84679240D01*
X123452258Y-84687029D01*
X123462812Y-84695322D01*
X123472949Y-84704103D01*
X123482651Y-84713353D01*
X123491901Y-84723055D01*
X123500682Y-84733192D01*
X123508975Y-84743745D01*
X123516764Y-84754698D01*
X123524030Y-84766033D01*
X123530757Y-84777732D01*
X123536927Y-84789778D01*
X123542521Y-84802153D01*
X123547523Y-84814839D01*
X123551915Y-84827820D01*
X123555680Y-84841077D01*
X123558799Y-84854592D01*
X123561256Y-84868350D01*
X123563033Y-84882331D01*
X123564112Y-84896518D01*
X123564475Y-84910894D01*
X123564112Y-84925271D01*
X123563033Y-84939458D01*
X123561256Y-84953439D01*
X123558799Y-84967196D01*
X123555680Y-84980712D01*
X123551915Y-84993969D01*
X123547523Y-85006950D01*
X123542521Y-85019636D01*
X123536927Y-85032011D01*
X123530757Y-85044057D01*
X123524030Y-85055756D01*
X123516764Y-85067090D01*
X123508975Y-85078043D01*
X123500682Y-85088597D01*
X123491901Y-85098733D01*
X123482651Y-85108436D01*
X123472949Y-85117686D01*
X123462812Y-85126466D01*
X123452258Y-85134760D01*
X123441305Y-85142549D01*
X123429971Y-85149815D01*
X123418272Y-85156542D01*
X123406226Y-85162711D01*
X123393851Y-85168306D01*
X123381165Y-85173308D01*
X123368184Y-85177700D01*
X123354927Y-85181465D01*
X123341411Y-85184584D01*
X123327654Y-85187041D01*
X123313673Y-85188818D01*
X123299486Y-85189896D01*
X123285110Y-85190260D01*
X123270733Y-85189896D01*
X123256546Y-85188818D01*
X123242565Y-85187041D01*
X123228808Y-85184584D01*
X123215292Y-85181465D01*
X123202035Y-85177700D01*
X123189054Y-85173308D01*
X123176368Y-85168306D01*
X123163993Y-85162711D01*
X123151947Y-85156542D01*
X123140248Y-85149815D01*
X123128914Y-85142549D01*
X123117961Y-85134760D01*
X123107407Y-85126466D01*
X123097270Y-85117686D01*
X123087568Y-85108436D01*
X123078318Y-85098733D01*
X123069537Y-85088597D01*
X123061244Y-85078043D01*
X123053455Y-85067090D01*
X123046189Y-85055756D01*
X123039462Y-85044057D01*
X123033292Y-85032011D01*
X123027698Y-85019636D01*
X123022696Y-85006950D01*
X123018304Y-84993969D01*
X123014539Y-84980712D01*
X123011420Y-84967196D01*
X123008963Y-84953439D01*
X123007186Y-84939458D01*
X123006107Y-84925271D01*
X123005744Y-84910894D01*
X123006107Y-84896518D01*
X123007186Y-84882331D01*
X123008963Y-84868350D01*
X123011420Y-84854592D01*
X123014539Y-84841077D01*
X123018304Y-84827820D01*
X123022696Y-84814839D01*
X123027698Y-84802153D01*
X123033292Y-84789778D01*
X123039462Y-84777732D01*
X123046189Y-84766033D01*
X123053455Y-84754698D01*
X123061244Y-84743745D01*
X123069537Y-84733192D01*
X123078318Y-84723055D01*
X123087568Y-84713353D01*
X123097270Y-84704103D01*
X123107407Y-84695322D01*
X123117961Y-84687029D01*
X123128914Y-84679240D01*
X123140248Y-84671973D01*
X123151947Y-84665247D01*
X123163993Y-84659077D01*
X123176368Y-84653483D01*
X123189054Y-84648480D01*
X123202035Y-84644088D01*
X123215292Y-84640324D01*
X123228808Y-84637204D01*
X123242565Y-84634747D01*
X123256546Y-84632971D01*
X123270733Y-84631892D01*
X123285110Y-84631529D01*
X123299486Y-84631892D01*
G37*
G36*
X124597258Y-85526344D02*
G01*
X124611445Y-85527423D01*
X124625426Y-85529199D01*
X124639183Y-85531656D01*
X124652699Y-85534775D01*
X124665956Y-85538540D01*
X124678937Y-85542932D01*
X124691623Y-85547934D01*
X124703998Y-85553529D01*
X124716044Y-85559698D01*
X124727743Y-85566425D01*
X124739077Y-85573691D01*
X124750030Y-85581480D01*
X124760584Y-85589774D01*
X124770721Y-85598554D01*
X124780423Y-85607804D01*
X124789673Y-85617507D01*
X124798454Y-85627643D01*
X124806747Y-85638197D01*
X124814536Y-85649150D01*
X124821802Y-85660485D01*
X124828529Y-85672184D01*
X124834699Y-85684229D01*
X124840293Y-85696604D01*
X124845295Y-85709290D01*
X124849687Y-85722271D01*
X124853452Y-85735528D01*
X124856571Y-85749044D01*
X124859028Y-85762801D01*
X124860805Y-85776782D01*
X124861884Y-85790970D01*
X124862247Y-85805346D01*
X124861884Y-85819722D01*
X124860805Y-85833909D01*
X124859028Y-85847890D01*
X124856571Y-85861648D01*
X124853452Y-85875164D01*
X124849687Y-85888421D01*
X124845295Y-85901401D01*
X124840293Y-85914088D01*
X124834699Y-85926462D01*
X124828529Y-85938508D01*
X124821802Y-85950207D01*
X124814536Y-85961542D01*
X124806747Y-85972495D01*
X124798454Y-85983048D01*
X124789673Y-85993185D01*
X124780423Y-86002887D01*
X124770721Y-86012137D01*
X124760584Y-86020918D01*
X124750030Y-86029211D01*
X124739077Y-86037000D01*
X124727743Y-86044267D01*
X124716044Y-86050994D01*
X124703998Y-86057163D01*
X124691623Y-86062758D01*
X124678937Y-86067760D01*
X124665956Y-86072152D01*
X124652699Y-86075916D01*
X124639183Y-86079036D01*
X124625426Y-86081493D01*
X124611445Y-86083269D01*
X124597258Y-86084348D01*
X124582882Y-86084712D01*
X124568505Y-86084348D01*
X124554318Y-86083269D01*
X124540337Y-86081493D01*
X124526580Y-86079036D01*
X124513064Y-86075916D01*
X124499807Y-86072152D01*
X124486826Y-86067760D01*
X124474140Y-86062758D01*
X124461765Y-86057163D01*
X124449719Y-86050994D01*
X124438020Y-86044267D01*
X124426685Y-86037000D01*
X124415732Y-86029211D01*
X124405179Y-86020918D01*
X124395042Y-86012137D01*
X124385340Y-86002887D01*
X124376090Y-85993185D01*
X124367309Y-85983048D01*
X124359016Y-85972495D01*
X124351227Y-85961542D01*
X124343960Y-85950207D01*
X124337234Y-85938508D01*
X124331064Y-85926462D01*
X124325470Y-85914088D01*
X124320468Y-85901401D01*
X124316075Y-85888421D01*
X124312311Y-85875164D01*
X124309191Y-85861648D01*
X124306735Y-85847890D01*
X124304958Y-85833909D01*
X124303879Y-85819722D01*
X124303516Y-85805346D01*
X124303879Y-85790970D01*
X124304958Y-85776782D01*
X124306735Y-85762801D01*
X124309191Y-85749044D01*
X124312311Y-85735528D01*
X124316075Y-85722271D01*
X124320468Y-85709290D01*
X124325470Y-85696604D01*
X124331064Y-85684229D01*
X124337234Y-85672184D01*
X124343960Y-85660485D01*
X124351227Y-85649150D01*
X124359016Y-85638197D01*
X124367309Y-85627643D01*
X124376090Y-85617507D01*
X124385340Y-85607804D01*
X124395042Y-85598554D01*
X124405179Y-85589774D01*
X124415732Y-85581480D01*
X124426685Y-85573691D01*
X124438020Y-85566425D01*
X124449719Y-85559698D01*
X124461765Y-85553529D01*
X124474140Y-85547934D01*
X124486826Y-85542932D01*
X124499807Y-85538540D01*
X124513064Y-85534775D01*
X124526580Y-85531656D01*
X124540337Y-85529199D01*
X124554318Y-85527423D01*
X124568505Y-85526344D01*
X124582882Y-85525980D01*
X124597258Y-85526344D01*
G37*
D13*
X125532796Y-88954047D02*
X125532796Y-88801666D01*
X125532796Y-88801666D02*
X125570891Y-88725476D01*
X125570891Y-88725476D02*
X125647081Y-88649285D01*
X125647081Y-88649285D02*
X125799462Y-88611190D01*
X125799462Y-88611190D02*
X126066129Y-88611190D01*
X126066129Y-88611190D02*
X126218510Y-88649285D01*
X126218510Y-88649285D02*
X126294701Y-88725476D01*
X126294701Y-88725476D02*
X126332796Y-88801666D01*
X126332796Y-88801666D02*
X126332796Y-88954047D01*
X126332796Y-88954047D02*
X126294701Y-89030238D01*
X126294701Y-89030238D02*
X126218510Y-89106428D01*
X126218510Y-89106428D02*
X126066129Y-89144524D01*
X126066129Y-89144524D02*
X125799462Y-89144524D01*
X125799462Y-89144524D02*
X125647081Y-89106428D01*
X125647081Y-89106428D02*
X125570891Y-89030238D01*
X125570891Y-89030238D02*
X125532796Y-88954047D01*
X126332796Y-87925476D02*
X125532796Y-87925476D01*
X126294701Y-87925476D02*
X126332796Y-88001667D01*
X126332796Y-88001667D02*
X126332796Y-88154048D01*
X126332796Y-88154048D02*
X126294701Y-88230238D01*
X126294701Y-88230238D02*
X126256605Y-88268333D01*
X126256605Y-88268333D02*
X126180415Y-88306429D01*
X126180415Y-88306429D02*
X125951843Y-88306429D01*
X125951843Y-88306429D02*
X125875653Y-88268333D01*
X125875653Y-88268333D02*
X125837558Y-88230238D01*
X125837558Y-88230238D02*
X125799462Y-88154048D01*
X125799462Y-88154048D02*
X125799462Y-88001667D01*
X125799462Y-88001667D02*
X125837558Y-87925476D01*
X126332796Y-87201666D02*
X125532796Y-87201666D01*
X126294701Y-87201666D02*
X126332796Y-87277857D01*
X126332796Y-87277857D02*
X126332796Y-87430238D01*
X126332796Y-87430238D02*
X126294701Y-87506428D01*
X126294701Y-87506428D02*
X126256605Y-87544523D01*
X126256605Y-87544523D02*
X126180415Y-87582619D01*
X126180415Y-87582619D02*
X125951843Y-87582619D01*
X125951843Y-87582619D02*
X125875653Y-87544523D01*
X125875653Y-87544523D02*
X125837558Y-87506428D01*
X125837558Y-87506428D02*
X125799462Y-87430238D01*
X125799462Y-87430238D02*
X125799462Y-87277857D01*
X125799462Y-87277857D02*
X125837558Y-87201666D01*
X126294701Y-86858809D02*
X126332796Y-86782618D01*
X126332796Y-86782618D02*
X126332796Y-86630237D01*
X126332796Y-86630237D02*
X126294701Y-86554047D01*
X126294701Y-86554047D02*
X126218510Y-86515951D01*
X126218510Y-86515951D02*
X126180415Y-86515951D01*
X126180415Y-86515951D02*
X126104224Y-86554047D01*
X126104224Y-86554047D02*
X126066129Y-86630237D01*
X126066129Y-86630237D02*
X126066129Y-86744523D01*
X126066129Y-86744523D02*
X126028034Y-86820713D01*
X126028034Y-86820713D02*
X125951843Y-86858809D01*
X125951843Y-86858809D02*
X125913748Y-86858809D01*
X125913748Y-86858809D02*
X125837558Y-86820713D01*
X125837558Y-86820713D02*
X125799462Y-86744523D01*
X125799462Y-86744523D02*
X125799462Y-86630237D01*
X125799462Y-86630237D02*
X125837558Y-86554047D01*
X126332796Y-86058809D02*
X126294701Y-86134999D01*
X126294701Y-86134999D02*
X126256605Y-86173094D01*
X126256605Y-86173094D02*
X126180415Y-86211190D01*
X126180415Y-86211190D02*
X125951843Y-86211190D01*
X125951843Y-86211190D02*
X125875653Y-86173094D01*
X125875653Y-86173094D02*
X125837558Y-86134999D01*
X125837558Y-86134999D02*
X125799462Y-86058809D01*
X125799462Y-86058809D02*
X125799462Y-85944523D01*
X125799462Y-85944523D02*
X125837558Y-85868332D01*
X125837558Y-85868332D02*
X125875653Y-85830237D01*
X125875653Y-85830237D02*
X125951843Y-85792142D01*
X125951843Y-85792142D02*
X126180415Y-85792142D01*
X126180415Y-85792142D02*
X126256605Y-85830237D01*
X126256605Y-85830237D02*
X126294701Y-85868332D01*
X126294701Y-85868332D02*
X126332796Y-85944523D01*
X126332796Y-85944523D02*
X126332796Y-86058809D01*
X126294701Y-85106427D02*
X126332796Y-85182618D01*
X126332796Y-85182618D02*
X126332796Y-85334999D01*
X126332796Y-85334999D02*
X126294701Y-85411189D01*
X126294701Y-85411189D02*
X126256605Y-85449284D01*
X126256605Y-85449284D02*
X126180415Y-85487380D01*
X126180415Y-85487380D02*
X125951843Y-85487380D01*
X125951843Y-85487380D02*
X125875653Y-85449284D01*
X125875653Y-85449284D02*
X125837558Y-85411189D01*
X125837558Y-85411189D02*
X125799462Y-85334999D01*
X125799462Y-85334999D02*
X125799462Y-85182618D01*
X125799462Y-85182618D02*
X125837558Y-85106427D01*
X126332796Y-84763570D02*
X125532796Y-84763570D01*
X126028034Y-84687380D02*
X126332796Y-84458808D01*
X125799462Y-84458808D02*
X126104224Y-84763570D01*
X126294701Y-84154047D02*
X126332796Y-84077856D01*
X126332796Y-84077856D02*
X126332796Y-83925475D01*
X126332796Y-83925475D02*
X126294701Y-83849285D01*
X126294701Y-83849285D02*
X126218510Y-83811189D01*
X126218510Y-83811189D02*
X126180415Y-83811189D01*
X126180415Y-83811189D02*
X126104224Y-83849285D01*
X126104224Y-83849285D02*
X126066129Y-83925475D01*
X126066129Y-83925475D02*
X126066129Y-84039761D01*
X126066129Y-84039761D02*
X126028034Y-84115951D01*
X126028034Y-84115951D02*
X125951843Y-84154047D01*
X125951843Y-84154047D02*
X125913748Y-84154047D01*
X125913748Y-84154047D02*
X125837558Y-84115951D01*
X125837558Y-84115951D02*
X125799462Y-84039761D01*
X125799462Y-84039761D02*
X125799462Y-83925475D01*
X125799462Y-83925475D02*
X125837558Y-83849285D01*
X127620751Y-87734999D02*
X126820751Y-87734999D01*
X127125513Y-87734999D02*
X127087417Y-87658809D01*
X127087417Y-87658809D02*
X127087417Y-87506428D01*
X127087417Y-87506428D02*
X127125513Y-87430237D01*
X127125513Y-87430237D02*
X127163608Y-87392142D01*
X127163608Y-87392142D02*
X127239798Y-87354047D01*
X127239798Y-87354047D02*
X127468370Y-87354047D01*
X127468370Y-87354047D02*
X127544560Y-87392142D01*
X127544560Y-87392142D02*
X127582656Y-87430237D01*
X127582656Y-87430237D02*
X127620751Y-87506428D01*
X127620751Y-87506428D02*
X127620751Y-87658809D01*
X127620751Y-87658809D02*
X127582656Y-87734999D01*
X126820751Y-86630237D02*
X126820751Y-87011189D01*
X126820751Y-87011189D02*
X127201703Y-87049285D01*
X127201703Y-87049285D02*
X127163608Y-87011189D01*
X127163608Y-87011189D02*
X127125513Y-86934999D01*
X127125513Y-86934999D02*
X127125513Y-86744523D01*
X127125513Y-86744523D02*
X127163608Y-86668332D01*
X127163608Y-86668332D02*
X127201703Y-86630237D01*
X127201703Y-86630237D02*
X127277894Y-86592142D01*
X127277894Y-86592142D02*
X127468370Y-86592142D01*
X127468370Y-86592142D02*
X127544560Y-86630237D01*
X127544560Y-86630237D02*
X127582656Y-86668332D01*
X127582656Y-86668332D02*
X127620751Y-86744523D01*
X127620751Y-86744523D02*
X127620751Y-86934999D01*
X127620751Y-86934999D02*
X127582656Y-87011189D01*
X127582656Y-87011189D02*
X127544560Y-87049285D01*
X127582656Y-86287380D02*
X127620751Y-86211189D01*
X127620751Y-86211189D02*
X127620751Y-86058808D01*
X127620751Y-86058808D02*
X127582656Y-85982618D01*
X127582656Y-85982618D02*
X127506465Y-85944522D01*
X127506465Y-85944522D02*
X127468370Y-85944522D01*
X127468370Y-85944522D02*
X127392179Y-85982618D01*
X127392179Y-85982618D02*
X127354084Y-86058808D01*
X127354084Y-86058808D02*
X127354084Y-86173094D01*
X127354084Y-86173094D02*
X127315989Y-86249284D01*
X127315989Y-86249284D02*
X127239798Y-86287380D01*
X127239798Y-86287380D02*
X127201703Y-86287380D01*
X127201703Y-86287380D02*
X127125513Y-86249284D01*
X127125513Y-86249284D02*
X127087417Y-86173094D01*
X127087417Y-86173094D02*
X127087417Y-86058808D01*
X127087417Y-86058808D02*
X127125513Y-85982618D01*
X127087417Y-85258808D02*
X127620751Y-85258808D01*
X126782656Y-85449284D02*
X127354084Y-85639761D01*
X127354084Y-85639761D02*
X127354084Y-85144522D01*
X154271374Y-131970334D02*
X154271374Y-132541762D01*
X154271374Y-132256048D02*
X153271374Y-132256048D01*
X153271374Y-132256048D02*
X153414231Y-132351286D01*
X153414231Y-132351286D02*
X153509469Y-132446524D01*
X153509469Y-132446524D02*
X153557088Y-132541762D01*
X153271374Y-131351286D02*
X153271374Y-131256048D01*
X153271374Y-131256048D02*
X153318993Y-131160810D01*
X153318993Y-131160810D02*
X153366612Y-131113191D01*
X153366612Y-131113191D02*
X153461850Y-131065572D01*
X153461850Y-131065572D02*
X153652326Y-131017953D01*
X153652326Y-131017953D02*
X153890421Y-131017953D01*
X153890421Y-131017953D02*
X154080897Y-131065572D01*
X154080897Y-131065572D02*
X154176135Y-131113191D01*
X154176135Y-131113191D02*
X154223755Y-131160810D01*
X154223755Y-131160810D02*
X154271374Y-131256048D01*
X154271374Y-131256048D02*
X154271374Y-131351286D01*
X154271374Y-131351286D02*
X154223755Y-131446524D01*
X154223755Y-131446524D02*
X154176135Y-131494143D01*
X154176135Y-131494143D02*
X154080897Y-131541762D01*
X154080897Y-131541762D02*
X153890421Y-131589381D01*
X153890421Y-131589381D02*
X153652326Y-131589381D01*
X153652326Y-131589381D02*
X153461850Y-131541762D01*
X153461850Y-131541762D02*
X153366612Y-131494143D01*
X153366612Y-131494143D02*
X153318993Y-131446524D01*
X153318993Y-131446524D02*
X153271374Y-131351286D01*
X154271374Y-130589381D02*
X153271374Y-130589381D01*
X153890421Y-130494143D02*
X154271374Y-130208429D01*
X153604707Y-130208429D02*
X153985659Y-130589381D01*
X132755312Y-124356895D02*
X132298169Y-124356895D01*
X132526741Y-124356895D02*
X132526741Y-123556895D01*
X132526741Y-123556895D02*
X132450550Y-123671180D01*
X132450550Y-123671180D02*
X132374360Y-123747371D01*
X132374360Y-123747371D02*
X132298169Y-123785466D01*
X133098170Y-124356895D02*
X133098170Y-123556895D01*
X133098170Y-123556895D02*
X133555313Y-124356895D01*
X133555313Y-124356895D02*
X133555313Y-123556895D01*
X134279122Y-123823561D02*
X134279122Y-124356895D01*
X134088646Y-123518800D02*
X133898169Y-124090228D01*
X133898169Y-124090228D02*
X134393408Y-124090228D01*
X135117217Y-124356895D02*
X134660074Y-124356895D01*
X134888646Y-124356895D02*
X134888646Y-123556895D01*
X134888646Y-123556895D02*
X134812455Y-123671180D01*
X134812455Y-123671180D02*
X134736265Y-123747371D01*
X134736265Y-123747371D02*
X134660074Y-123785466D01*
X135802932Y-123823561D02*
X135802932Y-124356895D01*
X135612456Y-123518800D02*
X135421979Y-124090228D01*
X135421979Y-124090228D02*
X135917218Y-124090228D01*
X136336265Y-123899752D02*
X136260075Y-123861657D01*
X136260075Y-123861657D02*
X136221980Y-123823561D01*
X136221980Y-123823561D02*
X136183884Y-123747371D01*
X136183884Y-123747371D02*
X136183884Y-123709276D01*
X136183884Y-123709276D02*
X136221980Y-123633085D01*
X136221980Y-123633085D02*
X136260075Y-123594990D01*
X136260075Y-123594990D02*
X136336265Y-123556895D01*
X136336265Y-123556895D02*
X136488646Y-123556895D01*
X136488646Y-123556895D02*
X136564837Y-123594990D01*
X136564837Y-123594990D02*
X136602932Y-123633085D01*
X136602932Y-123633085D02*
X136641027Y-123709276D01*
X136641027Y-123709276D02*
X136641027Y-123747371D01*
X136641027Y-123747371D02*
X136602932Y-123823561D01*
X136602932Y-123823561D02*
X136564837Y-123861657D01*
X136564837Y-123861657D02*
X136488646Y-123899752D01*
X136488646Y-123899752D02*
X136336265Y-123899752D01*
X136336265Y-123899752D02*
X136260075Y-123937847D01*
X136260075Y-123937847D02*
X136221980Y-123975942D01*
X136221980Y-123975942D02*
X136183884Y-124052133D01*
X136183884Y-124052133D02*
X136183884Y-124204514D01*
X136183884Y-124204514D02*
X136221980Y-124280704D01*
X136221980Y-124280704D02*
X136260075Y-124318800D01*
X136260075Y-124318800D02*
X136336265Y-124356895D01*
X136336265Y-124356895D02*
X136488646Y-124356895D01*
X136488646Y-124356895D02*
X136564837Y-124318800D01*
X136564837Y-124318800D02*
X136602932Y-124280704D01*
X136602932Y-124280704D02*
X136641027Y-124204514D01*
X136641027Y-124204514D02*
X136641027Y-124052133D01*
X136641027Y-124052133D02*
X136602932Y-123975942D01*
X136602932Y-123975942D02*
X136564837Y-123937847D01*
X136564837Y-123937847D02*
X136488646Y-123899752D01*
X125179582Y-108581070D02*
X124703391Y-108914403D01*
X125179582Y-109152498D02*
X124179582Y-109152498D01*
X124179582Y-109152498D02*
X124179582Y-108771546D01*
X124179582Y-108771546D02*
X124227201Y-108676308D01*
X124227201Y-108676308D02*
X124274820Y-108628689D01*
X124274820Y-108628689D02*
X124370058Y-108581070D01*
X124370058Y-108581070D02*
X124512915Y-108581070D01*
X124512915Y-108581070D02*
X124608153Y-108628689D01*
X124608153Y-108628689D02*
X124655772Y-108676308D01*
X124655772Y-108676308D02*
X124703391Y-108771546D01*
X124703391Y-108771546D02*
X124703391Y-109152498D01*
X125131963Y-107771546D02*
X125179582Y-107866784D01*
X125179582Y-107866784D02*
X125179582Y-108057260D01*
X125179582Y-108057260D02*
X125131963Y-108152498D01*
X125131963Y-108152498D02*
X125036724Y-108200117D01*
X125036724Y-108200117D02*
X124655772Y-108200117D01*
X124655772Y-108200117D02*
X124560534Y-108152498D01*
X124560534Y-108152498D02*
X124512915Y-108057260D01*
X124512915Y-108057260D02*
X124512915Y-107866784D01*
X124512915Y-107866784D02*
X124560534Y-107771546D01*
X124560534Y-107771546D02*
X124655772Y-107723927D01*
X124655772Y-107723927D02*
X124751010Y-107723927D01*
X124751010Y-107723927D02*
X124846248Y-108200117D01*
X124512915Y-107390593D02*
X125179582Y-107152498D01*
X125179582Y-107152498D02*
X124512915Y-106914403D01*
X125179582Y-105247736D02*
X125179582Y-105819164D01*
X125179582Y-105533450D02*
X124179582Y-105533450D01*
X124179582Y-105533450D02*
X124322439Y-105628688D01*
X124322439Y-105628688D02*
X124417677Y-105723926D01*
X124417677Y-105723926D02*
X124465296Y-105819164D01*
X125084343Y-104819164D02*
X125131963Y-104771545D01*
X125131963Y-104771545D02*
X125179582Y-104819164D01*
X125179582Y-104819164D02*
X125131963Y-104866783D01*
X125131963Y-104866783D02*
X125084343Y-104819164D01*
X125084343Y-104819164D02*
X125179582Y-104819164D01*
X125179582Y-103819165D02*
X125179582Y-104390593D01*
X125179582Y-104104879D02*
X124179582Y-104104879D01*
X124179582Y-104104879D02*
X124322439Y-104200117D01*
X124322439Y-104200117D02*
X124417677Y-104295355D01*
X124417677Y-104295355D02*
X124465296Y-104390593D01*
D14*
X121153320Y-115620668D02*
X122581891Y-115620668D01*
X122581891Y-115620668D02*
X122867605Y-115715907D01*
X122867605Y-115715907D02*
X123058082Y-115906383D01*
X123058082Y-115906383D02*
X123153320Y-116192097D01*
X123153320Y-116192097D02*
X123153320Y-116382573D01*
X122581891Y-114763525D02*
X122581891Y-113811144D01*
X123153320Y-114954001D02*
X121153320Y-114287335D01*
X121153320Y-114287335D02*
X123153320Y-113620668D01*
X122962843Y-111811144D02*
X123058082Y-111906382D01*
X123058082Y-111906382D02*
X123153320Y-112192096D01*
X123153320Y-112192096D02*
X123153320Y-112382572D01*
X123153320Y-112382572D02*
X123058082Y-112668287D01*
X123058082Y-112668287D02*
X122867605Y-112858763D01*
X122867605Y-112858763D02*
X122677129Y-112954001D01*
X122677129Y-112954001D02*
X122296177Y-113049239D01*
X122296177Y-113049239D02*
X122010462Y-113049239D01*
X122010462Y-113049239D02*
X121629510Y-112954001D01*
X121629510Y-112954001D02*
X121439034Y-112858763D01*
X121439034Y-112858763D02*
X121248558Y-112668287D01*
X121248558Y-112668287D02*
X121153320Y-112382572D01*
X121153320Y-112382572D02*
X121153320Y-112192096D01*
X121153320Y-112192096D02*
X121248558Y-111906382D01*
X121248558Y-111906382D02*
X121343796Y-111811144D01*
X122962843Y-109811144D02*
X123058082Y-109906382D01*
X123058082Y-109906382D02*
X123153320Y-110192096D01*
X123153320Y-110192096D02*
X123153320Y-110382572D01*
X123153320Y-110382572D02*
X123058082Y-110668287D01*
X123058082Y-110668287D02*
X122867605Y-110858763D01*
X122867605Y-110858763D02*
X122677129Y-110954001D01*
X122677129Y-110954001D02*
X122296177Y-111049239D01*
X122296177Y-111049239D02*
X122010462Y-111049239D01*
X122010462Y-111049239D02*
X121629510Y-110954001D01*
X121629510Y-110954001D02*
X121439034Y-110858763D01*
X121439034Y-110858763D02*
X121248558Y-110668287D01*
X121248558Y-110668287D02*
X121153320Y-110382572D01*
X121153320Y-110382572D02*
X121153320Y-110192096D01*
X121153320Y-110192096D02*
X121248558Y-109906382D01*
X121248558Y-109906382D02*
X121343796Y-109811144D01*
X121153320Y-108096858D02*
X121153320Y-108477811D01*
X121153320Y-108477811D02*
X121248558Y-108668287D01*
X121248558Y-108668287D02*
X121343796Y-108763525D01*
X121343796Y-108763525D02*
X121629510Y-108954001D01*
X121629510Y-108954001D02*
X122010462Y-109049239D01*
X122010462Y-109049239D02*
X122772367Y-109049239D01*
X122772367Y-109049239D02*
X122962843Y-108954001D01*
X122962843Y-108954001D02*
X123058082Y-108858763D01*
X123058082Y-108858763D02*
X123153320Y-108668287D01*
X123153320Y-108668287D02*
X123153320Y-108287334D01*
X123153320Y-108287334D02*
X123058082Y-108096858D01*
X123058082Y-108096858D02*
X122962843Y-108001620D01*
X122962843Y-108001620D02*
X122772367Y-107906382D01*
X122772367Y-107906382D02*
X122296177Y-107906382D01*
X122296177Y-107906382D02*
X122105701Y-108001620D01*
X122105701Y-108001620D02*
X122010462Y-108096858D01*
X122010462Y-108096858D02*
X121915224Y-108287334D01*
X121915224Y-108287334D02*
X121915224Y-108668287D01*
X121915224Y-108668287D02*
X122010462Y-108858763D01*
X122010462Y-108858763D02*
X122105701Y-108954001D01*
X122105701Y-108954001D02*
X122296177Y-109049239D01*
X121819986Y-106192096D02*
X123153320Y-106192096D01*
X121058082Y-106668287D02*
X122486653Y-107144477D01*
X122486653Y-107144477D02*
X122486653Y-105906382D01*
X121153320Y-102668286D02*
X121153320Y-103620667D01*
X121153320Y-103620667D02*
X122105701Y-103715905D01*
X122105701Y-103715905D02*
X122010462Y-103620667D01*
X122010462Y-103620667D02*
X121915224Y-103430191D01*
X121915224Y-103430191D02*
X121915224Y-102954000D01*
X121915224Y-102954000D02*
X122010462Y-102763524D01*
X122010462Y-102763524D02*
X122105701Y-102668286D01*
X122105701Y-102668286D02*
X122296177Y-102573048D01*
X122296177Y-102573048D02*
X122772367Y-102573048D01*
X122772367Y-102573048D02*
X122962843Y-102668286D01*
X122962843Y-102668286D02*
X123058082Y-102763524D01*
X123058082Y-102763524D02*
X123153320Y-102954000D01*
X123153320Y-102954000D02*
X123153320Y-103430191D01*
X123153320Y-103430191D02*
X123058082Y-103620667D01*
X123058082Y-103620667D02*
X122962843Y-103715905D01*
X123153320Y-100668286D02*
X123153320Y-101811143D01*
X123153320Y-101239715D02*
X121153320Y-101239715D01*
X121153320Y-101239715D02*
X121439034Y-101430191D01*
X121439034Y-101430191D02*
X121629510Y-101620667D01*
X121629510Y-101620667D02*
X121724748Y-101811143D01*
X121343796Y-99906381D02*
X121248558Y-99811143D01*
X121248558Y-99811143D02*
X121153320Y-99620667D01*
X121153320Y-99620667D02*
X121153320Y-99144476D01*
X121153320Y-99144476D02*
X121248558Y-98954000D01*
X121248558Y-98954000D02*
X121343796Y-98858762D01*
X121343796Y-98858762D02*
X121534272Y-98763524D01*
X121534272Y-98763524D02*
X121724748Y-98763524D01*
X121724748Y-98763524D02*
X122010462Y-98858762D01*
X122010462Y-98858762D02*
X123153320Y-100001619D01*
X123153320Y-100001619D02*
X123153320Y-98763524D01*
X123153320Y-97906381D02*
X121153320Y-97906381D01*
X123153320Y-96763524D02*
X122010462Y-97620667D01*
X121153320Y-96763524D02*
X122296177Y-97906381D01*
D13*
X164410077Y-132205571D02*
X164410077Y-132776999D01*
X164410077Y-132491285D02*
X163410077Y-132491285D01*
X163410077Y-132491285D02*
X163552934Y-132586523D01*
X163552934Y-132586523D02*
X163648172Y-132681761D01*
X163648172Y-132681761D02*
X163695791Y-132776999D01*
X163410077Y-131586523D02*
X163410077Y-131491285D01*
X163410077Y-131491285D02*
X163457696Y-131396047D01*
X163457696Y-131396047D02*
X163505315Y-131348428D01*
X163505315Y-131348428D02*
X163600553Y-131300809D01*
X163600553Y-131300809D02*
X163791029Y-131253190D01*
X163791029Y-131253190D02*
X164029124Y-131253190D01*
X164029124Y-131253190D02*
X164219600Y-131300809D01*
X164219600Y-131300809D02*
X164314838Y-131348428D01*
X164314838Y-131348428D02*
X164362458Y-131396047D01*
X164362458Y-131396047D02*
X164410077Y-131491285D01*
X164410077Y-131491285D02*
X164410077Y-131586523D01*
X164410077Y-131586523D02*
X164362458Y-131681761D01*
X164362458Y-131681761D02*
X164314838Y-131729380D01*
X164314838Y-131729380D02*
X164219600Y-131776999D01*
X164219600Y-131776999D02*
X164029124Y-131824618D01*
X164029124Y-131824618D02*
X163791029Y-131824618D01*
X163791029Y-131824618D02*
X163600553Y-131776999D01*
X163600553Y-131776999D02*
X163505315Y-131729380D01*
X163505315Y-131729380D02*
X163457696Y-131681761D01*
X163457696Y-131681761D02*
X163410077Y-131586523D01*
X164410077Y-130824618D02*
X163410077Y-130824618D01*
X164029124Y-130729380D02*
X164410077Y-130443666D01*
X163743410Y-130443666D02*
X164124362Y-130824618D01*
X132755312Y-129436895D02*
X132298169Y-129436895D01*
X132526741Y-129436895D02*
X132526741Y-128636895D01*
X132526741Y-128636895D02*
X132450550Y-128751180D01*
X132450550Y-128751180D02*
X132374360Y-128827371D01*
X132374360Y-128827371D02*
X132298169Y-128865466D01*
X133098170Y-129436895D02*
X133098170Y-128636895D01*
X133098170Y-128636895D02*
X133555313Y-129436895D01*
X133555313Y-129436895D02*
X133555313Y-128636895D01*
X134279122Y-128903561D02*
X134279122Y-129436895D01*
X134088646Y-128598800D02*
X133898169Y-129170228D01*
X133898169Y-129170228D02*
X134393408Y-129170228D01*
X135117217Y-129436895D02*
X134660074Y-129436895D01*
X134888646Y-129436895D02*
X134888646Y-128636895D01*
X134888646Y-128636895D02*
X134812455Y-128751180D01*
X134812455Y-128751180D02*
X134736265Y-128827371D01*
X134736265Y-128827371D02*
X134660074Y-128865466D01*
X135802932Y-128903561D02*
X135802932Y-129436895D01*
X135612456Y-128598800D02*
X135421979Y-129170228D01*
X135421979Y-129170228D02*
X135917218Y-129170228D01*
X136336265Y-128979752D02*
X136260075Y-128941657D01*
X136260075Y-128941657D02*
X136221980Y-128903561D01*
X136221980Y-128903561D02*
X136183884Y-128827371D01*
X136183884Y-128827371D02*
X136183884Y-128789276D01*
X136183884Y-128789276D02*
X136221980Y-128713085D01*
X136221980Y-128713085D02*
X136260075Y-128674990D01*
X136260075Y-128674990D02*
X136336265Y-128636895D01*
X136336265Y-128636895D02*
X136488646Y-128636895D01*
X136488646Y-128636895D02*
X136564837Y-128674990D01*
X136564837Y-128674990D02*
X136602932Y-128713085D01*
X136602932Y-128713085D02*
X136641027Y-128789276D01*
X136641027Y-128789276D02*
X136641027Y-128827371D01*
X136641027Y-128827371D02*
X136602932Y-128903561D01*
X136602932Y-128903561D02*
X136564837Y-128941657D01*
X136564837Y-128941657D02*
X136488646Y-128979752D01*
X136488646Y-128979752D02*
X136336265Y-128979752D01*
X136336265Y-128979752D02*
X136260075Y-129017847D01*
X136260075Y-129017847D02*
X136221980Y-129055942D01*
X136221980Y-129055942D02*
X136183884Y-129132133D01*
X136183884Y-129132133D02*
X136183884Y-129284514D01*
X136183884Y-129284514D02*
X136221980Y-129360704D01*
X136221980Y-129360704D02*
X136260075Y-129398800D01*
X136260075Y-129398800D02*
X136336265Y-129436895D01*
X136336265Y-129436895D02*
X136488646Y-129436895D01*
X136488646Y-129436895D02*
X136564837Y-129398800D01*
X136564837Y-129398800D02*
X136602932Y-129360704D01*
X136602932Y-129360704D02*
X136641027Y-129284514D01*
X136641027Y-129284514D02*
X136641027Y-129132133D01*
X136641027Y-129132133D02*
X136602932Y-129055942D01*
X136602932Y-129055942D02*
X136564837Y-129017847D01*
X136564837Y-129017847D02*
X136488646Y-128979752D01*
X143765383Y-132023422D02*
X143765383Y-132594850D01*
X143765383Y-132309136D02*
X142765383Y-132309136D01*
X142765383Y-132309136D02*
X142908240Y-132404374D01*
X142908240Y-132404374D02*
X143003478Y-132499612D01*
X143003478Y-132499612D02*
X143051097Y-132594850D01*
X142765383Y-131404374D02*
X142765383Y-131309136D01*
X142765383Y-131309136D02*
X142813002Y-131213898D01*
X142813002Y-131213898D02*
X142860621Y-131166279D01*
X142860621Y-131166279D02*
X142955859Y-131118660D01*
X142955859Y-131118660D02*
X143146335Y-131071041D01*
X143146335Y-131071041D02*
X143384430Y-131071041D01*
X143384430Y-131071041D02*
X143574906Y-131118660D01*
X143574906Y-131118660D02*
X143670144Y-131166279D01*
X143670144Y-131166279D02*
X143717764Y-131213898D01*
X143717764Y-131213898D02*
X143765383Y-131309136D01*
X143765383Y-131309136D02*
X143765383Y-131404374D01*
X143765383Y-131404374D02*
X143717764Y-131499612D01*
X143717764Y-131499612D02*
X143670144Y-131547231D01*
X143670144Y-131547231D02*
X143574906Y-131594850D01*
X143574906Y-131594850D02*
X143384430Y-131642469D01*
X143384430Y-131642469D02*
X143146335Y-131642469D01*
X143146335Y-131642469D02*
X142955859Y-131594850D01*
X142955859Y-131594850D02*
X142860621Y-131547231D01*
X142860621Y-131547231D02*
X142813002Y-131499612D01*
X142813002Y-131499612D02*
X142765383Y-131404374D01*
X143765383Y-130642469D02*
X142765383Y-130642469D01*
X143384430Y-130547231D02*
X143765383Y-130261517D01*
X143098716Y-130261517D02*
X143479668Y-130642469D01*
D15*
X149368571Y-97272256D02*
X149511428Y-97319875D01*
X149511428Y-97319875D02*
X149749523Y-97319875D01*
X149749523Y-97319875D02*
X149844761Y-97272256D01*
X149844761Y-97272256D02*
X149892380Y-97224636D01*
X149892380Y-97224636D02*
X149939999Y-97129398D01*
X149939999Y-97129398D02*
X149939999Y-97034160D01*
X149939999Y-97034160D02*
X149892380Y-96938922D01*
X149892380Y-96938922D02*
X149844761Y-96891303D01*
X149844761Y-96891303D02*
X149749523Y-96843684D01*
X149749523Y-96843684D02*
X149559047Y-96796065D01*
X149559047Y-96796065D02*
X149463809Y-96748446D01*
X149463809Y-96748446D02*
X149416190Y-96700827D01*
X149416190Y-96700827D02*
X149368571Y-96605589D01*
X149368571Y-96605589D02*
X149368571Y-96510351D01*
X149368571Y-96510351D02*
X149416190Y-96415113D01*
X149416190Y-96415113D02*
X149463809Y-96367494D01*
X149463809Y-96367494D02*
X149559047Y-96319875D01*
X149559047Y-96319875D02*
X149797142Y-96319875D01*
X149797142Y-96319875D02*
X149939999Y-96367494D01*
X150320952Y-97272256D02*
X150463809Y-97319875D01*
X150463809Y-97319875D02*
X150701904Y-97319875D01*
X150701904Y-97319875D02*
X150797142Y-97272256D01*
X150797142Y-97272256D02*
X150844761Y-97224636D01*
X150844761Y-97224636D02*
X150892380Y-97129398D01*
X150892380Y-97129398D02*
X150892380Y-97034160D01*
X150892380Y-97034160D02*
X150844761Y-96938922D01*
X150844761Y-96938922D02*
X150797142Y-96891303D01*
X150797142Y-96891303D02*
X150701904Y-96843684D01*
X150701904Y-96843684D02*
X150511428Y-96796065D01*
X150511428Y-96796065D02*
X150416190Y-96748446D01*
X150416190Y-96748446D02*
X150368571Y-96700827D01*
X150368571Y-96700827D02*
X150320952Y-96605589D01*
X150320952Y-96605589D02*
X150320952Y-96510351D01*
X150320952Y-96510351D02*
X150368571Y-96415113D01*
X150368571Y-96415113D02*
X150416190Y-96367494D01*
X150416190Y-96367494D02*
X150511428Y-96319875D01*
X150511428Y-96319875D02*
X150749523Y-96319875D01*
X150749523Y-96319875D02*
X150892380Y-96367494D01*
X151178095Y-96319875D02*
X151749523Y-96319875D01*
X151463809Y-97319875D02*
X151463809Y-96319875D01*
X151987619Y-96319875D02*
X152606666Y-96319875D01*
X152606666Y-96319875D02*
X152273333Y-96700827D01*
X152273333Y-96700827D02*
X152416190Y-96700827D01*
X152416190Y-96700827D02*
X152511428Y-96748446D01*
X152511428Y-96748446D02*
X152559047Y-96796065D01*
X152559047Y-96796065D02*
X152606666Y-96891303D01*
X152606666Y-96891303D02*
X152606666Y-97129398D01*
X152606666Y-97129398D02*
X152559047Y-97224636D01*
X152559047Y-97224636D02*
X152511428Y-97272256D01*
X152511428Y-97272256D02*
X152416190Y-97319875D01*
X152416190Y-97319875D02*
X152130476Y-97319875D01*
X152130476Y-97319875D02*
X152035238Y-97272256D01*
X152035238Y-97272256D02*
X151987619Y-97224636D01*
X153082857Y-97319875D02*
X153273333Y-97319875D01*
X153273333Y-97319875D02*
X153368571Y-97272256D01*
X153368571Y-97272256D02*
X153416190Y-97224636D01*
X153416190Y-97224636D02*
X153511428Y-97081779D01*
X153511428Y-97081779D02*
X153559047Y-96891303D01*
X153559047Y-96891303D02*
X153559047Y-96510351D01*
X153559047Y-96510351D02*
X153511428Y-96415113D01*
X153511428Y-96415113D02*
X153463809Y-96367494D01*
X153463809Y-96367494D02*
X153368571Y-96319875D01*
X153368571Y-96319875D02*
X153178095Y-96319875D01*
X153178095Y-96319875D02*
X153082857Y-96367494D01*
X153082857Y-96367494D02*
X153035238Y-96415113D01*
X153035238Y-96415113D02*
X152987619Y-96510351D01*
X152987619Y-96510351D02*
X152987619Y-96748446D01*
X152987619Y-96748446D02*
X153035238Y-96843684D01*
X153035238Y-96843684D02*
X153082857Y-96891303D01*
X153082857Y-96891303D02*
X153178095Y-96938922D01*
X153178095Y-96938922D02*
X153368571Y-96938922D01*
X153368571Y-96938922D02*
X153463809Y-96891303D01*
X153463809Y-96891303D02*
X153511428Y-96843684D01*
X153511428Y-96843684D02*
X153559047Y-96748446D01*
X153940000Y-97272256D02*
X154082857Y-97319875D01*
X154082857Y-97319875D02*
X154320952Y-97319875D01*
X154320952Y-97319875D02*
X154416190Y-97272256D01*
X154416190Y-97272256D02*
X154463809Y-97224636D01*
X154463809Y-97224636D02*
X154511428Y-97129398D01*
X154511428Y-97129398D02*
X154511428Y-97034160D01*
X154511428Y-97034160D02*
X154463809Y-96938922D01*
X154463809Y-96938922D02*
X154416190Y-96891303D01*
X154416190Y-96891303D02*
X154320952Y-96843684D01*
X154320952Y-96843684D02*
X154130476Y-96796065D01*
X154130476Y-96796065D02*
X154035238Y-96748446D01*
X154035238Y-96748446D02*
X153987619Y-96700827D01*
X153987619Y-96700827D02*
X153940000Y-96605589D01*
X153940000Y-96605589D02*
X153940000Y-96510351D01*
X153940000Y-96510351D02*
X153987619Y-96415113D01*
X153987619Y-96415113D02*
X154035238Y-96367494D01*
X154035238Y-96367494D02*
X154130476Y-96319875D01*
X154130476Y-96319875D02*
X154368571Y-96319875D01*
X154368571Y-96319875D02*
X154511428Y-96367494D01*
X155273333Y-96796065D02*
X154940000Y-96796065D01*
X154940000Y-97319875D02*
X154940000Y-96319875D01*
X154940000Y-96319875D02*
X155416190Y-96319875D01*
X155987619Y-96319875D02*
X156082857Y-96319875D01*
X156082857Y-96319875D02*
X156178095Y-96367494D01*
X156178095Y-96367494D02*
X156225714Y-96415113D01*
X156225714Y-96415113D02*
X156273333Y-96510351D01*
X156273333Y-96510351D02*
X156320952Y-96700827D01*
X156320952Y-96700827D02*
X156320952Y-96938922D01*
X156320952Y-96938922D02*
X156273333Y-97129398D01*
X156273333Y-97129398D02*
X156225714Y-97224636D01*
X156225714Y-97224636D02*
X156178095Y-97272256D01*
X156178095Y-97272256D02*
X156082857Y-97319875D01*
X156082857Y-97319875D02*
X155987619Y-97319875D01*
X155987619Y-97319875D02*
X155892381Y-97272256D01*
X155892381Y-97272256D02*
X155844762Y-97224636D01*
X155844762Y-97224636D02*
X155797143Y-97129398D01*
X155797143Y-97129398D02*
X155749524Y-96938922D01*
X155749524Y-96938922D02*
X155749524Y-96700827D01*
X155749524Y-96700827D02*
X155797143Y-96510351D01*
X155797143Y-96510351D02*
X155844762Y-96415113D01*
X155844762Y-96415113D02*
X155892381Y-96367494D01*
X155892381Y-96367494D02*
X155987619Y-96319875D01*
X157178095Y-96653208D02*
X157178095Y-97319875D01*
X156940000Y-96272256D02*
X156701905Y-96986541D01*
X156701905Y-96986541D02*
X157320952Y-96986541D01*
X157892381Y-96319875D02*
X157987619Y-96319875D01*
X157987619Y-96319875D02*
X158082857Y-96367494D01*
X158082857Y-96367494D02*
X158130476Y-96415113D01*
X158130476Y-96415113D02*
X158178095Y-96510351D01*
X158178095Y-96510351D02*
X158225714Y-96700827D01*
X158225714Y-96700827D02*
X158225714Y-96938922D01*
X158225714Y-96938922D02*
X158178095Y-97129398D01*
X158178095Y-97129398D02*
X158130476Y-97224636D01*
X158130476Y-97224636D02*
X158082857Y-97272256D01*
X158082857Y-97272256D02*
X157987619Y-97319875D01*
X157987619Y-97319875D02*
X157892381Y-97319875D01*
X157892381Y-97319875D02*
X157797143Y-97272256D01*
X157797143Y-97272256D02*
X157749524Y-97224636D01*
X157749524Y-97224636D02*
X157701905Y-97129398D01*
X157701905Y-97129398D02*
X157654286Y-96938922D01*
X157654286Y-96938922D02*
X157654286Y-96700827D01*
X157654286Y-96700827D02*
X157701905Y-96510351D01*
X157701905Y-96510351D02*
X157749524Y-96415113D01*
X157749524Y-96415113D02*
X157797143Y-96367494D01*
X157797143Y-96367494D02*
X157892381Y-96319875D01*
X159559048Y-97319875D02*
X159463810Y-97272256D01*
X159463810Y-97272256D02*
X159416191Y-97224636D01*
X159416191Y-97224636D02*
X159368572Y-97129398D01*
X159368572Y-97129398D02*
X159368572Y-96843684D01*
X159368572Y-96843684D02*
X159416191Y-96748446D01*
X159416191Y-96748446D02*
X159463810Y-96700827D01*
X159463810Y-96700827D02*
X159559048Y-96653208D01*
X159559048Y-96653208D02*
X159701905Y-96653208D01*
X159701905Y-96653208D02*
X159797143Y-96700827D01*
X159797143Y-96700827D02*
X159844762Y-96748446D01*
X159844762Y-96748446D02*
X159892381Y-96843684D01*
X159892381Y-96843684D02*
X159892381Y-97129398D01*
X159892381Y-97129398D02*
X159844762Y-97224636D01*
X159844762Y-97224636D02*
X159797143Y-97272256D01*
X159797143Y-97272256D02*
X159701905Y-97319875D01*
X159701905Y-97319875D02*
X159559048Y-97319875D01*
X160320953Y-97319875D02*
X160320953Y-96653208D01*
X160320953Y-96843684D02*
X160368572Y-96748446D01*
X160368572Y-96748446D02*
X160416191Y-96700827D01*
X160416191Y-96700827D02*
X160511429Y-96653208D01*
X160511429Y-96653208D02*
X160606667Y-96653208D01*
X151939999Y-98834580D02*
X151892380Y-98882200D01*
X151892380Y-98882200D02*
X151749523Y-98929819D01*
X151749523Y-98929819D02*
X151654285Y-98929819D01*
X151654285Y-98929819D02*
X151511428Y-98882200D01*
X151511428Y-98882200D02*
X151416190Y-98786961D01*
X151416190Y-98786961D02*
X151368571Y-98691723D01*
X151368571Y-98691723D02*
X151320952Y-98501247D01*
X151320952Y-98501247D02*
X151320952Y-98358390D01*
X151320952Y-98358390D02*
X151368571Y-98167914D01*
X151368571Y-98167914D02*
X151416190Y-98072676D01*
X151416190Y-98072676D02*
X151511428Y-97977438D01*
X151511428Y-97977438D02*
X151654285Y-97929819D01*
X151654285Y-97929819D02*
X151749523Y-97929819D01*
X151749523Y-97929819D02*
X151892380Y-97977438D01*
X151892380Y-97977438D02*
X151939999Y-98025057D01*
X152511428Y-98929819D02*
X152416190Y-98882200D01*
X152416190Y-98882200D02*
X152368571Y-98834580D01*
X152368571Y-98834580D02*
X152320952Y-98739342D01*
X152320952Y-98739342D02*
X152320952Y-98453628D01*
X152320952Y-98453628D02*
X152368571Y-98358390D01*
X152368571Y-98358390D02*
X152416190Y-98310771D01*
X152416190Y-98310771D02*
X152511428Y-98263152D01*
X152511428Y-98263152D02*
X152654285Y-98263152D01*
X152654285Y-98263152D02*
X152749523Y-98310771D01*
X152749523Y-98310771D02*
X152797142Y-98358390D01*
X152797142Y-98358390D02*
X152844761Y-98453628D01*
X152844761Y-98453628D02*
X152844761Y-98739342D01*
X152844761Y-98739342D02*
X152797142Y-98834580D01*
X152797142Y-98834580D02*
X152749523Y-98882200D01*
X152749523Y-98882200D02*
X152654285Y-98929819D01*
X152654285Y-98929819D02*
X152511428Y-98929819D01*
X153273333Y-98929819D02*
X153273333Y-98263152D01*
X153273333Y-98358390D02*
X153320952Y-98310771D01*
X153320952Y-98310771D02*
X153416190Y-98263152D01*
X153416190Y-98263152D02*
X153559047Y-98263152D01*
X153559047Y-98263152D02*
X153654285Y-98310771D01*
X153654285Y-98310771D02*
X153701904Y-98406009D01*
X153701904Y-98406009D02*
X153701904Y-98929819D01*
X153701904Y-98406009D02*
X153749523Y-98310771D01*
X153749523Y-98310771D02*
X153844761Y-98263152D01*
X153844761Y-98263152D02*
X153987618Y-98263152D01*
X153987618Y-98263152D02*
X154082857Y-98310771D01*
X154082857Y-98310771D02*
X154130476Y-98406009D01*
X154130476Y-98406009D02*
X154130476Y-98929819D01*
X154606666Y-98263152D02*
X154606666Y-99263152D01*
X154606666Y-98310771D02*
X154701904Y-98263152D01*
X154701904Y-98263152D02*
X154892380Y-98263152D01*
X154892380Y-98263152D02*
X154987618Y-98310771D01*
X154987618Y-98310771D02*
X155035237Y-98358390D01*
X155035237Y-98358390D02*
X155082856Y-98453628D01*
X155082856Y-98453628D02*
X155082856Y-98739342D01*
X155082856Y-98739342D02*
X155035237Y-98834580D01*
X155035237Y-98834580D02*
X154987618Y-98882200D01*
X154987618Y-98882200D02*
X154892380Y-98929819D01*
X154892380Y-98929819D02*
X154701904Y-98929819D01*
X154701904Y-98929819D02*
X154606666Y-98882200D01*
X155939999Y-98929819D02*
X155939999Y-98406009D01*
X155939999Y-98406009D02*
X155892380Y-98310771D01*
X155892380Y-98310771D02*
X155797142Y-98263152D01*
X155797142Y-98263152D02*
X155606666Y-98263152D01*
X155606666Y-98263152D02*
X155511428Y-98310771D01*
X155939999Y-98882200D02*
X155844761Y-98929819D01*
X155844761Y-98929819D02*
X155606666Y-98929819D01*
X155606666Y-98929819D02*
X155511428Y-98882200D01*
X155511428Y-98882200D02*
X155463809Y-98786961D01*
X155463809Y-98786961D02*
X155463809Y-98691723D01*
X155463809Y-98691723D02*
X155511428Y-98596485D01*
X155511428Y-98596485D02*
X155606666Y-98548866D01*
X155606666Y-98548866D02*
X155844761Y-98548866D01*
X155844761Y-98548866D02*
X155939999Y-98501247D01*
X156273333Y-98263152D02*
X156654285Y-98263152D01*
X156416190Y-97929819D02*
X156416190Y-98786961D01*
X156416190Y-98786961D02*
X156463809Y-98882200D01*
X156463809Y-98882200D02*
X156559047Y-98929819D01*
X156559047Y-98929819D02*
X156654285Y-98929819D01*
X156987619Y-98929819D02*
X156987619Y-98263152D01*
X156987619Y-97929819D02*
X156940000Y-97977438D01*
X156940000Y-97977438D02*
X156987619Y-98025057D01*
X156987619Y-98025057D02*
X157035238Y-97977438D01*
X157035238Y-97977438D02*
X156987619Y-97929819D01*
X156987619Y-97929819D02*
X156987619Y-98025057D01*
X157463809Y-98929819D02*
X157463809Y-97929819D01*
X157463809Y-98310771D02*
X157559047Y-98263152D01*
X157559047Y-98263152D02*
X157749523Y-98263152D01*
X157749523Y-98263152D02*
X157844761Y-98310771D01*
X157844761Y-98310771D02*
X157892380Y-98358390D01*
X157892380Y-98358390D02*
X157939999Y-98453628D01*
X157939999Y-98453628D02*
X157939999Y-98739342D01*
X157939999Y-98739342D02*
X157892380Y-98834580D01*
X157892380Y-98834580D02*
X157844761Y-98882200D01*
X157844761Y-98882200D02*
X157749523Y-98929819D01*
X157749523Y-98929819D02*
X157559047Y-98929819D01*
X157559047Y-98929819D02*
X157463809Y-98882200D01*
X158511428Y-98929819D02*
X158416190Y-98882200D01*
X158416190Y-98882200D02*
X158368571Y-98786961D01*
X158368571Y-98786961D02*
X158368571Y-97929819D01*
X159273333Y-98882200D02*
X159178095Y-98929819D01*
X159178095Y-98929819D02*
X158987619Y-98929819D01*
X158987619Y-98929819D02*
X158892381Y-98882200D01*
X158892381Y-98882200D02*
X158844762Y-98786961D01*
X158844762Y-98786961D02*
X158844762Y-98406009D01*
X158844762Y-98406009D02*
X158892381Y-98310771D01*
X158892381Y-98310771D02*
X158987619Y-98263152D01*
X158987619Y-98263152D02*
X159178095Y-98263152D01*
X159178095Y-98263152D02*
X159273333Y-98310771D01*
X159273333Y-98310771D02*
X159320952Y-98406009D01*
X159320952Y-98406009D02*
X159320952Y-98501247D01*
X159320952Y-98501247D02*
X158844762Y-98596485D01*
D13*
X153911467Y-72104967D02*
X153911467Y-71104967D01*
X153911467Y-71104967D02*
X154292419Y-71104967D01*
X154292419Y-71104967D02*
X154387657Y-71152586D01*
X154387657Y-71152586D02*
X154435276Y-71200205D01*
X154435276Y-71200205D02*
X154482895Y-71295443D01*
X154482895Y-71295443D02*
X154482895Y-71438300D01*
X154482895Y-71438300D02*
X154435276Y-71533538D01*
X154435276Y-71533538D02*
X154387657Y-71581157D01*
X154387657Y-71581157D02*
X154292419Y-71628776D01*
X154292419Y-71628776D02*
X153911467Y-71628776D01*
X155101943Y-71104967D02*
X155292419Y-71104967D01*
X155292419Y-71104967D02*
X155387657Y-71152586D01*
X155387657Y-71152586D02*
X155482895Y-71247824D01*
X155482895Y-71247824D02*
X155530514Y-71438300D01*
X155530514Y-71438300D02*
X155530514Y-71771633D01*
X155530514Y-71771633D02*
X155482895Y-71962109D01*
X155482895Y-71962109D02*
X155387657Y-72057348D01*
X155387657Y-72057348D02*
X155292419Y-72104967D01*
X155292419Y-72104967D02*
X155101943Y-72104967D01*
X155101943Y-72104967D02*
X155006705Y-72057348D01*
X155006705Y-72057348D02*
X154911467Y-71962109D01*
X154911467Y-71962109D02*
X154863848Y-71771633D01*
X154863848Y-71771633D02*
X154863848Y-71438300D01*
X154863848Y-71438300D02*
X154911467Y-71247824D01*
X154911467Y-71247824D02*
X155006705Y-71152586D01*
X155006705Y-71152586D02*
X155101943Y-71104967D01*
X155863848Y-71104967D02*
X156101943Y-72104967D01*
X156101943Y-72104967D02*
X156292419Y-71390681D01*
X156292419Y-71390681D02*
X156482895Y-72104967D01*
X156482895Y-72104967D02*
X156720991Y-71104967D01*
X157101943Y-71581157D02*
X157435276Y-71581157D01*
X157578133Y-72104967D02*
X157101943Y-72104967D01*
X157101943Y-72104967D02*
X157101943Y-71104967D01*
X157101943Y-71104967D02*
X157578133Y-71104967D01*
X158578133Y-72104967D02*
X158244800Y-71628776D01*
X158006705Y-72104967D02*
X158006705Y-71104967D01*
X158006705Y-71104967D02*
X158387657Y-71104967D01*
X158387657Y-71104967D02*
X158482895Y-71152586D01*
X158482895Y-71152586D02*
X158530514Y-71200205D01*
X158530514Y-71200205D02*
X158578133Y-71295443D01*
X158578133Y-71295443D02*
X158578133Y-71438300D01*
X158578133Y-71438300D02*
X158530514Y-71533538D01*
X158530514Y-71533538D02*
X158482895Y-71581157D01*
X158482895Y-71581157D02*
X158387657Y-71628776D01*
X158387657Y-71628776D02*
X158006705Y-71628776D01*
D15*
X143676281Y-80453963D02*
X143295329Y-80453963D01*
X143295329Y-80453963D02*
X143295329Y-79653963D01*
X143942948Y-80034915D02*
X144209614Y-80034915D01*
X144323900Y-80453963D02*
X143942948Y-80453963D01*
X143942948Y-80453963D02*
X143942948Y-79653963D01*
X143942948Y-79653963D02*
X144323900Y-79653963D01*
X144666758Y-80453963D02*
X144666758Y-79653963D01*
X144666758Y-79653963D02*
X144857234Y-79653963D01*
X144857234Y-79653963D02*
X144971520Y-79692058D01*
X144971520Y-79692058D02*
X145047710Y-79768248D01*
X145047710Y-79768248D02*
X145085805Y-79844439D01*
X145085805Y-79844439D02*
X145123901Y-79996820D01*
X145123901Y-79996820D02*
X145123901Y-80111106D01*
X145123901Y-80111106D02*
X145085805Y-80263487D01*
X145085805Y-80263487D02*
X145047710Y-80339677D01*
X145047710Y-80339677D02*
X144971520Y-80415868D01*
X144971520Y-80415868D02*
X144857234Y-80453963D01*
X144857234Y-80453963D02*
X144666758Y-80453963D01*
X146342948Y-80034915D02*
X146457234Y-80073010D01*
X146457234Y-80073010D02*
X146495329Y-80111106D01*
X146495329Y-80111106D02*
X146533425Y-80187296D01*
X146533425Y-80187296D02*
X146533425Y-80301582D01*
X146533425Y-80301582D02*
X146495329Y-80377772D01*
X146495329Y-80377772D02*
X146457234Y-80415868D01*
X146457234Y-80415868D02*
X146381044Y-80453963D01*
X146381044Y-80453963D02*
X146076282Y-80453963D01*
X146076282Y-80453963D02*
X146076282Y-79653963D01*
X146076282Y-79653963D02*
X146342948Y-79653963D01*
X146342948Y-79653963D02*
X146419139Y-79692058D01*
X146419139Y-79692058D02*
X146457234Y-79730153D01*
X146457234Y-79730153D02*
X146495329Y-79806344D01*
X146495329Y-79806344D02*
X146495329Y-79882534D01*
X146495329Y-79882534D02*
X146457234Y-79958725D01*
X146457234Y-79958725D02*
X146419139Y-79996820D01*
X146419139Y-79996820D02*
X146342948Y-80034915D01*
X146342948Y-80034915D02*
X146076282Y-80034915D01*
X147333425Y-80453963D02*
X147066758Y-80073010D01*
X146876282Y-80453963D02*
X146876282Y-79653963D01*
X146876282Y-79653963D02*
X147181044Y-79653963D01*
X147181044Y-79653963D02*
X147257234Y-79692058D01*
X147257234Y-79692058D02*
X147295329Y-79730153D01*
X147295329Y-79730153D02*
X147333425Y-79806344D01*
X147333425Y-79806344D02*
X147333425Y-79920629D01*
X147333425Y-79920629D02*
X147295329Y-79996820D01*
X147295329Y-79996820D02*
X147257234Y-80034915D01*
X147257234Y-80034915D02*
X147181044Y-80073010D01*
X147181044Y-80073010D02*
X146876282Y-80073010D01*
X147676282Y-80453963D02*
X147676282Y-79653963D01*
X148476281Y-79692058D02*
X148400091Y-79653963D01*
X148400091Y-79653963D02*
X148285805Y-79653963D01*
X148285805Y-79653963D02*
X148171519Y-79692058D01*
X148171519Y-79692058D02*
X148095329Y-79768248D01*
X148095329Y-79768248D02*
X148057234Y-79844439D01*
X148057234Y-79844439D02*
X148019138Y-79996820D01*
X148019138Y-79996820D02*
X148019138Y-80111106D01*
X148019138Y-80111106D02*
X148057234Y-80263487D01*
X148057234Y-80263487D02*
X148095329Y-80339677D01*
X148095329Y-80339677D02*
X148171519Y-80415868D01*
X148171519Y-80415868D02*
X148285805Y-80453963D01*
X148285805Y-80453963D02*
X148361996Y-80453963D01*
X148361996Y-80453963D02*
X148476281Y-80415868D01*
X148476281Y-80415868D02*
X148514377Y-80377772D01*
X148514377Y-80377772D02*
X148514377Y-80111106D01*
X148514377Y-80111106D02*
X148361996Y-80111106D01*
X148857234Y-80453963D02*
X148857234Y-79653963D01*
X148857234Y-80034915D02*
X149314377Y-80034915D01*
X149314377Y-80453963D02*
X149314377Y-79653963D01*
X149581043Y-79653963D02*
X150038186Y-79653963D01*
X149809614Y-80453963D02*
X149809614Y-79653963D01*
X150304853Y-80453963D02*
X150304853Y-79653963D01*
X150304853Y-79653963D02*
X150761996Y-80453963D01*
X150761996Y-80453963D02*
X150761996Y-79653963D01*
X151142948Y-80034915D02*
X151409614Y-80034915D01*
X151523900Y-80453963D02*
X151142948Y-80453963D01*
X151142948Y-80453963D02*
X151142948Y-79653963D01*
X151142948Y-79653963D02*
X151523900Y-79653963D01*
X151828662Y-80415868D02*
X151942948Y-80453963D01*
X151942948Y-80453963D02*
X152133424Y-80453963D01*
X152133424Y-80453963D02*
X152209615Y-80415868D01*
X152209615Y-80415868D02*
X152247710Y-80377772D01*
X152247710Y-80377772D02*
X152285805Y-80301582D01*
X152285805Y-80301582D02*
X152285805Y-80225391D01*
X152285805Y-80225391D02*
X152247710Y-80149201D01*
X152247710Y-80149201D02*
X152209615Y-80111106D01*
X152209615Y-80111106D02*
X152133424Y-80073010D01*
X152133424Y-80073010D02*
X151981043Y-80034915D01*
X151981043Y-80034915D02*
X151904853Y-79996820D01*
X151904853Y-79996820D02*
X151866758Y-79958725D01*
X151866758Y-79958725D02*
X151828662Y-79882534D01*
X151828662Y-79882534D02*
X151828662Y-79806344D01*
X151828662Y-79806344D02*
X151866758Y-79730153D01*
X151866758Y-79730153D02*
X151904853Y-79692058D01*
X151904853Y-79692058D02*
X151981043Y-79653963D01*
X151981043Y-79653963D02*
X152171520Y-79653963D01*
X152171520Y-79653963D02*
X152285805Y-79692058D01*
X152590567Y-80415868D02*
X152704853Y-80453963D01*
X152704853Y-80453963D02*
X152895329Y-80453963D01*
X152895329Y-80453963D02*
X152971520Y-80415868D01*
X152971520Y-80415868D02*
X153009615Y-80377772D01*
X153009615Y-80377772D02*
X153047710Y-80301582D01*
X153047710Y-80301582D02*
X153047710Y-80225391D01*
X153047710Y-80225391D02*
X153009615Y-80149201D01*
X153009615Y-80149201D02*
X152971520Y-80111106D01*
X152971520Y-80111106D02*
X152895329Y-80073010D01*
X152895329Y-80073010D02*
X152742948Y-80034915D01*
X152742948Y-80034915D02*
X152666758Y-79996820D01*
X152666758Y-79996820D02*
X152628663Y-79958725D01*
X152628663Y-79958725D02*
X152590567Y-79882534D01*
X152590567Y-79882534D02*
X152590567Y-79806344D01*
X152590567Y-79806344D02*
X152628663Y-79730153D01*
X152628663Y-79730153D02*
X152666758Y-79692058D01*
X152666758Y-79692058D02*
X152742948Y-79653963D01*
X152742948Y-79653963D02*
X152933425Y-79653963D01*
X152933425Y-79653963D02*
X153047710Y-79692058D01*
X145238185Y-80941918D02*
X145733423Y-80941918D01*
X145733423Y-80941918D02*
X145466757Y-81246680D01*
X145466757Y-81246680D02*
X145581042Y-81246680D01*
X145581042Y-81246680D02*
X145657233Y-81284775D01*
X145657233Y-81284775D02*
X145695328Y-81322870D01*
X145695328Y-81322870D02*
X145733423Y-81399061D01*
X145733423Y-81399061D02*
X145733423Y-81589537D01*
X145733423Y-81589537D02*
X145695328Y-81665727D01*
X145695328Y-81665727D02*
X145657233Y-81703823D01*
X145657233Y-81703823D02*
X145581042Y-81741918D01*
X145581042Y-81741918D02*
X145352471Y-81741918D01*
X145352471Y-81741918D02*
X145276280Y-81703823D01*
X145276280Y-81703823D02*
X145238185Y-81665727D01*
X146000090Y-80941918D02*
X146495328Y-80941918D01*
X146495328Y-80941918D02*
X146228662Y-81246680D01*
X146228662Y-81246680D02*
X146342947Y-81246680D01*
X146342947Y-81246680D02*
X146419138Y-81284775D01*
X146419138Y-81284775D02*
X146457233Y-81322870D01*
X146457233Y-81322870D02*
X146495328Y-81399061D01*
X146495328Y-81399061D02*
X146495328Y-81589537D01*
X146495328Y-81589537D02*
X146457233Y-81665727D01*
X146457233Y-81665727D02*
X146419138Y-81703823D01*
X146419138Y-81703823D02*
X146342947Y-81741918D01*
X146342947Y-81741918D02*
X146114376Y-81741918D01*
X146114376Y-81741918D02*
X146038185Y-81703823D01*
X146038185Y-81703823D02*
X146000090Y-81665727D01*
X146990567Y-80941918D02*
X147066757Y-80941918D01*
X147066757Y-80941918D02*
X147142948Y-80980013D01*
X147142948Y-80980013D02*
X147181043Y-81018108D01*
X147181043Y-81018108D02*
X147219138Y-81094299D01*
X147219138Y-81094299D02*
X147257233Y-81246680D01*
X147257233Y-81246680D02*
X147257233Y-81437156D01*
X147257233Y-81437156D02*
X147219138Y-81589537D01*
X147219138Y-81589537D02*
X147181043Y-81665727D01*
X147181043Y-81665727D02*
X147142948Y-81703823D01*
X147142948Y-81703823D02*
X147066757Y-81741918D01*
X147066757Y-81741918D02*
X146990567Y-81741918D01*
X146990567Y-81741918D02*
X146914376Y-81703823D01*
X146914376Y-81703823D02*
X146876281Y-81665727D01*
X146876281Y-81665727D02*
X146838186Y-81589537D01*
X146838186Y-81589537D02*
X146800090Y-81437156D01*
X146800090Y-81437156D02*
X146800090Y-81246680D01*
X146800090Y-81246680D02*
X146838186Y-81094299D01*
X146838186Y-81094299D02*
X146876281Y-81018108D01*
X146876281Y-81018108D02*
X146914376Y-80980013D01*
X146914376Y-80980013D02*
X146990567Y-80941918D01*
X148209615Y-81437156D02*
X148819139Y-81437156D01*
X150228662Y-81741918D02*
X149771519Y-81741918D01*
X150000091Y-81741918D02*
X150000091Y-80941918D01*
X150000091Y-80941918D02*
X149923900Y-81056203D01*
X149923900Y-81056203D02*
X149847710Y-81132394D01*
X149847710Y-81132394D02*
X149771519Y-81170489D01*
X150571520Y-81741918D02*
X150571520Y-80941918D01*
X151028663Y-81741918D02*
X150685805Y-81284775D01*
X151028663Y-80941918D02*
X150571520Y-81399061D01*
D13*
X130910780Y-104945420D02*
X130910780Y-105402563D01*
X130910780Y-105173991D02*
X130110780Y-105173991D01*
X130110780Y-105173991D02*
X130225065Y-105250182D01*
X130225065Y-105250182D02*
X130301256Y-105326372D01*
X130301256Y-105326372D02*
X130339351Y-105402563D01*
X130110780Y-104450181D02*
X130110780Y-104373991D01*
X130110780Y-104373991D02*
X130148875Y-104297800D01*
X130148875Y-104297800D02*
X130186970Y-104259705D01*
X130186970Y-104259705D02*
X130263161Y-104221610D01*
X130263161Y-104221610D02*
X130415542Y-104183515D01*
X130415542Y-104183515D02*
X130606018Y-104183515D01*
X130606018Y-104183515D02*
X130758399Y-104221610D01*
X130758399Y-104221610D02*
X130834589Y-104259705D01*
X130834589Y-104259705D02*
X130872685Y-104297800D01*
X130872685Y-104297800D02*
X130910780Y-104373991D01*
X130910780Y-104373991D02*
X130910780Y-104450181D01*
X130910780Y-104450181D02*
X130872685Y-104526372D01*
X130872685Y-104526372D02*
X130834589Y-104564467D01*
X130834589Y-104564467D02*
X130758399Y-104602562D01*
X130758399Y-104602562D02*
X130606018Y-104640658D01*
X130606018Y-104640658D02*
X130415542Y-104640658D01*
X130415542Y-104640658D02*
X130263161Y-104602562D01*
X130263161Y-104602562D02*
X130186970Y-104564467D01*
X130186970Y-104564467D02*
X130148875Y-104526372D01*
X130148875Y-104526372D02*
X130110780Y-104450181D01*
X130110780Y-103688276D02*
X130110780Y-103612086D01*
X130110780Y-103612086D02*
X130148875Y-103535895D01*
X130148875Y-103535895D02*
X130186970Y-103497800D01*
X130186970Y-103497800D02*
X130263161Y-103459705D01*
X130263161Y-103459705D02*
X130415542Y-103421610D01*
X130415542Y-103421610D02*
X130606018Y-103421610D01*
X130606018Y-103421610D02*
X130758399Y-103459705D01*
X130758399Y-103459705D02*
X130834589Y-103497800D01*
X130834589Y-103497800D02*
X130872685Y-103535895D01*
X130872685Y-103535895D02*
X130910780Y-103612086D01*
X130910780Y-103612086D02*
X130910780Y-103688276D01*
X130910780Y-103688276D02*
X130872685Y-103764467D01*
X130872685Y-103764467D02*
X130834589Y-103802562D01*
X130834589Y-103802562D02*
X130758399Y-103840657D01*
X130758399Y-103840657D02*
X130606018Y-103878753D01*
X130606018Y-103878753D02*
X130415542Y-103878753D01*
X130415542Y-103878753D02*
X130263161Y-103840657D01*
X130263161Y-103840657D02*
X130186970Y-103802562D01*
X130186970Y-103802562D02*
X130148875Y-103764467D01*
X130148875Y-103764467D02*
X130110780Y-103688276D01*
X130377446Y-103078752D02*
X130910780Y-103078752D01*
X130453637Y-103078752D02*
X130415542Y-103040657D01*
X130415542Y-103040657D02*
X130377446Y-102964467D01*
X130377446Y-102964467D02*
X130377446Y-102850181D01*
X130377446Y-102850181D02*
X130415542Y-102773990D01*
X130415542Y-102773990D02*
X130491732Y-102735895D01*
X130491732Y-102735895D02*
X130910780Y-102735895D01*
X130491732Y-102088276D02*
X130491732Y-102354942D01*
X130910780Y-102354942D02*
X130110780Y-102354942D01*
X130110780Y-102354942D02*
X130110780Y-101973990D01*
X159234869Y-132005620D02*
X159234869Y-132577048D01*
X159234869Y-132291334D02*
X158234869Y-132291334D01*
X158234869Y-132291334D02*
X158377726Y-132386572D01*
X158377726Y-132386572D02*
X158472964Y-132481810D01*
X158472964Y-132481810D02*
X158520583Y-132577048D01*
X158234869Y-131386572D02*
X158234869Y-131291334D01*
X158234869Y-131291334D02*
X158282488Y-131196096D01*
X158282488Y-131196096D02*
X158330107Y-131148477D01*
X158330107Y-131148477D02*
X158425345Y-131100858D01*
X158425345Y-131100858D02*
X158615821Y-131053239D01*
X158615821Y-131053239D02*
X158853916Y-131053239D01*
X158853916Y-131053239D02*
X159044392Y-131100858D01*
X159044392Y-131100858D02*
X159139630Y-131148477D01*
X159139630Y-131148477D02*
X159187250Y-131196096D01*
X159187250Y-131196096D02*
X159234869Y-131291334D01*
X159234869Y-131291334D02*
X159234869Y-131386572D01*
X159234869Y-131386572D02*
X159187250Y-131481810D01*
X159187250Y-131481810D02*
X159139630Y-131529429D01*
X159139630Y-131529429D02*
X159044392Y-131577048D01*
X159044392Y-131577048D02*
X158853916Y-131624667D01*
X158853916Y-131624667D02*
X158615821Y-131624667D01*
X158615821Y-131624667D02*
X158425345Y-131577048D01*
X158425345Y-131577048D02*
X158330107Y-131529429D01*
X158330107Y-131529429D02*
X158282488Y-131481810D01*
X158282488Y-131481810D02*
X158234869Y-131386572D01*
X159234869Y-130624667D02*
X158234869Y-130624667D01*
X158853916Y-130529429D02*
X159234869Y-130243715D01*
X158568202Y-130243715D02*
X158949154Y-130624667D01*
X149140179Y-132183843D02*
X149140179Y-132755271D01*
X149140179Y-132469557D02*
X148140179Y-132469557D01*
X148140179Y-132469557D02*
X148283036Y-132564795D01*
X148283036Y-132564795D02*
X148378274Y-132660033D01*
X148378274Y-132660033D02*
X148425893Y-132755271D01*
X148140179Y-131564795D02*
X148140179Y-131469557D01*
X148140179Y-131469557D02*
X148187798Y-131374319D01*
X148187798Y-131374319D02*
X148235417Y-131326700D01*
X148235417Y-131326700D02*
X148330655Y-131279081D01*
X148330655Y-131279081D02*
X148521131Y-131231462D01*
X148521131Y-131231462D02*
X148759226Y-131231462D01*
X148759226Y-131231462D02*
X148949702Y-131279081D01*
X148949702Y-131279081D02*
X149044940Y-131326700D01*
X149044940Y-131326700D02*
X149092560Y-131374319D01*
X149092560Y-131374319D02*
X149140179Y-131469557D01*
X149140179Y-131469557D02*
X149140179Y-131564795D01*
X149140179Y-131564795D02*
X149092560Y-131660033D01*
X149092560Y-131660033D02*
X149044940Y-131707652D01*
X149044940Y-131707652D02*
X148949702Y-131755271D01*
X148949702Y-131755271D02*
X148759226Y-131802890D01*
X148759226Y-131802890D02*
X148521131Y-131802890D01*
X148521131Y-131802890D02*
X148330655Y-131755271D01*
X148330655Y-131755271D02*
X148235417Y-131707652D01*
X148235417Y-131707652D02*
X148187798Y-131660033D01*
X148187798Y-131660033D02*
X148140179Y-131564795D01*
X149140179Y-130802890D02*
X148140179Y-130802890D01*
X148759226Y-130707652D02*
X149140179Y-130421938D01*
X148473512Y-130421938D02*
X148854464Y-130802890D01*
X169467049Y-132198425D02*
X169467049Y-132769853D01*
X169467049Y-132484139D02*
X168467049Y-132484139D01*
X168467049Y-132484139D02*
X168609906Y-132579377D01*
X168609906Y-132579377D02*
X168705144Y-132674615D01*
X168705144Y-132674615D02*
X168752763Y-132769853D01*
X168467049Y-131579377D02*
X168467049Y-131484139D01*
X168467049Y-131484139D02*
X168514668Y-131388901D01*
X168514668Y-131388901D02*
X168562287Y-131341282D01*
X168562287Y-131341282D02*
X168657525Y-131293663D01*
X168657525Y-131293663D02*
X168848001Y-131246044D01*
X168848001Y-131246044D02*
X169086096Y-131246044D01*
X169086096Y-131246044D02*
X169276572Y-131293663D01*
X169276572Y-131293663D02*
X169371810Y-131341282D01*
X169371810Y-131341282D02*
X169419430Y-131388901D01*
X169419430Y-131388901D02*
X169467049Y-131484139D01*
X169467049Y-131484139D02*
X169467049Y-131579377D01*
X169467049Y-131579377D02*
X169419430Y-131674615D01*
X169419430Y-131674615D02*
X169371810Y-131722234D01*
X169371810Y-131722234D02*
X169276572Y-131769853D01*
X169276572Y-131769853D02*
X169086096Y-131817472D01*
X169086096Y-131817472D02*
X168848001Y-131817472D01*
X168848001Y-131817472D02*
X168657525Y-131769853D01*
X168657525Y-131769853D02*
X168562287Y-131722234D01*
X168562287Y-131722234D02*
X168514668Y-131674615D01*
X168514668Y-131674615D02*
X168467049Y-131579377D01*
X169467049Y-130817472D02*
X168467049Y-130817472D01*
X169086096Y-130722234D02*
X169467049Y-130436520D01*
X168800382Y-130436520D02*
X169181334Y-130817472D01*
X128972517Y-69403676D02*
X129115374Y-69451295D01*
X129115374Y-69451295D02*
X129162993Y-69498914D01*
X129162993Y-69498914D02*
X129210612Y-69594152D01*
X129210612Y-69594152D02*
X129210612Y-69737009D01*
X129210612Y-69737009D02*
X129162993Y-69832247D01*
X129162993Y-69832247D02*
X129115374Y-69879867D01*
X129115374Y-69879867D02*
X129020136Y-69927486D01*
X129020136Y-69927486D02*
X128639184Y-69927486D01*
X128639184Y-69927486D02*
X128639184Y-68927486D01*
X128639184Y-68927486D02*
X128972517Y-68927486D01*
X128972517Y-68927486D02*
X129067755Y-68975105D01*
X129067755Y-68975105D02*
X129115374Y-69022724D01*
X129115374Y-69022724D02*
X129162993Y-69117962D01*
X129162993Y-69117962D02*
X129162993Y-69213200D01*
X129162993Y-69213200D02*
X129115374Y-69308438D01*
X129115374Y-69308438D02*
X129067755Y-69356057D01*
X129067755Y-69356057D02*
X128972517Y-69403676D01*
X128972517Y-69403676D02*
X128639184Y-69403676D01*
X129591565Y-69641771D02*
X130067755Y-69641771D01*
X129496327Y-69927486D02*
X129829660Y-68927486D01*
X129829660Y-68927486D02*
X130162993Y-69927486D01*
X130496327Y-69927486D02*
X130496327Y-68927486D01*
X130496327Y-68927486D02*
X131067755Y-69927486D01*
X131067755Y-69927486D02*
X131067755Y-68927486D01*
X131543946Y-69927486D02*
X131543946Y-68927486D01*
X132115374Y-69927486D02*
X131686803Y-69356057D01*
X132115374Y-68927486D02*
X131543946Y-69498914D01*
X133258232Y-69879867D02*
X133401089Y-69927486D01*
X133401089Y-69927486D02*
X133639184Y-69927486D01*
X133639184Y-69927486D02*
X133734422Y-69879867D01*
X133734422Y-69879867D02*
X133782041Y-69832247D01*
X133782041Y-69832247D02*
X133829660Y-69737009D01*
X133829660Y-69737009D02*
X133829660Y-69641771D01*
X133829660Y-69641771D02*
X133782041Y-69546533D01*
X133782041Y-69546533D02*
X133734422Y-69498914D01*
X133734422Y-69498914D02*
X133639184Y-69451295D01*
X133639184Y-69451295D02*
X133448708Y-69403676D01*
X133448708Y-69403676D02*
X133353470Y-69356057D01*
X133353470Y-69356057D02*
X133305851Y-69308438D01*
X133305851Y-69308438D02*
X133258232Y-69213200D01*
X133258232Y-69213200D02*
X133258232Y-69117962D01*
X133258232Y-69117962D02*
X133305851Y-69022724D01*
X133305851Y-69022724D02*
X133353470Y-68975105D01*
X133353470Y-68975105D02*
X133448708Y-68927486D01*
X133448708Y-68927486D02*
X133686803Y-68927486D01*
X133686803Y-68927486D02*
X133829660Y-68975105D01*
X134258232Y-69403676D02*
X134591565Y-69403676D01*
X134734422Y-69927486D02*
X134258232Y-69927486D01*
X134258232Y-69927486D02*
X134258232Y-68927486D01*
X134258232Y-68927486D02*
X134734422Y-68927486D01*
X135639184Y-69927486D02*
X135162994Y-69927486D01*
X135162994Y-69927486D02*
X135162994Y-68927486D01*
X135972518Y-69403676D02*
X136305851Y-69403676D01*
X136448708Y-69927486D02*
X135972518Y-69927486D01*
X135972518Y-69927486D02*
X135972518Y-68927486D01*
X135972518Y-68927486D02*
X136448708Y-68927486D01*
X137448708Y-69832247D02*
X137401089Y-69879867D01*
X137401089Y-69879867D02*
X137258232Y-69927486D01*
X137258232Y-69927486D02*
X137162994Y-69927486D01*
X137162994Y-69927486D02*
X137020137Y-69879867D01*
X137020137Y-69879867D02*
X136924899Y-69784628D01*
X136924899Y-69784628D02*
X136877280Y-69689390D01*
X136877280Y-69689390D02*
X136829661Y-69498914D01*
X136829661Y-69498914D02*
X136829661Y-69356057D01*
X136829661Y-69356057D02*
X136877280Y-69165581D01*
X136877280Y-69165581D02*
X136924899Y-69070343D01*
X136924899Y-69070343D02*
X137020137Y-68975105D01*
X137020137Y-68975105D02*
X137162994Y-68927486D01*
X137162994Y-68927486D02*
X137258232Y-68927486D01*
X137258232Y-68927486D02*
X137401089Y-68975105D01*
X137401089Y-68975105D02*
X137448708Y-69022724D01*
X137734423Y-68927486D02*
X138305851Y-68927486D01*
X138020137Y-69927486D02*
X138020137Y-68927486D01*
X167521209Y-71332312D02*
X167187876Y-70856121D01*
X166949781Y-71332312D02*
X166949781Y-70332312D01*
X166949781Y-70332312D02*
X167330733Y-70332312D01*
X167330733Y-70332312D02*
X167425971Y-70379931D01*
X167425971Y-70379931D02*
X167473590Y-70427550D01*
X167473590Y-70427550D02*
X167521209Y-70522788D01*
X167521209Y-70522788D02*
X167521209Y-70665645D01*
X167521209Y-70665645D02*
X167473590Y-70760883D01*
X167473590Y-70760883D02*
X167425971Y-70808502D01*
X167425971Y-70808502D02*
X167330733Y-70856121D01*
X167330733Y-70856121D02*
X166949781Y-70856121D01*
X167949781Y-70808502D02*
X168283114Y-70808502D01*
X168425971Y-71332312D02*
X167949781Y-71332312D01*
X167949781Y-71332312D02*
X167949781Y-70332312D01*
X167949781Y-70332312D02*
X168425971Y-70332312D01*
X168806924Y-71284693D02*
X168949781Y-71332312D01*
X168949781Y-71332312D02*
X169187876Y-71332312D01*
X169187876Y-71332312D02*
X169283114Y-71284693D01*
X169283114Y-71284693D02*
X169330733Y-71237073D01*
X169330733Y-71237073D02*
X169378352Y-71141835D01*
X169378352Y-71141835D02*
X169378352Y-71046597D01*
X169378352Y-71046597D02*
X169330733Y-70951359D01*
X169330733Y-70951359D02*
X169283114Y-70903740D01*
X169283114Y-70903740D02*
X169187876Y-70856121D01*
X169187876Y-70856121D02*
X168997400Y-70808502D01*
X168997400Y-70808502D02*
X168902162Y-70760883D01*
X168902162Y-70760883D02*
X168854543Y-70713264D01*
X168854543Y-70713264D02*
X168806924Y-70618026D01*
X168806924Y-70618026D02*
X168806924Y-70522788D01*
X168806924Y-70522788D02*
X168854543Y-70427550D01*
X168854543Y-70427550D02*
X168902162Y-70379931D01*
X168902162Y-70379931D02*
X168997400Y-70332312D01*
X168997400Y-70332312D02*
X169235495Y-70332312D01*
X169235495Y-70332312D02*
X169378352Y-70379931D01*
X169806924Y-70808502D02*
X170140257Y-70808502D01*
X170283114Y-71332312D02*
X169806924Y-71332312D01*
X169806924Y-71332312D02*
X169806924Y-70332312D01*
X169806924Y-70332312D02*
X170283114Y-70332312D01*
X170568829Y-70332312D02*
X171140257Y-70332312D01*
X170854543Y-71332312D02*
X170854543Y-70332312D01*
D15*
X146321419Y-131639766D02*
X145845228Y-131973099D01*
X146321419Y-132211194D02*
X145321419Y-132211194D01*
X145321419Y-132211194D02*
X145321419Y-131830242D01*
X145321419Y-131830242D02*
X145369038Y-131735004D01*
X145369038Y-131735004D02*
X145416657Y-131687385D01*
X145416657Y-131687385D02*
X145511895Y-131639766D01*
X145511895Y-131639766D02*
X145654752Y-131639766D01*
X145654752Y-131639766D02*
X145749990Y-131687385D01*
X145749990Y-131687385D02*
X145797609Y-131735004D01*
X145797609Y-131735004D02*
X145845228Y-131830242D01*
X145845228Y-131830242D02*
X145845228Y-132211194D01*
X145321419Y-131306432D02*
X145321419Y-130639766D01*
X145321419Y-130639766D02*
X146321419Y-131068337D01*
X126309705Y-126828719D02*
X126309705Y-125828719D01*
X126309705Y-125828719D02*
X126547800Y-125828719D01*
X126547800Y-125828719D02*
X126690657Y-125876338D01*
X126690657Y-125876338D02*
X126785895Y-125971576D01*
X126785895Y-125971576D02*
X126833514Y-126066814D01*
X126833514Y-126066814D02*
X126881133Y-126257290D01*
X126881133Y-126257290D02*
X126881133Y-126400147D01*
X126881133Y-126400147D02*
X126833514Y-126590623D01*
X126833514Y-126590623D02*
X126785895Y-126685861D01*
X126785895Y-126685861D02*
X126690657Y-126781100D01*
X126690657Y-126781100D02*
X126547800Y-126828719D01*
X126547800Y-126828719D02*
X126309705Y-126828719D01*
X127833514Y-126828719D02*
X127262086Y-126828719D01*
X127547800Y-126828719D02*
X127547800Y-125828719D01*
X127547800Y-125828719D02*
X127452562Y-125971576D01*
X127452562Y-125971576D02*
X127357324Y-126066814D01*
X127357324Y-126066814D02*
X127262086Y-126114433D01*
X130595895Y-126458719D02*
X130595895Y-125458719D01*
X131167323Y-126458719D02*
X130738752Y-125887290D01*
X131167323Y-125458719D02*
X130595895Y-126030147D01*
X161561419Y-131639766D02*
X161085228Y-131973099D01*
X161561419Y-132211194D02*
X160561419Y-132211194D01*
X160561419Y-132211194D02*
X160561419Y-131830242D01*
X160561419Y-131830242D02*
X160609038Y-131735004D01*
X160609038Y-131735004D02*
X160656657Y-131687385D01*
X160656657Y-131687385D02*
X160751895Y-131639766D01*
X160751895Y-131639766D02*
X160894752Y-131639766D01*
X160894752Y-131639766D02*
X160989990Y-131687385D01*
X160989990Y-131687385D02*
X161037609Y-131735004D01*
X161037609Y-131735004D02*
X161085228Y-131830242D01*
X161085228Y-131830242D02*
X161085228Y-132211194D01*
X160894752Y-130782623D02*
X161561419Y-130782623D01*
X160513800Y-131020718D02*
X161228085Y-131258813D01*
X161228085Y-131258813D02*
X161228085Y-130639766D01*
X125305000Y-76934732D02*
X125352619Y-76791875D01*
X125352619Y-76791875D02*
X125352619Y-76553780D01*
X125352619Y-76553780D02*
X125305000Y-76458542D01*
X125305000Y-76458542D02*
X125257380Y-76410923D01*
X125257380Y-76410923D02*
X125162142Y-76363304D01*
X125162142Y-76363304D02*
X125066904Y-76363304D01*
X125066904Y-76363304D02*
X124971666Y-76410923D01*
X124971666Y-76410923D02*
X124924047Y-76458542D01*
X124924047Y-76458542D02*
X124876428Y-76553780D01*
X124876428Y-76553780D02*
X124828809Y-76744256D01*
X124828809Y-76744256D02*
X124781190Y-76839494D01*
X124781190Y-76839494D02*
X124733571Y-76887113D01*
X124733571Y-76887113D02*
X124638333Y-76934732D01*
X124638333Y-76934732D02*
X124543095Y-76934732D01*
X124543095Y-76934732D02*
X124447857Y-76887113D01*
X124447857Y-76887113D02*
X124400238Y-76839494D01*
X124400238Y-76839494D02*
X124352619Y-76744256D01*
X124352619Y-76744256D02*
X124352619Y-76506161D01*
X124352619Y-76506161D02*
X124400238Y-76363304D01*
X124352619Y-76029970D02*
X125352619Y-75791875D01*
X125352619Y-75791875D02*
X124638333Y-75601399D01*
X124638333Y-75601399D02*
X125352619Y-75410923D01*
X125352619Y-75410923D02*
X124352619Y-75172828D01*
X124447857Y-74839494D02*
X124400238Y-74791875D01*
X124400238Y-74791875D02*
X124352619Y-74696637D01*
X124352619Y-74696637D02*
X124352619Y-74458542D01*
X124352619Y-74458542D02*
X124400238Y-74363304D01*
X124400238Y-74363304D02*
X124447857Y-74315685D01*
X124447857Y-74315685D02*
X124543095Y-74268066D01*
X124543095Y-74268066D02*
X124638333Y-74268066D01*
X124638333Y-74268066D02*
X124781190Y-74315685D01*
X124781190Y-74315685D02*
X125352619Y-74887113D01*
X125352619Y-74887113D02*
X125352619Y-74268066D01*
X156481419Y-131639766D02*
X156005228Y-131973099D01*
X156481419Y-132211194D02*
X155481419Y-132211194D01*
X155481419Y-132211194D02*
X155481419Y-131830242D01*
X155481419Y-131830242D02*
X155529038Y-131735004D01*
X155529038Y-131735004D02*
X155576657Y-131687385D01*
X155576657Y-131687385D02*
X155671895Y-131639766D01*
X155671895Y-131639766D02*
X155814752Y-131639766D01*
X155814752Y-131639766D02*
X155909990Y-131687385D01*
X155909990Y-131687385D02*
X155957609Y-131735004D01*
X155957609Y-131735004D02*
X156005228Y-131830242D01*
X156005228Y-131830242D02*
X156005228Y-132211194D01*
X155481419Y-130735004D02*
X155481419Y-131211194D01*
X155481419Y-131211194D02*
X155957609Y-131258813D01*
X155957609Y-131258813D02*
X155909990Y-131211194D01*
X155909990Y-131211194D02*
X155862371Y-131115956D01*
X155862371Y-131115956D02*
X155862371Y-130877861D01*
X155862371Y-130877861D02*
X155909990Y-130782623D01*
X155909990Y-130782623D02*
X155957609Y-130735004D01*
X155957609Y-130735004D02*
X156052847Y-130687385D01*
X156052847Y-130687385D02*
X156290942Y-130687385D01*
X156290942Y-130687385D02*
X156386180Y-130735004D01*
X156386180Y-130735004D02*
X156433800Y-130782623D01*
X156433800Y-130782623D02*
X156481419Y-130877861D01*
X156481419Y-130877861D02*
X156481419Y-131115956D01*
X156481419Y-131115956D02*
X156433800Y-131211194D01*
X156433800Y-131211194D02*
X156386180Y-131258813D01*
X167624467Y-80301100D02*
X167767324Y-80348719D01*
X167767324Y-80348719D02*
X168005419Y-80348719D01*
X168005419Y-80348719D02*
X168100657Y-80301100D01*
X168100657Y-80301100D02*
X168148276Y-80253480D01*
X168148276Y-80253480D02*
X168195895Y-80158242D01*
X168195895Y-80158242D02*
X168195895Y-80063004D01*
X168195895Y-80063004D02*
X168148276Y-79967766D01*
X168148276Y-79967766D02*
X168100657Y-79920147D01*
X168100657Y-79920147D02*
X168005419Y-79872528D01*
X168005419Y-79872528D02*
X167814943Y-79824909D01*
X167814943Y-79824909D02*
X167719705Y-79777290D01*
X167719705Y-79777290D02*
X167672086Y-79729671D01*
X167672086Y-79729671D02*
X167624467Y-79634433D01*
X167624467Y-79634433D02*
X167624467Y-79539195D01*
X167624467Y-79539195D02*
X167672086Y-79443957D01*
X167672086Y-79443957D02*
X167719705Y-79396338D01*
X167719705Y-79396338D02*
X167814943Y-79348719D01*
X167814943Y-79348719D02*
X168053038Y-79348719D01*
X168053038Y-79348719D02*
X168195895Y-79396338D01*
X168529229Y-79348719D02*
X168767324Y-80348719D01*
X168767324Y-80348719D02*
X168957800Y-79634433D01*
X168957800Y-79634433D02*
X169148276Y-80348719D01*
X169148276Y-80348719D02*
X169386372Y-79348719D01*
X170291133Y-80348719D02*
X169719705Y-80348719D01*
X170005419Y-80348719D02*
X170005419Y-79348719D01*
X170005419Y-79348719D02*
X169910181Y-79491576D01*
X169910181Y-79491576D02*
X169814943Y-79586814D01*
X169814943Y-79586814D02*
X169719705Y-79634433D01*
X171721419Y-131639766D02*
X171245228Y-131973099D01*
X171721419Y-132211194D02*
X170721419Y-132211194D01*
X170721419Y-132211194D02*
X170721419Y-131830242D01*
X170721419Y-131830242D02*
X170769038Y-131735004D01*
X170769038Y-131735004D02*
X170816657Y-131687385D01*
X170816657Y-131687385D02*
X170911895Y-131639766D01*
X170911895Y-131639766D02*
X171054752Y-131639766D01*
X171054752Y-131639766D02*
X171149990Y-131687385D01*
X171149990Y-131687385D02*
X171197609Y-131735004D01*
X171197609Y-131735004D02*
X171245228Y-131830242D01*
X171245228Y-131830242D02*
X171245228Y-132211194D01*
X170816657Y-131258813D02*
X170769038Y-131211194D01*
X170769038Y-131211194D02*
X170721419Y-131115956D01*
X170721419Y-131115956D02*
X170721419Y-130877861D01*
X170721419Y-130877861D02*
X170769038Y-130782623D01*
X170769038Y-130782623D02*
X170816657Y-130735004D01*
X170816657Y-130735004D02*
X170911895Y-130687385D01*
X170911895Y-130687385D02*
X171007133Y-130687385D01*
X171007133Y-130687385D02*
X171149990Y-130735004D01*
X171149990Y-130735004D02*
X171721419Y-131306432D01*
X171721419Y-131306432D02*
X171721419Y-130687385D01*
X132872919Y-97527104D02*
X133682442Y-97527104D01*
X133682442Y-97527104D02*
X133777680Y-97479485D01*
X133777680Y-97479485D02*
X133825300Y-97431866D01*
X133825300Y-97431866D02*
X133872919Y-97336628D01*
X133872919Y-97336628D02*
X133872919Y-97146152D01*
X133872919Y-97146152D02*
X133825300Y-97050914D01*
X133825300Y-97050914D02*
X133777680Y-97003295D01*
X133777680Y-97003295D02*
X133682442Y-96955676D01*
X133682442Y-96955676D02*
X132872919Y-96955676D01*
X132968157Y-96527104D02*
X132920538Y-96479485D01*
X132920538Y-96479485D02*
X132872919Y-96384247D01*
X132872919Y-96384247D02*
X132872919Y-96146152D01*
X132872919Y-96146152D02*
X132920538Y-96050914D01*
X132920538Y-96050914D02*
X132968157Y-96003295D01*
X132968157Y-96003295D02*
X133063395Y-95955676D01*
X133063395Y-95955676D02*
X133158633Y-95955676D01*
X133158633Y-95955676D02*
X133301490Y-96003295D01*
X133301490Y-96003295D02*
X133872919Y-96574723D01*
X133872919Y-96574723D02*
X133872919Y-95955676D01*
X128129682Y-97714526D02*
X128177302Y-97762145D01*
X128177302Y-97762145D02*
X128224921Y-97905002D01*
X128224921Y-97905002D02*
X128224921Y-98000240D01*
X128224921Y-98000240D02*
X128177302Y-98143097D01*
X128177302Y-98143097D02*
X128082063Y-98238335D01*
X128082063Y-98238335D02*
X127986825Y-98285954D01*
X127986825Y-98285954D02*
X127796349Y-98333573D01*
X127796349Y-98333573D02*
X127653492Y-98333573D01*
X127653492Y-98333573D02*
X127463016Y-98285954D01*
X127463016Y-98285954D02*
X127367778Y-98238335D01*
X127367778Y-98238335D02*
X127272540Y-98143097D01*
X127272540Y-98143097D02*
X127224921Y-98000240D01*
X127224921Y-98000240D02*
X127224921Y-97905002D01*
X127224921Y-97905002D02*
X127272540Y-97762145D01*
X127272540Y-97762145D02*
X127320159Y-97714526D01*
X128224921Y-96762145D02*
X128224921Y-97333573D01*
X128224921Y-97047859D02*
X127224921Y-97047859D01*
X127224921Y-97047859D02*
X127367778Y-97143097D01*
X127367778Y-97143097D02*
X127463016Y-97238335D01*
X127463016Y-97238335D02*
X127510635Y-97333573D01*
X166641419Y-131639766D02*
X166165228Y-131973099D01*
X166641419Y-132211194D02*
X165641419Y-132211194D01*
X165641419Y-132211194D02*
X165641419Y-131830242D01*
X165641419Y-131830242D02*
X165689038Y-131735004D01*
X165689038Y-131735004D02*
X165736657Y-131687385D01*
X165736657Y-131687385D02*
X165831895Y-131639766D01*
X165831895Y-131639766D02*
X165974752Y-131639766D01*
X165974752Y-131639766D02*
X166069990Y-131687385D01*
X166069990Y-131687385D02*
X166117609Y-131735004D01*
X166117609Y-131735004D02*
X166165228Y-131830242D01*
X166165228Y-131830242D02*
X166165228Y-132211194D01*
X165641419Y-131306432D02*
X165641419Y-130687385D01*
X165641419Y-130687385D02*
X166022371Y-131020718D01*
X166022371Y-131020718D02*
X166022371Y-130877861D01*
X166022371Y-130877861D02*
X166069990Y-130782623D01*
X166069990Y-130782623D02*
X166117609Y-130735004D01*
X166117609Y-130735004D02*
X166212847Y-130687385D01*
X166212847Y-130687385D02*
X166450942Y-130687385D01*
X166450942Y-130687385D02*
X166546180Y-130735004D01*
X166546180Y-130735004D02*
X166593800Y-130782623D01*
X166593800Y-130782623D02*
X166641419Y-130877861D01*
X166641419Y-130877861D02*
X166641419Y-131163575D01*
X166641419Y-131163575D02*
X166593800Y-131258813D01*
X166593800Y-131258813D02*
X166546180Y-131306432D01*
X152233333Y-81904819D02*
X151900000Y-81428628D01*
X151661905Y-81904819D02*
X151661905Y-80904819D01*
X151661905Y-80904819D02*
X152042857Y-80904819D01*
X152042857Y-80904819D02*
X152138095Y-80952438D01*
X152138095Y-80952438D02*
X152185714Y-81000057D01*
X152185714Y-81000057D02*
X152233333Y-81095295D01*
X152233333Y-81095295D02*
X152233333Y-81238152D01*
X152233333Y-81238152D02*
X152185714Y-81333390D01*
X152185714Y-81333390D02*
X152138095Y-81381009D01*
X152138095Y-81381009D02*
X152042857Y-81428628D01*
X152042857Y-81428628D02*
X151661905Y-81428628D01*
X153185714Y-81904819D02*
X152614286Y-81904819D01*
X152900000Y-81904819D02*
X152900000Y-80904819D01*
X152900000Y-80904819D02*
X152804762Y-81047676D01*
X152804762Y-81047676D02*
X152709524Y-81142914D01*
X152709524Y-81142914D02*
X152614286Y-81190533D01*
X151114286Y-83274819D02*
X151733333Y-83274819D01*
X151733333Y-83274819D02*
X151400000Y-83655771D01*
X151400000Y-83655771D02*
X151542857Y-83655771D01*
X151542857Y-83655771D02*
X151638095Y-83703390D01*
X151638095Y-83703390D02*
X151685714Y-83751009D01*
X151685714Y-83751009D02*
X151733333Y-83846247D01*
X151733333Y-83846247D02*
X151733333Y-84084342D01*
X151733333Y-84084342D02*
X151685714Y-84179580D01*
X151685714Y-84179580D02*
X151638095Y-84227200D01*
X151638095Y-84227200D02*
X151542857Y-84274819D01*
X151542857Y-84274819D02*
X151257143Y-84274819D01*
X151257143Y-84274819D02*
X151161905Y-84227200D01*
X151161905Y-84227200D02*
X151114286Y-84179580D01*
X152066667Y-83274819D02*
X152685714Y-83274819D01*
X152685714Y-83274819D02*
X152352381Y-83655771D01*
X152352381Y-83655771D02*
X152495238Y-83655771D01*
X152495238Y-83655771D02*
X152590476Y-83703390D01*
X152590476Y-83703390D02*
X152638095Y-83751009D01*
X152638095Y-83751009D02*
X152685714Y-83846247D01*
X152685714Y-83846247D02*
X152685714Y-84084342D01*
X152685714Y-84084342D02*
X152638095Y-84179580D01*
X152638095Y-84179580D02*
X152590476Y-84227200D01*
X152590476Y-84227200D02*
X152495238Y-84274819D01*
X152495238Y-84274819D02*
X152209524Y-84274819D01*
X152209524Y-84274819D02*
X152114286Y-84227200D01*
X152114286Y-84227200D02*
X152066667Y-84179580D01*
X153304762Y-83274819D02*
X153400000Y-83274819D01*
X153400000Y-83274819D02*
X153495238Y-83322438D01*
X153495238Y-83322438D02*
X153542857Y-83370057D01*
X153542857Y-83370057D02*
X153590476Y-83465295D01*
X153590476Y-83465295D02*
X153638095Y-83655771D01*
X153638095Y-83655771D02*
X153638095Y-83893866D01*
X153638095Y-83893866D02*
X153590476Y-84084342D01*
X153590476Y-84084342D02*
X153542857Y-84179580D01*
X153542857Y-84179580D02*
X153495238Y-84227200D01*
X153495238Y-84227200D02*
X153400000Y-84274819D01*
X153400000Y-84274819D02*
X153304762Y-84274819D01*
X153304762Y-84274819D02*
X153209524Y-84227200D01*
X153209524Y-84227200D02*
X153161905Y-84179580D01*
X153161905Y-84179580D02*
X153114286Y-84084342D01*
X153114286Y-84084342D02*
X153066667Y-83893866D01*
X153066667Y-83893866D02*
X153066667Y-83655771D01*
X153066667Y-83655771D02*
X153114286Y-83465295D01*
X153114286Y-83465295D02*
X153161905Y-83370057D01*
X153161905Y-83370057D02*
X153209524Y-83322438D01*
X153209524Y-83322438D02*
X153304762Y-83274819D01*
X155467105Y-80058719D02*
X155467105Y-79058719D01*
X155467105Y-79058719D02*
X155705200Y-79058719D01*
X155705200Y-79058719D02*
X155848057Y-79106338D01*
X155848057Y-79106338D02*
X155943295Y-79201576D01*
X155943295Y-79201576D02*
X155990914Y-79296814D01*
X155990914Y-79296814D02*
X156038533Y-79487290D01*
X156038533Y-79487290D02*
X156038533Y-79630147D01*
X156038533Y-79630147D02*
X155990914Y-79820623D01*
X155990914Y-79820623D02*
X155943295Y-79915861D01*
X155943295Y-79915861D02*
X155848057Y-80011100D01*
X155848057Y-80011100D02*
X155705200Y-80058719D01*
X155705200Y-80058719D02*
X155467105Y-80058719D01*
X156371867Y-79058719D02*
X156990914Y-79058719D01*
X156990914Y-79058719D02*
X156657581Y-79439671D01*
X156657581Y-79439671D02*
X156800438Y-79439671D01*
X156800438Y-79439671D02*
X156895676Y-79487290D01*
X156895676Y-79487290D02*
X156943295Y-79534909D01*
X156943295Y-79534909D02*
X156990914Y-79630147D01*
X156990914Y-79630147D02*
X156990914Y-79868242D01*
X156990914Y-79868242D02*
X156943295Y-79963480D01*
X156943295Y-79963480D02*
X156895676Y-80011100D01*
X156895676Y-80011100D02*
X156800438Y-80058719D01*
X156800438Y-80058719D02*
X156514724Y-80058719D01*
X156514724Y-80058719D02*
X156419486Y-80011100D01*
X156419486Y-80011100D02*
X156371867Y-79963480D01*
X126309705Y-131908719D02*
X126309705Y-130908719D01*
X126309705Y-130908719D02*
X126547800Y-130908719D01*
X126547800Y-130908719D02*
X126690657Y-130956338D01*
X126690657Y-130956338D02*
X126785895Y-131051576D01*
X126785895Y-131051576D02*
X126833514Y-131146814D01*
X126833514Y-131146814D02*
X126881133Y-131337290D01*
X126881133Y-131337290D02*
X126881133Y-131480147D01*
X126881133Y-131480147D02*
X126833514Y-131670623D01*
X126833514Y-131670623D02*
X126785895Y-131765861D01*
X126785895Y-131765861D02*
X126690657Y-131861100D01*
X126690657Y-131861100D02*
X126547800Y-131908719D01*
X126547800Y-131908719D02*
X126309705Y-131908719D01*
X127262086Y-131003957D02*
X127309705Y-130956338D01*
X127309705Y-130956338D02*
X127404943Y-130908719D01*
X127404943Y-130908719D02*
X127643038Y-130908719D01*
X127643038Y-130908719D02*
X127738276Y-130956338D01*
X127738276Y-130956338D02*
X127785895Y-131003957D01*
X127785895Y-131003957D02*
X127833514Y-131099195D01*
X127833514Y-131099195D02*
X127833514Y-131194433D01*
X127833514Y-131194433D02*
X127785895Y-131337290D01*
X127785895Y-131337290D02*
X127214467Y-131908719D01*
X127214467Y-131908719D02*
X127833514Y-131908719D01*
X130595895Y-131538719D02*
X130595895Y-130538719D01*
X131167323Y-131538719D02*
X130738752Y-130967290D01*
X131167323Y-130538719D02*
X130595895Y-131110147D01*
X151401419Y-131639766D02*
X150925228Y-131973099D01*
X151401419Y-132211194D02*
X150401419Y-132211194D01*
X150401419Y-132211194D02*
X150401419Y-131830242D01*
X150401419Y-131830242D02*
X150449038Y-131735004D01*
X150449038Y-131735004D02*
X150496657Y-131687385D01*
X150496657Y-131687385D02*
X150591895Y-131639766D01*
X150591895Y-131639766D02*
X150734752Y-131639766D01*
X150734752Y-131639766D02*
X150829990Y-131687385D01*
X150829990Y-131687385D02*
X150877609Y-131735004D01*
X150877609Y-131735004D02*
X150925228Y-131830242D01*
X150925228Y-131830242D02*
X150925228Y-132211194D01*
X150401419Y-130782623D02*
X150401419Y-130973099D01*
X150401419Y-130973099D02*
X150449038Y-131068337D01*
X150449038Y-131068337D02*
X150496657Y-131115956D01*
X150496657Y-131115956D02*
X150639514Y-131211194D01*
X150639514Y-131211194D02*
X150829990Y-131258813D01*
X150829990Y-131258813D02*
X151210942Y-131258813D01*
X151210942Y-131258813D02*
X151306180Y-131211194D01*
X151306180Y-131211194D02*
X151353800Y-131163575D01*
X151353800Y-131163575D02*
X151401419Y-131068337D01*
X151401419Y-131068337D02*
X151401419Y-130877861D01*
X151401419Y-130877861D02*
X151353800Y-130782623D01*
X151353800Y-130782623D02*
X151306180Y-130735004D01*
X151306180Y-130735004D02*
X151210942Y-130687385D01*
X151210942Y-130687385D02*
X150972847Y-130687385D01*
X150972847Y-130687385D02*
X150877609Y-130735004D01*
X150877609Y-130735004D02*
X150829990Y-130782623D01*
X150829990Y-130782623D02*
X150782371Y-130877861D01*
X150782371Y-130877861D02*
X150782371Y-131068337D01*
X150782371Y-131068337D02*
X150829990Y-131163575D01*
X150829990Y-131163575D02*
X150877609Y-131211194D01*
X150877609Y-131211194D02*
X150972847Y-131258813D01*
D16*
X143496600Y-127433100D02*
X143496600Y-128203100D01*
X143496600Y-135513100D02*
X143496600Y-134743100D01*
X144866600Y-128203100D02*
X142126600Y-128203100D01*
X142126600Y-134743100D01*
X144866600Y-134743100D01*
X144866600Y-128203100D01*
X124327800Y-122433900D02*
X124327800Y-122563900D01*
X124327800Y-125373900D02*
X124327800Y-125243900D01*
X128747800Y-125373900D02*
X128747800Y-122433900D01*
X128867800Y-125373900D02*
X128867800Y-122433900D01*
X128987800Y-125373900D02*
X128987800Y-122433900D01*
X129767800Y-122433900D02*
X124327800Y-122433900D01*
X129767800Y-122563900D02*
X129767800Y-122433900D01*
X129767800Y-125243900D02*
X129767800Y-125373900D01*
X129767800Y-125373900D02*
X124327800Y-125373900D01*
X158736600Y-127433100D02*
X158736600Y-128203100D01*
X158736600Y-135513100D02*
X158736600Y-134743100D01*
X160106600Y-128203100D02*
X157366600Y-128203100D01*
X157366600Y-134743100D01*
X160106600Y-134743100D01*
X160106600Y-128203100D01*
X125657800Y-80791400D02*
X125657800Y-79408400D01*
X125657800Y-80791400D02*
X127040800Y-80791400D01*
X125897800Y-70651400D02*
X140897800Y-70651400D01*
X125897800Y-80551400D02*
X125897800Y-70651400D01*
X125897800Y-80551400D02*
X140897800Y-80551400D01*
X127682800Y-76278067D02*
X128952800Y-76278067D01*
X130222800Y-76278067D02*
X131492800Y-76278067D01*
X132762800Y-76278067D02*
X134032800Y-76278067D01*
X135302800Y-76278067D02*
X136572800Y-76278067D01*
X137842800Y-76278067D02*
X139112800Y-76278067D01*
X140897800Y-80551400D02*
X140897800Y-70651400D01*
X127682800Y-77631400D02*
X128952800Y-77631400D01*
X128952800Y-73571400D01*
X127682800Y-73571400D01*
X127682800Y-77631400D01*
X127682800Y-77631400D02*
X128952800Y-77631400D01*
X128952800Y-76278067D01*
X127682800Y-76278067D01*
X127682800Y-77631400D01*
G36*
X127682800Y-77631400D02*
G01*
X128952800Y-77631400D01*
X128952800Y-76278067D01*
X127682800Y-76278067D01*
X127682800Y-77631400D01*
G37*
X130222800Y-77631400D02*
X131492800Y-77631400D01*
X131492800Y-73571400D01*
X130222800Y-73571400D01*
X130222800Y-77631400D01*
X130222800Y-77631400D02*
X131492800Y-77631400D01*
X131492800Y-76278067D01*
X130222800Y-76278067D01*
X130222800Y-77631400D01*
G36*
X130222800Y-77631400D02*
G01*
X131492800Y-77631400D01*
X131492800Y-76278067D01*
X130222800Y-76278067D01*
X130222800Y-77631400D01*
G37*
X132762800Y-77631400D02*
X134032800Y-77631400D01*
X134032800Y-73571400D01*
X132762800Y-73571400D01*
X132762800Y-77631400D01*
X132762800Y-77631400D02*
X134032800Y-77631400D01*
X134032800Y-76278067D01*
X132762800Y-76278067D01*
X132762800Y-77631400D01*
G36*
X132762800Y-77631400D02*
G01*
X134032800Y-77631400D01*
X134032800Y-76278067D01*
X132762800Y-76278067D01*
X132762800Y-77631400D01*
G37*
X135302800Y-77631400D02*
X136572800Y-77631400D01*
X136572800Y-73571400D01*
X135302800Y-73571400D01*
X135302800Y-77631400D01*
X135302800Y-77631400D02*
X136572800Y-77631400D01*
X136572800Y-76278067D01*
X135302800Y-76278067D01*
X135302800Y-77631400D01*
G36*
X135302800Y-77631400D02*
G01*
X136572800Y-77631400D01*
X136572800Y-76278067D01*
X135302800Y-76278067D01*
X135302800Y-77631400D01*
G37*
X137842800Y-77631400D02*
X139112800Y-77631400D01*
X139112800Y-73571400D01*
X137842800Y-73571400D01*
X137842800Y-77631400D01*
X137842800Y-77631400D02*
X139112800Y-77631400D01*
X139112800Y-76278067D01*
X137842800Y-76278067D01*
X137842800Y-77631400D01*
G36*
X137842800Y-77631400D02*
G01*
X139112800Y-77631400D01*
X139112800Y-76278067D01*
X137842800Y-76278067D01*
X137842800Y-77631400D01*
G37*
X153656600Y-127433100D02*
X153656600Y-128203100D01*
X153656600Y-135513100D02*
X153656600Y-134743100D01*
X155026600Y-128203100D02*
X152286600Y-128203100D01*
X152286600Y-134743100D01*
X155026600Y-134743100D01*
X155026600Y-128203100D01*
X165457800Y-74893900D02*
X165457800Y-76393900D01*
X166707800Y-78893900D02*
X171207800Y-78893900D01*
X171207800Y-72393900D02*
X166707800Y-72393900D01*
X172457800Y-76393900D02*
X172457800Y-74893900D01*
X168896600Y-127433100D02*
X168896600Y-128203100D01*
X168896600Y-135513100D02*
X168896600Y-134743100D01*
X170266600Y-128203100D02*
X167526600Y-128203100D01*
X167526600Y-134743100D01*
X170266600Y-134743100D01*
X170266600Y-128203100D01*
X134418100Y-90305200D02*
X134418100Y-95765200D01*
X134418100Y-97765200D02*
X134418100Y-103225200D01*
X134418100Y-103225200D02*
X175178100Y-103225200D01*
X175178100Y-90305200D02*
X134418100Y-90305200D01*
X175178100Y-103225200D02*
X175178100Y-90305200D01*
X134418100Y-95765200D02*
G75*
G02*
X134418100Y-97765200I0J-1000000D01*
G01*
X129118200Y-95187000D02*
X129118200Y-100427000D01*
X129455200Y-95187000D02*
X129118200Y-95187000D01*
X129455200Y-100427000D02*
X129118200Y-100427000D01*
X131858200Y-95187000D02*
X131521200Y-95187000D01*
X131858200Y-95187000D02*
X131858200Y-100427000D01*
X131858200Y-100427000D02*
X131521200Y-100427000D01*
X163816600Y-127433100D02*
X163816600Y-128203100D01*
X163816600Y-135513100D02*
X163816600Y-134743100D01*
X165186600Y-128203100D02*
X162446600Y-128203100D01*
X162446600Y-134743100D01*
X165186600Y-134743100D01*
X165186600Y-128203100D01*
X148360000Y-83820000D02*
X149130000Y-83820000D01*
X156440000Y-83820000D02*
X155670000Y-83820000D01*
X149130000Y-82450000D02*
X155670000Y-82450000D01*
X155670000Y-85190000D01*
X149130000Y-85190000D01*
X149130000Y-82450000D01*
X158765200Y-77188900D02*
X158765200Y-74098900D01*
X153215200Y-75643900D02*
G75*
G02*
X158765200Y-74099070I2990000J0D01*
G01*
X158765200Y-77188730D02*
G75*
G02*
X153215200Y-75643900I-2560000J1544830D01*
G01*
X158705200Y-75643900D02*
G75*
G02*
X153705200Y-75643900I-2500000J0D01*
G01*
X153705200Y-75643900D02*
G75*
G02*
X158705200Y-75643900I2500000J0D01*
G01*
X124327800Y-127513900D02*
X124327800Y-127643900D01*
X124327800Y-130453900D02*
X124327800Y-130323900D01*
X128747800Y-130453900D02*
X128747800Y-127513900D01*
X128867800Y-130453900D02*
X128867800Y-127513900D01*
X128987800Y-130453900D02*
X128987800Y-127513900D01*
X129767800Y-127513900D02*
X124327800Y-127513900D01*
X129767800Y-127643900D02*
X129767800Y-127513900D01*
X129767800Y-130323900D02*
X129767800Y-130453900D01*
X129767800Y-130453900D02*
X124327800Y-130453900D01*
X148576600Y-127433100D02*
X148576600Y-128203100D01*
X148576600Y-135513100D02*
X148576600Y-134743100D01*
X149946600Y-128203100D02*
X147206600Y-128203100D01*
X147206600Y-134743100D01*
X149946600Y-134743100D01*
X149946600Y-128203100D01*
%LPC*%
D10*
G36*
X177593800Y-153113900D02*
G01*
X119681800Y-153113900D01*
X119681800Y-141683900D01*
X177593800Y-141683900D01*
X177593800Y-153113900D01*
G37*
D17*
X143496600Y-126393100D03*
X143496600Y-136553100D03*
D18*
X130857800Y-123903900D03*
D19*
X123237800Y-123903900D03*
D17*
X158736600Y-126393100D03*
X158736600Y-136553100D03*
D20*
X128317800Y-79411400D03*
D17*
X130857800Y-79411400D03*
X133397800Y-79411400D03*
X135937800Y-79411400D03*
X138477800Y-79411400D03*
X138477800Y-71791400D03*
X135937800Y-71791400D03*
X133397800Y-71791400D03*
X130857800Y-71791400D03*
X128317800Y-71791400D03*
X153656600Y-126393100D03*
X153656600Y-136553100D03*
D21*
X172207800Y-77893900D03*
X165707800Y-77893900D03*
X172207800Y-73393900D03*
X165707800Y-73393900D03*
D17*
X168896600Y-126393100D03*
X168896600Y-136553100D03*
D20*
X135748100Y-104385200D03*
D17*
X138288100Y-104385200D03*
X140828100Y-104385200D03*
X143368100Y-104385200D03*
X145908100Y-104385200D03*
X148448100Y-104385200D03*
X150988100Y-104385200D03*
X153528100Y-104385200D03*
X156068100Y-104385200D03*
X158608100Y-104385200D03*
X161148100Y-104385200D03*
X163688100Y-104385200D03*
X166228100Y-104385200D03*
X168768100Y-104385200D03*
X171308100Y-104385200D03*
X173848100Y-104385200D03*
X173848100Y-89145200D03*
X171308100Y-89145200D03*
X168768100Y-89145200D03*
X166228100Y-89145200D03*
X163688100Y-89145200D03*
X161148100Y-89145200D03*
X158608100Y-89145200D03*
X156068100Y-89145200D03*
X153528100Y-89145200D03*
X150988100Y-89145200D03*
X148448100Y-89145200D03*
X145908100Y-89145200D03*
X143368100Y-89145200D03*
X140828100Y-89145200D03*
X138288100Y-89145200D03*
X135748100Y-89145200D03*
X130488200Y-95307000D03*
X130488200Y-100307000D03*
X163816600Y-126393100D03*
X163816600Y-136553100D03*
X147320000Y-83820000D03*
X157480000Y-83820000D03*
D22*
X157475200Y-75643900D03*
D23*
X154935200Y-75643900D03*
D18*
X130857800Y-128983900D03*
D19*
X123237800Y-128983900D03*
D24*
X121967800Y-147398900D03*
X124507800Y-147398900D03*
X127047800Y-147398900D03*
X129587800Y-147398900D03*
X132127800Y-147398900D03*
X134667800Y-147398900D03*
X137207800Y-147398900D03*
X139747800Y-147398900D03*
X142287800Y-147398900D03*
X144827800Y-147398900D03*
X147367800Y-147398900D03*
X149907800Y-147398900D03*
X152447800Y-147398900D03*
X154987800Y-147398900D03*
X157527800Y-147398900D03*
X160067800Y-147398900D03*
X162607800Y-147398900D03*
X165147800Y-147398900D03*
X167687800Y-147398900D03*
X170227800Y-147398900D03*
X172767800Y-147398900D03*
X175307800Y-147398900D03*
X121967800Y-147398900D03*
X124507800Y-147398900D03*
X127047800Y-147398900D03*
X129587800Y-147398900D03*
X132127800Y-147398900D03*
X134667800Y-147398900D03*
X137207800Y-147398900D03*
X139747800Y-147398900D03*
X142287800Y-147398900D03*
X144827800Y-147398900D03*
X147367800Y-147398900D03*
X149907800Y-147398900D03*
X152447800Y-147398900D03*
X154987800Y-147398900D03*
X157527800Y-147398900D03*
X160067800Y-147398900D03*
X162607800Y-147398900D03*
X165147800Y-147398900D03*
X167687800Y-147398900D03*
X170227800Y-147398900D03*
X172767800Y-147398900D03*
X175307800Y-147398900D03*
D17*
X148576600Y-126393100D03*
X148576600Y-136553100D03*
%LPD*%
M02*
