%TF.GenerationSoftware,KiCad,Pcbnew,9.0.5-1.fc42*%
%TF.CreationDate,2025-11-09T17:32:47+08:00*%
%TF.ProjectId,JACC64-512K,4a414343-3634-42d3-9531-324b2e6b6963,rev?*%
%TF.SameCoordinates,Original*%
%TF.FileFunction,Soldermask,Bot*%
%TF.FilePolarity,Negative*%
%FSLAX46Y46*%
G04 Gerber Fmt 4.6, Leading zero omitted, Abs format (unit mm)*
G04 Created by KiCad (PCBNEW 9.0.5-1.fc42) date 2025-11-09 17:32:47*
%MOMM*%
%LPD*%
G01*
G04 APERTURE LIST*
G04 Aperture macros list*
%AMRoundRect*
0 Rectangle with rounded corners*
0 $1 Rounding radius*
0 $2 $3 $4 $5 $6 $7 $8 $9 X,Y pos of 4 corners*
0 Add a 4 corners polygon primitive as box body*
4,1,4,$2,$3,$4,$5,$6,$7,$8,$9,$2,$3,0*
0 Add four circle primitives for the rounded corners*
1,1,$1+$1,$2,$3*
1,1,$1+$1,$4,$5*
1,1,$1+$1,$6,$7*
1,1,$1+$1,$8,$9*
0 Add four rect primitives between the rounded corners*
20,1,$1+$1,$2,$3,$4,$5,0*
20,1,$1+$1,$4,$5,$6,$7,0*
20,1,$1+$1,$6,$7,$8,$9,0*
20,1,$1+$1,$8,$9,$2,$3,0*%
G04 Aperture macros list end*
%ADD10C,0.000000*%
%ADD11C,1.600000*%
%ADD12RoundRect,0.249999X0.850001X0.850001X-0.850001X0.850001X-0.850001X-0.850001X0.850001X-0.850001X0*%
%ADD13C,2.200000*%
%ADD14RoundRect,0.250000X0.550000X-0.550000X0.550000X0.550000X-0.550000X0.550000X-0.550000X-0.550000X0*%
%ADD15C,2.000000*%
%ADD16R,1.800000X1.800000*%
%ADD17C,1.800000*%
G04 APERTURE END LIST*
D10*
G36*
X177593800Y-153113900D02*
G01*
X119681800Y-153113900D01*
X119681800Y-141683900D01*
X177593800Y-141683900D01*
X177593800Y-153113900D01*
G37*
D11*
X143496600Y-126393100D03*
X143496600Y-136553100D03*
D12*
X130857800Y-123903900D03*
D13*
X123237800Y-123903900D03*
D11*
X158736600Y-126393100D03*
X158736600Y-136553100D03*
D14*
X128317800Y-79411400D03*
D11*
X130857800Y-79411400D03*
X133397800Y-79411400D03*
X135937800Y-79411400D03*
X138477800Y-79411400D03*
X138477800Y-71791400D03*
X135937800Y-71791400D03*
X133397800Y-71791400D03*
X130857800Y-71791400D03*
X128317800Y-71791400D03*
X153656600Y-126393100D03*
X153656600Y-136553100D03*
D15*
X172207800Y-77893900D03*
X165707800Y-77893900D03*
X172207800Y-73393900D03*
X165707800Y-73393900D03*
D11*
X168896600Y-126393100D03*
X168896600Y-136553100D03*
D14*
X135748100Y-104385200D03*
D11*
X138288100Y-104385200D03*
X140828100Y-104385200D03*
X143368100Y-104385200D03*
X145908100Y-104385200D03*
X148448100Y-104385200D03*
X150988100Y-104385200D03*
X153528100Y-104385200D03*
X156068100Y-104385200D03*
X158608100Y-104385200D03*
X161148100Y-104385200D03*
X163688100Y-104385200D03*
X166228100Y-104385200D03*
X168768100Y-104385200D03*
X171308100Y-104385200D03*
X173848100Y-104385200D03*
X173848100Y-89145200D03*
X171308100Y-89145200D03*
X168768100Y-89145200D03*
X166228100Y-89145200D03*
X163688100Y-89145200D03*
X161148100Y-89145200D03*
X158608100Y-89145200D03*
X156068100Y-89145200D03*
X153528100Y-89145200D03*
X150988100Y-89145200D03*
X148448100Y-89145200D03*
X145908100Y-89145200D03*
X143368100Y-89145200D03*
X140828100Y-89145200D03*
X138288100Y-89145200D03*
X135748100Y-89145200D03*
X130488200Y-95307000D03*
X130488200Y-100307000D03*
X163816600Y-126393100D03*
X163816600Y-136553100D03*
X147320000Y-83820000D03*
X157480000Y-83820000D03*
D16*
X157475200Y-75643900D03*
D17*
X154935200Y-75643900D03*
D12*
X130857800Y-128983900D03*
D13*
X123237800Y-128983900D03*
D11*
X148576600Y-126393100D03*
X148576600Y-136553100D03*
M02*
