%TF.GenerationSoftware,KiCad,Pcbnew,9.0.5-1.fc42*%
%TF.CreationDate,2025-11-09T17:32:50+08:00*%
%TF.ProjectId,JACC64-512K,4a414343-3634-42d3-9531-324b2e6b6963,rev?*%
%TF.SameCoordinates,Original*%
%TF.FileFunction,Drillmap*%
%TF.FilePolarity,Positive*%
%FSLAX45Y45*%
G04 Gerber Fmt 4.5, Leading zero omitted, Abs format (unit mm)*
G04 Created by KiCad (PCBNEW 9.0.5-1.fc42) date 2025-11-09 17:32:50*
%MOMM*%
%LPD*%
G01*
G04 APERTURE LIST*
%ADD10C,0.050000*%
%ADD11C,0.200000*%
%ADD12C,0.100000*%
%ADD13C,0.110000*%
G04 APERTURE END LIST*
D10*
X12064185Y-15314514D02*
G75*
G02*
X11964186Y-15214514I-5J99994D01*
G01*
X12065098Y-6608380D02*
X17663862Y-6608380D01*
X17663862Y-6608380D02*
G75*
G02*
X17763860Y-6708380I-2J-100000D01*
G01*
X11964185Y-15214514D02*
X11965098Y-6708380D01*
X17763862Y-6708380D02*
X17762949Y-15214514D01*
X11965098Y-6708380D02*
G75*
G02*
X12065098Y-6608378I100012J-10D01*
G01*
X17762949Y-15214514D02*
G75*
G02*
X17662949Y-15314519I-100009J4D01*
G01*
X15117780Y-11120391D02*
G75*
G02*
X14609780Y-11120391I-254000J0D01*
G01*
X14609780Y-11120391D02*
G75*
G02*
X15117780Y-11120391I254000J0D01*
G01*
X15117780Y-7056391D02*
G75*
G02*
X14609780Y-7056391I-254000J0D01*
G01*
X14609780Y-7056391D02*
G75*
G02*
X15117780Y-7056391I254000J0D01*
G01*
X17662949Y-15314514D02*
X12064185Y-15314514D01*
D11*
D12*
X12685000Y-13955000D02*
X12715000Y-13985000D01*
X12715000Y-13955000D02*
X12685000Y-13985000D01*
X13313578Y-9141954D02*
X13343578Y-9171954D01*
X13343578Y-9141954D02*
X13313578Y-9171954D01*
X13317793Y-8585643D02*
X13347793Y-8615643D01*
X13347793Y-8585643D02*
X13317793Y-8615643D01*
X13343940Y-10800860D02*
X13373940Y-10830860D01*
X13373940Y-10800860D02*
X13343940Y-10830860D01*
X13446530Y-7439690D02*
X13476530Y-7469690D01*
X13476530Y-7439690D02*
X13446530Y-7469690D01*
X13447220Y-9552780D02*
X13477220Y-9582780D01*
X13477220Y-9552780D02*
X13447220Y-9582780D01*
X13539650Y-14000540D02*
X13569650Y-14030540D01*
X13569650Y-14000540D02*
X13539650Y-14030540D01*
X13574876Y-8408635D02*
X13604876Y-8438635D01*
X13604876Y-8408635D02*
X13574876Y-8438635D01*
X13701000Y-13955000D02*
X13731000Y-13985000D01*
X13731000Y-13955000D02*
X13701000Y-13985000D01*
X13756225Y-12295739D02*
X13786225Y-12325739D01*
X13786225Y-12295739D02*
X13756225Y-12325739D01*
X14121630Y-7310140D02*
X14151630Y-7340140D01*
X14151630Y-7310140D02*
X14121630Y-7340140D01*
X14122900Y-11193180D02*
X14152900Y-11223180D01*
X14152900Y-11193180D02*
X14122900Y-11223180D01*
X14317445Y-11390844D02*
X14347445Y-11420844D01*
X14347445Y-11390844D02*
X14317445Y-11420844D01*
X14317670Y-12472290D02*
X14347670Y-12502290D01*
X14347670Y-12472290D02*
X14317670Y-12502290D01*
X14321660Y-11862866D02*
X14351660Y-11892866D01*
X14351660Y-11862866D02*
X14321660Y-11892866D01*
X14342554Y-10783415D02*
X14372554Y-10813415D01*
X14372554Y-10783415D02*
X14342554Y-10813415D01*
X14412620Y-12843380D02*
X14442620Y-12873380D01*
X14442620Y-12843380D02*
X14412620Y-12873380D01*
X14516370Y-10800860D02*
X14546370Y-10830860D01*
X14546370Y-10800860D02*
X14516370Y-10830860D01*
X14527560Y-12274710D02*
X14557560Y-12304710D01*
X14557560Y-12274710D02*
X14527560Y-12304710D01*
X14591386Y-9932635D02*
X14621386Y-9962635D01*
X14621386Y-9932635D02*
X14591386Y-9962635D01*
X14618542Y-13270855D02*
X14648542Y-13300855D01*
X14648542Y-13270855D02*
X14618542Y-13300855D01*
X14634950Y-13960080D02*
X14664950Y-13990080D01*
X14664950Y-13960080D02*
X14634950Y-13990080D01*
X14717000Y-11669000D02*
X14747000Y-11699000D01*
X14747000Y-11669000D02*
X14717000Y-11699000D01*
X14717000Y-11923000D02*
X14747000Y-11953000D01*
X14747000Y-11923000D02*
X14717000Y-11953000D01*
X14743107Y-12339102D02*
X14773107Y-12369102D01*
X14773107Y-12339102D02*
X14743107Y-12369102D01*
X14790440Y-14000540D02*
X14820440Y-14030540D01*
X14820440Y-14000540D02*
X14790440Y-14030540D01*
X14840040Y-9932635D02*
X14870040Y-9962635D01*
X14870040Y-9932635D02*
X14840040Y-9962635D01*
X15055685Y-11944227D02*
X15085685Y-11974227D01*
X15085685Y-11944227D02*
X15055685Y-11974227D01*
X15076051Y-10071713D02*
X15106051Y-10101713D01*
X15106051Y-10071713D02*
X15076051Y-10101713D01*
X15106545Y-13988794D02*
X15136545Y-14018794D01*
X15136545Y-13988794D02*
X15106545Y-14018794D01*
X15164300Y-13836360D02*
X15194300Y-13866360D01*
X15194300Y-13836360D02*
X15164300Y-13866360D01*
X15269320Y-11294900D02*
X15299320Y-11324900D01*
X15299320Y-11294900D02*
X15269320Y-11324900D01*
X15348529Y-13364008D02*
X15378529Y-13394008D01*
X15378529Y-13364008D02*
X15348529Y-13394008D01*
X15350394Y-13915480D02*
X15380394Y-13945480D01*
X15380394Y-13915480D02*
X15350394Y-13945480D01*
X15350660Y-11415690D02*
X15380660Y-11445690D01*
X15380660Y-11415690D02*
X15350660Y-11445690D01*
X15483670Y-14016940D02*
X15513670Y-14046940D01*
X15513670Y-14016940D02*
X15483670Y-14046940D01*
X15617440Y-11091740D02*
X15647440Y-11121740D01*
X15647440Y-11091740D02*
X15617440Y-11121740D01*
X15617440Y-14082260D02*
X15647440Y-14112260D01*
X15647440Y-14082260D02*
X15617440Y-14112260D01*
X15669880Y-10824790D02*
X15699880Y-10854790D01*
X15699880Y-10824790D02*
X15669880Y-10854790D01*
X15670160Y-13885320D02*
X15700160Y-13915320D01*
X15700160Y-13885320D02*
X15670160Y-13915320D01*
X15681980Y-10648780D02*
X15711980Y-10678780D01*
X15711980Y-10648780D02*
X15681980Y-10678780D01*
X15813480Y-10855050D02*
X15843480Y-10885050D01*
X15843480Y-10855050D02*
X15813480Y-10885050D01*
X15842266Y-10077568D02*
X15872266Y-10107568D01*
X15872266Y-10077568D02*
X15842266Y-10107568D01*
X15902089Y-12351745D02*
X15932089Y-12381745D01*
X15932089Y-12351745D02*
X15902089Y-12381745D01*
X15987000Y-11415000D02*
X16017000Y-11445000D01*
X16017000Y-11415000D02*
X15987000Y-11445000D01*
X15987000Y-11669000D02*
X16017000Y-11699000D01*
X16017000Y-11669000D02*
X15987000Y-11699000D01*
X15987000Y-11923000D02*
X16017000Y-11953000D01*
X16017000Y-11923000D02*
X15987000Y-11953000D01*
X15991780Y-13538014D02*
X16021780Y-13568014D01*
X16021780Y-13538014D02*
X15991780Y-13568014D01*
X16024309Y-10699670D02*
X16054309Y-10729670D01*
X16054309Y-10699670D02*
X16024309Y-10729670D01*
X16086706Y-9892131D02*
X16116706Y-9922131D01*
X16116706Y-9892131D02*
X16086706Y-9922131D01*
X16114410Y-14091530D02*
X16144410Y-14121530D01*
X16144410Y-14091530D02*
X16114410Y-14121530D01*
X16139940Y-13986930D02*
X16169940Y-14016930D01*
X16169940Y-13986930D02*
X16139940Y-14016930D01*
X16226960Y-9415020D02*
X16256960Y-9445020D01*
X16256960Y-9415020D02*
X16226960Y-9445020D01*
X16282210Y-13876940D02*
X16312210Y-13906940D01*
X16312210Y-13876940D02*
X16282210Y-13906940D01*
X16336180Y-11432989D02*
X16366180Y-11462989D01*
X16366180Y-11432989D02*
X16336180Y-11462989D01*
X16340890Y-9090270D02*
X16370890Y-9120270D01*
X16370890Y-9090270D02*
X16340890Y-9120270D01*
X16356432Y-9879488D02*
X16386432Y-9909488D01*
X16386432Y-9879488D02*
X16356432Y-9909488D01*
X16476181Y-12255260D02*
X16506181Y-12285260D01*
X16506181Y-12255260D02*
X16476181Y-12285260D01*
X16569920Y-13829970D02*
X16599920Y-13859970D01*
X16599920Y-13829970D02*
X16569920Y-13859970D01*
X16629460Y-12837020D02*
X16659460Y-12867020D01*
X16659460Y-12837020D02*
X16629460Y-12867020D01*
X16809620Y-14034950D02*
X16839620Y-14064950D01*
X16839620Y-14034950D02*
X16809620Y-14064950D01*
X16855416Y-12277561D02*
X16885416Y-12307561D01*
X16885416Y-12277561D02*
X16855416Y-12307561D01*
X16876251Y-13362315D02*
X16906251Y-13392315D01*
X16906251Y-13362315D02*
X16876251Y-13392315D01*
X16887457Y-11598995D02*
X16917457Y-11628995D01*
X16917457Y-11598995D02*
X16887457Y-11628995D01*
X16994380Y-10900970D02*
X17024380Y-10930970D01*
X17024380Y-10900970D02*
X16994380Y-10930970D01*
X17051821Y-10697097D02*
X17081821Y-10727097D01*
X17081821Y-10697097D02*
X17051821Y-10727097D01*
X17073990Y-11172870D02*
X17103990Y-11202870D01*
X17103990Y-11172870D02*
X17073990Y-11202870D01*
X17093966Y-9302104D02*
X17123966Y-9332104D01*
X17123966Y-9302104D02*
X17093966Y-9332104D01*
X17097240Y-14000540D02*
X17127240Y-14030540D01*
X17127240Y-14000540D02*
X17097240Y-14030540D01*
X17130510Y-13857350D02*
X17160510Y-13887350D01*
X17160510Y-13857350D02*
X17130510Y-13887350D01*
X17136111Y-9833129D02*
X17166111Y-9863129D01*
X17166111Y-9833129D02*
X17136111Y-9863129D01*
X17279100Y-10892080D02*
X17309100Y-10922080D01*
X17309100Y-10892080D02*
X17279100Y-10922080D01*
X17329690Y-10808030D02*
X17359690Y-10838030D01*
X17359690Y-10808030D02*
X17329690Y-10838030D01*
X17427620Y-13957380D02*
X17457620Y-13987380D01*
X17457620Y-13957380D02*
X17427620Y-13987380D01*
X12871780Y-7179140D02*
G75*
G02*
X12791780Y-7179140I-40000J0D01*
G01*
X12791780Y-7179140D02*
G75*
G02*
X12871780Y-7179140I40000J0D01*
G01*
X12871780Y-7941140D02*
G75*
G02*
X12791780Y-7941140I-40000J0D01*
G01*
X12791780Y-7941140D02*
G75*
G02*
X12871780Y-7941140I40000J0D01*
G01*
X13088820Y-9530700D02*
G75*
G02*
X13008820Y-9530700I-40000J0D01*
G01*
X13008820Y-9530700D02*
G75*
G02*
X13088820Y-9530700I40000J0D01*
G01*
X13088820Y-10030700D02*
G75*
G02*
X13008820Y-10030700I-40000J0D01*
G01*
X13008820Y-10030700D02*
G75*
G02*
X13088820Y-10030700I40000J0D01*
G01*
X13125780Y-7179140D02*
G75*
G02*
X13045780Y-7179140I-40000J0D01*
G01*
X13045780Y-7179140D02*
G75*
G02*
X13125780Y-7179140I40000J0D01*
G01*
X13125780Y-7941140D02*
G75*
G02*
X13045780Y-7941140I-40000J0D01*
G01*
X13045780Y-7941140D02*
G75*
G02*
X13125780Y-7941140I40000J0D01*
G01*
X13379780Y-7179140D02*
G75*
G02*
X13299780Y-7179140I-40000J0D01*
G01*
X13299780Y-7179140D02*
G75*
G02*
X13379780Y-7179140I40000J0D01*
G01*
X13379780Y-7941140D02*
G75*
G02*
X13299780Y-7941140I-40000J0D01*
G01*
X13299780Y-7941140D02*
G75*
G02*
X13379780Y-7941140I40000J0D01*
G01*
X13614810Y-8914520D02*
G75*
G02*
X13534810Y-8914520I-40000J0D01*
G01*
X13534810Y-8914520D02*
G75*
G02*
X13614810Y-8914520I40000J0D01*
G01*
X13614810Y-10438520D02*
G75*
G02*
X13534810Y-10438520I-40000J0D01*
G01*
X13534810Y-10438520D02*
G75*
G02*
X13614810Y-10438520I40000J0D01*
G01*
X13633780Y-7179140D02*
G75*
G02*
X13553780Y-7179140I-40000J0D01*
G01*
X13553780Y-7179140D02*
G75*
G02*
X13633780Y-7179140I40000J0D01*
G01*
X13633780Y-7941140D02*
G75*
G02*
X13553780Y-7941140I-40000J0D01*
G01*
X13553780Y-7941140D02*
G75*
G02*
X13633780Y-7941140I40000J0D01*
G01*
X13868810Y-8914520D02*
G75*
G02*
X13788810Y-8914520I-40000J0D01*
G01*
X13788810Y-8914520D02*
G75*
G02*
X13868810Y-8914520I40000J0D01*
G01*
X13868810Y-10438520D02*
G75*
G02*
X13788810Y-10438520I-40000J0D01*
G01*
X13788810Y-10438520D02*
G75*
G02*
X13868810Y-10438520I40000J0D01*
G01*
X13887780Y-7179140D02*
G75*
G02*
X13807780Y-7179140I-40000J0D01*
G01*
X13807780Y-7179140D02*
G75*
G02*
X13887780Y-7179140I40000J0D01*
G01*
X13887780Y-7941140D02*
G75*
G02*
X13807780Y-7941140I-40000J0D01*
G01*
X13807780Y-7941140D02*
G75*
G02*
X13887780Y-7941140I40000J0D01*
G01*
X14122810Y-8914520D02*
G75*
G02*
X14042810Y-8914520I-40000J0D01*
G01*
X14042810Y-8914520D02*
G75*
G02*
X14122810Y-8914520I40000J0D01*
G01*
X14122810Y-10438520D02*
G75*
G02*
X14042810Y-10438520I-40000J0D01*
G01*
X14042810Y-10438520D02*
G75*
G02*
X14122810Y-10438520I40000J0D01*
G01*
X14376810Y-8914520D02*
G75*
G02*
X14296810Y-8914520I-40000J0D01*
G01*
X14296810Y-8914520D02*
G75*
G02*
X14376810Y-8914520I40000J0D01*
G01*
X14376810Y-10438520D02*
G75*
G02*
X14296810Y-10438520I-40000J0D01*
G01*
X14296810Y-10438520D02*
G75*
G02*
X14376810Y-10438520I40000J0D01*
G01*
X14389660Y-12639310D02*
G75*
G02*
X14309660Y-12639310I-40000J0D01*
G01*
X14309660Y-12639310D02*
G75*
G02*
X14389660Y-12639310I40000J0D01*
G01*
X14389660Y-13655310D02*
G75*
G02*
X14309660Y-13655310I-40000J0D01*
G01*
X14309660Y-13655310D02*
G75*
G02*
X14389660Y-13655310I40000J0D01*
G01*
X14630810Y-8914520D02*
G75*
G02*
X14550810Y-8914520I-40000J0D01*
G01*
X14550810Y-8914520D02*
G75*
G02*
X14630810Y-8914520I40000J0D01*
G01*
X14630810Y-10438520D02*
G75*
G02*
X14550810Y-10438520I-40000J0D01*
G01*
X14550810Y-10438520D02*
G75*
G02*
X14630810Y-10438520I40000J0D01*
G01*
X14772000Y-8382000D02*
G75*
G02*
X14692000Y-8382000I-40000J0D01*
G01*
X14692000Y-8382000D02*
G75*
G02*
X14772000Y-8382000I40000J0D01*
G01*
X14884810Y-8914520D02*
G75*
G02*
X14804810Y-8914520I-40000J0D01*
G01*
X14804810Y-8914520D02*
G75*
G02*
X14884810Y-8914520I40000J0D01*
G01*
X14884810Y-10438520D02*
G75*
G02*
X14804810Y-10438520I-40000J0D01*
G01*
X14804810Y-10438520D02*
G75*
G02*
X14884810Y-10438520I40000J0D01*
G01*
X14897660Y-12639310D02*
G75*
G02*
X14817660Y-12639310I-40000J0D01*
G01*
X14817660Y-12639310D02*
G75*
G02*
X14897660Y-12639310I40000J0D01*
G01*
X14897660Y-13655310D02*
G75*
G02*
X14817660Y-13655310I-40000J0D01*
G01*
X14817660Y-13655310D02*
G75*
G02*
X14897660Y-13655310I40000J0D01*
G01*
X15138810Y-8914520D02*
G75*
G02*
X15058810Y-8914520I-40000J0D01*
G01*
X15058810Y-8914520D02*
G75*
G02*
X15138810Y-8914520I40000J0D01*
G01*
X15138810Y-10438520D02*
G75*
G02*
X15058810Y-10438520I-40000J0D01*
G01*
X15058810Y-10438520D02*
G75*
G02*
X15138810Y-10438520I40000J0D01*
G01*
X15392810Y-8914520D02*
G75*
G02*
X15312810Y-8914520I-40000J0D01*
G01*
X15312810Y-8914520D02*
G75*
G02*
X15392810Y-8914520I40000J0D01*
G01*
X15392810Y-10438520D02*
G75*
G02*
X15312810Y-10438520I-40000J0D01*
G01*
X15312810Y-10438520D02*
G75*
G02*
X15392810Y-10438520I40000J0D01*
G01*
X15405660Y-12639310D02*
G75*
G02*
X15325660Y-12639310I-40000J0D01*
G01*
X15325660Y-12639310D02*
G75*
G02*
X15405660Y-12639310I40000J0D01*
G01*
X15405660Y-13655310D02*
G75*
G02*
X15325660Y-13655310I-40000J0D01*
G01*
X15325660Y-13655310D02*
G75*
G02*
X15405660Y-13655310I40000J0D01*
G01*
X15646810Y-8914520D02*
G75*
G02*
X15566810Y-8914520I-40000J0D01*
G01*
X15566810Y-8914520D02*
G75*
G02*
X15646810Y-8914520I40000J0D01*
G01*
X15646810Y-10438520D02*
G75*
G02*
X15566810Y-10438520I-40000J0D01*
G01*
X15566810Y-10438520D02*
G75*
G02*
X15646810Y-10438520I40000J0D01*
G01*
X15788000Y-8382000D02*
G75*
G02*
X15708000Y-8382000I-40000J0D01*
G01*
X15708000Y-8382000D02*
G75*
G02*
X15788000Y-8382000I40000J0D01*
G01*
X15900810Y-8914520D02*
G75*
G02*
X15820810Y-8914520I-40000J0D01*
G01*
X15820810Y-8914520D02*
G75*
G02*
X15900810Y-8914520I40000J0D01*
G01*
X15900810Y-10438520D02*
G75*
G02*
X15820810Y-10438520I-40000J0D01*
G01*
X15820810Y-10438520D02*
G75*
G02*
X15900810Y-10438520I40000J0D01*
G01*
X15913660Y-12639310D02*
G75*
G02*
X15833660Y-12639310I-40000J0D01*
G01*
X15833660Y-12639310D02*
G75*
G02*
X15913660Y-12639310I40000J0D01*
G01*
X15913660Y-13655310D02*
G75*
G02*
X15833660Y-13655310I-40000J0D01*
G01*
X15833660Y-13655310D02*
G75*
G02*
X15913660Y-13655310I40000J0D01*
G01*
X16154810Y-8914520D02*
G75*
G02*
X16074810Y-8914520I-40000J0D01*
G01*
X16074810Y-8914520D02*
G75*
G02*
X16154810Y-8914520I40000J0D01*
G01*
X16154810Y-10438520D02*
G75*
G02*
X16074810Y-10438520I-40000J0D01*
G01*
X16074810Y-10438520D02*
G75*
G02*
X16154810Y-10438520I40000J0D01*
G01*
X16408810Y-8914520D02*
G75*
G02*
X16328810Y-8914520I-40000J0D01*
G01*
X16328810Y-8914520D02*
G75*
G02*
X16408810Y-8914520I40000J0D01*
G01*
X16408810Y-10438520D02*
G75*
G02*
X16328810Y-10438520I-40000J0D01*
G01*
X16328810Y-10438520D02*
G75*
G02*
X16408810Y-10438520I40000J0D01*
G01*
X16421660Y-12639310D02*
G75*
G02*
X16341660Y-12639310I-40000J0D01*
G01*
X16341660Y-12639310D02*
G75*
G02*
X16421660Y-12639310I40000J0D01*
G01*
X16421660Y-13655310D02*
G75*
G02*
X16341660Y-13655310I-40000J0D01*
G01*
X16341660Y-13655310D02*
G75*
G02*
X16421660Y-13655310I40000J0D01*
G01*
X16662810Y-8914520D02*
G75*
G02*
X16582810Y-8914520I-40000J0D01*
G01*
X16582810Y-8914520D02*
G75*
G02*
X16662810Y-8914520I40000J0D01*
G01*
X16662810Y-10438520D02*
G75*
G02*
X16582810Y-10438520I-40000J0D01*
G01*
X16582810Y-10438520D02*
G75*
G02*
X16662810Y-10438520I40000J0D01*
G01*
X16916810Y-8914520D02*
G75*
G02*
X16836810Y-8914520I-40000J0D01*
G01*
X16836810Y-8914520D02*
G75*
G02*
X16916810Y-8914520I40000J0D01*
G01*
X16916810Y-10438520D02*
G75*
G02*
X16836810Y-10438520I-40000J0D01*
G01*
X16836810Y-10438520D02*
G75*
G02*
X16916810Y-10438520I40000J0D01*
G01*
X16929660Y-12639310D02*
G75*
G02*
X16849660Y-12639310I-40000J0D01*
G01*
X16849660Y-12639310D02*
G75*
G02*
X16929660Y-12639310I40000J0D01*
G01*
X16929660Y-13655310D02*
G75*
G02*
X16849660Y-13655310I-40000J0D01*
G01*
X16849660Y-13655310D02*
G75*
G02*
X16929660Y-13655310I40000J0D01*
G01*
X17170810Y-8914520D02*
G75*
G02*
X17090810Y-8914520I-40000J0D01*
G01*
X17090810Y-8914520D02*
G75*
G02*
X17170810Y-8914520I40000J0D01*
G01*
X17170810Y-10438520D02*
G75*
G02*
X17090810Y-10438520I-40000J0D01*
G01*
X17090810Y-10438520D02*
G75*
G02*
X17170810Y-10438520I40000J0D01*
G01*
X17424810Y-8914520D02*
G75*
G02*
X17344810Y-8914520I-40000J0D01*
G01*
X17344810Y-8914520D02*
G75*
G02*
X17424810Y-8914520I40000J0D01*
G01*
X17424810Y-10438520D02*
G75*
G02*
X17344810Y-10438520I-40000J0D01*
G01*
X17344810Y-10438520D02*
G75*
G02*
X17424810Y-10438520I40000J0D01*
G01*
X15493520Y-7519390D02*
X15493520Y-7609390D01*
X15448520Y-7564390D02*
X15538520Y-7564390D01*
X15747520Y-7519390D02*
X15747520Y-7609390D01*
X15702520Y-7564390D02*
X15792520Y-7564390D01*
D13*
X12362671Y-12429281D02*
X12362671Y-12351499D01*
X12284889Y-12351499D01*
X12284889Y-12429281D01*
X12362671Y-12429281D01*
X12362671Y-12937281D02*
X12362671Y-12859499D01*
X12284889Y-12859499D01*
X12284889Y-12937281D01*
X12362671Y-12937281D01*
X13124671Y-12429281D02*
X13124671Y-12351499D01*
X13046889Y-12351499D01*
X13046889Y-12429281D01*
X13124671Y-12429281D01*
X13124671Y-12937281D02*
X13124671Y-12859499D01*
X13046889Y-12859499D01*
X13046889Y-12937281D01*
X13124671Y-12937281D01*
X16609671Y-7378281D02*
X16609671Y-7300499D01*
X16531889Y-7300499D01*
X16531889Y-7378281D01*
X16609671Y-7378281D01*
X16609671Y-7828281D02*
X16609671Y-7750499D01*
X16531889Y-7750499D01*
X16531889Y-7828281D01*
X16609671Y-7828281D01*
X17259671Y-7378281D02*
X17259671Y-7300499D01*
X17181889Y-7300499D01*
X17181889Y-7378281D01*
X17259671Y-7378281D01*
X17259671Y-7828281D02*
X17259671Y-7750499D01*
X17181889Y-7750499D01*
X17181889Y-7828281D01*
X17259671Y-7828281D01*
D11*
X12222462Y-15628497D02*
X12222462Y-15428497D01*
X12222462Y-15428497D02*
X12270081Y-15428497D01*
X12270081Y-15428497D02*
X12298652Y-15438021D01*
X12298652Y-15438021D02*
X12317700Y-15457069D01*
X12317700Y-15457069D02*
X12327223Y-15476116D01*
X12327223Y-15476116D02*
X12336747Y-15514212D01*
X12336747Y-15514212D02*
X12336747Y-15542783D01*
X12336747Y-15542783D02*
X12327223Y-15580878D01*
X12327223Y-15580878D02*
X12317700Y-15599926D01*
X12317700Y-15599926D02*
X12298652Y-15618974D01*
X12298652Y-15618974D02*
X12270081Y-15628497D01*
X12270081Y-15628497D02*
X12222462Y-15628497D01*
X12422462Y-15628497D02*
X12422462Y-15495164D01*
X12422462Y-15533259D02*
X12431985Y-15514212D01*
X12431985Y-15514212D02*
X12441509Y-15504688D01*
X12441509Y-15504688D02*
X12460557Y-15495164D01*
X12460557Y-15495164D02*
X12479604Y-15495164D01*
X12546271Y-15628497D02*
X12546271Y-15495164D01*
X12546271Y-15428497D02*
X12536747Y-15438021D01*
X12536747Y-15438021D02*
X12546271Y-15447545D01*
X12546271Y-15447545D02*
X12555795Y-15438021D01*
X12555795Y-15438021D02*
X12546271Y-15428497D01*
X12546271Y-15428497D02*
X12546271Y-15447545D01*
X12670081Y-15628497D02*
X12651033Y-15618974D01*
X12651033Y-15618974D02*
X12641509Y-15599926D01*
X12641509Y-15599926D02*
X12641509Y-15428497D01*
X12774842Y-15628497D02*
X12755795Y-15618974D01*
X12755795Y-15618974D02*
X12746271Y-15599926D01*
X12746271Y-15599926D02*
X12746271Y-15428497D01*
X13003414Y-15628497D02*
X13003414Y-15428497D01*
X13003414Y-15428497D02*
X13070081Y-15571355D01*
X13070081Y-15571355D02*
X13136747Y-15428497D01*
X13136747Y-15428497D02*
X13136747Y-15628497D01*
X13317700Y-15628497D02*
X13317700Y-15523736D01*
X13317700Y-15523736D02*
X13308176Y-15504688D01*
X13308176Y-15504688D02*
X13289128Y-15495164D01*
X13289128Y-15495164D02*
X13251033Y-15495164D01*
X13251033Y-15495164D02*
X13231985Y-15504688D01*
X13317700Y-15618974D02*
X13298652Y-15628497D01*
X13298652Y-15628497D02*
X13251033Y-15628497D01*
X13251033Y-15628497D02*
X13231985Y-15618974D01*
X13231985Y-15618974D02*
X13222462Y-15599926D01*
X13222462Y-15599926D02*
X13222462Y-15580878D01*
X13222462Y-15580878D02*
X13231985Y-15561831D01*
X13231985Y-15561831D02*
X13251033Y-15552307D01*
X13251033Y-15552307D02*
X13298652Y-15552307D01*
X13298652Y-15552307D02*
X13317700Y-15542783D01*
X13412938Y-15495164D02*
X13412938Y-15695164D01*
X13412938Y-15504688D02*
X13431985Y-15495164D01*
X13431985Y-15495164D02*
X13470081Y-15495164D01*
X13470081Y-15495164D02*
X13489128Y-15504688D01*
X13489128Y-15504688D02*
X13498652Y-15514212D01*
X13498652Y-15514212D02*
X13508176Y-15533259D01*
X13508176Y-15533259D02*
X13508176Y-15590402D01*
X13508176Y-15590402D02*
X13498652Y-15609450D01*
X13498652Y-15609450D02*
X13489128Y-15618974D01*
X13489128Y-15618974D02*
X13470081Y-15628497D01*
X13470081Y-15628497D02*
X13431985Y-15628497D01*
X13431985Y-15628497D02*
X13412938Y-15618974D01*
X13593890Y-15609450D02*
X13603414Y-15618974D01*
X13603414Y-15618974D02*
X13593890Y-15628497D01*
X13593890Y-15628497D02*
X13584366Y-15618974D01*
X13584366Y-15618974D02*
X13593890Y-15609450D01*
X13593890Y-15609450D02*
X13593890Y-15628497D01*
X13593890Y-15504688D02*
X13603414Y-15514212D01*
X13603414Y-15514212D02*
X13593890Y-15523736D01*
X13593890Y-15523736D02*
X13584366Y-15514212D01*
X13584366Y-15514212D02*
X13593890Y-15504688D01*
X13593890Y-15504688D02*
X13593890Y-15523736D01*
D12*
X11931685Y-15942014D02*
X11961685Y-15972014D01*
X11961685Y-15942014D02*
X11931685Y-15972014D01*
D11*
X12260557Y-15848497D02*
X12279604Y-15848497D01*
X12279604Y-15848497D02*
X12298652Y-15858021D01*
X12298652Y-15858021D02*
X12308176Y-15867545D01*
X12308176Y-15867545D02*
X12317700Y-15886593D01*
X12317700Y-15886593D02*
X12327223Y-15924688D01*
X12327223Y-15924688D02*
X12327223Y-15972307D01*
X12327223Y-15972307D02*
X12317700Y-16010402D01*
X12317700Y-16010402D02*
X12308176Y-16029450D01*
X12308176Y-16029450D02*
X12298652Y-16038974D01*
X12298652Y-16038974D02*
X12279604Y-16048497D01*
X12279604Y-16048497D02*
X12260557Y-16048497D01*
X12260557Y-16048497D02*
X12241509Y-16038974D01*
X12241509Y-16038974D02*
X12231985Y-16029450D01*
X12231985Y-16029450D02*
X12222462Y-16010402D01*
X12222462Y-16010402D02*
X12212938Y-15972307D01*
X12212938Y-15972307D02*
X12212938Y-15924688D01*
X12212938Y-15924688D02*
X12222462Y-15886593D01*
X12222462Y-15886593D02*
X12231985Y-15867545D01*
X12231985Y-15867545D02*
X12241509Y-15858021D01*
X12241509Y-15858021D02*
X12260557Y-15848497D01*
X12412938Y-16029450D02*
X12422462Y-16038974D01*
X12422462Y-16038974D02*
X12412938Y-16048497D01*
X12412938Y-16048497D02*
X12403414Y-16038974D01*
X12403414Y-16038974D02*
X12412938Y-16029450D01*
X12412938Y-16029450D02*
X12412938Y-16048497D01*
X12489128Y-15848497D02*
X12612938Y-15848497D01*
X12612938Y-15848497D02*
X12546271Y-15924688D01*
X12546271Y-15924688D02*
X12574843Y-15924688D01*
X12574843Y-15924688D02*
X12593890Y-15934212D01*
X12593890Y-15934212D02*
X12603414Y-15943736D01*
X12603414Y-15943736D02*
X12612938Y-15962783D01*
X12612938Y-15962783D02*
X12612938Y-16010402D01*
X12612938Y-16010402D02*
X12603414Y-16029450D01*
X12603414Y-16029450D02*
X12593890Y-16038974D01*
X12593890Y-16038974D02*
X12574843Y-16048497D01*
X12574843Y-16048497D02*
X12517700Y-16048497D01*
X12517700Y-16048497D02*
X12498652Y-16038974D01*
X12498652Y-16038974D02*
X12489128Y-16029450D01*
X12736747Y-15848497D02*
X12755795Y-15848497D01*
X12755795Y-15848497D02*
X12774843Y-15858021D01*
X12774843Y-15858021D02*
X12784366Y-15867545D01*
X12784366Y-15867545D02*
X12793890Y-15886593D01*
X12793890Y-15886593D02*
X12803414Y-15924688D01*
X12803414Y-15924688D02*
X12803414Y-15972307D01*
X12803414Y-15972307D02*
X12793890Y-16010402D01*
X12793890Y-16010402D02*
X12784366Y-16029450D01*
X12784366Y-16029450D02*
X12774843Y-16038974D01*
X12774843Y-16038974D02*
X12755795Y-16048497D01*
X12755795Y-16048497D02*
X12736747Y-16048497D01*
X12736747Y-16048497D02*
X12717700Y-16038974D01*
X12717700Y-16038974D02*
X12708176Y-16029450D01*
X12708176Y-16029450D02*
X12698652Y-16010402D01*
X12698652Y-16010402D02*
X12689128Y-15972307D01*
X12689128Y-15972307D02*
X12689128Y-15924688D01*
X12689128Y-15924688D02*
X12698652Y-15886593D01*
X12698652Y-15886593D02*
X12708176Y-15867545D01*
X12708176Y-15867545D02*
X12717700Y-15858021D01*
X12717700Y-15858021D02*
X12736747Y-15848497D01*
X12927223Y-15848497D02*
X12946271Y-15848497D01*
X12946271Y-15848497D02*
X12965319Y-15858021D01*
X12965319Y-15858021D02*
X12974843Y-15867545D01*
X12974843Y-15867545D02*
X12984366Y-15886593D01*
X12984366Y-15886593D02*
X12993890Y-15924688D01*
X12993890Y-15924688D02*
X12993890Y-15972307D01*
X12993890Y-15972307D02*
X12984366Y-16010402D01*
X12984366Y-16010402D02*
X12974843Y-16029450D01*
X12974843Y-16029450D02*
X12965319Y-16038974D01*
X12965319Y-16038974D02*
X12946271Y-16048497D01*
X12946271Y-16048497D02*
X12927223Y-16048497D01*
X12927223Y-16048497D02*
X12908176Y-16038974D01*
X12908176Y-16038974D02*
X12898652Y-16029450D01*
X12898652Y-16029450D02*
X12889128Y-16010402D01*
X12889128Y-16010402D02*
X12879604Y-15972307D01*
X12879604Y-15972307D02*
X12879604Y-15924688D01*
X12879604Y-15924688D02*
X12889128Y-15886593D01*
X12889128Y-15886593D02*
X12898652Y-15867545D01*
X12898652Y-15867545D02*
X12908176Y-15858021D01*
X12908176Y-15858021D02*
X12927223Y-15848497D01*
X13079604Y-16048497D02*
X13079604Y-15915164D01*
X13079604Y-15934212D02*
X13089128Y-15924688D01*
X13089128Y-15924688D02*
X13108176Y-15915164D01*
X13108176Y-15915164D02*
X13136747Y-15915164D01*
X13136747Y-15915164D02*
X13155795Y-15924688D01*
X13155795Y-15924688D02*
X13165319Y-15943736D01*
X13165319Y-15943736D02*
X13165319Y-16048497D01*
X13165319Y-15943736D02*
X13174843Y-15924688D01*
X13174843Y-15924688D02*
X13193890Y-15915164D01*
X13193890Y-15915164D02*
X13222462Y-15915164D01*
X13222462Y-15915164D02*
X13241509Y-15924688D01*
X13241509Y-15924688D02*
X13251033Y-15943736D01*
X13251033Y-15943736D02*
X13251033Y-16048497D01*
X13346271Y-16048497D02*
X13346271Y-15915164D01*
X13346271Y-15934212D02*
X13355795Y-15924688D01*
X13355795Y-15924688D02*
X13374843Y-15915164D01*
X13374843Y-15915164D02*
X13403414Y-15915164D01*
X13403414Y-15915164D02*
X13422462Y-15924688D01*
X13422462Y-15924688D02*
X13431985Y-15943736D01*
X13431985Y-15943736D02*
X13431985Y-16048497D01*
X13431985Y-15943736D02*
X13441509Y-15924688D01*
X13441509Y-15924688D02*
X13460557Y-15915164D01*
X13460557Y-15915164D02*
X13489128Y-15915164D01*
X13489128Y-15915164D02*
X13508176Y-15924688D01*
X13508176Y-15924688D02*
X13517700Y-15943736D01*
X13517700Y-15943736D02*
X13517700Y-16048497D01*
X13908176Y-15838974D02*
X13736747Y-16096116D01*
X14165319Y-15848497D02*
X14184367Y-15848497D01*
X14184367Y-15848497D02*
X14203414Y-15858021D01*
X14203414Y-15858021D02*
X14212938Y-15867545D01*
X14212938Y-15867545D02*
X14222462Y-15886593D01*
X14222462Y-15886593D02*
X14231986Y-15924688D01*
X14231986Y-15924688D02*
X14231986Y-15972307D01*
X14231986Y-15972307D02*
X14222462Y-16010402D01*
X14222462Y-16010402D02*
X14212938Y-16029450D01*
X14212938Y-16029450D02*
X14203414Y-16038974D01*
X14203414Y-16038974D02*
X14184367Y-16048497D01*
X14184367Y-16048497D02*
X14165319Y-16048497D01*
X14165319Y-16048497D02*
X14146271Y-16038974D01*
X14146271Y-16038974D02*
X14136747Y-16029450D01*
X14136747Y-16029450D02*
X14127224Y-16010402D01*
X14127224Y-16010402D02*
X14117700Y-15972307D01*
X14117700Y-15972307D02*
X14117700Y-15924688D01*
X14117700Y-15924688D02*
X14127224Y-15886593D01*
X14127224Y-15886593D02*
X14136747Y-15867545D01*
X14136747Y-15867545D02*
X14146271Y-15858021D01*
X14146271Y-15858021D02*
X14165319Y-15848497D01*
X14317700Y-16029450D02*
X14327224Y-16038974D01*
X14327224Y-16038974D02*
X14317700Y-16048497D01*
X14317700Y-16048497D02*
X14308176Y-16038974D01*
X14308176Y-16038974D02*
X14317700Y-16029450D01*
X14317700Y-16029450D02*
X14317700Y-16048497D01*
X14451033Y-15848497D02*
X14470081Y-15848497D01*
X14470081Y-15848497D02*
X14489128Y-15858021D01*
X14489128Y-15858021D02*
X14498652Y-15867545D01*
X14498652Y-15867545D02*
X14508176Y-15886593D01*
X14508176Y-15886593D02*
X14517700Y-15924688D01*
X14517700Y-15924688D02*
X14517700Y-15972307D01*
X14517700Y-15972307D02*
X14508176Y-16010402D01*
X14508176Y-16010402D02*
X14498652Y-16029450D01*
X14498652Y-16029450D02*
X14489128Y-16038974D01*
X14489128Y-16038974D02*
X14470081Y-16048497D01*
X14470081Y-16048497D02*
X14451033Y-16048497D01*
X14451033Y-16048497D02*
X14431986Y-16038974D01*
X14431986Y-16038974D02*
X14422462Y-16029450D01*
X14422462Y-16029450D02*
X14412938Y-16010402D01*
X14412938Y-16010402D02*
X14403414Y-15972307D01*
X14403414Y-15972307D02*
X14403414Y-15924688D01*
X14403414Y-15924688D02*
X14412938Y-15886593D01*
X14412938Y-15886593D02*
X14422462Y-15867545D01*
X14422462Y-15867545D02*
X14431986Y-15858021D01*
X14431986Y-15858021D02*
X14451033Y-15848497D01*
X14708176Y-16048497D02*
X14593890Y-16048497D01*
X14651033Y-16048497D02*
X14651033Y-15848497D01*
X14651033Y-15848497D02*
X14631986Y-15877069D01*
X14631986Y-15877069D02*
X14612938Y-15896116D01*
X14612938Y-15896116D02*
X14593890Y-15905640D01*
X14898652Y-16048497D02*
X14784367Y-16048497D01*
X14841509Y-16048497D02*
X14841509Y-15848497D01*
X14841509Y-15848497D02*
X14822462Y-15877069D01*
X14822462Y-15877069D02*
X14803414Y-15896116D01*
X14803414Y-15896116D02*
X14784367Y-15905640D01*
X15012938Y-15934212D02*
X14993890Y-15924688D01*
X14993890Y-15924688D02*
X14984367Y-15915164D01*
X14984367Y-15915164D02*
X14974843Y-15896116D01*
X14974843Y-15896116D02*
X14974843Y-15886593D01*
X14974843Y-15886593D02*
X14984367Y-15867545D01*
X14984367Y-15867545D02*
X14993890Y-15858021D01*
X14993890Y-15858021D02*
X15012938Y-15848497D01*
X15012938Y-15848497D02*
X15051033Y-15848497D01*
X15051033Y-15848497D02*
X15070081Y-15858021D01*
X15070081Y-15858021D02*
X15079605Y-15867545D01*
X15079605Y-15867545D02*
X15089128Y-15886593D01*
X15089128Y-15886593D02*
X15089128Y-15896116D01*
X15089128Y-15896116D02*
X15079605Y-15915164D01*
X15079605Y-15915164D02*
X15070081Y-15924688D01*
X15070081Y-15924688D02*
X15051033Y-15934212D01*
X15051033Y-15934212D02*
X15012938Y-15934212D01*
X15012938Y-15934212D02*
X14993890Y-15943736D01*
X14993890Y-15943736D02*
X14984367Y-15953259D01*
X14984367Y-15953259D02*
X14974843Y-15972307D01*
X14974843Y-15972307D02*
X14974843Y-16010402D01*
X14974843Y-16010402D02*
X14984367Y-16029450D01*
X14984367Y-16029450D02*
X14993890Y-16038974D01*
X14993890Y-16038974D02*
X15012938Y-16048497D01*
X15012938Y-16048497D02*
X15051033Y-16048497D01*
X15051033Y-16048497D02*
X15070081Y-16038974D01*
X15070081Y-16038974D02*
X15079605Y-16029450D01*
X15079605Y-16029450D02*
X15089128Y-16010402D01*
X15089128Y-16010402D02*
X15089128Y-15972307D01*
X15089128Y-15972307D02*
X15079605Y-15953259D01*
X15079605Y-15953259D02*
X15070081Y-15943736D01*
X15070081Y-15943736D02*
X15051033Y-15934212D01*
X15165319Y-15848497D02*
X15165319Y-15886593D01*
X15241509Y-15848497D02*
X15241509Y-15886593D01*
X15536748Y-16124688D02*
X15527224Y-16115164D01*
X15527224Y-16115164D02*
X15508176Y-16086593D01*
X15508176Y-16086593D02*
X15498652Y-16067545D01*
X15498652Y-16067545D02*
X15489129Y-16038974D01*
X15489129Y-16038974D02*
X15479605Y-15991355D01*
X15479605Y-15991355D02*
X15479605Y-15953259D01*
X15479605Y-15953259D02*
X15489129Y-15905640D01*
X15489129Y-15905640D02*
X15498652Y-15877069D01*
X15498652Y-15877069D02*
X15508176Y-15858021D01*
X15508176Y-15858021D02*
X15527224Y-15829450D01*
X15527224Y-15829450D02*
X15536748Y-15819926D01*
X15593890Y-15848497D02*
X15727224Y-15848497D01*
X15727224Y-15848497D02*
X15641509Y-16048497D01*
X15889129Y-15915164D02*
X15889129Y-16048497D01*
X15841509Y-15838974D02*
X15793890Y-15981831D01*
X15793890Y-15981831D02*
X15917700Y-15981831D01*
X16146271Y-16048497D02*
X16146271Y-15848497D01*
X16231986Y-16048497D02*
X16231986Y-15943736D01*
X16231986Y-15943736D02*
X16222462Y-15924688D01*
X16222462Y-15924688D02*
X16203414Y-15915164D01*
X16203414Y-15915164D02*
X16174843Y-15915164D01*
X16174843Y-15915164D02*
X16155795Y-15924688D01*
X16155795Y-15924688D02*
X16146271Y-15934212D01*
X16355795Y-16048497D02*
X16336748Y-16038974D01*
X16336748Y-16038974D02*
X16327224Y-16029450D01*
X16327224Y-16029450D02*
X16317700Y-16010402D01*
X16317700Y-16010402D02*
X16317700Y-15953259D01*
X16317700Y-15953259D02*
X16327224Y-15934212D01*
X16327224Y-15934212D02*
X16336748Y-15924688D01*
X16336748Y-15924688D02*
X16355795Y-15915164D01*
X16355795Y-15915164D02*
X16384367Y-15915164D01*
X16384367Y-15915164D02*
X16403414Y-15924688D01*
X16403414Y-15924688D02*
X16412938Y-15934212D01*
X16412938Y-15934212D02*
X16422462Y-15953259D01*
X16422462Y-15953259D02*
X16422462Y-16010402D01*
X16422462Y-16010402D02*
X16412938Y-16029450D01*
X16412938Y-16029450D02*
X16403414Y-16038974D01*
X16403414Y-16038974D02*
X16384367Y-16048497D01*
X16384367Y-16048497D02*
X16355795Y-16048497D01*
X16536748Y-16048497D02*
X16517700Y-16038974D01*
X16517700Y-16038974D02*
X16508176Y-16019926D01*
X16508176Y-16019926D02*
X16508176Y-15848497D01*
X16689129Y-16038974D02*
X16670081Y-16048497D01*
X16670081Y-16048497D02*
X16631986Y-16048497D01*
X16631986Y-16048497D02*
X16612938Y-16038974D01*
X16612938Y-16038974D02*
X16603414Y-16019926D01*
X16603414Y-16019926D02*
X16603414Y-15943736D01*
X16603414Y-15943736D02*
X16612938Y-15924688D01*
X16612938Y-15924688D02*
X16631986Y-15915164D01*
X16631986Y-15915164D02*
X16670081Y-15915164D01*
X16670081Y-15915164D02*
X16689129Y-15924688D01*
X16689129Y-15924688D02*
X16698652Y-15943736D01*
X16698652Y-15943736D02*
X16698652Y-15962783D01*
X16698652Y-15962783D02*
X16603414Y-15981831D01*
X16774843Y-16038974D02*
X16793891Y-16048497D01*
X16793891Y-16048497D02*
X16831986Y-16048497D01*
X16831986Y-16048497D02*
X16851034Y-16038974D01*
X16851034Y-16038974D02*
X16860557Y-16019926D01*
X16860557Y-16019926D02*
X16860557Y-16010402D01*
X16860557Y-16010402D02*
X16851034Y-15991355D01*
X16851034Y-15991355D02*
X16831986Y-15981831D01*
X16831986Y-15981831D02*
X16803414Y-15981831D01*
X16803414Y-15981831D02*
X16784367Y-15972307D01*
X16784367Y-15972307D02*
X16774843Y-15953259D01*
X16774843Y-15953259D02*
X16774843Y-15943736D01*
X16774843Y-15943736D02*
X16784367Y-15924688D01*
X16784367Y-15924688D02*
X16803414Y-15915164D01*
X16803414Y-15915164D02*
X16831986Y-15915164D01*
X16831986Y-15915164D02*
X16851034Y-15924688D01*
X16927224Y-16124688D02*
X16936748Y-16115164D01*
X16936748Y-16115164D02*
X16955795Y-16086593D01*
X16955795Y-16086593D02*
X16965319Y-16067545D01*
X16965319Y-16067545D02*
X16974843Y-16038974D01*
X16974843Y-16038974D02*
X16984367Y-15991355D01*
X16984367Y-15991355D02*
X16984367Y-15953259D01*
X16984367Y-15953259D02*
X16974843Y-15905640D01*
X16974843Y-15905640D02*
X16965319Y-15877069D01*
X16965319Y-15877069D02*
X16955795Y-15858021D01*
X16955795Y-15858021D02*
X16936748Y-15829450D01*
X16936748Y-15829450D02*
X16927224Y-15819926D01*
D12*
X11961685Y-16221014D02*
G75*
G02*
X11881685Y-16221014I-40000J0D01*
G01*
X11881685Y-16221014D02*
G75*
G02*
X11961685Y-16221014I40000J0D01*
G01*
D11*
X12260557Y-16112497D02*
X12279604Y-16112497D01*
X12279604Y-16112497D02*
X12298652Y-16122021D01*
X12298652Y-16122021D02*
X12308176Y-16131545D01*
X12308176Y-16131545D02*
X12317700Y-16150593D01*
X12317700Y-16150593D02*
X12327223Y-16188688D01*
X12327223Y-16188688D02*
X12327223Y-16236307D01*
X12327223Y-16236307D02*
X12317700Y-16274402D01*
X12317700Y-16274402D02*
X12308176Y-16293450D01*
X12308176Y-16293450D02*
X12298652Y-16302974D01*
X12298652Y-16302974D02*
X12279604Y-16312497D01*
X12279604Y-16312497D02*
X12260557Y-16312497D01*
X12260557Y-16312497D02*
X12241509Y-16302974D01*
X12241509Y-16302974D02*
X12231985Y-16293450D01*
X12231985Y-16293450D02*
X12222462Y-16274402D01*
X12222462Y-16274402D02*
X12212938Y-16236307D01*
X12212938Y-16236307D02*
X12212938Y-16188688D01*
X12212938Y-16188688D02*
X12222462Y-16150593D01*
X12222462Y-16150593D02*
X12231985Y-16131545D01*
X12231985Y-16131545D02*
X12241509Y-16122021D01*
X12241509Y-16122021D02*
X12260557Y-16112497D01*
X12412938Y-16293450D02*
X12422462Y-16302974D01*
X12422462Y-16302974D02*
X12412938Y-16312497D01*
X12412938Y-16312497D02*
X12403414Y-16302974D01*
X12403414Y-16302974D02*
X12412938Y-16293450D01*
X12412938Y-16293450D02*
X12412938Y-16312497D01*
X12536747Y-16198212D02*
X12517700Y-16188688D01*
X12517700Y-16188688D02*
X12508176Y-16179164D01*
X12508176Y-16179164D02*
X12498652Y-16160116D01*
X12498652Y-16160116D02*
X12498652Y-16150593D01*
X12498652Y-16150593D02*
X12508176Y-16131545D01*
X12508176Y-16131545D02*
X12517700Y-16122021D01*
X12517700Y-16122021D02*
X12536747Y-16112497D01*
X12536747Y-16112497D02*
X12574843Y-16112497D01*
X12574843Y-16112497D02*
X12593890Y-16122021D01*
X12593890Y-16122021D02*
X12603414Y-16131545D01*
X12603414Y-16131545D02*
X12612938Y-16150593D01*
X12612938Y-16150593D02*
X12612938Y-16160116D01*
X12612938Y-16160116D02*
X12603414Y-16179164D01*
X12603414Y-16179164D02*
X12593890Y-16188688D01*
X12593890Y-16188688D02*
X12574843Y-16198212D01*
X12574843Y-16198212D02*
X12536747Y-16198212D01*
X12536747Y-16198212D02*
X12517700Y-16207736D01*
X12517700Y-16207736D02*
X12508176Y-16217259D01*
X12508176Y-16217259D02*
X12498652Y-16236307D01*
X12498652Y-16236307D02*
X12498652Y-16274402D01*
X12498652Y-16274402D02*
X12508176Y-16293450D01*
X12508176Y-16293450D02*
X12517700Y-16302974D01*
X12517700Y-16302974D02*
X12536747Y-16312497D01*
X12536747Y-16312497D02*
X12574843Y-16312497D01*
X12574843Y-16312497D02*
X12593890Y-16302974D01*
X12593890Y-16302974D02*
X12603414Y-16293450D01*
X12603414Y-16293450D02*
X12612938Y-16274402D01*
X12612938Y-16274402D02*
X12612938Y-16236307D01*
X12612938Y-16236307D02*
X12603414Y-16217259D01*
X12603414Y-16217259D02*
X12593890Y-16207736D01*
X12593890Y-16207736D02*
X12574843Y-16198212D01*
X12736747Y-16112497D02*
X12755795Y-16112497D01*
X12755795Y-16112497D02*
X12774843Y-16122021D01*
X12774843Y-16122021D02*
X12784366Y-16131545D01*
X12784366Y-16131545D02*
X12793890Y-16150593D01*
X12793890Y-16150593D02*
X12803414Y-16188688D01*
X12803414Y-16188688D02*
X12803414Y-16236307D01*
X12803414Y-16236307D02*
X12793890Y-16274402D01*
X12793890Y-16274402D02*
X12784366Y-16293450D01*
X12784366Y-16293450D02*
X12774843Y-16302974D01*
X12774843Y-16302974D02*
X12755795Y-16312497D01*
X12755795Y-16312497D02*
X12736747Y-16312497D01*
X12736747Y-16312497D02*
X12717700Y-16302974D01*
X12717700Y-16302974D02*
X12708176Y-16293450D01*
X12708176Y-16293450D02*
X12698652Y-16274402D01*
X12698652Y-16274402D02*
X12689128Y-16236307D01*
X12689128Y-16236307D02*
X12689128Y-16188688D01*
X12689128Y-16188688D02*
X12698652Y-16150593D01*
X12698652Y-16150593D02*
X12708176Y-16131545D01*
X12708176Y-16131545D02*
X12717700Y-16122021D01*
X12717700Y-16122021D02*
X12736747Y-16112497D01*
X12927223Y-16112497D02*
X12946271Y-16112497D01*
X12946271Y-16112497D02*
X12965319Y-16122021D01*
X12965319Y-16122021D02*
X12974843Y-16131545D01*
X12974843Y-16131545D02*
X12984366Y-16150593D01*
X12984366Y-16150593D02*
X12993890Y-16188688D01*
X12993890Y-16188688D02*
X12993890Y-16236307D01*
X12993890Y-16236307D02*
X12984366Y-16274402D01*
X12984366Y-16274402D02*
X12974843Y-16293450D01*
X12974843Y-16293450D02*
X12965319Y-16302974D01*
X12965319Y-16302974D02*
X12946271Y-16312497D01*
X12946271Y-16312497D02*
X12927223Y-16312497D01*
X12927223Y-16312497D02*
X12908176Y-16302974D01*
X12908176Y-16302974D02*
X12898652Y-16293450D01*
X12898652Y-16293450D02*
X12889128Y-16274402D01*
X12889128Y-16274402D02*
X12879604Y-16236307D01*
X12879604Y-16236307D02*
X12879604Y-16188688D01*
X12879604Y-16188688D02*
X12889128Y-16150593D01*
X12889128Y-16150593D02*
X12898652Y-16131545D01*
X12898652Y-16131545D02*
X12908176Y-16122021D01*
X12908176Y-16122021D02*
X12927223Y-16112497D01*
X13079604Y-16312497D02*
X13079604Y-16179164D01*
X13079604Y-16198212D02*
X13089128Y-16188688D01*
X13089128Y-16188688D02*
X13108176Y-16179164D01*
X13108176Y-16179164D02*
X13136747Y-16179164D01*
X13136747Y-16179164D02*
X13155795Y-16188688D01*
X13155795Y-16188688D02*
X13165319Y-16207736D01*
X13165319Y-16207736D02*
X13165319Y-16312497D01*
X13165319Y-16207736D02*
X13174843Y-16188688D01*
X13174843Y-16188688D02*
X13193890Y-16179164D01*
X13193890Y-16179164D02*
X13222462Y-16179164D01*
X13222462Y-16179164D02*
X13241509Y-16188688D01*
X13241509Y-16188688D02*
X13251033Y-16207736D01*
X13251033Y-16207736D02*
X13251033Y-16312497D01*
X13346271Y-16312497D02*
X13346271Y-16179164D01*
X13346271Y-16198212D02*
X13355795Y-16188688D01*
X13355795Y-16188688D02*
X13374843Y-16179164D01*
X13374843Y-16179164D02*
X13403414Y-16179164D01*
X13403414Y-16179164D02*
X13422462Y-16188688D01*
X13422462Y-16188688D02*
X13431985Y-16207736D01*
X13431985Y-16207736D02*
X13431985Y-16312497D01*
X13431985Y-16207736D02*
X13441509Y-16188688D01*
X13441509Y-16188688D02*
X13460557Y-16179164D01*
X13460557Y-16179164D02*
X13489128Y-16179164D01*
X13489128Y-16179164D02*
X13508176Y-16188688D01*
X13508176Y-16188688D02*
X13517700Y-16207736D01*
X13517700Y-16207736D02*
X13517700Y-16312497D01*
X13908176Y-16102974D02*
X13736747Y-16360116D01*
X14165319Y-16112497D02*
X14184367Y-16112497D01*
X14184367Y-16112497D02*
X14203414Y-16122021D01*
X14203414Y-16122021D02*
X14212938Y-16131545D01*
X14212938Y-16131545D02*
X14222462Y-16150593D01*
X14222462Y-16150593D02*
X14231986Y-16188688D01*
X14231986Y-16188688D02*
X14231986Y-16236307D01*
X14231986Y-16236307D02*
X14222462Y-16274402D01*
X14222462Y-16274402D02*
X14212938Y-16293450D01*
X14212938Y-16293450D02*
X14203414Y-16302974D01*
X14203414Y-16302974D02*
X14184367Y-16312497D01*
X14184367Y-16312497D02*
X14165319Y-16312497D01*
X14165319Y-16312497D02*
X14146271Y-16302974D01*
X14146271Y-16302974D02*
X14136747Y-16293450D01*
X14136747Y-16293450D02*
X14127224Y-16274402D01*
X14127224Y-16274402D02*
X14117700Y-16236307D01*
X14117700Y-16236307D02*
X14117700Y-16188688D01*
X14117700Y-16188688D02*
X14127224Y-16150593D01*
X14127224Y-16150593D02*
X14136747Y-16131545D01*
X14136747Y-16131545D02*
X14146271Y-16122021D01*
X14146271Y-16122021D02*
X14165319Y-16112497D01*
X14317700Y-16293450D02*
X14327224Y-16302974D01*
X14327224Y-16302974D02*
X14317700Y-16312497D01*
X14317700Y-16312497D02*
X14308176Y-16302974D01*
X14308176Y-16302974D02*
X14317700Y-16293450D01*
X14317700Y-16293450D02*
X14317700Y-16312497D01*
X14451033Y-16112497D02*
X14470081Y-16112497D01*
X14470081Y-16112497D02*
X14489128Y-16122021D01*
X14489128Y-16122021D02*
X14498652Y-16131545D01*
X14498652Y-16131545D02*
X14508176Y-16150593D01*
X14508176Y-16150593D02*
X14517700Y-16188688D01*
X14517700Y-16188688D02*
X14517700Y-16236307D01*
X14517700Y-16236307D02*
X14508176Y-16274402D01*
X14508176Y-16274402D02*
X14498652Y-16293450D01*
X14498652Y-16293450D02*
X14489128Y-16302974D01*
X14489128Y-16302974D02*
X14470081Y-16312497D01*
X14470081Y-16312497D02*
X14451033Y-16312497D01*
X14451033Y-16312497D02*
X14431986Y-16302974D01*
X14431986Y-16302974D02*
X14422462Y-16293450D01*
X14422462Y-16293450D02*
X14412938Y-16274402D01*
X14412938Y-16274402D02*
X14403414Y-16236307D01*
X14403414Y-16236307D02*
X14403414Y-16188688D01*
X14403414Y-16188688D02*
X14412938Y-16150593D01*
X14412938Y-16150593D02*
X14422462Y-16131545D01*
X14422462Y-16131545D02*
X14431986Y-16122021D01*
X14431986Y-16122021D02*
X14451033Y-16112497D01*
X14584367Y-16112497D02*
X14708176Y-16112497D01*
X14708176Y-16112497D02*
X14641509Y-16188688D01*
X14641509Y-16188688D02*
X14670081Y-16188688D01*
X14670081Y-16188688D02*
X14689128Y-16198212D01*
X14689128Y-16198212D02*
X14698652Y-16207736D01*
X14698652Y-16207736D02*
X14708176Y-16226783D01*
X14708176Y-16226783D02*
X14708176Y-16274402D01*
X14708176Y-16274402D02*
X14698652Y-16293450D01*
X14698652Y-16293450D02*
X14689128Y-16302974D01*
X14689128Y-16302974D02*
X14670081Y-16312497D01*
X14670081Y-16312497D02*
X14612938Y-16312497D01*
X14612938Y-16312497D02*
X14593890Y-16302974D01*
X14593890Y-16302974D02*
X14584367Y-16293450D01*
X14898652Y-16312497D02*
X14784367Y-16312497D01*
X14841509Y-16312497D02*
X14841509Y-16112497D01*
X14841509Y-16112497D02*
X14822462Y-16141069D01*
X14822462Y-16141069D02*
X14803414Y-16160116D01*
X14803414Y-16160116D02*
X14784367Y-16169640D01*
X15079605Y-16112497D02*
X14984367Y-16112497D01*
X14984367Y-16112497D02*
X14974843Y-16207736D01*
X14974843Y-16207736D02*
X14984367Y-16198212D01*
X14984367Y-16198212D02*
X15003414Y-16188688D01*
X15003414Y-16188688D02*
X15051033Y-16188688D01*
X15051033Y-16188688D02*
X15070081Y-16198212D01*
X15070081Y-16198212D02*
X15079605Y-16207736D01*
X15079605Y-16207736D02*
X15089128Y-16226783D01*
X15089128Y-16226783D02*
X15089128Y-16274402D01*
X15089128Y-16274402D02*
X15079605Y-16293450D01*
X15079605Y-16293450D02*
X15070081Y-16302974D01*
X15070081Y-16302974D02*
X15051033Y-16312497D01*
X15051033Y-16312497D02*
X15003414Y-16312497D01*
X15003414Y-16312497D02*
X14984367Y-16302974D01*
X14984367Y-16302974D02*
X14974843Y-16293450D01*
X15165319Y-16112497D02*
X15165319Y-16150593D01*
X15241509Y-16112497D02*
X15241509Y-16150593D01*
X15536748Y-16388688D02*
X15527224Y-16379164D01*
X15527224Y-16379164D02*
X15508176Y-16350593D01*
X15508176Y-16350593D02*
X15498652Y-16331545D01*
X15498652Y-16331545D02*
X15489129Y-16302974D01*
X15489129Y-16302974D02*
X15479605Y-16255355D01*
X15479605Y-16255355D02*
X15479605Y-16217259D01*
X15479605Y-16217259D02*
X15489129Y-16169640D01*
X15489129Y-16169640D02*
X15498652Y-16141069D01*
X15498652Y-16141069D02*
X15508176Y-16122021D01*
X15508176Y-16122021D02*
X15527224Y-16093450D01*
X15527224Y-16093450D02*
X15536748Y-16083926D01*
X15708176Y-16112497D02*
X15612938Y-16112497D01*
X15612938Y-16112497D02*
X15603414Y-16207736D01*
X15603414Y-16207736D02*
X15612938Y-16198212D01*
X15612938Y-16198212D02*
X15631986Y-16188688D01*
X15631986Y-16188688D02*
X15679605Y-16188688D01*
X15679605Y-16188688D02*
X15698652Y-16198212D01*
X15698652Y-16198212D02*
X15708176Y-16207736D01*
X15708176Y-16207736D02*
X15717700Y-16226783D01*
X15717700Y-16226783D02*
X15717700Y-16274402D01*
X15717700Y-16274402D02*
X15708176Y-16293450D01*
X15708176Y-16293450D02*
X15698652Y-16302974D01*
X15698652Y-16302974D02*
X15679605Y-16312497D01*
X15679605Y-16312497D02*
X15631986Y-16312497D01*
X15631986Y-16312497D02*
X15612938Y-16302974D01*
X15612938Y-16302974D02*
X15603414Y-16293450D01*
X15831986Y-16198212D02*
X15812938Y-16188688D01*
X15812938Y-16188688D02*
X15803414Y-16179164D01*
X15803414Y-16179164D02*
X15793890Y-16160116D01*
X15793890Y-16160116D02*
X15793890Y-16150593D01*
X15793890Y-16150593D02*
X15803414Y-16131545D01*
X15803414Y-16131545D02*
X15812938Y-16122021D01*
X15812938Y-16122021D02*
X15831986Y-16112497D01*
X15831986Y-16112497D02*
X15870081Y-16112497D01*
X15870081Y-16112497D02*
X15889129Y-16122021D01*
X15889129Y-16122021D02*
X15898652Y-16131545D01*
X15898652Y-16131545D02*
X15908176Y-16150593D01*
X15908176Y-16150593D02*
X15908176Y-16160116D01*
X15908176Y-16160116D02*
X15898652Y-16179164D01*
X15898652Y-16179164D02*
X15889129Y-16188688D01*
X15889129Y-16188688D02*
X15870081Y-16198212D01*
X15870081Y-16198212D02*
X15831986Y-16198212D01*
X15831986Y-16198212D02*
X15812938Y-16207736D01*
X15812938Y-16207736D02*
X15803414Y-16217259D01*
X15803414Y-16217259D02*
X15793890Y-16236307D01*
X15793890Y-16236307D02*
X15793890Y-16274402D01*
X15793890Y-16274402D02*
X15803414Y-16293450D01*
X15803414Y-16293450D02*
X15812938Y-16302974D01*
X15812938Y-16302974D02*
X15831986Y-16312497D01*
X15831986Y-16312497D02*
X15870081Y-16312497D01*
X15870081Y-16312497D02*
X15889129Y-16302974D01*
X15889129Y-16302974D02*
X15898652Y-16293450D01*
X15898652Y-16293450D02*
X15908176Y-16274402D01*
X15908176Y-16274402D02*
X15908176Y-16236307D01*
X15908176Y-16236307D02*
X15898652Y-16217259D01*
X15898652Y-16217259D02*
X15889129Y-16207736D01*
X15889129Y-16207736D02*
X15870081Y-16198212D01*
X16146271Y-16312497D02*
X16146271Y-16112497D01*
X16231986Y-16312497D02*
X16231986Y-16207736D01*
X16231986Y-16207736D02*
X16222462Y-16188688D01*
X16222462Y-16188688D02*
X16203414Y-16179164D01*
X16203414Y-16179164D02*
X16174843Y-16179164D01*
X16174843Y-16179164D02*
X16155795Y-16188688D01*
X16155795Y-16188688D02*
X16146271Y-16198212D01*
X16355795Y-16312497D02*
X16336748Y-16302974D01*
X16336748Y-16302974D02*
X16327224Y-16293450D01*
X16327224Y-16293450D02*
X16317700Y-16274402D01*
X16317700Y-16274402D02*
X16317700Y-16217259D01*
X16317700Y-16217259D02*
X16327224Y-16198212D01*
X16327224Y-16198212D02*
X16336748Y-16188688D01*
X16336748Y-16188688D02*
X16355795Y-16179164D01*
X16355795Y-16179164D02*
X16384367Y-16179164D01*
X16384367Y-16179164D02*
X16403414Y-16188688D01*
X16403414Y-16188688D02*
X16412938Y-16198212D01*
X16412938Y-16198212D02*
X16422462Y-16217259D01*
X16422462Y-16217259D02*
X16422462Y-16274402D01*
X16422462Y-16274402D02*
X16412938Y-16293450D01*
X16412938Y-16293450D02*
X16403414Y-16302974D01*
X16403414Y-16302974D02*
X16384367Y-16312497D01*
X16384367Y-16312497D02*
X16355795Y-16312497D01*
X16536748Y-16312497D02*
X16517700Y-16302974D01*
X16517700Y-16302974D02*
X16508176Y-16283926D01*
X16508176Y-16283926D02*
X16508176Y-16112497D01*
X16689129Y-16302974D02*
X16670081Y-16312497D01*
X16670081Y-16312497D02*
X16631986Y-16312497D01*
X16631986Y-16312497D02*
X16612938Y-16302974D01*
X16612938Y-16302974D02*
X16603414Y-16283926D01*
X16603414Y-16283926D02*
X16603414Y-16207736D01*
X16603414Y-16207736D02*
X16612938Y-16188688D01*
X16612938Y-16188688D02*
X16631986Y-16179164D01*
X16631986Y-16179164D02*
X16670081Y-16179164D01*
X16670081Y-16179164D02*
X16689129Y-16188688D01*
X16689129Y-16188688D02*
X16698652Y-16207736D01*
X16698652Y-16207736D02*
X16698652Y-16226783D01*
X16698652Y-16226783D02*
X16603414Y-16245831D01*
X16774843Y-16302974D02*
X16793891Y-16312497D01*
X16793891Y-16312497D02*
X16831986Y-16312497D01*
X16831986Y-16312497D02*
X16851034Y-16302974D01*
X16851034Y-16302974D02*
X16860557Y-16283926D01*
X16860557Y-16283926D02*
X16860557Y-16274402D01*
X16860557Y-16274402D02*
X16851034Y-16255355D01*
X16851034Y-16255355D02*
X16831986Y-16245831D01*
X16831986Y-16245831D02*
X16803414Y-16245831D01*
X16803414Y-16245831D02*
X16784367Y-16236307D01*
X16784367Y-16236307D02*
X16774843Y-16217259D01*
X16774843Y-16217259D02*
X16774843Y-16207736D01*
X16774843Y-16207736D02*
X16784367Y-16188688D01*
X16784367Y-16188688D02*
X16803414Y-16179164D01*
X16803414Y-16179164D02*
X16831986Y-16179164D01*
X16831986Y-16179164D02*
X16851034Y-16188688D01*
X16927224Y-16388688D02*
X16936748Y-16379164D01*
X16936748Y-16379164D02*
X16955795Y-16350593D01*
X16955795Y-16350593D02*
X16965319Y-16331545D01*
X16965319Y-16331545D02*
X16974843Y-16302974D01*
X16974843Y-16302974D02*
X16984367Y-16255355D01*
X16984367Y-16255355D02*
X16984367Y-16217259D01*
X16984367Y-16217259D02*
X16974843Y-16169640D01*
X16974843Y-16169640D02*
X16965319Y-16141069D01*
X16965319Y-16141069D02*
X16955795Y-16122021D01*
X16955795Y-16122021D02*
X16936748Y-16093450D01*
X16936748Y-16093450D02*
X16927224Y-16083926D01*
D12*
X11916685Y-16440014D02*
X11916685Y-16530014D01*
X11871685Y-16485014D02*
X11961685Y-16485014D01*
D11*
X12260557Y-16376497D02*
X12279604Y-16376497D01*
X12279604Y-16376497D02*
X12298652Y-16386021D01*
X12298652Y-16386021D02*
X12308176Y-16395545D01*
X12308176Y-16395545D02*
X12317700Y-16414593D01*
X12317700Y-16414593D02*
X12327223Y-16452688D01*
X12327223Y-16452688D02*
X12327223Y-16500307D01*
X12327223Y-16500307D02*
X12317700Y-16538402D01*
X12317700Y-16538402D02*
X12308176Y-16557450D01*
X12308176Y-16557450D02*
X12298652Y-16566974D01*
X12298652Y-16566974D02*
X12279604Y-16576497D01*
X12279604Y-16576497D02*
X12260557Y-16576497D01*
X12260557Y-16576497D02*
X12241509Y-16566974D01*
X12241509Y-16566974D02*
X12231985Y-16557450D01*
X12231985Y-16557450D02*
X12222462Y-16538402D01*
X12222462Y-16538402D02*
X12212938Y-16500307D01*
X12212938Y-16500307D02*
X12212938Y-16452688D01*
X12212938Y-16452688D02*
X12222462Y-16414593D01*
X12222462Y-16414593D02*
X12231985Y-16395545D01*
X12231985Y-16395545D02*
X12241509Y-16386021D01*
X12241509Y-16386021D02*
X12260557Y-16376497D01*
X12412938Y-16557450D02*
X12422462Y-16566974D01*
X12422462Y-16566974D02*
X12412938Y-16576497D01*
X12412938Y-16576497D02*
X12403414Y-16566974D01*
X12403414Y-16566974D02*
X12412938Y-16557450D01*
X12412938Y-16557450D02*
X12412938Y-16576497D01*
X12517700Y-16576497D02*
X12555795Y-16576497D01*
X12555795Y-16576497D02*
X12574843Y-16566974D01*
X12574843Y-16566974D02*
X12584366Y-16557450D01*
X12584366Y-16557450D02*
X12603414Y-16528878D01*
X12603414Y-16528878D02*
X12612938Y-16490783D01*
X12612938Y-16490783D02*
X12612938Y-16414593D01*
X12612938Y-16414593D02*
X12603414Y-16395545D01*
X12603414Y-16395545D02*
X12593890Y-16386021D01*
X12593890Y-16386021D02*
X12574843Y-16376497D01*
X12574843Y-16376497D02*
X12536747Y-16376497D01*
X12536747Y-16376497D02*
X12517700Y-16386021D01*
X12517700Y-16386021D02*
X12508176Y-16395545D01*
X12508176Y-16395545D02*
X12498652Y-16414593D01*
X12498652Y-16414593D02*
X12498652Y-16462212D01*
X12498652Y-16462212D02*
X12508176Y-16481259D01*
X12508176Y-16481259D02*
X12517700Y-16490783D01*
X12517700Y-16490783D02*
X12536747Y-16500307D01*
X12536747Y-16500307D02*
X12574843Y-16500307D01*
X12574843Y-16500307D02*
X12593890Y-16490783D01*
X12593890Y-16490783D02*
X12603414Y-16481259D01*
X12603414Y-16481259D02*
X12612938Y-16462212D01*
X12736747Y-16376497D02*
X12755795Y-16376497D01*
X12755795Y-16376497D02*
X12774843Y-16386021D01*
X12774843Y-16386021D02*
X12784366Y-16395545D01*
X12784366Y-16395545D02*
X12793890Y-16414593D01*
X12793890Y-16414593D02*
X12803414Y-16452688D01*
X12803414Y-16452688D02*
X12803414Y-16500307D01*
X12803414Y-16500307D02*
X12793890Y-16538402D01*
X12793890Y-16538402D02*
X12784366Y-16557450D01*
X12784366Y-16557450D02*
X12774843Y-16566974D01*
X12774843Y-16566974D02*
X12755795Y-16576497D01*
X12755795Y-16576497D02*
X12736747Y-16576497D01*
X12736747Y-16576497D02*
X12717700Y-16566974D01*
X12717700Y-16566974D02*
X12708176Y-16557450D01*
X12708176Y-16557450D02*
X12698652Y-16538402D01*
X12698652Y-16538402D02*
X12689128Y-16500307D01*
X12689128Y-16500307D02*
X12689128Y-16452688D01*
X12689128Y-16452688D02*
X12698652Y-16414593D01*
X12698652Y-16414593D02*
X12708176Y-16395545D01*
X12708176Y-16395545D02*
X12717700Y-16386021D01*
X12717700Y-16386021D02*
X12736747Y-16376497D01*
X12927223Y-16376497D02*
X12946271Y-16376497D01*
X12946271Y-16376497D02*
X12965319Y-16386021D01*
X12965319Y-16386021D02*
X12974843Y-16395545D01*
X12974843Y-16395545D02*
X12984366Y-16414593D01*
X12984366Y-16414593D02*
X12993890Y-16452688D01*
X12993890Y-16452688D02*
X12993890Y-16500307D01*
X12993890Y-16500307D02*
X12984366Y-16538402D01*
X12984366Y-16538402D02*
X12974843Y-16557450D01*
X12974843Y-16557450D02*
X12965319Y-16566974D01*
X12965319Y-16566974D02*
X12946271Y-16576497D01*
X12946271Y-16576497D02*
X12927223Y-16576497D01*
X12927223Y-16576497D02*
X12908176Y-16566974D01*
X12908176Y-16566974D02*
X12898652Y-16557450D01*
X12898652Y-16557450D02*
X12889128Y-16538402D01*
X12889128Y-16538402D02*
X12879604Y-16500307D01*
X12879604Y-16500307D02*
X12879604Y-16452688D01*
X12879604Y-16452688D02*
X12889128Y-16414593D01*
X12889128Y-16414593D02*
X12898652Y-16395545D01*
X12898652Y-16395545D02*
X12908176Y-16386021D01*
X12908176Y-16386021D02*
X12927223Y-16376497D01*
X13079604Y-16576497D02*
X13079604Y-16443164D01*
X13079604Y-16462212D02*
X13089128Y-16452688D01*
X13089128Y-16452688D02*
X13108176Y-16443164D01*
X13108176Y-16443164D02*
X13136747Y-16443164D01*
X13136747Y-16443164D02*
X13155795Y-16452688D01*
X13155795Y-16452688D02*
X13165319Y-16471736D01*
X13165319Y-16471736D02*
X13165319Y-16576497D01*
X13165319Y-16471736D02*
X13174843Y-16452688D01*
X13174843Y-16452688D02*
X13193890Y-16443164D01*
X13193890Y-16443164D02*
X13222462Y-16443164D01*
X13222462Y-16443164D02*
X13241509Y-16452688D01*
X13241509Y-16452688D02*
X13251033Y-16471736D01*
X13251033Y-16471736D02*
X13251033Y-16576497D01*
X13346271Y-16576497D02*
X13346271Y-16443164D01*
X13346271Y-16462212D02*
X13355795Y-16452688D01*
X13355795Y-16452688D02*
X13374843Y-16443164D01*
X13374843Y-16443164D02*
X13403414Y-16443164D01*
X13403414Y-16443164D02*
X13422462Y-16452688D01*
X13422462Y-16452688D02*
X13431985Y-16471736D01*
X13431985Y-16471736D02*
X13431985Y-16576497D01*
X13431985Y-16471736D02*
X13441509Y-16452688D01*
X13441509Y-16452688D02*
X13460557Y-16443164D01*
X13460557Y-16443164D02*
X13489128Y-16443164D01*
X13489128Y-16443164D02*
X13508176Y-16452688D01*
X13508176Y-16452688D02*
X13517700Y-16471736D01*
X13517700Y-16471736D02*
X13517700Y-16576497D01*
X13908176Y-16366974D02*
X13736747Y-16624116D01*
X14165319Y-16376497D02*
X14184367Y-16376497D01*
X14184367Y-16376497D02*
X14203414Y-16386021D01*
X14203414Y-16386021D02*
X14212938Y-16395545D01*
X14212938Y-16395545D02*
X14222462Y-16414593D01*
X14222462Y-16414593D02*
X14231986Y-16452688D01*
X14231986Y-16452688D02*
X14231986Y-16500307D01*
X14231986Y-16500307D02*
X14222462Y-16538402D01*
X14222462Y-16538402D02*
X14212938Y-16557450D01*
X14212938Y-16557450D02*
X14203414Y-16566974D01*
X14203414Y-16566974D02*
X14184367Y-16576497D01*
X14184367Y-16576497D02*
X14165319Y-16576497D01*
X14165319Y-16576497D02*
X14146271Y-16566974D01*
X14146271Y-16566974D02*
X14136747Y-16557450D01*
X14136747Y-16557450D02*
X14127224Y-16538402D01*
X14127224Y-16538402D02*
X14117700Y-16500307D01*
X14117700Y-16500307D02*
X14117700Y-16452688D01*
X14117700Y-16452688D02*
X14127224Y-16414593D01*
X14127224Y-16414593D02*
X14136747Y-16395545D01*
X14136747Y-16395545D02*
X14146271Y-16386021D01*
X14146271Y-16386021D02*
X14165319Y-16376497D01*
X14317700Y-16557450D02*
X14327224Y-16566974D01*
X14327224Y-16566974D02*
X14317700Y-16576497D01*
X14317700Y-16576497D02*
X14308176Y-16566974D01*
X14308176Y-16566974D02*
X14317700Y-16557450D01*
X14317700Y-16557450D02*
X14317700Y-16576497D01*
X14451033Y-16376497D02*
X14470081Y-16376497D01*
X14470081Y-16376497D02*
X14489128Y-16386021D01*
X14489128Y-16386021D02*
X14498652Y-16395545D01*
X14498652Y-16395545D02*
X14508176Y-16414593D01*
X14508176Y-16414593D02*
X14517700Y-16452688D01*
X14517700Y-16452688D02*
X14517700Y-16500307D01*
X14517700Y-16500307D02*
X14508176Y-16538402D01*
X14508176Y-16538402D02*
X14498652Y-16557450D01*
X14498652Y-16557450D02*
X14489128Y-16566974D01*
X14489128Y-16566974D02*
X14470081Y-16576497D01*
X14470081Y-16576497D02*
X14451033Y-16576497D01*
X14451033Y-16576497D02*
X14431986Y-16566974D01*
X14431986Y-16566974D02*
X14422462Y-16557450D01*
X14422462Y-16557450D02*
X14412938Y-16538402D01*
X14412938Y-16538402D02*
X14403414Y-16500307D01*
X14403414Y-16500307D02*
X14403414Y-16452688D01*
X14403414Y-16452688D02*
X14412938Y-16414593D01*
X14412938Y-16414593D02*
X14422462Y-16395545D01*
X14422462Y-16395545D02*
X14431986Y-16386021D01*
X14431986Y-16386021D02*
X14451033Y-16376497D01*
X14584367Y-16376497D02*
X14708176Y-16376497D01*
X14708176Y-16376497D02*
X14641509Y-16452688D01*
X14641509Y-16452688D02*
X14670081Y-16452688D01*
X14670081Y-16452688D02*
X14689128Y-16462212D01*
X14689128Y-16462212D02*
X14698652Y-16471736D01*
X14698652Y-16471736D02*
X14708176Y-16490783D01*
X14708176Y-16490783D02*
X14708176Y-16538402D01*
X14708176Y-16538402D02*
X14698652Y-16557450D01*
X14698652Y-16557450D02*
X14689128Y-16566974D01*
X14689128Y-16566974D02*
X14670081Y-16576497D01*
X14670081Y-16576497D02*
X14612938Y-16576497D01*
X14612938Y-16576497D02*
X14593890Y-16566974D01*
X14593890Y-16566974D02*
X14584367Y-16557450D01*
X14889128Y-16376497D02*
X14793890Y-16376497D01*
X14793890Y-16376497D02*
X14784367Y-16471736D01*
X14784367Y-16471736D02*
X14793890Y-16462212D01*
X14793890Y-16462212D02*
X14812938Y-16452688D01*
X14812938Y-16452688D02*
X14860557Y-16452688D01*
X14860557Y-16452688D02*
X14879605Y-16462212D01*
X14879605Y-16462212D02*
X14889128Y-16471736D01*
X14889128Y-16471736D02*
X14898652Y-16490783D01*
X14898652Y-16490783D02*
X14898652Y-16538402D01*
X14898652Y-16538402D02*
X14889128Y-16557450D01*
X14889128Y-16557450D02*
X14879605Y-16566974D01*
X14879605Y-16566974D02*
X14860557Y-16576497D01*
X14860557Y-16576497D02*
X14812938Y-16576497D01*
X14812938Y-16576497D02*
X14793890Y-16566974D01*
X14793890Y-16566974D02*
X14784367Y-16557450D01*
X15070081Y-16443164D02*
X15070081Y-16576497D01*
X15022462Y-16366974D02*
X14974843Y-16509831D01*
X14974843Y-16509831D02*
X15098652Y-16509831D01*
X15165319Y-16376497D02*
X15165319Y-16414593D01*
X15241509Y-16376497D02*
X15241509Y-16414593D01*
X15536748Y-16652688D02*
X15527224Y-16643164D01*
X15527224Y-16643164D02*
X15508176Y-16614593D01*
X15508176Y-16614593D02*
X15498652Y-16595545D01*
X15498652Y-16595545D02*
X15489129Y-16566974D01*
X15489129Y-16566974D02*
X15479605Y-16519355D01*
X15479605Y-16519355D02*
X15479605Y-16481259D01*
X15479605Y-16481259D02*
X15489129Y-16433640D01*
X15489129Y-16433640D02*
X15498652Y-16405069D01*
X15498652Y-16405069D02*
X15508176Y-16386021D01*
X15508176Y-16386021D02*
X15527224Y-16357450D01*
X15527224Y-16357450D02*
X15536748Y-16347926D01*
X15603414Y-16395545D02*
X15612938Y-16386021D01*
X15612938Y-16386021D02*
X15631986Y-16376497D01*
X15631986Y-16376497D02*
X15679605Y-16376497D01*
X15679605Y-16376497D02*
X15698652Y-16386021D01*
X15698652Y-16386021D02*
X15708176Y-16395545D01*
X15708176Y-16395545D02*
X15717700Y-16414593D01*
X15717700Y-16414593D02*
X15717700Y-16433640D01*
X15717700Y-16433640D02*
X15708176Y-16462212D01*
X15708176Y-16462212D02*
X15593890Y-16576497D01*
X15593890Y-16576497D02*
X15717700Y-16576497D01*
X15955795Y-16576497D02*
X15955795Y-16376497D01*
X16041510Y-16576497D02*
X16041510Y-16471736D01*
X16041510Y-16471736D02*
X16031986Y-16452688D01*
X16031986Y-16452688D02*
X16012938Y-16443164D01*
X16012938Y-16443164D02*
X15984367Y-16443164D01*
X15984367Y-16443164D02*
X15965319Y-16452688D01*
X15965319Y-16452688D02*
X15955795Y-16462212D01*
X16165319Y-16576497D02*
X16146271Y-16566974D01*
X16146271Y-16566974D02*
X16136748Y-16557450D01*
X16136748Y-16557450D02*
X16127224Y-16538402D01*
X16127224Y-16538402D02*
X16127224Y-16481259D01*
X16127224Y-16481259D02*
X16136748Y-16462212D01*
X16136748Y-16462212D02*
X16146271Y-16452688D01*
X16146271Y-16452688D02*
X16165319Y-16443164D01*
X16165319Y-16443164D02*
X16193891Y-16443164D01*
X16193891Y-16443164D02*
X16212938Y-16452688D01*
X16212938Y-16452688D02*
X16222462Y-16462212D01*
X16222462Y-16462212D02*
X16231986Y-16481259D01*
X16231986Y-16481259D02*
X16231986Y-16538402D01*
X16231986Y-16538402D02*
X16222462Y-16557450D01*
X16222462Y-16557450D02*
X16212938Y-16566974D01*
X16212938Y-16566974D02*
X16193891Y-16576497D01*
X16193891Y-16576497D02*
X16165319Y-16576497D01*
X16346271Y-16576497D02*
X16327224Y-16566974D01*
X16327224Y-16566974D02*
X16317700Y-16547926D01*
X16317700Y-16547926D02*
X16317700Y-16376497D01*
X16498652Y-16566974D02*
X16479605Y-16576497D01*
X16479605Y-16576497D02*
X16441510Y-16576497D01*
X16441510Y-16576497D02*
X16422462Y-16566974D01*
X16422462Y-16566974D02*
X16412938Y-16547926D01*
X16412938Y-16547926D02*
X16412938Y-16471736D01*
X16412938Y-16471736D02*
X16422462Y-16452688D01*
X16422462Y-16452688D02*
X16441510Y-16443164D01*
X16441510Y-16443164D02*
X16479605Y-16443164D01*
X16479605Y-16443164D02*
X16498652Y-16452688D01*
X16498652Y-16452688D02*
X16508176Y-16471736D01*
X16508176Y-16471736D02*
X16508176Y-16490783D01*
X16508176Y-16490783D02*
X16412938Y-16509831D01*
X16584367Y-16566974D02*
X16603414Y-16576497D01*
X16603414Y-16576497D02*
X16641510Y-16576497D01*
X16641510Y-16576497D02*
X16660557Y-16566974D01*
X16660557Y-16566974D02*
X16670081Y-16547926D01*
X16670081Y-16547926D02*
X16670081Y-16538402D01*
X16670081Y-16538402D02*
X16660557Y-16519355D01*
X16660557Y-16519355D02*
X16641510Y-16509831D01*
X16641510Y-16509831D02*
X16612938Y-16509831D01*
X16612938Y-16509831D02*
X16593891Y-16500307D01*
X16593891Y-16500307D02*
X16584367Y-16481259D01*
X16584367Y-16481259D02*
X16584367Y-16471736D01*
X16584367Y-16471736D02*
X16593891Y-16452688D01*
X16593891Y-16452688D02*
X16612938Y-16443164D01*
X16612938Y-16443164D02*
X16641510Y-16443164D01*
X16641510Y-16443164D02*
X16660557Y-16452688D01*
X16736748Y-16652688D02*
X16746272Y-16643164D01*
X16746272Y-16643164D02*
X16765319Y-16614593D01*
X16765319Y-16614593D02*
X16774843Y-16595545D01*
X16774843Y-16595545D02*
X16784367Y-16566974D01*
X16784367Y-16566974D02*
X16793891Y-16519355D01*
X16793891Y-16519355D02*
X16793891Y-16481259D01*
X16793891Y-16481259D02*
X16784367Y-16433640D01*
X16784367Y-16433640D02*
X16774843Y-16405069D01*
X16774843Y-16405069D02*
X16765319Y-16386021D01*
X16765319Y-16386021D02*
X16746272Y-16357450D01*
X16746272Y-16357450D02*
X16736748Y-16347926D01*
D13*
X11945576Y-16787905D02*
X11945576Y-16710122D01*
X11867794Y-16710122D01*
X11867794Y-16787905D01*
X11945576Y-16787905D01*
D11*
X12327223Y-16840498D02*
X12212938Y-16840498D01*
X12270081Y-16840498D02*
X12270081Y-16640497D01*
X12270081Y-16640497D02*
X12251033Y-16669069D01*
X12251033Y-16669069D02*
X12231985Y-16688116D01*
X12231985Y-16688116D02*
X12212938Y-16697640D01*
X12412938Y-16821450D02*
X12422462Y-16830974D01*
X12422462Y-16830974D02*
X12412938Y-16840498D01*
X12412938Y-16840498D02*
X12403414Y-16830974D01*
X12403414Y-16830974D02*
X12412938Y-16821450D01*
X12412938Y-16821450D02*
X12412938Y-16840498D01*
X12612938Y-16840498D02*
X12498652Y-16840498D01*
X12555795Y-16840498D02*
X12555795Y-16640497D01*
X12555795Y-16640497D02*
X12536747Y-16669069D01*
X12536747Y-16669069D02*
X12517700Y-16688116D01*
X12517700Y-16688116D02*
X12498652Y-16697640D01*
X12736747Y-16640497D02*
X12755795Y-16640497D01*
X12755795Y-16640497D02*
X12774843Y-16650021D01*
X12774843Y-16650021D02*
X12784366Y-16659545D01*
X12784366Y-16659545D02*
X12793890Y-16678593D01*
X12793890Y-16678593D02*
X12803414Y-16716688D01*
X12803414Y-16716688D02*
X12803414Y-16764307D01*
X12803414Y-16764307D02*
X12793890Y-16802402D01*
X12793890Y-16802402D02*
X12784366Y-16821450D01*
X12784366Y-16821450D02*
X12774843Y-16830974D01*
X12774843Y-16830974D02*
X12755795Y-16840498D01*
X12755795Y-16840498D02*
X12736747Y-16840498D01*
X12736747Y-16840498D02*
X12717700Y-16830974D01*
X12717700Y-16830974D02*
X12708176Y-16821450D01*
X12708176Y-16821450D02*
X12698652Y-16802402D01*
X12698652Y-16802402D02*
X12689128Y-16764307D01*
X12689128Y-16764307D02*
X12689128Y-16716688D01*
X12689128Y-16716688D02*
X12698652Y-16678593D01*
X12698652Y-16678593D02*
X12708176Y-16659545D01*
X12708176Y-16659545D02*
X12717700Y-16650021D01*
X12717700Y-16650021D02*
X12736747Y-16640497D01*
X12927223Y-16640497D02*
X12946271Y-16640497D01*
X12946271Y-16640497D02*
X12965319Y-16650021D01*
X12965319Y-16650021D02*
X12974843Y-16659545D01*
X12974843Y-16659545D02*
X12984366Y-16678593D01*
X12984366Y-16678593D02*
X12993890Y-16716688D01*
X12993890Y-16716688D02*
X12993890Y-16764307D01*
X12993890Y-16764307D02*
X12984366Y-16802402D01*
X12984366Y-16802402D02*
X12974843Y-16821450D01*
X12974843Y-16821450D02*
X12965319Y-16830974D01*
X12965319Y-16830974D02*
X12946271Y-16840498D01*
X12946271Y-16840498D02*
X12927223Y-16840498D01*
X12927223Y-16840498D02*
X12908176Y-16830974D01*
X12908176Y-16830974D02*
X12898652Y-16821450D01*
X12898652Y-16821450D02*
X12889128Y-16802402D01*
X12889128Y-16802402D02*
X12879604Y-16764307D01*
X12879604Y-16764307D02*
X12879604Y-16716688D01*
X12879604Y-16716688D02*
X12889128Y-16678593D01*
X12889128Y-16678593D02*
X12898652Y-16659545D01*
X12898652Y-16659545D02*
X12908176Y-16650021D01*
X12908176Y-16650021D02*
X12927223Y-16640497D01*
X13079604Y-16840498D02*
X13079604Y-16707164D01*
X13079604Y-16726212D02*
X13089128Y-16716688D01*
X13089128Y-16716688D02*
X13108176Y-16707164D01*
X13108176Y-16707164D02*
X13136747Y-16707164D01*
X13136747Y-16707164D02*
X13155795Y-16716688D01*
X13155795Y-16716688D02*
X13165319Y-16735736D01*
X13165319Y-16735736D02*
X13165319Y-16840498D01*
X13165319Y-16735736D02*
X13174843Y-16716688D01*
X13174843Y-16716688D02*
X13193890Y-16707164D01*
X13193890Y-16707164D02*
X13222462Y-16707164D01*
X13222462Y-16707164D02*
X13241509Y-16716688D01*
X13241509Y-16716688D02*
X13251033Y-16735736D01*
X13251033Y-16735736D02*
X13251033Y-16840498D01*
X13346271Y-16840498D02*
X13346271Y-16707164D01*
X13346271Y-16726212D02*
X13355795Y-16716688D01*
X13355795Y-16716688D02*
X13374843Y-16707164D01*
X13374843Y-16707164D02*
X13403414Y-16707164D01*
X13403414Y-16707164D02*
X13422462Y-16716688D01*
X13422462Y-16716688D02*
X13431985Y-16735736D01*
X13431985Y-16735736D02*
X13431985Y-16840498D01*
X13431985Y-16735736D02*
X13441509Y-16716688D01*
X13441509Y-16716688D02*
X13460557Y-16707164D01*
X13460557Y-16707164D02*
X13489128Y-16707164D01*
X13489128Y-16707164D02*
X13508176Y-16716688D01*
X13508176Y-16716688D02*
X13517700Y-16735736D01*
X13517700Y-16735736D02*
X13517700Y-16840498D01*
X13908176Y-16630974D02*
X13736747Y-16888117D01*
X14165319Y-16640497D02*
X14184367Y-16640497D01*
X14184367Y-16640497D02*
X14203414Y-16650021D01*
X14203414Y-16650021D02*
X14212938Y-16659545D01*
X14212938Y-16659545D02*
X14222462Y-16678593D01*
X14222462Y-16678593D02*
X14231986Y-16716688D01*
X14231986Y-16716688D02*
X14231986Y-16764307D01*
X14231986Y-16764307D02*
X14222462Y-16802402D01*
X14222462Y-16802402D02*
X14212938Y-16821450D01*
X14212938Y-16821450D02*
X14203414Y-16830974D01*
X14203414Y-16830974D02*
X14184367Y-16840498D01*
X14184367Y-16840498D02*
X14165319Y-16840498D01*
X14165319Y-16840498D02*
X14146271Y-16830974D01*
X14146271Y-16830974D02*
X14136747Y-16821450D01*
X14136747Y-16821450D02*
X14127224Y-16802402D01*
X14127224Y-16802402D02*
X14117700Y-16764307D01*
X14117700Y-16764307D02*
X14117700Y-16716688D01*
X14117700Y-16716688D02*
X14127224Y-16678593D01*
X14127224Y-16678593D02*
X14136747Y-16659545D01*
X14136747Y-16659545D02*
X14146271Y-16650021D01*
X14146271Y-16650021D02*
X14165319Y-16640497D01*
X14317700Y-16821450D02*
X14327224Y-16830974D01*
X14327224Y-16830974D02*
X14317700Y-16840498D01*
X14317700Y-16840498D02*
X14308176Y-16830974D01*
X14308176Y-16830974D02*
X14317700Y-16821450D01*
X14317700Y-16821450D02*
X14317700Y-16840498D01*
X14451033Y-16640497D02*
X14470081Y-16640497D01*
X14470081Y-16640497D02*
X14489128Y-16650021D01*
X14489128Y-16650021D02*
X14498652Y-16659545D01*
X14498652Y-16659545D02*
X14508176Y-16678593D01*
X14508176Y-16678593D02*
X14517700Y-16716688D01*
X14517700Y-16716688D02*
X14517700Y-16764307D01*
X14517700Y-16764307D02*
X14508176Y-16802402D01*
X14508176Y-16802402D02*
X14498652Y-16821450D01*
X14498652Y-16821450D02*
X14489128Y-16830974D01*
X14489128Y-16830974D02*
X14470081Y-16840498D01*
X14470081Y-16840498D02*
X14451033Y-16840498D01*
X14451033Y-16840498D02*
X14431986Y-16830974D01*
X14431986Y-16830974D02*
X14422462Y-16821450D01*
X14422462Y-16821450D02*
X14412938Y-16802402D01*
X14412938Y-16802402D02*
X14403414Y-16764307D01*
X14403414Y-16764307D02*
X14403414Y-16716688D01*
X14403414Y-16716688D02*
X14412938Y-16678593D01*
X14412938Y-16678593D02*
X14422462Y-16659545D01*
X14422462Y-16659545D02*
X14431986Y-16650021D01*
X14431986Y-16650021D02*
X14451033Y-16640497D01*
X14689128Y-16707164D02*
X14689128Y-16840498D01*
X14641509Y-16630974D02*
X14593890Y-16773831D01*
X14593890Y-16773831D02*
X14717700Y-16773831D01*
X14774843Y-16640497D02*
X14898652Y-16640497D01*
X14898652Y-16640497D02*
X14831986Y-16716688D01*
X14831986Y-16716688D02*
X14860557Y-16716688D01*
X14860557Y-16716688D02*
X14879605Y-16726212D01*
X14879605Y-16726212D02*
X14889128Y-16735736D01*
X14889128Y-16735736D02*
X14898652Y-16754783D01*
X14898652Y-16754783D02*
X14898652Y-16802402D01*
X14898652Y-16802402D02*
X14889128Y-16821450D01*
X14889128Y-16821450D02*
X14879605Y-16830974D01*
X14879605Y-16830974D02*
X14860557Y-16840498D01*
X14860557Y-16840498D02*
X14803414Y-16840498D01*
X14803414Y-16840498D02*
X14784367Y-16830974D01*
X14784367Y-16830974D02*
X14774843Y-16821450D01*
X14965319Y-16640497D02*
X15089128Y-16640497D01*
X15089128Y-16640497D02*
X15022462Y-16716688D01*
X15022462Y-16716688D02*
X15051033Y-16716688D01*
X15051033Y-16716688D02*
X15070081Y-16726212D01*
X15070081Y-16726212D02*
X15079605Y-16735736D01*
X15079605Y-16735736D02*
X15089128Y-16754783D01*
X15089128Y-16754783D02*
X15089128Y-16802402D01*
X15089128Y-16802402D02*
X15079605Y-16821450D01*
X15079605Y-16821450D02*
X15070081Y-16830974D01*
X15070081Y-16830974D02*
X15051033Y-16840498D01*
X15051033Y-16840498D02*
X14993890Y-16840498D01*
X14993890Y-16840498D02*
X14974843Y-16830974D01*
X14974843Y-16830974D02*
X14965319Y-16821450D01*
X15165319Y-16640497D02*
X15165319Y-16678593D01*
X15241509Y-16640497D02*
X15241509Y-16678593D01*
X15536748Y-16916688D02*
X15527224Y-16907164D01*
X15527224Y-16907164D02*
X15508176Y-16878593D01*
X15508176Y-16878593D02*
X15498652Y-16859545D01*
X15498652Y-16859545D02*
X15489129Y-16830974D01*
X15489129Y-16830974D02*
X15479605Y-16783355D01*
X15479605Y-16783355D02*
X15479605Y-16745259D01*
X15479605Y-16745259D02*
X15489129Y-16697640D01*
X15489129Y-16697640D02*
X15498652Y-16669069D01*
X15498652Y-16669069D02*
X15508176Y-16650021D01*
X15508176Y-16650021D02*
X15527224Y-16621450D01*
X15527224Y-16621450D02*
X15536748Y-16611926D01*
X15641509Y-16726212D02*
X15622462Y-16716688D01*
X15622462Y-16716688D02*
X15612938Y-16707164D01*
X15612938Y-16707164D02*
X15603414Y-16688116D01*
X15603414Y-16688116D02*
X15603414Y-16678593D01*
X15603414Y-16678593D02*
X15612938Y-16659545D01*
X15612938Y-16659545D02*
X15622462Y-16650021D01*
X15622462Y-16650021D02*
X15641509Y-16640497D01*
X15641509Y-16640497D02*
X15679605Y-16640497D01*
X15679605Y-16640497D02*
X15698652Y-16650021D01*
X15698652Y-16650021D02*
X15708176Y-16659545D01*
X15708176Y-16659545D02*
X15717700Y-16678593D01*
X15717700Y-16678593D02*
X15717700Y-16688116D01*
X15717700Y-16688116D02*
X15708176Y-16707164D01*
X15708176Y-16707164D02*
X15698652Y-16716688D01*
X15698652Y-16716688D02*
X15679605Y-16726212D01*
X15679605Y-16726212D02*
X15641509Y-16726212D01*
X15641509Y-16726212D02*
X15622462Y-16735736D01*
X15622462Y-16735736D02*
X15612938Y-16745259D01*
X15612938Y-16745259D02*
X15603414Y-16764307D01*
X15603414Y-16764307D02*
X15603414Y-16802402D01*
X15603414Y-16802402D02*
X15612938Y-16821450D01*
X15612938Y-16821450D02*
X15622462Y-16830974D01*
X15622462Y-16830974D02*
X15641509Y-16840498D01*
X15641509Y-16840498D02*
X15679605Y-16840498D01*
X15679605Y-16840498D02*
X15698652Y-16830974D01*
X15698652Y-16830974D02*
X15708176Y-16821450D01*
X15708176Y-16821450D02*
X15717700Y-16802402D01*
X15717700Y-16802402D02*
X15717700Y-16764307D01*
X15717700Y-16764307D02*
X15708176Y-16745259D01*
X15708176Y-16745259D02*
X15698652Y-16735736D01*
X15698652Y-16735736D02*
X15679605Y-16726212D01*
X15955795Y-16840498D02*
X15955795Y-16640497D01*
X16041510Y-16840498D02*
X16041510Y-16735736D01*
X16041510Y-16735736D02*
X16031986Y-16716688D01*
X16031986Y-16716688D02*
X16012938Y-16707164D01*
X16012938Y-16707164D02*
X15984367Y-16707164D01*
X15984367Y-16707164D02*
X15965319Y-16716688D01*
X15965319Y-16716688D02*
X15955795Y-16726212D01*
X16165319Y-16840498D02*
X16146271Y-16830974D01*
X16146271Y-16830974D02*
X16136748Y-16821450D01*
X16136748Y-16821450D02*
X16127224Y-16802402D01*
X16127224Y-16802402D02*
X16127224Y-16745259D01*
X16127224Y-16745259D02*
X16136748Y-16726212D01*
X16136748Y-16726212D02*
X16146271Y-16716688D01*
X16146271Y-16716688D02*
X16165319Y-16707164D01*
X16165319Y-16707164D02*
X16193891Y-16707164D01*
X16193891Y-16707164D02*
X16212938Y-16716688D01*
X16212938Y-16716688D02*
X16222462Y-16726212D01*
X16222462Y-16726212D02*
X16231986Y-16745259D01*
X16231986Y-16745259D02*
X16231986Y-16802402D01*
X16231986Y-16802402D02*
X16222462Y-16821450D01*
X16222462Y-16821450D02*
X16212938Y-16830974D01*
X16212938Y-16830974D02*
X16193891Y-16840498D01*
X16193891Y-16840498D02*
X16165319Y-16840498D01*
X16346271Y-16840498D02*
X16327224Y-16830974D01*
X16327224Y-16830974D02*
X16317700Y-16811926D01*
X16317700Y-16811926D02*
X16317700Y-16640497D01*
X16498652Y-16830974D02*
X16479605Y-16840498D01*
X16479605Y-16840498D02*
X16441510Y-16840498D01*
X16441510Y-16840498D02*
X16422462Y-16830974D01*
X16422462Y-16830974D02*
X16412938Y-16811926D01*
X16412938Y-16811926D02*
X16412938Y-16735736D01*
X16412938Y-16735736D02*
X16422462Y-16716688D01*
X16422462Y-16716688D02*
X16441510Y-16707164D01*
X16441510Y-16707164D02*
X16479605Y-16707164D01*
X16479605Y-16707164D02*
X16498652Y-16716688D01*
X16498652Y-16716688D02*
X16508176Y-16735736D01*
X16508176Y-16735736D02*
X16508176Y-16754783D01*
X16508176Y-16754783D02*
X16412938Y-16773831D01*
X16584367Y-16830974D02*
X16603414Y-16840498D01*
X16603414Y-16840498D02*
X16641510Y-16840498D01*
X16641510Y-16840498D02*
X16660557Y-16830974D01*
X16660557Y-16830974D02*
X16670081Y-16811926D01*
X16670081Y-16811926D02*
X16670081Y-16802402D01*
X16670081Y-16802402D02*
X16660557Y-16783355D01*
X16660557Y-16783355D02*
X16641510Y-16773831D01*
X16641510Y-16773831D02*
X16612938Y-16773831D01*
X16612938Y-16773831D02*
X16593891Y-16764307D01*
X16593891Y-16764307D02*
X16584367Y-16745259D01*
X16584367Y-16745259D02*
X16584367Y-16735736D01*
X16584367Y-16735736D02*
X16593891Y-16716688D01*
X16593891Y-16716688D02*
X16612938Y-16707164D01*
X16612938Y-16707164D02*
X16641510Y-16707164D01*
X16641510Y-16707164D02*
X16660557Y-16716688D01*
X16736748Y-16916688D02*
X16746272Y-16907164D01*
X16746272Y-16907164D02*
X16765319Y-16878593D01*
X16765319Y-16878593D02*
X16774843Y-16859545D01*
X16774843Y-16859545D02*
X16784367Y-16830974D01*
X16784367Y-16830974D02*
X16793891Y-16783355D01*
X16793891Y-16783355D02*
X16793891Y-16745259D01*
X16793891Y-16745259D02*
X16784367Y-16697640D01*
X16784367Y-16697640D02*
X16774843Y-16669069D01*
X16774843Y-16669069D02*
X16765319Y-16650021D01*
X16765319Y-16650021D02*
X16746272Y-16621450D01*
X16746272Y-16621450D02*
X16736748Y-16611926D01*
M02*
