%TF.GenerationSoftware,KiCad,Pcbnew,9.0.5-1.fc42*%
%TF.CreationDate,2025-11-09T17:32:50+08:00*%
%TF.ProjectId,JACC64-512K,4a414343-3634-42d3-9531-324b2e6b6963,rev?*%
%TF.SameCoordinates,Original*%
%TF.FileFunction,Drillmap*%
%TF.FilePolarity,Positive*%
%FSLAX45Y45*%
G04 Gerber Fmt 4.5, Leading zero omitted, Abs format (unit mm)*
G04 Created by KiCad (PCBNEW 9.0.5-1.fc42) date 2025-11-09 17:32:50*
%MOMM*%
%LPD*%
G01*
G04 APERTURE LIST*
%ADD10C,0.050000*%
%ADD11C,0.200000*%
G04 APERTURE END LIST*
D10*
X12064185Y-15314514D02*
G75*
G02*
X11964186Y-15214514I-5J99994D01*
G01*
X12065098Y-6608380D02*
X17663862Y-6608380D01*
X17663862Y-6608380D02*
G75*
G02*
X17763860Y-6708380I-2J-100000D01*
G01*
X11964185Y-15214514D02*
X11965098Y-6708380D01*
X17763862Y-6708380D02*
X17762949Y-15214514D01*
X11965098Y-6708380D02*
G75*
G02*
X12065098Y-6608378I100012J-10D01*
G01*
X17762949Y-15214514D02*
G75*
G02*
X17662949Y-15314519I-100009J4D01*
G01*
X15117780Y-11120391D02*
G75*
G02*
X14609780Y-11120391I-254000J0D01*
G01*
X14609780Y-11120391D02*
G75*
G02*
X15117780Y-11120391I254000J0D01*
G01*
X15117780Y-7056391D02*
G75*
G02*
X14609780Y-7056391I-254000J0D01*
G01*
X14609780Y-7056391D02*
G75*
G02*
X15117780Y-7056391I254000J0D01*
G01*
X17662949Y-15314514D02*
X12064185Y-15314514D01*
D11*
X12222462Y-15628497D02*
X12222462Y-15428497D01*
X12222462Y-15428497D02*
X12270081Y-15428497D01*
X12270081Y-15428497D02*
X12298652Y-15438021D01*
X12298652Y-15438021D02*
X12317700Y-15457069D01*
X12317700Y-15457069D02*
X12327223Y-15476116D01*
X12327223Y-15476116D02*
X12336747Y-15514212D01*
X12336747Y-15514212D02*
X12336747Y-15542783D01*
X12336747Y-15542783D02*
X12327223Y-15580878D01*
X12327223Y-15580878D02*
X12317700Y-15599926D01*
X12317700Y-15599926D02*
X12298652Y-15618974D01*
X12298652Y-15618974D02*
X12270081Y-15628497D01*
X12270081Y-15628497D02*
X12222462Y-15628497D01*
X12422462Y-15628497D02*
X12422462Y-15495164D01*
X12422462Y-15533259D02*
X12431985Y-15514212D01*
X12431985Y-15514212D02*
X12441509Y-15504688D01*
X12441509Y-15504688D02*
X12460557Y-15495164D01*
X12460557Y-15495164D02*
X12479604Y-15495164D01*
X12546271Y-15628497D02*
X12546271Y-15495164D01*
X12546271Y-15428497D02*
X12536747Y-15438021D01*
X12536747Y-15438021D02*
X12546271Y-15447545D01*
X12546271Y-15447545D02*
X12555795Y-15438021D01*
X12555795Y-15438021D02*
X12546271Y-15428497D01*
X12546271Y-15428497D02*
X12546271Y-15447545D01*
X12670081Y-15628497D02*
X12651033Y-15618974D01*
X12651033Y-15618974D02*
X12641509Y-15599926D01*
X12641509Y-15599926D02*
X12641509Y-15428497D01*
X12774842Y-15628497D02*
X12755795Y-15618974D01*
X12755795Y-15618974D02*
X12746271Y-15599926D01*
X12746271Y-15599926D02*
X12746271Y-15428497D01*
X13003414Y-15628497D02*
X13003414Y-15428497D01*
X13003414Y-15428497D02*
X13070081Y-15571355D01*
X13070081Y-15571355D02*
X13136747Y-15428497D01*
X13136747Y-15428497D02*
X13136747Y-15628497D01*
X13317700Y-15628497D02*
X13317700Y-15523736D01*
X13317700Y-15523736D02*
X13308176Y-15504688D01*
X13308176Y-15504688D02*
X13289128Y-15495164D01*
X13289128Y-15495164D02*
X13251033Y-15495164D01*
X13251033Y-15495164D02*
X13231985Y-15504688D01*
X13317700Y-15618974D02*
X13298652Y-15628497D01*
X13298652Y-15628497D02*
X13251033Y-15628497D01*
X13251033Y-15628497D02*
X13231985Y-15618974D01*
X13231985Y-15618974D02*
X13222462Y-15599926D01*
X13222462Y-15599926D02*
X13222462Y-15580878D01*
X13222462Y-15580878D02*
X13231985Y-15561831D01*
X13231985Y-15561831D02*
X13251033Y-15552307D01*
X13251033Y-15552307D02*
X13298652Y-15552307D01*
X13298652Y-15552307D02*
X13317700Y-15542783D01*
X13412938Y-15495164D02*
X13412938Y-15695164D01*
X13412938Y-15504688D02*
X13431985Y-15495164D01*
X13431985Y-15495164D02*
X13470081Y-15495164D01*
X13470081Y-15495164D02*
X13489128Y-15504688D01*
X13489128Y-15504688D02*
X13498652Y-15514212D01*
X13498652Y-15514212D02*
X13508176Y-15533259D01*
X13508176Y-15533259D02*
X13508176Y-15590402D01*
X13508176Y-15590402D02*
X13498652Y-15609450D01*
X13498652Y-15609450D02*
X13489128Y-15618974D01*
X13489128Y-15618974D02*
X13470081Y-15628497D01*
X13470081Y-15628497D02*
X13431985Y-15628497D01*
X13431985Y-15628497D02*
X13412938Y-15618974D01*
X13593890Y-15609450D02*
X13603414Y-15618974D01*
X13603414Y-15618974D02*
X13593890Y-15628497D01*
X13593890Y-15628497D02*
X13584366Y-15618974D01*
X13584366Y-15618974D02*
X13593890Y-15609450D01*
X13593890Y-15609450D02*
X13593890Y-15628497D01*
X13593890Y-15504688D02*
X13603414Y-15514212D01*
X13603414Y-15514212D02*
X13593890Y-15523736D01*
X13593890Y-15523736D02*
X13584366Y-15514212D01*
X13584366Y-15514212D02*
X13593890Y-15504688D01*
X13593890Y-15504688D02*
X13593890Y-15523736D01*
M02*
