%TF.GenerationSoftware,KiCad,Pcbnew,9.0.5-1.fc42*%
%TF.CreationDate,2025-11-09T17:32:46+08:00*%
%TF.ProjectId,JACC64-512K,4a414343-3634-42d3-9531-324b2e6b6963,rev?*%
%TF.SameCoordinates,Original*%
%TF.FileFunction,Copper,L1,Top*%
%TF.FilePolarity,Positive*%
%FSLAX46Y46*%
G04 Gerber Fmt 4.6, Leading zero omitted, Abs format (unit mm)*
G04 Created by KiCad (PCBNEW 9.0.5-1.fc42) date 2025-11-09 17:32:46*
%MOMM*%
%LPD*%
G01*
G04 APERTURE LIST*
G04 Aperture macros list*
%AMRoundRect*
0 Rectangle with rounded corners*
0 $1 Rounding radius*
0 $2 $3 $4 $5 $6 $7 $8 $9 X,Y pos of 4 corners*
0 Add a 4 corners polygon primitive as box body*
4,1,4,$2,$3,$4,$5,$6,$7,$8,$9,$2,$3,0*
0 Add four circle primitives for the rounded corners*
1,1,$1+$1,$2,$3*
1,1,$1+$1,$4,$5*
1,1,$1+$1,$6,$7*
1,1,$1+$1,$8,$9*
0 Add four rect primitives between the rounded corners*
20,1,$1+$1,$2,$3,$4,$5,0*
20,1,$1+$1,$4,$5,$6,$7,0*
20,1,$1+$1,$6,$7,$8,$9,0*
20,1,$1+$1,$8,$9,$2,$3,0*%
G04 Aperture macros list end*
%TA.AperFunction,ComponentPad*%
%ADD10C,1.600000*%
%TD*%
%TA.AperFunction,ComponentPad*%
%ADD11RoundRect,0.249999X0.850001X0.850001X-0.850001X0.850001X-0.850001X-0.850001X0.850001X-0.850001X0*%
%TD*%
%TA.AperFunction,ComponentPad*%
%ADD12C,2.200000*%
%TD*%
%TA.AperFunction,ComponentPad*%
%ADD13RoundRect,0.250000X0.550000X-0.550000X0.550000X0.550000X-0.550000X0.550000X-0.550000X-0.550000X0*%
%TD*%
%TA.AperFunction,ComponentPad*%
%ADD14C,2.000000*%
%TD*%
%TA.AperFunction,ComponentPad*%
%ADD15R,1.800000X1.800000*%
%TD*%
%TA.AperFunction,ComponentPad*%
%ADD16C,1.800000*%
%TD*%
%TA.AperFunction,ConnectorPad*%
%ADD17R,1.524000X11.430000*%
%TD*%
%TA.AperFunction,ViaPad*%
%ADD18C,0.600000*%
%TD*%
%TA.AperFunction,Conductor*%
%ADD19C,0.200000*%
%TD*%
G04 APERTURE END LIST*
D10*
X143496600Y-126393100D03*
X143496600Y-136553100D03*
D11*
X130857800Y-123903900D03*
D12*
X123237800Y-123903900D03*
D10*
X158736600Y-126393100D03*
X158736600Y-136553100D03*
D13*
X128317800Y-79411400D03*
D10*
X130857800Y-79411400D03*
X133397800Y-79411400D03*
X135937800Y-79411400D03*
X138477800Y-79411400D03*
X138477800Y-71791400D03*
X135937800Y-71791400D03*
X133397800Y-71791400D03*
X130857800Y-71791400D03*
X128317800Y-71791400D03*
X153656600Y-126393100D03*
X153656600Y-136553100D03*
D14*
X172207800Y-77893900D03*
X165707800Y-77893900D03*
X172207800Y-73393900D03*
X165707800Y-73393900D03*
D10*
X168896600Y-126393100D03*
X168896600Y-136553100D03*
D13*
X135748100Y-104385200D03*
D10*
X138288100Y-104385200D03*
X140828100Y-104385200D03*
X143368100Y-104385200D03*
X145908100Y-104385200D03*
X148448100Y-104385200D03*
X150988100Y-104385200D03*
X153528100Y-104385200D03*
X156068100Y-104385200D03*
X158608100Y-104385200D03*
X161148100Y-104385200D03*
X163688100Y-104385200D03*
X166228100Y-104385200D03*
X168768100Y-104385200D03*
X171308100Y-104385200D03*
X173848100Y-104385200D03*
X173848100Y-89145200D03*
X171308100Y-89145200D03*
X168768100Y-89145200D03*
X166228100Y-89145200D03*
X163688100Y-89145200D03*
X161148100Y-89145200D03*
X158608100Y-89145200D03*
X156068100Y-89145200D03*
X153528100Y-89145200D03*
X150988100Y-89145200D03*
X148448100Y-89145200D03*
X145908100Y-89145200D03*
X143368100Y-89145200D03*
X140828100Y-89145200D03*
X138288100Y-89145200D03*
X135748100Y-89145200D03*
X130488200Y-95307000D03*
X130488200Y-100307000D03*
X163816600Y-126393100D03*
X163816600Y-136553100D03*
X147320000Y-83820000D03*
X157480000Y-83820000D03*
D15*
X157475200Y-75643900D03*
D16*
X154935200Y-75643900D03*
D11*
X130857800Y-128983900D03*
D12*
X123237800Y-128983900D03*
D17*
X121967800Y-147398900D03*
X124507800Y-147398900D03*
X127047800Y-147398900D03*
X129587800Y-147398900D03*
X132127800Y-147398900D03*
X134667800Y-147398900D03*
X137207800Y-147398900D03*
X139747800Y-147398900D03*
X142287800Y-147398900D03*
X144827800Y-147398900D03*
X147367800Y-147398900D03*
X149907800Y-147398900D03*
X152447800Y-147398900D03*
X154987800Y-147398900D03*
X157527800Y-147398900D03*
X160067800Y-147398900D03*
X162607800Y-147398900D03*
X165147800Y-147398900D03*
X167687800Y-147398900D03*
X170227800Y-147398900D03*
X172767800Y-147398900D03*
X175307800Y-147398900D03*
D10*
X148576600Y-126393100D03*
X148576600Y-136553100D03*
D18*
X153635290Y-133790084D03*
X147581075Y-123541021D03*
X143366596Y-118778660D03*
X146063863Y-99476347D03*
X169024565Y-116139951D03*
X163511805Y-114479891D03*
X153653937Y-139304802D03*
X160393090Y-107146698D03*
X168704155Y-122925609D03*
X168912505Y-133773147D03*
X147320000Y-116840000D03*
X163714322Y-98944878D03*
X161017056Y-99071312D03*
X160020000Y-119380000D03*
X147320000Y-119380000D03*
X150910513Y-100867125D03*
X143324451Y-114058443D03*
X171511108Y-98481285D03*
X171089660Y-93171042D03*
X160020000Y-114300000D03*
X137160000Y-139700000D03*
X133285785Y-91569540D03*
X160020000Y-116840000D03*
X158572658Y-100925683D03*
X148550405Y-99476347D03*
X170668212Y-107120967D03*
X135898762Y-84236347D03*
X146335424Y-132858547D03*
X133327930Y-86006428D03*
X159170892Y-123667455D03*
X137712249Y-123107388D03*
X127000000Y-139700000D03*
X171455100Y-138723500D03*
X162972100Y-138919400D03*
X174426200Y-139723800D03*
X165849200Y-138449700D03*
X170889900Y-111878700D03*
X171122400Y-140155400D03*
X133589399Y-108158600D03*
X135546500Y-140155400D03*
X143575537Y-107984152D03*
X170093800Y-109159700D03*
X168246200Y-140499500D03*
X148054400Y-140155400D03*
X150706852Y-119592269D03*
X152843200Y-113099000D03*
X173446900Y-108230300D03*
X151793000Y-138513600D03*
X163558900Y-91052700D03*
X146499500Y-139750800D03*
X145313700Y-108158600D03*
X141379000Y-112081803D03*
X156851600Y-139003200D03*
X156848800Y-108397900D03*
X158284800Y-108700500D03*
X161294100Y-141065300D03*
X151215446Y-140037942D03*
X160067800Y-135530138D03*
X166444600Y-128520200D03*
X145425600Y-122897100D03*
X144276200Y-128583800D03*
X156324400Y-111067400D03*
X156324400Y-140972600D03*
X172941000Y-109070800D03*
X154986700Y-140319400D03*
X161549400Y-140019300D03*
X156969800Y-106637800D03*
X164911810Y-122702600D03*
X162419600Y-94300200D03*
X141366300Y-73251400D03*
X134622200Y-95677800D03*
X143326700Y-124872900D03*
X153656600Y-114306900D03*
X134615300Y-74546900D03*
D19*
X142470600Y-140042500D02*
X142287800Y-140225300D01*
X139747800Y-140336900D02*
X139747800Y-147398900D01*
X175307800Y-139777100D02*
X175307800Y-147398900D01*
X139819300Y-140265400D02*
X139747800Y-140336900D01*
X176016200Y-139068700D02*
X175307800Y-139777100D01*
X142287800Y-140225300D02*
X142287800Y-147398900D01*
X121967800Y-139895300D02*
X121967800Y-147398900D01*
X121253500Y-139181000D02*
X121967800Y-139895300D01*
X127000000Y-141334400D02*
X127047800Y-141382200D01*
X127000000Y-139700000D02*
X127000000Y-103795200D01*
X127047800Y-147398900D02*
X127047800Y-141382200D01*
X126239339Y-140573739D02*
X127047800Y-141382200D01*
X124507800Y-147398900D02*
X124507800Y-141683900D01*
X127000000Y-103795200D02*
X130488200Y-100307000D01*
X125617961Y-140573739D02*
X126239339Y-140573739D01*
X127000000Y-139700000D02*
X127000000Y-141334400D01*
X124507800Y-141683900D02*
X125617961Y-140573739D01*
X172436700Y-83536700D02*
X172436700Y-108724300D01*
X172207800Y-73393900D02*
X170180000Y-75421700D01*
X172339300Y-108821700D02*
X172339300Y-137839300D01*
X170180000Y-75421700D02*
X170180000Y-81280000D01*
X170180000Y-81280000D02*
X172436700Y-83536700D01*
X172436700Y-108724300D02*
X172339300Y-108821700D01*
X172339300Y-137839300D02*
X171455100Y-138723500D01*
X161983200Y-105220300D02*
X161148100Y-104385200D01*
X161983200Y-137930500D02*
X161983200Y-105220300D01*
X162972100Y-138919400D02*
X161983200Y-137930500D01*
X165849200Y-138449700D02*
X165849200Y-140680800D01*
X165849200Y-140680800D02*
X165147800Y-141382200D01*
X165147800Y-147398900D02*
X165147800Y-141382200D01*
X175260000Y-90557100D02*
X175260000Y-138890000D01*
X173848100Y-89145200D02*
X175260000Y-90557100D01*
X175260000Y-138890000D02*
X174426200Y-139723800D01*
X167644500Y-141640600D02*
X167687800Y-141683900D01*
X171308100Y-104385200D02*
X167644500Y-108048800D01*
X167644500Y-108048800D02*
X167644500Y-141640600D01*
X170853400Y-139886400D02*
X171122400Y-140155400D01*
X170853400Y-111915200D02*
X170853400Y-139886400D01*
X170889900Y-111878700D02*
X170853400Y-111915200D01*
X143575537Y-107984152D02*
X143575537Y-104592637D01*
X143575537Y-104592637D02*
X143368100Y-104385200D01*
X133589399Y-108158600D02*
X133589399Y-138198299D01*
X133589399Y-138198299D02*
X135546500Y-140155400D01*
X170093800Y-138651900D02*
X168246200Y-140499500D01*
X170093800Y-109159700D02*
X170093800Y-138651900D01*
X154720200Y-105134900D02*
X152843200Y-107011900D01*
X152843200Y-107011900D02*
X152843200Y-113099000D01*
X150706852Y-137502948D02*
X148054400Y-140155400D01*
X158608100Y-89145200D02*
X154720200Y-93033100D01*
X150706852Y-119592269D02*
X150706852Y-137502948D01*
X154720200Y-93033100D02*
X154720200Y-105134900D01*
X162607800Y-147398900D02*
X162607800Y-141382200D01*
X167046300Y-136401800D02*
X162607800Y-140840300D01*
X167046300Y-107704600D02*
X167046300Y-136401800D01*
X171308100Y-89145200D02*
X170179700Y-90273600D01*
X170179700Y-90273600D02*
X170179700Y-104571200D01*
X162607800Y-140840300D02*
X162607800Y-141382200D01*
X170179700Y-104571200D02*
X167046300Y-107704600D01*
X170457900Y-141683900D02*
X173542700Y-138599100D01*
X173542700Y-138599100D02*
X173542700Y-108326100D01*
X173542700Y-108326100D02*
X173446900Y-108230300D01*
X151793000Y-108609400D02*
X149664900Y-106481300D01*
X149664900Y-90362000D02*
X148448100Y-89145200D01*
X151793000Y-138513600D02*
X151793000Y-108609400D01*
X149664900Y-106481300D02*
X149664900Y-90362000D01*
X156350000Y-106897800D02*
X157527800Y-108075600D01*
X159878100Y-94608600D02*
X159878100Y-104697100D01*
X158575700Y-105999500D02*
X156710800Y-105999500D01*
X156710800Y-105999500D02*
X156350000Y-106360300D01*
X157527800Y-108075600D02*
X157527800Y-147398900D01*
X159878100Y-104697100D02*
X158575700Y-105999500D01*
X156350000Y-106360300D02*
X156350000Y-106897800D01*
X163434000Y-91052700D02*
X159878100Y-94608600D01*
X163558900Y-91052700D02*
X163434000Y-91052700D01*
X146499500Y-134222700D02*
X146499500Y-139750800D01*
X141379000Y-112081803D02*
X141379000Y-121298600D01*
X147319700Y-88713200D02*
X147319700Y-106152600D01*
X143643600Y-131366800D02*
X146499500Y-134222700D01*
X143643600Y-127943900D02*
X143643600Y-131366800D01*
X148009400Y-88023500D02*
X147319700Y-88713200D01*
X144598300Y-126989200D02*
X143643600Y-127943900D01*
X147319700Y-106152600D02*
X145313700Y-108158600D01*
X152406400Y-88023500D02*
X148009400Y-88023500D01*
X141379000Y-121298600D02*
X144598300Y-124517900D01*
X144598300Y-124517900D02*
X144598300Y-126989200D01*
X153528100Y-89145200D02*
X152406400Y-88023500D01*
X156851600Y-139003200D02*
X156926100Y-138928700D01*
X156926100Y-138928700D02*
X156926100Y-108475200D01*
X156926100Y-108475200D02*
X156848800Y-108397900D01*
X161294100Y-141065300D02*
X160929800Y-140701000D01*
X161156900Y-128769400D02*
X161156900Y-111572600D01*
X160929800Y-140701000D02*
X160929800Y-128996500D01*
X161156900Y-111572600D02*
X158284800Y-108700500D01*
X160929800Y-128996500D02*
X161156900Y-128769400D01*
X152241500Y-90398600D02*
X150988100Y-89145200D01*
X152241500Y-136696000D02*
X152241500Y-90398600D01*
X152397900Y-138855488D02*
X152397900Y-136852400D01*
X152397900Y-136852400D02*
X152241500Y-136696000D01*
X151215446Y-140037942D02*
X152397900Y-138855488D01*
X163688100Y-89145200D02*
X157479700Y-95353600D01*
X157479700Y-104616800D02*
X155721200Y-106375300D01*
X157479700Y-95353600D02*
X157479700Y-104616800D01*
X155721200Y-140648800D02*
X154987800Y-141382200D01*
X154987800Y-147398900D02*
X154987800Y-141382200D01*
X155721200Y-106375300D02*
X155721200Y-140648800D01*
X160067800Y-135530138D02*
X160067800Y-147398900D01*
X167545200Y-106590200D02*
X166444600Y-107690800D01*
X166444600Y-107690800D02*
X166444600Y-128520200D01*
X167545200Y-90368100D02*
X167545200Y-106590200D01*
X168768100Y-89145200D02*
X167545200Y-90368100D01*
X144712000Y-90341300D02*
X144712000Y-122183500D01*
X144276200Y-128583800D02*
X147367800Y-131675400D01*
X144712000Y-122183500D02*
X145425600Y-122897100D01*
X145908100Y-89145200D02*
X144712000Y-90341300D01*
X147367800Y-131675400D02*
X147367800Y-147398900D01*
X156324400Y-140972600D02*
X156224400Y-140872600D01*
X156224400Y-111167400D02*
X156324400Y-111067400D01*
X156224400Y-140872600D02*
X156224400Y-111167400D01*
X172941000Y-109070800D02*
X172845100Y-108974900D01*
X172845100Y-108974900D02*
X172845100Y-107966000D01*
X172845100Y-107966000D02*
X173182600Y-107628500D01*
X174101900Y-107985200D02*
X174101900Y-139197300D01*
X172767800Y-140531400D02*
X172767800Y-141382200D01*
X174101900Y-139197300D02*
X172767800Y-140531400D01*
X173182600Y-107628500D02*
X173745200Y-107628500D01*
X173745200Y-107628500D02*
X174101900Y-107985200D01*
X172767800Y-147398900D02*
X172767800Y-141382200D01*
X154986700Y-105466600D02*
X156068100Y-104385200D01*
X154986700Y-140319400D02*
X154986700Y-105466600D01*
X161549400Y-140019300D02*
X161558600Y-140010100D01*
X161558600Y-111123400D02*
X157073000Y-106637800D01*
X161558600Y-140010100D02*
X161558600Y-111123400D01*
X157073000Y-106637800D02*
X156969800Y-106637800D01*
X162301200Y-87992100D02*
X161148100Y-89145200D01*
X164098400Y-87992100D02*
X162301200Y-87992100D01*
X164801800Y-88695500D02*
X164098400Y-87992100D01*
X123237800Y-123903900D02*
X123237800Y-128983900D01*
X164911810Y-122408310D02*
X164801800Y-122298300D01*
X164801800Y-122298300D02*
X164801800Y-88695500D01*
X164911810Y-122702600D02*
X164911810Y-122408310D01*
X141366300Y-87143400D02*
X143368100Y-89145200D01*
X141366300Y-73251400D02*
X141366300Y-87143400D01*
X162419600Y-94300200D02*
X162419600Y-124996100D01*
X162419600Y-124996100D02*
X163816600Y-126393100D01*
X134622200Y-95677800D02*
X132127800Y-93183400D01*
X140777300Y-122323500D02*
X143326700Y-124872900D01*
X132127800Y-93183400D02*
X132127800Y-73061400D01*
X132127800Y-73061400D02*
X130857800Y-71791400D01*
X140828100Y-104385200D02*
X140777300Y-104436000D01*
X140777300Y-104436000D02*
X140777300Y-122323500D01*
X137149100Y-75535000D02*
X133405500Y-71791400D01*
X137149100Y-103246200D02*
X137149100Y-75535000D01*
X138288100Y-104385200D02*
X137149100Y-103246200D01*
X153656600Y-114306900D02*
X153656600Y-126393100D01*
X133405500Y-71791400D02*
X133397800Y-71791400D01*
X140828100Y-76681700D02*
X140828100Y-89145200D01*
X135937800Y-71791400D02*
X140828100Y-76681700D01*
X141980700Y-120313900D02*
X141980700Y-90297800D01*
X148059900Y-126393100D02*
X141980700Y-120313900D01*
X141980700Y-90297800D02*
X140828100Y-89145200D01*
X148576600Y-126393100D02*
X148059900Y-126393100D01*
X143496600Y-126393100D02*
X135748100Y-118644600D01*
X134615300Y-74546900D02*
X134615300Y-94510600D01*
X135748100Y-118644600D02*
X135748100Y-104385200D01*
X135748100Y-95643400D02*
X135748100Y-104385200D01*
X134615300Y-94510600D02*
X135748100Y-95643400D01*
%TA.AperFunction,Conductor*%
G36*
X176645531Y-66585085D02*
G01*
X176672812Y-66588159D01*
X176735876Y-66595266D01*
X176762942Y-66601444D01*
X176842143Y-66629159D01*
X176867155Y-66641204D01*
X176938210Y-66685853D01*
X176959911Y-66703160D01*
X177019248Y-66762498D01*
X177036555Y-66784200D01*
X177036568Y-66784220D01*
X177081198Y-66855250D01*
X177093245Y-66880268D01*
X177120958Y-66959470D01*
X177127136Y-66986540D01*
X177137341Y-67077115D01*
X177138121Y-67091011D01*
X177130172Y-141100171D01*
X177110480Y-141167209D01*
X177057671Y-141212958D01*
X177006676Y-141224157D01*
X173192804Y-141239667D01*
X173125685Y-141220255D01*
X173079716Y-141167638D01*
X173068300Y-141115668D01*
X173068300Y-140707232D01*
X173087985Y-140640193D01*
X173104615Y-140619555D01*
X173789677Y-139934492D01*
X173850998Y-139901009D01*
X173920689Y-139905993D01*
X173976623Y-139947864D01*
X173984743Y-139960175D01*
X174001188Y-139988658D01*
X174025700Y-140031114D01*
X174118886Y-140124300D01*
X174233014Y-140190192D01*
X174360308Y-140224300D01*
X174360310Y-140224300D01*
X174492090Y-140224300D01*
X174492092Y-140224300D01*
X174619386Y-140190192D01*
X174733514Y-140124300D01*
X174826700Y-140031114D01*
X174892592Y-139916986D01*
X174926700Y-139789692D01*
X174926700Y-139699632D01*
X174946385Y-139632593D01*
X174963019Y-139611951D01*
X175215809Y-139359162D01*
X175500460Y-139074511D01*
X175511189Y-139055927D01*
X175540021Y-139005989D01*
X175560500Y-138929562D01*
X175560500Y-90517538D01*
X175540021Y-90441111D01*
X175515172Y-90398071D01*
X175500464Y-90372595D01*
X175500458Y-90372587D01*
X174796906Y-89669035D01*
X174763421Y-89607712D01*
X174768405Y-89538020D01*
X174770010Y-89533943D01*
X174810151Y-89437035D01*
X174848600Y-89243741D01*
X174848600Y-89046659D01*
X174848600Y-89046656D01*
X174810152Y-88853370D01*
X174810151Y-88853369D01*
X174810151Y-88853365D01*
X174810149Y-88853360D01*
X174734735Y-88671292D01*
X174734728Y-88671279D01*
X174625239Y-88507418D01*
X174625236Y-88507414D01*
X174485885Y-88368063D01*
X174485881Y-88368060D01*
X174322020Y-88258571D01*
X174322007Y-88258564D01*
X174139939Y-88183150D01*
X174139929Y-88183147D01*
X173946643Y-88144700D01*
X173946641Y-88144700D01*
X173749559Y-88144700D01*
X173749557Y-88144700D01*
X173556270Y-88183147D01*
X173556260Y-88183150D01*
X173374192Y-88258564D01*
X173374179Y-88258571D01*
X173210318Y-88368060D01*
X173210314Y-88368063D01*
X173070963Y-88507414D01*
X173070960Y-88507418D01*
X172964302Y-88667043D01*
X172910690Y-88711848D01*
X172841365Y-88720555D01*
X172778337Y-88690400D01*
X172741618Y-88630957D01*
X172737200Y-88598152D01*
X172737200Y-83497140D01*
X172737200Y-83497138D01*
X172716722Y-83420712D01*
X172677160Y-83352189D01*
X170516819Y-81191848D01*
X170483334Y-81130525D01*
X170480500Y-81104167D01*
X170480500Y-78152404D01*
X170500185Y-78085365D01*
X170552989Y-78039610D01*
X170622147Y-78029666D01*
X170685703Y-78058691D01*
X170723477Y-78117469D01*
X170726973Y-78133006D01*
X170744734Y-78245147D01*
X170817697Y-78469702D01*
X170924887Y-78680074D01*
X170985138Y-78763004D01*
X170985140Y-78763005D01*
X171684012Y-78064133D01*
X171695282Y-78106192D01*
X171767690Y-78231608D01*
X171870092Y-78334010D01*
X171995508Y-78406418D01*
X172037565Y-78417687D01*
X171338693Y-79116558D01*
X171421628Y-79176814D01*
X171631997Y-79284002D01*
X171856552Y-79356965D01*
X171856551Y-79356965D01*
X172089748Y-79393900D01*
X172325852Y-79393900D01*
X172559047Y-79356965D01*
X172783602Y-79284002D01*
X172993963Y-79176818D01*
X172993969Y-79176814D01*
X173076904Y-79116558D01*
X173076905Y-79116558D01*
X172378033Y-78417687D01*
X172420092Y-78406418D01*
X172545508Y-78334010D01*
X172647910Y-78231608D01*
X172720318Y-78106192D01*
X172731587Y-78064134D01*
X173430458Y-78763005D01*
X173430458Y-78763004D01*
X173490714Y-78680069D01*
X173490718Y-78680063D01*
X173597902Y-78469702D01*
X173670865Y-78245147D01*
X173707800Y-78011952D01*
X173707800Y-77775847D01*
X173670865Y-77542652D01*
X173597902Y-77318097D01*
X173490714Y-77107728D01*
X173430458Y-77024794D01*
X173430458Y-77024793D01*
X172731587Y-77723665D01*
X172720318Y-77681608D01*
X172647910Y-77556192D01*
X172545508Y-77453790D01*
X172420092Y-77381382D01*
X172378034Y-77370112D01*
X173076905Y-76671240D01*
X173076904Y-76671238D01*
X172993974Y-76610987D01*
X172783602Y-76503797D01*
X172559047Y-76430834D01*
X172559048Y-76430834D01*
X172325852Y-76393900D01*
X172089748Y-76393900D01*
X171856552Y-76430834D01*
X171631997Y-76503797D01*
X171421630Y-76610984D01*
X171338694Y-76671240D01*
X172037566Y-77370112D01*
X171995508Y-77381382D01*
X171870092Y-77453790D01*
X171767690Y-77556192D01*
X171695282Y-77681608D01*
X171684012Y-77723666D01*
X170985140Y-77024794D01*
X170924884Y-77107730D01*
X170817697Y-77318097D01*
X170744734Y-77542652D01*
X170726973Y-77654793D01*
X170697044Y-77717928D01*
X170637732Y-77754859D01*
X170567870Y-77753861D01*
X170509637Y-77715251D01*
X170481523Y-77651288D01*
X170480500Y-77635395D01*
X170480500Y-75597532D01*
X170500185Y-75530493D01*
X170516814Y-75509855D01*
X171533056Y-74493613D01*
X171594377Y-74460130D01*
X171664069Y-74465114D01*
X171677023Y-74470807D01*
X171746968Y-74506447D01*
X171891288Y-74553339D01*
X171926681Y-74564840D01*
X172113314Y-74594400D01*
X172113319Y-74594400D01*
X172302286Y-74594400D01*
X172488918Y-74564840D01*
X172668632Y-74506447D01*
X172836999Y-74420660D01*
X172989873Y-74309590D01*
X173123490Y-74175973D01*
X173234560Y-74023099D01*
X173320347Y-73854732D01*
X173378740Y-73675018D01*
X173381778Y-73655834D01*
X173408300Y-73488386D01*
X173408300Y-73299413D01*
X173378740Y-73112781D01*
X173349190Y-73021838D01*
X173320347Y-72933068D01*
X173320345Y-72933065D01*
X173320345Y-72933063D01*
X173263215Y-72820940D01*
X173234560Y-72764701D01*
X173123490Y-72611827D01*
X172989873Y-72478210D01*
X172836999Y-72367140D01*
X172668636Y-72281354D01*
X172488918Y-72222959D01*
X172302286Y-72193400D01*
X172302281Y-72193400D01*
X172113319Y-72193400D01*
X172113314Y-72193400D01*
X171926681Y-72222959D01*
X171746963Y-72281354D01*
X171578600Y-72367140D01*
X171542892Y-72393084D01*
X171425727Y-72478210D01*
X171425725Y-72478212D01*
X171425724Y-72478212D01*
X171292112Y-72611824D01*
X171292112Y-72611825D01*
X171292110Y-72611827D01*
X171244410Y-72677479D01*
X171181040Y-72764700D01*
X171095254Y-72933063D01*
X171036859Y-73112781D01*
X171007300Y-73299413D01*
X171007300Y-73488386D01*
X171036859Y-73675018D01*
X171095254Y-73854736D01*
X171130887Y-73924668D01*
X171143783Y-73993337D01*
X171117507Y-74058078D01*
X171108083Y-74068644D01*
X169995489Y-75181240D01*
X169939541Y-75237187D01*
X169939535Y-75237195D01*
X169899982Y-75305704D01*
X169899979Y-75305709D01*
X169887979Y-75350495D01*
X169879500Y-75382138D01*
X169879500Y-81319562D01*
X169893152Y-81370513D01*
X169899979Y-81395990D01*
X169899982Y-81395995D01*
X169939535Y-81464504D01*
X169939541Y-81464512D01*
X172099881Y-83624852D01*
X172133366Y-83686175D01*
X172136200Y-83712533D01*
X172136200Y-88263239D01*
X172116515Y-88330278D01*
X172063711Y-88376033D01*
X171994553Y-88385977D01*
X171943309Y-88366341D01*
X171782020Y-88258571D01*
X171782007Y-88258564D01*
X171599939Y-88183150D01*
X171599929Y-88183147D01*
X171406643Y-88144700D01*
X171406641Y-88144700D01*
X171209559Y-88144700D01*
X171209557Y-88144700D01*
X171016270Y-88183147D01*
X171016260Y-88183150D01*
X170834192Y-88258564D01*
X170834179Y-88258571D01*
X170670318Y-88368060D01*
X170670314Y-88368063D01*
X170530963Y-88507414D01*
X170530960Y-88507418D01*
X170421471Y-88671279D01*
X170421464Y-88671292D01*
X170346050Y-88853360D01*
X170346047Y-88853370D01*
X170307600Y-89046656D01*
X170307600Y-89046659D01*
X170307600Y-89243741D01*
X170307600Y-89243743D01*
X170307599Y-89243743D01*
X170346047Y-89437029D01*
X170346050Y-89437039D01*
X170386172Y-89533902D01*
X170393641Y-89603371D01*
X170362366Y-89665850D01*
X170359292Y-89669035D01*
X169995189Y-90033140D01*
X169939241Y-90089087D01*
X169939235Y-90089095D01*
X169899682Y-90157604D01*
X169899679Y-90157609D01*
X169892718Y-90183589D01*
X169881539Y-90225311D01*
X169879200Y-90234039D01*
X169879200Y-103838451D01*
X169859515Y-103905490D01*
X169806711Y-103951245D01*
X169737553Y-103961189D01*
X169673997Y-103932164D01*
X169652098Y-103907342D01*
X169545239Y-103747418D01*
X169545236Y-103747414D01*
X169405885Y-103608063D01*
X169405881Y-103608060D01*
X169242020Y-103498571D01*
X169242007Y-103498564D01*
X169059939Y-103423150D01*
X169059929Y-103423147D01*
X168866643Y-103384700D01*
X168866641Y-103384700D01*
X168669559Y-103384700D01*
X168669557Y-103384700D01*
X168476270Y-103423147D01*
X168476260Y-103423150D01*
X168294192Y-103498564D01*
X168294179Y-103498571D01*
X168130318Y-103608060D01*
X168130314Y-103608063D01*
X168057381Y-103680997D01*
X167996058Y-103714482D01*
X167926366Y-103709498D01*
X167870433Y-103667626D01*
X167846016Y-103602162D01*
X167845700Y-103593316D01*
X167845700Y-90543932D01*
X167865385Y-90476893D01*
X167882015Y-90456255D01*
X168244265Y-90094004D01*
X168305586Y-90060521D01*
X168375277Y-90065505D01*
X168379354Y-90067109D01*
X168476265Y-90107251D01*
X168476269Y-90107251D01*
X168476270Y-90107252D01*
X168669556Y-90145700D01*
X168669559Y-90145700D01*
X168866643Y-90145700D01*
X169029595Y-90113286D01*
X169059935Y-90107251D01*
X169242014Y-90031832D01*
X169405882Y-89922339D01*
X169545239Y-89782982D01*
X169654732Y-89619114D01*
X169730151Y-89437035D01*
X169768600Y-89243741D01*
X169768600Y-89046659D01*
X169768600Y-89046656D01*
X169730152Y-88853370D01*
X169730151Y-88853369D01*
X169730151Y-88853365D01*
X169730149Y-88853360D01*
X169654735Y-88671292D01*
X169654728Y-88671279D01*
X169545239Y-88507418D01*
X169545236Y-88507414D01*
X169405885Y-88368063D01*
X169405881Y-88368060D01*
X169242020Y-88258571D01*
X169242007Y-88258564D01*
X169059939Y-88183150D01*
X169059929Y-88183147D01*
X168866643Y-88144700D01*
X168866641Y-88144700D01*
X168669559Y-88144700D01*
X168669557Y-88144700D01*
X168476270Y-88183147D01*
X168476260Y-88183150D01*
X168294192Y-88258564D01*
X168294179Y-88258571D01*
X168130318Y-88368060D01*
X168130314Y-88368063D01*
X167990963Y-88507414D01*
X167990960Y-88507418D01*
X167881471Y-88671279D01*
X167881464Y-88671292D01*
X167806050Y-88853360D01*
X167806047Y-88853370D01*
X167767600Y-89046656D01*
X167767600Y-89046659D01*
X167767600Y-89243741D01*
X167767600Y-89243743D01*
X167767599Y-89243743D01*
X167806047Y-89437029D01*
X167806050Y-89437039D01*
X167846172Y-89533902D01*
X167853641Y-89603371D01*
X167822366Y-89665850D01*
X167819292Y-89669035D01*
X167360689Y-90127640D01*
X167304741Y-90183587D01*
X167304735Y-90183595D01*
X167265182Y-90252104D01*
X167265179Y-90252109D01*
X167244700Y-90328539D01*
X167244700Y-103697023D01*
X167225015Y-103764062D01*
X167172211Y-103809817D01*
X167103053Y-103819761D01*
X167039497Y-103790736D01*
X167017598Y-103765914D01*
X167005239Y-103747418D01*
X167005236Y-103747414D01*
X166865885Y-103608063D01*
X166865881Y-103608060D01*
X166702020Y-103498571D01*
X166702007Y-103498564D01*
X166519939Y-103423150D01*
X166519929Y-103423147D01*
X166326643Y-103384700D01*
X166326641Y-103384700D01*
X166129559Y-103384700D01*
X166129557Y-103384700D01*
X165936270Y-103423147D01*
X165936260Y-103423150D01*
X165754192Y-103498564D01*
X165754179Y-103498571D01*
X165590318Y-103608060D01*
X165590314Y-103608063D01*
X165450963Y-103747414D01*
X165450960Y-103747418D01*
X165341471Y-103911279D01*
X165341466Y-103911288D01*
X165340861Y-103912751D01*
X165340338Y-103913399D01*
X165338598Y-103916656D01*
X165337980Y-103916325D01*
X165297020Y-103967154D01*
X165230726Y-103989219D01*
X165163027Y-103971940D01*
X165115416Y-103920803D01*
X165102300Y-103865298D01*
X165102300Y-89665101D01*
X165121985Y-89598062D01*
X165174789Y-89552307D01*
X165243947Y-89542363D01*
X165307503Y-89571388D01*
X165338198Y-89613957D01*
X165338598Y-89613744D01*
X165340183Y-89616709D01*
X165340862Y-89617651D01*
X165341465Y-89619107D01*
X165341470Y-89619118D01*
X165341471Y-89619120D01*
X165450960Y-89782981D01*
X165450963Y-89782985D01*
X165590314Y-89922336D01*
X165590318Y-89922339D01*
X165754179Y-90031828D01*
X165754192Y-90031835D01*
X165904288Y-90094006D01*
X165936265Y-90107251D01*
X165936269Y-90107251D01*
X165936270Y-90107252D01*
X166129556Y-90145700D01*
X166129559Y-90145700D01*
X166326643Y-90145700D01*
X166489595Y-90113286D01*
X166519935Y-90107251D01*
X166702014Y-90031832D01*
X166865882Y-89922339D01*
X167005239Y-89782982D01*
X167114732Y-89619114D01*
X167190151Y-89437035D01*
X167228600Y-89243741D01*
X167228600Y-89046659D01*
X167228600Y-89046656D01*
X167190152Y-88853370D01*
X167190151Y-88853369D01*
X167190151Y-88853365D01*
X167190149Y-88853360D01*
X167114735Y-88671292D01*
X167114728Y-88671279D01*
X167005239Y-88507418D01*
X167005236Y-88507414D01*
X166865885Y-88368063D01*
X166865881Y-88368060D01*
X166702020Y-88258571D01*
X166702007Y-88258564D01*
X166519939Y-88183150D01*
X166519929Y-88183147D01*
X166326643Y-88144700D01*
X166326641Y-88144700D01*
X166129559Y-88144700D01*
X166129557Y-88144700D01*
X165936270Y-88183147D01*
X165936260Y-88183150D01*
X165754192Y-88258564D01*
X165754179Y-88258571D01*
X165590318Y-88368060D01*
X165590314Y-88368063D01*
X165450963Y-88507414D01*
X165450960Y-88507418D01*
X165341471Y-88671279D01*
X165341462Y-88671296D01*
X165338528Y-88678380D01*
X165294684Y-88732781D01*
X165228389Y-88754842D01*
X165160690Y-88737559D01*
X165113083Y-88686419D01*
X165104195Y-88663014D01*
X165102300Y-88655941D01*
X165102300Y-88655938D01*
X165081821Y-88579511D01*
X165045668Y-88516891D01*
X165042264Y-88510995D01*
X165042258Y-88510987D01*
X164282911Y-87751640D01*
X164282904Y-87751635D01*
X164214395Y-87712082D01*
X164214390Y-87712079D01*
X164188913Y-87705252D01*
X164137962Y-87691600D01*
X162340762Y-87691600D01*
X162261638Y-87691600D01*
X162185210Y-87712078D01*
X162116689Y-87751640D01*
X162116686Y-87751642D01*
X161671935Y-88196392D01*
X161610612Y-88229877D01*
X161540920Y-88224893D01*
X161536802Y-88223272D01*
X161439939Y-88183150D01*
X161439929Y-88183147D01*
X161246643Y-88144700D01*
X161246641Y-88144700D01*
X161049559Y-88144700D01*
X161049557Y-88144700D01*
X160856270Y-88183147D01*
X160856260Y-88183150D01*
X160674192Y-88258564D01*
X160674179Y-88258571D01*
X160510318Y-88368060D01*
X160510314Y-88368063D01*
X160370963Y-88507414D01*
X160370960Y-88507418D01*
X160261471Y-88671279D01*
X160261464Y-88671292D01*
X160186050Y-88853360D01*
X160186047Y-88853370D01*
X160147600Y-89046656D01*
X160147600Y-89046659D01*
X160147600Y-89243741D01*
X160147600Y-89243743D01*
X160147599Y-89243743D01*
X160186047Y-89437029D01*
X160186050Y-89437039D01*
X160261464Y-89619107D01*
X160261471Y-89619120D01*
X160370960Y-89782981D01*
X160370963Y-89782985D01*
X160510314Y-89922336D01*
X160510318Y-89922339D01*
X160674179Y-90031828D01*
X160674192Y-90031835D01*
X160824288Y-90094006D01*
X160856265Y-90107251D01*
X160856269Y-90107251D01*
X160856270Y-90107252D01*
X161049556Y-90145700D01*
X161049559Y-90145700D01*
X161246643Y-90145700D01*
X161409595Y-90113286D01*
X161439935Y-90107251D01*
X161622014Y-90031832D01*
X161785882Y-89922339D01*
X161925239Y-89782982D01*
X162034732Y-89619114D01*
X162110151Y-89437035D01*
X162148600Y-89243741D01*
X162148600Y-89046659D01*
X162148600Y-89046656D01*
X162110152Y-88853370D01*
X162110151Y-88853369D01*
X162110151Y-88853365D01*
X162070025Y-88756494D01*
X162062557Y-88687028D01*
X162093832Y-88624549D01*
X162096847Y-88621422D01*
X162389353Y-88328916D01*
X162450675Y-88295434D01*
X162477033Y-88292600D01*
X162826416Y-88292600D01*
X162893455Y-88312285D01*
X162939210Y-88365089D01*
X162949154Y-88434247D01*
X162920129Y-88497803D01*
X162914097Y-88504281D01*
X162910963Y-88507414D01*
X162910960Y-88507418D01*
X162801471Y-88671279D01*
X162801464Y-88671292D01*
X162726050Y-88853360D01*
X162726047Y-88853370D01*
X162687600Y-89046656D01*
X162687600Y-89046659D01*
X162687600Y-89243741D01*
X162687600Y-89243743D01*
X162687599Y-89243743D01*
X162726047Y-89437029D01*
X162726050Y-89437039D01*
X162766172Y-89533902D01*
X162773641Y-89603371D01*
X162742366Y-89665850D01*
X162739292Y-89669035D01*
X157295189Y-95113140D01*
X157239241Y-95169087D01*
X157239235Y-95169095D01*
X157199682Y-95237604D01*
X157199679Y-95237609D01*
X157179200Y-95314039D01*
X157179200Y-103838451D01*
X157159515Y-103905490D01*
X157106711Y-103951245D01*
X157037553Y-103961189D01*
X156973997Y-103932164D01*
X156952098Y-103907342D01*
X156845239Y-103747418D01*
X156845236Y-103747414D01*
X156705885Y-103608063D01*
X156705881Y-103608060D01*
X156542020Y-103498571D01*
X156542007Y-103498564D01*
X156359939Y-103423150D01*
X156359929Y-103423147D01*
X156166643Y-103384700D01*
X156166641Y-103384700D01*
X155969559Y-103384700D01*
X155969557Y-103384700D01*
X155776270Y-103423147D01*
X155776260Y-103423150D01*
X155594192Y-103498564D01*
X155594179Y-103498571D01*
X155430318Y-103608060D01*
X155430314Y-103608063D01*
X155290963Y-103747414D01*
X155290960Y-103747418D01*
X155247802Y-103812009D01*
X155194190Y-103856814D01*
X155124865Y-103865521D01*
X155061837Y-103835366D01*
X155025118Y-103775923D01*
X155020700Y-103743118D01*
X155020700Y-93208932D01*
X155040385Y-93141893D01*
X155057014Y-93121256D01*
X158084265Y-90094004D01*
X158145586Y-90060521D01*
X158215278Y-90065505D01*
X158219354Y-90067109D01*
X158316265Y-90107251D01*
X158316269Y-90107251D01*
X158316270Y-90107252D01*
X158509556Y-90145700D01*
X158509559Y-90145700D01*
X158706643Y-90145700D01*
X158869595Y-90113286D01*
X158899935Y-90107251D01*
X159082014Y-90031832D01*
X159245882Y-89922339D01*
X159385239Y-89782982D01*
X159494732Y-89619114D01*
X159570151Y-89437035D01*
X159608600Y-89243741D01*
X159608600Y-89046659D01*
X159608600Y-89046656D01*
X159570152Y-88853370D01*
X159570151Y-88853369D01*
X159570151Y-88853365D01*
X159570149Y-88853360D01*
X159494735Y-88671292D01*
X159494728Y-88671279D01*
X159385239Y-88507418D01*
X159385236Y-88507414D01*
X159245885Y-88368063D01*
X159245881Y-88368060D01*
X159082020Y-88258571D01*
X159082007Y-88258564D01*
X158899939Y-88183150D01*
X158899929Y-88183147D01*
X158706643Y-88144700D01*
X158706641Y-88144700D01*
X158509559Y-88144700D01*
X158509557Y-88144700D01*
X158316270Y-88183147D01*
X158316260Y-88183150D01*
X158134192Y-88258564D01*
X158134179Y-88258571D01*
X157970318Y-88368060D01*
X157970314Y-88368063D01*
X157830963Y-88507414D01*
X157830960Y-88507418D01*
X157721471Y-88671279D01*
X157721464Y-88671292D01*
X157646050Y-88853360D01*
X157646047Y-88853370D01*
X157607600Y-89046656D01*
X157607600Y-89046659D01*
X157607600Y-89243741D01*
X157607600Y-89243743D01*
X157607599Y-89243743D01*
X157646047Y-89437029D01*
X157646050Y-89437039D01*
X157686172Y-89533902D01*
X157693641Y-89603371D01*
X157662366Y-89665850D01*
X157659292Y-89669035D01*
X154535689Y-92792640D01*
X154479741Y-92848587D01*
X154479735Y-92848595D01*
X154440182Y-92917104D01*
X154440179Y-92917109D01*
X154419700Y-92993539D01*
X154419700Y-103562516D01*
X154400015Y-103629555D01*
X154347211Y-103675310D01*
X154278053Y-103685254D01*
X154214497Y-103656229D01*
X154208019Y-103650197D01*
X154165885Y-103608063D01*
X154165881Y-103608060D01*
X154002020Y-103498571D01*
X154002007Y-103498564D01*
X153819939Y-103423150D01*
X153819929Y-103423147D01*
X153626643Y-103384700D01*
X153626641Y-103384700D01*
X153429559Y-103384700D01*
X153429557Y-103384700D01*
X153236270Y-103423147D01*
X153236260Y-103423150D01*
X153054192Y-103498564D01*
X153054179Y-103498571D01*
X152890318Y-103608060D01*
X152890314Y-103608063D01*
X152753681Y-103744697D01*
X152692358Y-103778182D01*
X152622666Y-103773198D01*
X152566733Y-103731326D01*
X152542316Y-103665862D01*
X152542000Y-103657016D01*
X152542000Y-90359039D01*
X152542000Y-90359038D01*
X152521521Y-90282611D01*
X152521517Y-90282604D01*
X152481964Y-90214095D01*
X152481958Y-90214087D01*
X151936906Y-89669035D01*
X151903421Y-89607712D01*
X151908405Y-89538020D01*
X151910010Y-89533943D01*
X151950151Y-89437035D01*
X151988600Y-89243741D01*
X151988600Y-89046659D01*
X151988600Y-89046656D01*
X151950152Y-88853370D01*
X151950151Y-88853369D01*
X151950151Y-88853365D01*
X151950149Y-88853360D01*
X151874735Y-88671292D01*
X151874728Y-88671279D01*
X151771569Y-88516891D01*
X151750691Y-88450213D01*
X151769176Y-88382833D01*
X151821154Y-88336143D01*
X151874671Y-88324000D01*
X152230567Y-88324000D01*
X152297606Y-88343685D01*
X152318248Y-88360319D01*
X152579292Y-88621363D01*
X152612777Y-88682686D01*
X152607793Y-88752378D01*
X152606173Y-88756495D01*
X152581296Y-88816553D01*
X152566050Y-88853364D01*
X152566048Y-88853368D01*
X152566047Y-88853371D01*
X152527600Y-89046656D01*
X152527600Y-89046659D01*
X152527600Y-89243741D01*
X152527600Y-89243743D01*
X152527599Y-89243743D01*
X152566047Y-89437029D01*
X152566050Y-89437039D01*
X152641464Y-89619107D01*
X152641471Y-89619120D01*
X152750960Y-89782981D01*
X152750963Y-89782985D01*
X152890314Y-89922336D01*
X152890318Y-89922339D01*
X153054179Y-90031828D01*
X153054192Y-90031835D01*
X153204288Y-90094006D01*
X153236265Y-90107251D01*
X153236269Y-90107251D01*
X153236270Y-90107252D01*
X153429556Y-90145700D01*
X153429559Y-90145700D01*
X153626643Y-90145700D01*
X153789595Y-90113286D01*
X153819935Y-90107251D01*
X154002014Y-90031832D01*
X154165882Y-89922339D01*
X154305239Y-89782982D01*
X154414732Y-89619114D01*
X154490151Y-89437035D01*
X154528600Y-89243743D01*
X155067599Y-89243743D01*
X155106047Y-89437029D01*
X155106050Y-89437039D01*
X155181464Y-89619107D01*
X155181471Y-89619120D01*
X155290960Y-89782981D01*
X155290963Y-89782985D01*
X155430314Y-89922336D01*
X155430318Y-89922339D01*
X155594179Y-90031828D01*
X155594192Y-90031835D01*
X155744288Y-90094006D01*
X155776265Y-90107251D01*
X155776269Y-90107251D01*
X155776270Y-90107252D01*
X155969556Y-90145700D01*
X155969559Y-90145700D01*
X156166643Y-90145700D01*
X156329595Y-90113286D01*
X156359935Y-90107251D01*
X156542014Y-90031832D01*
X156705882Y-89922339D01*
X156845239Y-89782982D01*
X156954732Y-89619114D01*
X157030151Y-89437035D01*
X157068600Y-89243741D01*
X157068600Y-89046659D01*
X157068600Y-89046656D01*
X157030152Y-88853370D01*
X157030151Y-88853369D01*
X157030151Y-88853365D01*
X157030149Y-88853360D01*
X156954735Y-88671292D01*
X156954728Y-88671279D01*
X156845239Y-88507418D01*
X156845236Y-88507414D01*
X156705885Y-88368063D01*
X156705881Y-88368060D01*
X156542020Y-88258571D01*
X156542007Y-88258564D01*
X156359939Y-88183150D01*
X156359929Y-88183147D01*
X156166643Y-88144700D01*
X156166641Y-88144700D01*
X155969559Y-88144700D01*
X155969557Y-88144700D01*
X155776270Y-88183147D01*
X155776260Y-88183150D01*
X155594192Y-88258564D01*
X155594179Y-88258571D01*
X155430318Y-88368060D01*
X155430314Y-88368063D01*
X155290963Y-88507414D01*
X155290960Y-88507418D01*
X155181471Y-88671279D01*
X155181464Y-88671292D01*
X155106050Y-88853360D01*
X155106047Y-88853370D01*
X155067600Y-89046656D01*
X155067600Y-89046659D01*
X155067600Y-89243741D01*
X155067600Y-89243743D01*
X155067599Y-89243743D01*
X154528600Y-89243743D01*
X154528600Y-89243741D01*
X154528600Y-89046659D01*
X154528600Y-89046656D01*
X154490152Y-88853370D01*
X154490151Y-88853369D01*
X154490151Y-88853365D01*
X154490149Y-88853360D01*
X154414735Y-88671292D01*
X154414728Y-88671279D01*
X154305239Y-88507418D01*
X154305236Y-88507414D01*
X154165885Y-88368063D01*
X154165881Y-88368060D01*
X154002020Y-88258571D01*
X154002007Y-88258564D01*
X153819939Y-88183150D01*
X153819929Y-88183147D01*
X153626643Y-88144700D01*
X153626641Y-88144700D01*
X153429559Y-88144700D01*
X153429557Y-88144700D01*
X153236271Y-88183147D01*
X153236268Y-88183148D01*
X153236266Y-88183148D01*
X153236265Y-88183149D01*
X153204293Y-88196392D01*
X153139395Y-88223273D01*
X153069926Y-88230740D01*
X153007447Y-88199465D01*
X153004263Y-88196392D01*
X152590910Y-87783039D01*
X152536527Y-87751642D01*
X152536524Y-87751640D01*
X152536523Y-87751639D01*
X152530549Y-87748190D01*
X152522389Y-87743479D01*
X152445962Y-87723000D01*
X147969838Y-87723000D01*
X147893411Y-87743479D01*
X147879272Y-87751642D01*
X147824892Y-87783037D01*
X147824887Y-87783041D01*
X147079241Y-88528687D01*
X147079235Y-88528695D01*
X147039682Y-88597204D01*
X147039678Y-88597213D01*
X147025881Y-88648702D01*
X146989515Y-88708361D01*
X146926668Y-88738890D01*
X146857292Y-88730593D01*
X146803415Y-88686107D01*
X146796746Y-88675053D01*
X146794733Y-88671286D01*
X146685239Y-88507418D01*
X146685236Y-88507414D01*
X146545885Y-88368063D01*
X146545881Y-88368060D01*
X146382020Y-88258571D01*
X146382007Y-88258564D01*
X146199939Y-88183150D01*
X146199929Y-88183147D01*
X146006643Y-88144700D01*
X146006641Y-88144700D01*
X145809559Y-88144700D01*
X145809557Y-88144700D01*
X145616270Y-88183147D01*
X145616260Y-88183150D01*
X145434192Y-88258564D01*
X145434179Y-88258571D01*
X145270318Y-88368060D01*
X145270314Y-88368063D01*
X145130963Y-88507414D01*
X145130960Y-88507418D01*
X145021471Y-88671279D01*
X145021464Y-88671292D01*
X144946050Y-88853360D01*
X144946047Y-88853370D01*
X144907600Y-89046656D01*
X144907600Y-89046659D01*
X144907600Y-89243741D01*
X144907600Y-89243743D01*
X144907599Y-89243743D01*
X144946047Y-89437029D01*
X144946050Y-89437039D01*
X144986172Y-89533902D01*
X144993641Y-89603371D01*
X144962366Y-89665850D01*
X144959292Y-89669035D01*
X144527489Y-90100840D01*
X144471541Y-90156787D01*
X144471535Y-90156795D01*
X144431982Y-90225304D01*
X144431979Y-90225309D01*
X144411500Y-90301739D01*
X144411500Y-103737131D01*
X144391815Y-103804170D01*
X144339011Y-103849925D01*
X144269853Y-103859869D01*
X144206297Y-103830844D01*
X144184398Y-103806023D01*
X144150731Y-103755638D01*
X144145239Y-103747418D01*
X144145238Y-103747417D01*
X144145236Y-103747414D01*
X144005885Y-103608063D01*
X144005881Y-103608060D01*
X143842020Y-103498571D01*
X143842007Y-103498564D01*
X143659939Y-103423150D01*
X143659929Y-103423147D01*
X143466643Y-103384700D01*
X143466641Y-103384700D01*
X143269559Y-103384700D01*
X143269557Y-103384700D01*
X143076270Y-103423147D01*
X143076260Y-103423150D01*
X142894192Y-103498564D01*
X142894179Y-103498571D01*
X142730318Y-103608060D01*
X142730314Y-103608063D01*
X142590963Y-103747414D01*
X142590960Y-103747418D01*
X142508302Y-103871125D01*
X142454690Y-103915930D01*
X142385365Y-103924637D01*
X142322337Y-103894482D01*
X142285618Y-103835039D01*
X142281200Y-103802234D01*
X142281200Y-90258238D01*
X142277924Y-90246011D01*
X142260722Y-90181812D01*
X142221160Y-90113289D01*
X141776906Y-89669035D01*
X141743421Y-89607712D01*
X141748405Y-89538020D01*
X141750010Y-89533943D01*
X141790151Y-89437035D01*
X141828600Y-89243741D01*
X141828600Y-89046659D01*
X141828600Y-89046656D01*
X141790152Y-88853370D01*
X141790151Y-88853369D01*
X141790151Y-88853365D01*
X141790149Y-88853360D01*
X141714735Y-88671292D01*
X141714728Y-88671279D01*
X141605239Y-88507418D01*
X141605236Y-88507414D01*
X141465885Y-88368063D01*
X141465881Y-88368060D01*
X141302020Y-88258571D01*
X141302010Y-88258566D01*
X141205147Y-88218444D01*
X141150744Y-88174603D01*
X141128679Y-88108309D01*
X141128600Y-88103883D01*
X141128600Y-87630033D01*
X141148285Y-87562994D01*
X141201089Y-87517239D01*
X141270247Y-87507295D01*
X141333803Y-87536320D01*
X141340281Y-87542352D01*
X142419292Y-88621363D01*
X142452777Y-88682686D01*
X142447793Y-88752378D01*
X142446173Y-88756495D01*
X142421296Y-88816553D01*
X142406050Y-88853364D01*
X142406048Y-88853368D01*
X142406047Y-88853371D01*
X142367600Y-89046656D01*
X142367600Y-89046659D01*
X142367600Y-89243741D01*
X142367600Y-89243743D01*
X142367599Y-89243743D01*
X142406047Y-89437029D01*
X142406050Y-89437039D01*
X142481464Y-89619107D01*
X142481471Y-89619120D01*
X142590960Y-89782981D01*
X142590963Y-89782985D01*
X142730314Y-89922336D01*
X142730318Y-89922339D01*
X142894179Y-90031828D01*
X142894192Y-90031835D01*
X143044288Y-90094006D01*
X143076265Y-90107251D01*
X143076269Y-90107251D01*
X143076270Y-90107252D01*
X143269556Y-90145700D01*
X143269559Y-90145700D01*
X143466643Y-90145700D01*
X143629595Y-90113286D01*
X143659935Y-90107251D01*
X143842014Y-90031832D01*
X144005882Y-89922339D01*
X144145239Y-89782982D01*
X144254732Y-89619114D01*
X144330151Y-89437035D01*
X144368600Y-89243741D01*
X144368600Y-89046659D01*
X144368600Y-89046656D01*
X144330152Y-88853370D01*
X144330151Y-88853369D01*
X144330151Y-88853365D01*
X144330149Y-88853360D01*
X144254735Y-88671292D01*
X144254728Y-88671279D01*
X144145239Y-88507418D01*
X144145236Y-88507414D01*
X144005885Y-88368063D01*
X144005881Y-88368060D01*
X143842020Y-88258571D01*
X143842007Y-88258564D01*
X143659939Y-88183150D01*
X143659929Y-88183147D01*
X143466643Y-88144700D01*
X143466641Y-88144700D01*
X143269559Y-88144700D01*
X143269557Y-88144700D01*
X143076271Y-88183147D01*
X143076268Y-88183148D01*
X143076266Y-88183148D01*
X143076265Y-88183149D01*
X143044293Y-88196392D01*
X142979395Y-88223273D01*
X142909926Y-88230740D01*
X142847447Y-88199465D01*
X142844263Y-88196392D01*
X141703119Y-87055248D01*
X141669634Y-86993925D01*
X141666800Y-86967567D01*
X141666800Y-83918543D01*
X146319499Y-83918543D01*
X146357947Y-84111829D01*
X146357950Y-84111839D01*
X146433364Y-84293907D01*
X146433371Y-84293920D01*
X146542860Y-84457781D01*
X146542863Y-84457785D01*
X146682214Y-84597136D01*
X146682218Y-84597139D01*
X146846079Y-84706628D01*
X146846092Y-84706635D01*
X147028160Y-84782049D01*
X147028165Y-84782051D01*
X147028169Y-84782051D01*
X147028170Y-84782052D01*
X147221456Y-84820500D01*
X147221459Y-84820500D01*
X147418543Y-84820500D01*
X147548582Y-84794632D01*
X147611835Y-84782051D01*
X147793914Y-84706632D01*
X147957782Y-84597139D01*
X148097139Y-84457782D01*
X148206632Y-84293914D01*
X148282051Y-84111835D01*
X148320500Y-83918543D01*
X156479499Y-83918543D01*
X156517947Y-84111829D01*
X156517950Y-84111839D01*
X156593364Y-84293907D01*
X156593371Y-84293920D01*
X156702860Y-84457781D01*
X156702863Y-84457785D01*
X156842214Y-84597136D01*
X156842218Y-84597139D01*
X157006079Y-84706628D01*
X157006092Y-84706635D01*
X157188160Y-84782049D01*
X157188165Y-84782051D01*
X157188169Y-84782051D01*
X157188170Y-84782052D01*
X157381456Y-84820500D01*
X157381459Y-84820500D01*
X157578543Y-84820500D01*
X157708582Y-84794632D01*
X157771835Y-84782051D01*
X157953914Y-84706632D01*
X158117782Y-84597139D01*
X158257139Y-84457782D01*
X158366632Y-84293914D01*
X158442051Y-84111835D01*
X158480500Y-83918541D01*
X158480500Y-83721459D01*
X158480500Y-83721456D01*
X158442052Y-83528170D01*
X158442051Y-83528169D01*
X158442051Y-83528165D01*
X158369159Y-83352186D01*
X158366635Y-83346092D01*
X158366628Y-83346079D01*
X158257139Y-83182218D01*
X158257136Y-83182214D01*
X158117785Y-83042863D01*
X158117781Y-83042860D01*
X157953920Y-82933371D01*
X157953907Y-82933364D01*
X157771839Y-82857950D01*
X157771829Y-82857947D01*
X157578543Y-82819500D01*
X157578541Y-82819500D01*
X157381459Y-82819500D01*
X157381457Y-82819500D01*
X157188170Y-82857947D01*
X157188160Y-82857950D01*
X157006092Y-82933364D01*
X157006079Y-82933371D01*
X156842218Y-83042860D01*
X156842214Y-83042863D01*
X156702863Y-83182214D01*
X156702860Y-83182218D01*
X156593371Y-83346079D01*
X156593364Y-83346092D01*
X156517950Y-83528160D01*
X156517947Y-83528170D01*
X156479500Y-83721456D01*
X156479500Y-83721459D01*
X156479500Y-83918541D01*
X156479500Y-83918543D01*
X156479499Y-83918543D01*
X148320500Y-83918543D01*
X148320500Y-83918541D01*
X148320500Y-83721459D01*
X148320500Y-83721456D01*
X148282052Y-83528170D01*
X148282051Y-83528169D01*
X148282051Y-83528165D01*
X148209159Y-83352186D01*
X148206635Y-83346092D01*
X148206628Y-83346079D01*
X148097139Y-83182218D01*
X148097136Y-83182214D01*
X147957785Y-83042863D01*
X147957781Y-83042860D01*
X147793920Y-82933371D01*
X147793907Y-82933364D01*
X147611839Y-82857950D01*
X147611829Y-82857947D01*
X147418543Y-82819500D01*
X147418541Y-82819500D01*
X147221459Y-82819500D01*
X147221457Y-82819500D01*
X147028170Y-82857947D01*
X147028160Y-82857950D01*
X146846092Y-82933364D01*
X146846079Y-82933371D01*
X146682218Y-83042860D01*
X146682214Y-83042863D01*
X146542863Y-83182214D01*
X146542860Y-83182218D01*
X146433371Y-83346079D01*
X146433364Y-83346092D01*
X146357950Y-83528160D01*
X146357947Y-83528170D01*
X146319500Y-83721456D01*
X146319500Y-83721459D01*
X146319500Y-83918541D01*
X146319500Y-83918543D01*
X146319499Y-83918543D01*
X141666800Y-83918543D01*
X141666800Y-77775847D01*
X164207800Y-77775847D01*
X164207800Y-78011952D01*
X164244734Y-78245147D01*
X164317697Y-78469702D01*
X164424887Y-78680074D01*
X164485138Y-78763004D01*
X164485140Y-78763005D01*
X165184012Y-78064133D01*
X165195282Y-78106192D01*
X165267690Y-78231608D01*
X165370092Y-78334010D01*
X165495508Y-78406418D01*
X165537565Y-78417687D01*
X164838693Y-79116558D01*
X164921628Y-79176814D01*
X165131997Y-79284002D01*
X165356552Y-79356965D01*
X165356551Y-79356965D01*
X165589748Y-79393900D01*
X165825852Y-79393900D01*
X166059047Y-79356965D01*
X166283602Y-79284002D01*
X166493963Y-79176818D01*
X166493969Y-79176814D01*
X166576904Y-79116558D01*
X166576905Y-79116558D01*
X165878033Y-78417687D01*
X165920092Y-78406418D01*
X166045508Y-78334010D01*
X166147910Y-78231608D01*
X166220318Y-78106192D01*
X166231587Y-78064133D01*
X166930458Y-78763005D01*
X166930458Y-78763004D01*
X166990714Y-78680069D01*
X166990718Y-78680063D01*
X167097902Y-78469702D01*
X167170865Y-78245147D01*
X167207800Y-78011952D01*
X167207800Y-77775847D01*
X167170865Y-77542652D01*
X167097902Y-77318097D01*
X166990714Y-77107728D01*
X166930458Y-77024794D01*
X166930458Y-77024793D01*
X166231587Y-77723665D01*
X166220318Y-77681608D01*
X166147910Y-77556192D01*
X166045508Y-77453790D01*
X165920092Y-77381382D01*
X165878034Y-77370112D01*
X166576905Y-76671240D01*
X166576904Y-76671238D01*
X166493974Y-76610987D01*
X166283602Y-76503797D01*
X166059047Y-76430834D01*
X166059048Y-76430834D01*
X165825852Y-76393900D01*
X165589748Y-76393900D01*
X165356552Y-76430834D01*
X165131997Y-76503797D01*
X164921630Y-76610984D01*
X164838694Y-76671240D01*
X165537566Y-77370112D01*
X165495508Y-77381382D01*
X165370092Y-77453790D01*
X165267690Y-77556192D01*
X165195282Y-77681608D01*
X165184012Y-77723666D01*
X164485140Y-77024794D01*
X164424884Y-77107730D01*
X164317697Y-77318097D01*
X164244734Y-77542652D01*
X164207800Y-77775847D01*
X141666800Y-77775847D01*
X141666800Y-75557289D01*
X153834700Y-75557289D01*
X153834700Y-75730510D01*
X153848492Y-75817594D01*
X153861798Y-75901601D01*
X153915327Y-76066345D01*
X153993968Y-76220688D01*
X154095786Y-76360828D01*
X154218272Y-76483314D01*
X154358412Y-76585132D01*
X154512755Y-76663773D01*
X154677499Y-76717302D01*
X154848589Y-76744400D01*
X154848590Y-76744400D01*
X155021810Y-76744400D01*
X155021811Y-76744400D01*
X155192901Y-76717302D01*
X155357645Y-76663773D01*
X155511988Y-76585132D01*
X155652128Y-76483314D01*
X155774614Y-76360828D01*
X155850882Y-76255853D01*
X155906212Y-76213189D01*
X155975826Y-76207210D01*
X156037621Y-76239816D01*
X156071978Y-76300655D01*
X156075200Y-76328740D01*
X156075200Y-76591744D01*
X156081601Y-76651272D01*
X156081603Y-76651279D01*
X156131845Y-76785986D01*
X156131849Y-76785993D01*
X156218009Y-76901087D01*
X156218012Y-76901090D01*
X156333106Y-76987250D01*
X156333113Y-76987254D01*
X156467820Y-77037496D01*
X156467827Y-77037498D01*
X156527355Y-77043899D01*
X156527372Y-77043900D01*
X157225200Y-77043900D01*
X157225200Y-76019177D01*
X157301506Y-76063233D01*
X157415956Y-76093900D01*
X157534444Y-76093900D01*
X157648894Y-76063233D01*
X157725200Y-76019177D01*
X157725200Y-77043900D01*
X158423028Y-77043900D01*
X158423044Y-77043899D01*
X158482572Y-77037498D01*
X158482579Y-77037496D01*
X158617286Y-76987254D01*
X158617293Y-76987250D01*
X158732387Y-76901090D01*
X158732390Y-76901087D01*
X158818550Y-76785993D01*
X158818554Y-76785986D01*
X158859888Y-76675166D01*
X158859888Y-76675165D01*
X158868796Y-76651282D01*
X158868798Y-76651272D01*
X158875199Y-76591744D01*
X158875200Y-76591727D01*
X158875200Y-75893900D01*
X157850478Y-75893900D01*
X157894533Y-75817594D01*
X157925200Y-75703144D01*
X157925200Y-75584656D01*
X157894533Y-75470206D01*
X157850478Y-75393900D01*
X158875200Y-75393900D01*
X158875200Y-74696072D01*
X158875199Y-74696055D01*
X158868798Y-74636527D01*
X158868796Y-74636520D01*
X158818554Y-74501813D01*
X158818550Y-74501806D01*
X158732390Y-74386712D01*
X158732387Y-74386709D01*
X158617293Y-74300549D01*
X158617286Y-74300545D01*
X158482579Y-74250303D01*
X158482572Y-74250301D01*
X158423044Y-74243900D01*
X157725200Y-74243900D01*
X157725200Y-75268622D01*
X157648894Y-75224567D01*
X157534444Y-75193900D01*
X157415956Y-75193900D01*
X157301506Y-75224567D01*
X157225200Y-75268622D01*
X157225200Y-74243900D01*
X156527355Y-74243900D01*
X156467827Y-74250301D01*
X156467820Y-74250303D01*
X156333113Y-74300545D01*
X156333106Y-74300549D01*
X156218012Y-74386709D01*
X156218009Y-74386712D01*
X156131849Y-74501806D01*
X156131845Y-74501813D01*
X156081603Y-74636520D01*
X156081601Y-74636527D01*
X156075200Y-74696055D01*
X156075200Y-74959059D01*
X156055515Y-75026098D01*
X156002711Y-75071853D01*
X155933553Y-75081797D01*
X155869997Y-75052772D01*
X155850882Y-75031945D01*
X155812573Y-74979218D01*
X155774614Y-74926972D01*
X155652128Y-74804486D01*
X155511988Y-74702668D01*
X155357645Y-74624027D01*
X155192901Y-74570498D01*
X155192899Y-74570497D01*
X155192898Y-74570497D01*
X155061471Y-74549681D01*
X155021811Y-74543400D01*
X154848589Y-74543400D01*
X154808928Y-74549681D01*
X154677502Y-74570497D01*
X154677499Y-74570498D01*
X154547333Y-74612792D01*
X154512752Y-74624028D01*
X154358411Y-74702668D01*
X154306909Y-74740087D01*
X154218272Y-74804486D01*
X154218270Y-74804488D01*
X154218269Y-74804488D01*
X154095788Y-74926969D01*
X154095788Y-74926970D01*
X154095786Y-74926972D01*
X154057827Y-74979218D01*
X153993968Y-75067111D01*
X153915328Y-75221452D01*
X153861797Y-75386202D01*
X153834700Y-75557289D01*
X141666800Y-75557289D01*
X141666800Y-73710076D01*
X141686485Y-73643037D01*
X141703119Y-73622395D01*
X141721103Y-73604411D01*
X141766800Y-73558714D01*
X141832692Y-73444586D01*
X141866800Y-73317292D01*
X141866800Y-73185508D01*
X141832692Y-73058214D01*
X141766800Y-72944086D01*
X141673614Y-72850900D01*
X141616550Y-72817954D01*
X141559487Y-72785008D01*
X141495839Y-72767954D01*
X141432192Y-72750900D01*
X141300408Y-72750900D01*
X141173112Y-72785008D01*
X141058986Y-72850900D01*
X141058983Y-72850902D01*
X140965802Y-72944083D01*
X140965800Y-72944086D01*
X140899908Y-73058212D01*
X140865800Y-73185508D01*
X140865800Y-73317291D01*
X140899908Y-73444587D01*
X140925193Y-73488381D01*
X140965800Y-73558714D01*
X140965802Y-73558716D01*
X141029481Y-73622395D01*
X141062966Y-73683718D01*
X141065800Y-73710076D01*
X141065800Y-76195067D01*
X141046115Y-76262106D01*
X140993311Y-76307861D01*
X140924153Y-76317805D01*
X140860597Y-76288780D01*
X140854119Y-76282748D01*
X136886606Y-72315235D01*
X136853121Y-72253912D01*
X136858105Y-72184220D01*
X136859710Y-72180143D01*
X136899851Y-72083235D01*
X136938300Y-71889943D01*
X137477299Y-71889943D01*
X137515747Y-72083229D01*
X137515750Y-72083239D01*
X137591164Y-72265307D01*
X137591171Y-72265320D01*
X137700660Y-72429181D01*
X137700663Y-72429185D01*
X137840014Y-72568536D01*
X137840018Y-72568539D01*
X138003879Y-72678028D01*
X138003892Y-72678035D01*
X138148544Y-72737951D01*
X138185965Y-72753451D01*
X138185969Y-72753451D01*
X138185970Y-72753452D01*
X138379256Y-72791900D01*
X138379259Y-72791900D01*
X138576343Y-72791900D01*
X138713083Y-72764700D01*
X138769635Y-72753451D01*
X138951714Y-72678032D01*
X139115582Y-72568539D01*
X139254939Y-72429182D01*
X139364432Y-72265314D01*
X139439851Y-72083235D01*
X139478300Y-71889941D01*
X139478300Y-71692859D01*
X139478300Y-71692856D01*
X139439852Y-71499570D01*
X139439851Y-71499569D01*
X139439851Y-71499565D01*
X139439849Y-71499560D01*
X139364435Y-71317492D01*
X139364428Y-71317479D01*
X139254939Y-71153618D01*
X139254936Y-71153614D01*
X139115585Y-71014263D01*
X139115581Y-71014260D01*
X138951720Y-70904771D01*
X138951707Y-70904764D01*
X138769639Y-70829350D01*
X138769629Y-70829347D01*
X138576343Y-70790900D01*
X138576341Y-70790900D01*
X138379259Y-70790900D01*
X138379257Y-70790900D01*
X138185970Y-70829347D01*
X138185960Y-70829350D01*
X138003892Y-70904764D01*
X138003879Y-70904771D01*
X137840018Y-71014260D01*
X137840014Y-71014263D01*
X137700663Y-71153614D01*
X137700660Y-71153618D01*
X137591171Y-71317479D01*
X137591164Y-71317492D01*
X137515750Y-71499560D01*
X137515747Y-71499570D01*
X137477300Y-71692856D01*
X137477300Y-71692859D01*
X137477300Y-71889941D01*
X137477300Y-71889943D01*
X137477299Y-71889943D01*
X136938300Y-71889943D01*
X136938300Y-71889941D01*
X136938300Y-71692859D01*
X136938300Y-71692856D01*
X136899852Y-71499570D01*
X136899851Y-71499569D01*
X136899851Y-71499565D01*
X136899849Y-71499560D01*
X136824435Y-71317492D01*
X136824428Y-71317479D01*
X136714939Y-71153618D01*
X136714936Y-71153614D01*
X136575585Y-71014263D01*
X136575581Y-71014260D01*
X136411720Y-70904771D01*
X136411707Y-70904764D01*
X136229639Y-70829350D01*
X136229629Y-70829347D01*
X136036343Y-70790900D01*
X136036341Y-70790900D01*
X135839259Y-70790900D01*
X135839257Y-70790900D01*
X135645970Y-70829347D01*
X135645960Y-70829350D01*
X135463892Y-70904764D01*
X135463879Y-70904771D01*
X135300018Y-71014260D01*
X135300014Y-71014263D01*
X135160663Y-71153614D01*
X135160660Y-71153618D01*
X135051171Y-71317479D01*
X135051164Y-71317492D01*
X134975750Y-71499560D01*
X134975747Y-71499570D01*
X134937300Y-71692856D01*
X134937300Y-71692859D01*
X134937300Y-71889941D01*
X134937300Y-71889943D01*
X134937299Y-71889943D01*
X134975747Y-72083229D01*
X134975750Y-72083239D01*
X135051164Y-72265307D01*
X135051171Y-72265320D01*
X135160660Y-72429181D01*
X135160663Y-72429185D01*
X135300014Y-72568536D01*
X135300018Y-72568539D01*
X135463879Y-72678028D01*
X135463892Y-72678035D01*
X135608544Y-72737951D01*
X135645965Y-72753451D01*
X135645969Y-72753451D01*
X135645970Y-72753452D01*
X135839256Y-72791900D01*
X135839259Y-72791900D01*
X136036343Y-72791900D01*
X136173083Y-72764700D01*
X136229635Y-72753451D01*
X136326502Y-72713326D01*
X136395969Y-72705857D01*
X136458449Y-72737131D01*
X136461635Y-72740206D01*
X140491281Y-76769852D01*
X140524766Y-76831175D01*
X140527600Y-76857533D01*
X140527600Y-88103883D01*
X140507915Y-88170922D01*
X140455111Y-88216677D01*
X140451053Y-88218444D01*
X140354189Y-88258566D01*
X140354179Y-88258571D01*
X140190318Y-88368060D01*
X140190314Y-88368063D01*
X140050963Y-88507414D01*
X140050960Y-88507418D01*
X139941471Y-88671279D01*
X139941464Y-88671292D01*
X139866050Y-88853360D01*
X139866047Y-88853370D01*
X139827600Y-89046656D01*
X139827600Y-89046659D01*
X139827600Y-89243741D01*
X139827600Y-89243743D01*
X139827599Y-89243743D01*
X139866047Y-89437029D01*
X139866050Y-89437039D01*
X139941464Y-89619107D01*
X139941471Y-89619120D01*
X140050960Y-89782981D01*
X140050963Y-89782985D01*
X140190314Y-89922336D01*
X140190318Y-89922339D01*
X140354179Y-90031828D01*
X140354192Y-90031835D01*
X140504288Y-90094006D01*
X140536265Y-90107251D01*
X140536269Y-90107251D01*
X140536270Y-90107252D01*
X140729556Y-90145700D01*
X140729559Y-90145700D01*
X140926643Y-90145700D01*
X141089595Y-90113286D01*
X141119935Y-90107251D01*
X141216802Y-90067126D01*
X141286269Y-90059657D01*
X141348749Y-90090931D01*
X141351935Y-90094006D01*
X141643881Y-90385952D01*
X141677366Y-90447275D01*
X141680200Y-90473633D01*
X141680200Y-103523016D01*
X141660515Y-103590055D01*
X141607711Y-103635810D01*
X141538553Y-103645754D01*
X141474997Y-103616729D01*
X141468519Y-103610697D01*
X141465885Y-103608063D01*
X141465881Y-103608060D01*
X141302020Y-103498571D01*
X141302007Y-103498564D01*
X141119939Y-103423150D01*
X141119929Y-103423147D01*
X140926643Y-103384700D01*
X140926641Y-103384700D01*
X140729559Y-103384700D01*
X140729557Y-103384700D01*
X140536270Y-103423147D01*
X140536260Y-103423150D01*
X140354192Y-103498564D01*
X140354179Y-103498571D01*
X140190318Y-103608060D01*
X140190314Y-103608063D01*
X140050963Y-103747414D01*
X140050960Y-103747418D01*
X139941471Y-103911279D01*
X139941464Y-103911292D01*
X139866050Y-104093360D01*
X139866047Y-104093370D01*
X139827600Y-104286656D01*
X139827600Y-104286659D01*
X139827600Y-104483741D01*
X139827600Y-104483743D01*
X139827599Y-104483743D01*
X139866047Y-104677029D01*
X139866050Y-104677039D01*
X139941464Y-104859107D01*
X139941471Y-104859120D01*
X140050960Y-105022981D01*
X140050963Y-105022985D01*
X140190317Y-105162339D01*
X140332512Y-105257350D01*
X140354186Y-105271832D01*
X140354192Y-105271834D01*
X140354193Y-105271835D01*
X140400252Y-105290913D01*
X140454656Y-105334753D01*
X140476721Y-105401047D01*
X140476800Y-105405474D01*
X140476800Y-122363062D01*
X140480512Y-122376915D01*
X140497279Y-122439490D01*
X140511817Y-122464670D01*
X140530251Y-122496598D01*
X140530251Y-122496600D01*
X140536837Y-122508007D01*
X140536841Y-122508012D01*
X142789881Y-124761052D01*
X142801857Y-124782984D01*
X142817309Y-124802626D01*
X142819889Y-124816008D01*
X142823366Y-124822375D01*
X142825636Y-124836924D01*
X142826200Y-124842819D01*
X142826200Y-124938792D01*
X142840480Y-124992088D01*
X142841466Y-125002388D01*
X142836737Y-125026947D01*
X142836142Y-125051955D01*
X142830244Y-125060667D01*
X142828256Y-125070997D01*
X142810998Y-125089102D01*
X142796978Y-125109817D01*
X142787307Y-125113958D01*
X142780049Y-125121573D01*
X142755740Y-125127474D01*
X142732749Y-125137320D01*
X142722376Y-125135575D01*
X142712152Y-125138058D01*
X142688513Y-125129881D01*
X142663847Y-125125733D01*
X142651875Y-125117207D01*
X142646121Y-125115217D01*
X142642351Y-125110425D01*
X142630349Y-125101878D01*
X136084919Y-118556448D01*
X136051434Y-118495125D01*
X136048600Y-118468767D01*
X136048600Y-105509700D01*
X136068285Y-105442661D01*
X136121089Y-105396906D01*
X136172600Y-105385700D01*
X136352370Y-105385700D01*
X136382799Y-105382846D01*
X136382801Y-105382846D01*
X136446890Y-105360419D01*
X136510982Y-105337993D01*
X136620250Y-105257350D01*
X136700893Y-105148082D01*
X136727419Y-105072274D01*
X136745746Y-105019901D01*
X136745746Y-105019899D01*
X136748600Y-104989469D01*
X136748600Y-103780930D01*
X136745746Y-103750500D01*
X136745746Y-103750498D01*
X136709796Y-103647762D01*
X136700893Y-103622318D01*
X136620250Y-103513050D01*
X136510982Y-103432407D01*
X136510980Y-103432406D01*
X136382800Y-103387553D01*
X136352370Y-103384700D01*
X136352366Y-103384700D01*
X136172600Y-103384700D01*
X136105561Y-103365015D01*
X136059806Y-103312211D01*
X136048600Y-103260700D01*
X136048600Y-95603839D01*
X136034872Y-95552606D01*
X136028121Y-95527411D01*
X136028117Y-95527404D01*
X135988564Y-95458895D01*
X135988558Y-95458887D01*
X134952119Y-94422448D01*
X134918634Y-94361125D01*
X134915800Y-94334767D01*
X134915800Y-90024354D01*
X134935485Y-89957315D01*
X134988289Y-89911560D01*
X135057447Y-89901616D01*
X135108691Y-89921252D01*
X135274179Y-90031828D01*
X135274192Y-90031835D01*
X135424288Y-90094006D01*
X135456265Y-90107251D01*
X135456269Y-90107251D01*
X135456270Y-90107252D01*
X135649556Y-90145700D01*
X135649559Y-90145700D01*
X135846643Y-90145700D01*
X136009595Y-90113286D01*
X136039935Y-90107251D01*
X136222014Y-90031832D01*
X136385882Y-89922339D01*
X136525239Y-89782982D01*
X136586066Y-89691948D01*
X136621498Y-89638921D01*
X136675110Y-89594116D01*
X136744435Y-89585409D01*
X136807463Y-89615563D01*
X136844182Y-89675006D01*
X136848600Y-89707812D01*
X136848600Y-103285762D01*
X136853949Y-103305723D01*
X136869079Y-103362190D01*
X136869080Y-103362191D01*
X136904272Y-103423147D01*
X136904274Y-103423149D01*
X136908640Y-103430711D01*
X136908642Y-103430713D01*
X137339292Y-103861363D01*
X137372777Y-103922686D01*
X137367793Y-103992378D01*
X137366173Y-103996495D01*
X137326048Y-104093368D01*
X137326047Y-104093371D01*
X137287600Y-104286656D01*
X137287600Y-104286659D01*
X137287600Y-104483741D01*
X137287600Y-104483743D01*
X137287599Y-104483743D01*
X137326047Y-104677029D01*
X137326050Y-104677039D01*
X137401464Y-104859107D01*
X137401471Y-104859120D01*
X137510960Y-105022981D01*
X137510963Y-105022985D01*
X137650314Y-105162336D01*
X137650318Y-105162339D01*
X137814179Y-105271828D01*
X137814192Y-105271835D01*
X137996260Y-105347249D01*
X137996265Y-105347251D01*
X137996269Y-105347251D01*
X137996270Y-105347252D01*
X138189556Y-105385700D01*
X138189559Y-105385700D01*
X138386643Y-105385700D01*
X138537801Y-105355632D01*
X138579935Y-105347251D01*
X138762014Y-105271832D01*
X138925882Y-105162339D01*
X139065239Y-105022982D01*
X139174732Y-104859114D01*
X139180524Y-104845132D01*
X139202404Y-104792307D01*
X139250151Y-104677035D01*
X139288600Y-104483741D01*
X139288600Y-104286659D01*
X139288600Y-104286656D01*
X139250152Y-104093370D01*
X139250151Y-104093369D01*
X139250151Y-104093365D01*
X139238452Y-104065120D01*
X139174735Y-103911292D01*
X139174728Y-103911279D01*
X139065239Y-103747418D01*
X139065236Y-103747414D01*
X138925885Y-103608063D01*
X138925881Y-103608060D01*
X138762020Y-103498571D01*
X138762007Y-103498564D01*
X138579939Y-103423150D01*
X138579929Y-103423147D01*
X138386643Y-103384700D01*
X138386641Y-103384700D01*
X138189559Y-103384700D01*
X138189557Y-103384700D01*
X137996271Y-103423147D01*
X137996268Y-103423148D01*
X137996266Y-103423148D01*
X137996265Y-103423149D01*
X137973914Y-103432407D01*
X137899395Y-103463273D01*
X137829926Y-103470740D01*
X137767447Y-103439465D01*
X137764263Y-103436392D01*
X137485919Y-103158048D01*
X137452434Y-103096725D01*
X137449600Y-103070367D01*
X137449600Y-90019790D01*
X137469285Y-89952751D01*
X137522089Y-89906996D01*
X137591247Y-89897052D01*
X137644275Y-89920418D01*
X137645253Y-89918955D01*
X137814179Y-90031828D01*
X137814192Y-90031835D01*
X137964288Y-90094006D01*
X137996265Y-90107251D01*
X137996269Y-90107251D01*
X137996270Y-90107252D01*
X138189556Y-90145700D01*
X138189559Y-90145700D01*
X138386643Y-90145700D01*
X138549595Y-90113286D01*
X138579935Y-90107251D01*
X138762014Y-90031832D01*
X138925882Y-89922339D01*
X139065239Y-89782982D01*
X139174732Y-89619114D01*
X139250151Y-89437035D01*
X139288600Y-89243741D01*
X139288600Y-89046659D01*
X139288600Y-89046656D01*
X139250152Y-88853370D01*
X139250151Y-88853369D01*
X139250151Y-88853365D01*
X139250149Y-88853360D01*
X139174735Y-88671292D01*
X139174728Y-88671279D01*
X139065239Y-88507418D01*
X139065236Y-88507414D01*
X138925885Y-88368063D01*
X138925881Y-88368060D01*
X138762020Y-88258571D01*
X138762007Y-88258564D01*
X138579939Y-88183150D01*
X138579929Y-88183147D01*
X138386643Y-88144700D01*
X138386641Y-88144700D01*
X138189559Y-88144700D01*
X138189557Y-88144700D01*
X137996270Y-88183147D01*
X137996260Y-88183150D01*
X137814192Y-88258564D01*
X137814179Y-88258571D01*
X137645253Y-88371445D01*
X137644211Y-88369886D01*
X137587936Y-88393778D01*
X137519070Y-88381975D01*
X137467517Y-88334815D01*
X137449600Y-88270609D01*
X137449600Y-80514621D01*
X137469285Y-80447582D01*
X137522089Y-80401827D01*
X137591247Y-80391883D01*
X137646486Y-80414303D01*
X137796450Y-80523259D01*
X137978768Y-80616155D01*
X138173382Y-80679390D01*
X138375483Y-80711400D01*
X138580117Y-80711400D01*
X138782217Y-80679390D01*
X138976831Y-80616155D01*
X139159149Y-80523259D01*
X139203721Y-80490874D01*
X138524247Y-79811400D01*
X138530461Y-79811400D01*
X138632194Y-79784141D01*
X138723406Y-79731480D01*
X138797880Y-79657006D01*
X138850541Y-79565794D01*
X138877800Y-79464061D01*
X138877800Y-79457848D01*
X139557274Y-80137322D01*
X139557274Y-80137321D01*
X139589659Y-80092749D01*
X139682555Y-79910431D01*
X139745790Y-79715817D01*
X139777800Y-79513717D01*
X139777800Y-79309082D01*
X139745790Y-79106982D01*
X139682555Y-78912368D01*
X139589659Y-78730050D01*
X139557274Y-78685477D01*
X139557274Y-78685476D01*
X138877800Y-79364951D01*
X138877800Y-79358739D01*
X138850541Y-79257006D01*
X138797880Y-79165794D01*
X138723406Y-79091320D01*
X138632194Y-79038659D01*
X138530461Y-79011400D01*
X138524246Y-79011400D01*
X139203722Y-78331924D01*
X139203721Y-78331923D01*
X139159159Y-78299547D01*
X139159150Y-78299541D01*
X138976831Y-78206644D01*
X138782217Y-78143409D01*
X138580117Y-78111400D01*
X138375483Y-78111400D01*
X138173382Y-78143409D01*
X137978768Y-78206644D01*
X137796447Y-78299542D01*
X137646485Y-78408496D01*
X137580679Y-78431976D01*
X137512625Y-78416151D01*
X137463930Y-78366045D01*
X137449600Y-78308178D01*
X137449600Y-75495439D01*
X137429120Y-75419009D01*
X137429117Y-75419004D01*
X137389564Y-75350495D01*
X137389558Y-75350487D01*
X134348862Y-72309791D01*
X134315377Y-72248468D01*
X134320361Y-72178776D01*
X134321962Y-72174706D01*
X134359851Y-72083235D01*
X134398300Y-71889941D01*
X134398300Y-71692859D01*
X134398300Y-71692856D01*
X134359852Y-71499570D01*
X134359851Y-71499569D01*
X134359851Y-71499565D01*
X134359849Y-71499560D01*
X134284435Y-71317492D01*
X134284428Y-71317479D01*
X134174939Y-71153618D01*
X134174936Y-71153614D01*
X134035585Y-71014263D01*
X134035581Y-71014260D01*
X133871720Y-70904771D01*
X133871707Y-70904764D01*
X133689639Y-70829350D01*
X133689629Y-70829347D01*
X133496343Y-70790900D01*
X133496341Y-70790900D01*
X133299259Y-70790900D01*
X133299257Y-70790900D01*
X133105970Y-70829347D01*
X133105960Y-70829350D01*
X132923892Y-70904764D01*
X132923879Y-70904771D01*
X132760018Y-71014260D01*
X132760014Y-71014263D01*
X132620663Y-71153614D01*
X132620660Y-71153618D01*
X132511171Y-71317479D01*
X132511164Y-71317492D01*
X132435750Y-71499560D01*
X132435747Y-71499570D01*
X132397300Y-71692856D01*
X132397300Y-71692859D01*
X132397300Y-71889941D01*
X132397300Y-71889943D01*
X132397299Y-71889943D01*
X132435747Y-72083229D01*
X132435750Y-72083239D01*
X132511164Y-72265307D01*
X132511171Y-72265320D01*
X132620660Y-72429181D01*
X132620663Y-72429185D01*
X132760014Y-72568536D01*
X132760018Y-72568539D01*
X132923879Y-72678028D01*
X132923892Y-72678035D01*
X133068544Y-72737951D01*
X133105965Y-72753451D01*
X133105969Y-72753451D01*
X133105970Y-72753452D01*
X133299256Y-72791900D01*
X133299259Y-72791900D01*
X133496343Y-72791900D01*
X133633083Y-72764700D01*
X133689635Y-72753451D01*
X133791950Y-72711070D01*
X133861414Y-72703602D01*
X133923894Y-72734876D01*
X133927080Y-72737951D01*
X136812281Y-75623152D01*
X136845766Y-75684475D01*
X136848600Y-75710833D01*
X136848600Y-78222882D01*
X136828915Y-78289921D01*
X136776111Y-78335676D01*
X136706953Y-78345620D01*
X136651714Y-78323200D01*
X136619149Y-78299540D01*
X136436831Y-78206644D01*
X136242217Y-78143409D01*
X136040117Y-78111400D01*
X135835483Y-78111400D01*
X135633382Y-78143409D01*
X135438768Y-78206644D01*
X135256450Y-78299540D01*
X135112686Y-78403992D01*
X135046879Y-78427472D01*
X134978825Y-78411647D01*
X134930130Y-78361541D01*
X134915800Y-78303674D01*
X134915800Y-75005576D01*
X134935485Y-74938537D01*
X134952119Y-74917895D01*
X135015800Y-74854214D01*
X135081692Y-74740086D01*
X135115800Y-74612792D01*
X135115800Y-74481008D01*
X135081692Y-74353714D01*
X135015800Y-74239586D01*
X134922614Y-74146400D01*
X134865550Y-74113454D01*
X134808487Y-74080508D01*
X134724775Y-74058078D01*
X134681192Y-74046400D01*
X134549408Y-74046400D01*
X134422112Y-74080508D01*
X134307986Y-74146400D01*
X134307983Y-74146402D01*
X134214802Y-74239583D01*
X134214800Y-74239586D01*
X134148908Y-74353712D01*
X134140067Y-74386709D01*
X134114800Y-74481008D01*
X134114800Y-74612792D01*
X134117811Y-74624028D01*
X134148908Y-74740087D01*
X134181854Y-74797150D01*
X134214800Y-74854214D01*
X134214802Y-74854216D01*
X134278481Y-74917895D01*
X134311966Y-74979218D01*
X134314800Y-75005576D01*
X134314800Y-78227386D01*
X134295115Y-78294425D01*
X134242311Y-78340180D01*
X134173153Y-78350124D01*
X134117915Y-78327705D01*
X134079148Y-78299539D01*
X133896831Y-78206644D01*
X133702217Y-78143409D01*
X133500117Y-78111400D01*
X133295483Y-78111400D01*
X133093382Y-78143409D01*
X132898768Y-78206644D01*
X132716447Y-78299542D01*
X132625185Y-78365848D01*
X132559379Y-78389328D01*
X132491325Y-78373503D01*
X132442630Y-78323397D01*
X132428300Y-78265530D01*
X132428300Y-73021839D01*
X132407820Y-72945409D01*
X132407817Y-72945404D01*
X132368264Y-72876895D01*
X132368258Y-72876887D01*
X131806606Y-72315235D01*
X131773121Y-72253912D01*
X131778105Y-72184220D01*
X131779710Y-72180143D01*
X131819851Y-72083235D01*
X131858300Y-71889941D01*
X131858300Y-71692859D01*
X131858300Y-71692856D01*
X131819852Y-71499570D01*
X131819851Y-71499569D01*
X131819851Y-71499565D01*
X131819849Y-71499560D01*
X131744435Y-71317492D01*
X131744428Y-71317479D01*
X131634939Y-71153618D01*
X131634936Y-71153614D01*
X131495585Y-71014263D01*
X131495581Y-71014260D01*
X131331720Y-70904771D01*
X131331707Y-70904764D01*
X131149639Y-70829350D01*
X131149629Y-70829347D01*
X130956343Y-70790900D01*
X130956341Y-70790900D01*
X130759259Y-70790900D01*
X130759257Y-70790900D01*
X130565970Y-70829347D01*
X130565960Y-70829350D01*
X130383892Y-70904764D01*
X130383879Y-70904771D01*
X130220018Y-71014260D01*
X130220014Y-71014263D01*
X130080663Y-71153614D01*
X130080660Y-71153618D01*
X129971171Y-71317479D01*
X129971164Y-71317492D01*
X129895750Y-71499560D01*
X129895747Y-71499570D01*
X129857300Y-71692856D01*
X129857300Y-71692859D01*
X129857300Y-71889941D01*
X129857300Y-71889943D01*
X129857299Y-71889943D01*
X129895747Y-72083229D01*
X129895750Y-72083239D01*
X129971164Y-72265307D01*
X129971171Y-72265320D01*
X130080660Y-72429181D01*
X130080663Y-72429185D01*
X130220014Y-72568536D01*
X130220018Y-72568539D01*
X130383879Y-72678028D01*
X130383892Y-72678035D01*
X130528544Y-72737951D01*
X130565965Y-72753451D01*
X130565969Y-72753451D01*
X130565970Y-72753452D01*
X130759256Y-72791900D01*
X130759259Y-72791900D01*
X130956343Y-72791900D01*
X131093083Y-72764700D01*
X131149635Y-72753451D01*
X131246502Y-72713326D01*
X131315969Y-72705857D01*
X131378449Y-72737131D01*
X131381635Y-72740206D01*
X131790981Y-73149552D01*
X131824466Y-73210875D01*
X131827300Y-73237233D01*
X131827300Y-78265530D01*
X131807615Y-78332569D01*
X131754811Y-78378324D01*
X131685653Y-78388268D01*
X131630415Y-78365848D01*
X131539152Y-78299542D01*
X131356831Y-78206644D01*
X131162217Y-78143409D01*
X130960117Y-78111400D01*
X130755483Y-78111400D01*
X130553382Y-78143409D01*
X130358768Y-78206644D01*
X130176444Y-78299543D01*
X130131877Y-78331923D01*
X130131877Y-78331924D01*
X130811353Y-79011400D01*
X130805139Y-79011400D01*
X130703406Y-79038659D01*
X130612194Y-79091320D01*
X130537720Y-79165794D01*
X130485059Y-79257006D01*
X130457800Y-79358739D01*
X130457800Y-79364953D01*
X129778324Y-78685477D01*
X129761460Y-78686804D01*
X129742275Y-78701598D01*
X129672661Y-78707574D01*
X129610867Y-78674966D01*
X129579585Y-78625049D01*
X129552158Y-78542280D01*
X129552156Y-78542275D01*
X129460115Y-78393054D01*
X129336145Y-78269084D01*
X129186924Y-78177043D01*
X129186919Y-78177041D01*
X129020497Y-78121894D01*
X129020490Y-78121893D01*
X128917786Y-78111400D01*
X128567800Y-78111400D01*
X128567800Y-79095714D01*
X128563406Y-79091320D01*
X128472194Y-79038659D01*
X128370461Y-79011400D01*
X128265139Y-79011400D01*
X128163406Y-79038659D01*
X128072194Y-79091320D01*
X128067800Y-79095714D01*
X128067800Y-78111400D01*
X127717828Y-78111400D01*
X127717812Y-78111401D01*
X127615102Y-78121894D01*
X127448680Y-78177041D01*
X127448675Y-78177043D01*
X127299454Y-78269084D01*
X127175484Y-78393054D01*
X127083443Y-78542275D01*
X127083441Y-78542280D01*
X127028294Y-78708702D01*
X127028293Y-78708709D01*
X127017800Y-78811413D01*
X127017800Y-79161400D01*
X128002114Y-79161400D01*
X127997720Y-79165794D01*
X127945059Y-79257006D01*
X127917800Y-79358739D01*
X127917800Y-79464061D01*
X127945059Y-79565794D01*
X127997720Y-79657006D01*
X128002114Y-79661400D01*
X127017801Y-79661400D01*
X127017801Y-80011386D01*
X127028294Y-80114097D01*
X127083441Y-80280519D01*
X127083443Y-80280524D01*
X127175484Y-80429745D01*
X127299454Y-80553715D01*
X127448675Y-80645756D01*
X127448680Y-80645758D01*
X127615102Y-80700905D01*
X127615109Y-80700906D01*
X127717819Y-80711399D01*
X128067799Y-80711399D01*
X128067800Y-80711398D01*
X128067800Y-79727086D01*
X128072194Y-79731480D01*
X128163406Y-79784141D01*
X128265139Y-79811400D01*
X128370461Y-79811400D01*
X128472194Y-79784141D01*
X128563406Y-79731480D01*
X128567800Y-79727086D01*
X128567800Y-80711399D01*
X128917772Y-80711399D01*
X128917786Y-80711398D01*
X129020497Y-80700905D01*
X129186919Y-80645758D01*
X129186924Y-80645756D01*
X129336145Y-80553715D01*
X129460115Y-80429745D01*
X129552156Y-80280524D01*
X129552159Y-80280517D01*
X129579585Y-80197749D01*
X129619356Y-80140304D01*
X129683872Y-80113480D01*
X129752648Y-80125794D01*
X129765025Y-80136275D01*
X129778324Y-80137322D01*
X130457800Y-79457846D01*
X130457800Y-79464061D01*
X130485059Y-79565794D01*
X130537720Y-79657006D01*
X130612194Y-79731480D01*
X130703406Y-79784141D01*
X130805139Y-79811400D01*
X130811352Y-79811400D01*
X130131876Y-80490874D01*
X130176450Y-80523259D01*
X130358768Y-80616155D01*
X130553382Y-80679390D01*
X130755483Y-80711400D01*
X130960117Y-80711400D01*
X131162217Y-80679390D01*
X131356831Y-80616155D01*
X131539149Y-80523259D01*
X131630414Y-80456951D01*
X131696220Y-80433471D01*
X131764274Y-80449296D01*
X131812969Y-80499401D01*
X131827300Y-80557269D01*
X131827300Y-93222962D01*
X131847779Y-93299389D01*
X131867531Y-93333600D01*
X131867531Y-93333602D01*
X131887335Y-93367904D01*
X131887341Y-93367912D01*
X134085381Y-95565952D01*
X134118866Y-95627275D01*
X134121700Y-95653633D01*
X134121700Y-95743691D01*
X134155808Y-95870987D01*
X134188754Y-95928050D01*
X134221700Y-95985114D01*
X134314886Y-96078300D01*
X134429014Y-96144192D01*
X134556308Y-96178300D01*
X134556310Y-96178300D01*
X134688090Y-96178300D01*
X134688092Y-96178300D01*
X134815386Y-96144192D01*
X134929514Y-96078300D01*
X135022700Y-95985114D01*
X135088592Y-95870986D01*
X135122700Y-95743692D01*
X135122700Y-95742333D01*
X135123023Y-95741229D01*
X135123761Y-95735632D01*
X135124633Y-95735746D01*
X135128938Y-95721087D01*
X135130518Y-95698999D01*
X135138590Y-95688215D01*
X135142385Y-95675294D01*
X135159118Y-95660794D01*
X135172390Y-95643066D01*
X135185010Y-95638358D01*
X135195189Y-95629539D01*
X135217106Y-95626387D01*
X135237854Y-95618649D01*
X135251014Y-95621511D01*
X135264347Y-95619595D01*
X135284490Y-95628794D01*
X135306127Y-95633501D01*
X135323852Y-95646769D01*
X135327903Y-95648620D01*
X135334381Y-95654652D01*
X135411281Y-95731552D01*
X135444766Y-95792875D01*
X135447600Y-95819233D01*
X135447600Y-103260700D01*
X135427915Y-103327739D01*
X135375111Y-103373494D01*
X135323600Y-103384700D01*
X135143830Y-103384700D01*
X135113400Y-103387553D01*
X135113398Y-103387553D01*
X134985219Y-103432406D01*
X134985217Y-103432407D01*
X134875950Y-103513050D01*
X134795307Y-103622317D01*
X134795306Y-103622319D01*
X134750453Y-103750498D01*
X134750453Y-103750500D01*
X134747600Y-103780930D01*
X134747600Y-104989469D01*
X134750453Y-105019899D01*
X134750453Y-105019901D01*
X134794073Y-105144556D01*
X134795307Y-105148082D01*
X134875950Y-105257350D01*
X134985218Y-105337993D01*
X135011673Y-105347250D01*
X135113399Y-105382846D01*
X135143830Y-105385700D01*
X135143834Y-105385700D01*
X135323600Y-105385700D01*
X135390639Y-105405385D01*
X135436394Y-105458189D01*
X135447600Y-105509700D01*
X135447600Y-118684162D01*
X135461252Y-118735113D01*
X135468079Y-118760590D01*
X135468082Y-118760595D01*
X135507635Y-118829104D01*
X135507641Y-118829112D01*
X142547792Y-125869263D01*
X142581277Y-125930586D01*
X142576293Y-126000278D01*
X142574673Y-126004395D01*
X142534548Y-126101268D01*
X142534547Y-126101271D01*
X142496100Y-126294556D01*
X142496100Y-126294559D01*
X142496100Y-126491641D01*
X142496100Y-126491643D01*
X142496099Y-126491643D01*
X142534547Y-126684929D01*
X142534550Y-126684939D01*
X142609964Y-126867007D01*
X142609971Y-126867020D01*
X142719460Y-127030881D01*
X142719463Y-127030885D01*
X142858814Y-127170236D01*
X142858818Y-127170239D01*
X143022679Y-127279728D01*
X143022692Y-127279735D01*
X143172426Y-127341756D01*
X143204765Y-127355151D01*
X143204769Y-127355151D01*
X143204770Y-127355152D01*
X143398056Y-127393600D01*
X143469567Y-127393600D01*
X143536606Y-127413285D01*
X143582361Y-127466089D01*
X143592305Y-127535247D01*
X143563280Y-127598803D01*
X143557248Y-127605281D01*
X143403141Y-127759387D01*
X143403135Y-127759395D01*
X143363582Y-127827904D01*
X143363579Y-127827909D01*
X143351869Y-127871613D01*
X143343100Y-127904338D01*
X143343100Y-131406362D01*
X143358091Y-131462309D01*
X143363578Y-131482786D01*
X143363580Y-131482791D01*
X143368252Y-131490882D01*
X143368254Y-131490890D01*
X143368256Y-131490889D01*
X143403139Y-131551309D01*
X143403141Y-131551312D01*
X146162681Y-134310852D01*
X146196166Y-134372175D01*
X146199000Y-134398533D01*
X146199000Y-139292123D01*
X146179315Y-139359162D01*
X146162682Y-139379804D01*
X146099000Y-139443486D01*
X146033108Y-139557612D01*
X146002911Y-139670311D01*
X145999000Y-139684908D01*
X145999000Y-139816692D01*
X146006519Y-139844754D01*
X146033108Y-139943987D01*
X146049311Y-139972050D01*
X146099000Y-140058114D01*
X146192186Y-140151300D01*
X146306314Y-140217192D01*
X146433608Y-140251300D01*
X146433610Y-140251300D01*
X146565390Y-140251300D01*
X146565392Y-140251300D01*
X146692686Y-140217192D01*
X146806814Y-140151300D01*
X146855619Y-140102495D01*
X146916942Y-140069010D01*
X146986634Y-140073994D01*
X147042567Y-140115866D01*
X147066984Y-140181330D01*
X147067300Y-140190176D01*
X147067300Y-141222419D01*
X147047615Y-141289458D01*
X146994811Y-141335213D01*
X146943804Y-141346418D01*
X127466190Y-141425630D01*
X127443773Y-141419146D01*
X127420528Y-141417116D01*
X127410838Y-141409621D01*
X127399071Y-141406218D01*
X127383718Y-141388645D01*
X127365261Y-141374369D01*
X127358094Y-141359315D01*
X127353102Y-141353601D01*
X127348836Y-141343130D01*
X127347190Y-141338495D01*
X127339880Y-141311213D01*
X127327822Y-141266212D01*
X127311444Y-141237845D01*
X127307650Y-141227161D01*
X127306608Y-141208459D01*
X127300500Y-141185662D01*
X127300500Y-140158676D01*
X127320185Y-140091637D01*
X127336819Y-140070995D01*
X127364263Y-140043551D01*
X127400500Y-140007314D01*
X127466392Y-139893186D01*
X127500500Y-139765892D01*
X127500500Y-139634108D01*
X127466392Y-139506814D01*
X127400500Y-139392686D01*
X127336818Y-139329004D01*
X127303334Y-139267680D01*
X127300500Y-139241323D01*
X127300500Y-128079629D01*
X129557300Y-128079629D01*
X129557300Y-129888160D01*
X129557301Y-129888166D01*
X129560154Y-129918600D01*
X129560154Y-129918602D01*
X129560155Y-129918603D01*
X129560155Y-129918605D01*
X129605006Y-130046782D01*
X129685649Y-130156050D01*
X129730455Y-130189118D01*
X129794917Y-130236693D01*
X129837644Y-130251644D01*
X129923098Y-130281546D01*
X129930123Y-130282204D01*
X129953533Y-130284400D01*
X131762066Y-130284399D01*
X131792500Y-130281546D01*
X131920683Y-130236693D01*
X132029950Y-130156050D01*
X132110593Y-130046783D01*
X132135408Y-129975866D01*
X132155446Y-129918602D01*
X132155446Y-129918600D01*
X132158300Y-129888167D01*
X132158299Y-128079634D01*
X132155446Y-128049200D01*
X132110593Y-127921017D01*
X132098283Y-127904338D01*
X132029950Y-127811749D01*
X131928417Y-127736815D01*
X131920683Y-127731107D01*
X131920681Y-127731106D01*
X131792501Y-127686253D01*
X131762070Y-127683400D01*
X129953539Y-127683400D01*
X129939551Y-127684711D01*
X129923100Y-127686254D01*
X129923097Y-127686254D01*
X129923096Y-127686255D01*
X129923094Y-127686255D01*
X129794917Y-127731106D01*
X129685649Y-127811749D01*
X129605006Y-127921018D01*
X129560153Y-128049197D01*
X129560153Y-128049199D01*
X129557300Y-128079629D01*
X127300500Y-128079629D01*
X127300500Y-122999629D01*
X129557300Y-122999629D01*
X129557300Y-124808160D01*
X129557301Y-124808166D01*
X129560154Y-124838600D01*
X129560154Y-124838602D01*
X129560155Y-124838603D01*
X129560155Y-124838605D01*
X129605006Y-124966782D01*
X129685649Y-125076050D01*
X129730455Y-125109118D01*
X129794917Y-125156693D01*
X129837644Y-125171644D01*
X129923098Y-125201546D01*
X129930123Y-125202204D01*
X129953533Y-125204400D01*
X131762066Y-125204399D01*
X131792500Y-125201546D01*
X131920683Y-125156693D01*
X132029950Y-125076050D01*
X132110593Y-124966783D01*
X132143889Y-124871629D01*
X132155446Y-124838602D01*
X132155446Y-124838600D01*
X132155603Y-124836924D01*
X132158300Y-124808167D01*
X132158299Y-122999634D01*
X132155446Y-122969200D01*
X132110593Y-122841017D01*
X132057067Y-122768492D01*
X132029950Y-122731749D01*
X131955923Y-122677115D01*
X131920683Y-122651107D01*
X131920681Y-122651106D01*
X131792501Y-122606253D01*
X131762070Y-122603400D01*
X129953539Y-122603400D01*
X129939551Y-122604711D01*
X129923100Y-122606254D01*
X129923097Y-122606254D01*
X129923096Y-122606255D01*
X129923094Y-122606255D01*
X129794917Y-122651106D01*
X129685649Y-122731749D01*
X129605006Y-122841018D01*
X129560153Y-122969197D01*
X129560153Y-122969199D01*
X129557300Y-122999629D01*
X127300500Y-122999629D01*
X127300500Y-108092708D01*
X133088899Y-108092708D01*
X133088899Y-108224491D01*
X133123007Y-108351787D01*
X133146909Y-108393186D01*
X133188899Y-108465914D01*
X133188901Y-108465916D01*
X133252580Y-108529595D01*
X133286065Y-108590918D01*
X133288899Y-108617276D01*
X133288899Y-138237861D01*
X133299873Y-138278817D01*
X133309377Y-138314286D01*
X133330805Y-138351401D01*
X133348937Y-138382807D01*
X133348941Y-138382812D01*
X135009681Y-140043552D01*
X135043166Y-140104875D01*
X135046000Y-140131232D01*
X135046000Y-140221292D01*
X135058446Y-140267740D01*
X135080108Y-140348587D01*
X135101300Y-140385292D01*
X135146000Y-140462714D01*
X135239186Y-140555900D01*
X135353314Y-140621792D01*
X135480608Y-140655900D01*
X135480610Y-140655900D01*
X135612390Y-140655900D01*
X135612392Y-140655900D01*
X135739686Y-140621792D01*
X135853814Y-140555900D01*
X135947000Y-140462714D01*
X136012892Y-140348586D01*
X136047000Y-140221292D01*
X136047000Y-140089508D01*
X136012892Y-139962214D01*
X135947000Y-139848086D01*
X135853814Y-139754900D01*
X135775129Y-139709471D01*
X135739687Y-139689008D01*
X135669907Y-139670311D01*
X135612392Y-139654900D01*
X135522333Y-139654900D01*
X135455294Y-139635215D01*
X135434652Y-139618581D01*
X133926218Y-138110147D01*
X133892733Y-138048824D01*
X133889899Y-138022466D01*
X133889899Y-136651643D01*
X142496099Y-136651643D01*
X142534547Y-136844929D01*
X142534550Y-136844939D01*
X142609964Y-137027007D01*
X142609971Y-137027020D01*
X142719460Y-137190881D01*
X142719463Y-137190885D01*
X142858814Y-137330236D01*
X142858818Y-137330239D01*
X143022679Y-137439728D01*
X143022692Y-137439735D01*
X143204760Y-137515149D01*
X143204765Y-137515151D01*
X143204769Y-137515151D01*
X143204770Y-137515152D01*
X143398056Y-137553600D01*
X143398059Y-137553600D01*
X143595143Y-137553600D01*
X143725182Y-137527732D01*
X143788435Y-137515151D01*
X143970514Y-137439732D01*
X144134382Y-137330239D01*
X144273739Y-137190882D01*
X144383232Y-137027014D01*
X144458651Y-136844935D01*
X144485044Y-136712250D01*
X144497100Y-136651643D01*
X144497100Y-136454556D01*
X144458652Y-136261270D01*
X144458651Y-136261269D01*
X144458651Y-136261265D01*
X144393300Y-136103492D01*
X144383235Y-136079192D01*
X144383228Y-136079179D01*
X144273739Y-135915318D01*
X144273736Y-135915314D01*
X144134385Y-135775963D01*
X144134381Y-135775960D01*
X143970520Y-135666471D01*
X143970507Y-135666464D01*
X143788439Y-135591050D01*
X143788429Y-135591047D01*
X143595143Y-135552600D01*
X143595141Y-135552600D01*
X143398059Y-135552600D01*
X143398057Y-135552600D01*
X143204770Y-135591047D01*
X143204760Y-135591050D01*
X143022692Y-135666464D01*
X143022679Y-135666471D01*
X142858818Y-135775960D01*
X142858814Y-135775963D01*
X142719463Y-135915314D01*
X142719460Y-135915318D01*
X142609971Y-136079179D01*
X142609964Y-136079192D01*
X142534550Y-136261260D01*
X142534547Y-136261270D01*
X142496100Y-136454556D01*
X142496100Y-136454559D01*
X142496100Y-136651641D01*
X142496100Y-136651643D01*
X142496099Y-136651643D01*
X133889899Y-136651643D01*
X133889899Y-108617276D01*
X133909584Y-108550237D01*
X133926218Y-108529595D01*
X133989899Y-108465914D01*
X134055791Y-108351786D01*
X134089899Y-108224492D01*
X134089899Y-108092708D01*
X134055791Y-107965414D01*
X133989899Y-107851286D01*
X133896713Y-107758100D01*
X133823070Y-107715582D01*
X133782586Y-107692208D01*
X133705107Y-107671448D01*
X133655291Y-107658100D01*
X133523507Y-107658100D01*
X133396211Y-107692208D01*
X133282085Y-107758100D01*
X133282082Y-107758102D01*
X133188901Y-107851283D01*
X133188899Y-107851286D01*
X133123007Y-107965412D01*
X133088899Y-108092708D01*
X127300500Y-108092708D01*
X127300500Y-103971032D01*
X127320185Y-103903993D01*
X127336814Y-103883356D01*
X129964365Y-101255804D01*
X130025686Y-101222321D01*
X130095378Y-101227305D01*
X130099454Y-101228909D01*
X130196365Y-101269051D01*
X130196369Y-101269051D01*
X130196370Y-101269052D01*
X130389656Y-101307500D01*
X130389659Y-101307500D01*
X130586743Y-101307500D01*
X130716782Y-101281632D01*
X130780035Y-101269051D01*
X130962114Y-101193632D01*
X131125982Y-101084139D01*
X131265339Y-100944782D01*
X131374832Y-100780914D01*
X131450251Y-100598835D01*
X131488700Y-100405541D01*
X131488700Y-100208459D01*
X131488700Y-100208456D01*
X131450252Y-100015170D01*
X131450251Y-100015169D01*
X131450251Y-100015165D01*
X131450249Y-100015160D01*
X131374835Y-99833092D01*
X131374828Y-99833079D01*
X131265339Y-99669218D01*
X131265336Y-99669214D01*
X131125985Y-99529863D01*
X131125981Y-99529860D01*
X130962120Y-99420371D01*
X130962107Y-99420364D01*
X130780039Y-99344950D01*
X130780029Y-99344947D01*
X130586743Y-99306500D01*
X130586741Y-99306500D01*
X130389659Y-99306500D01*
X130389657Y-99306500D01*
X130196370Y-99344947D01*
X130196360Y-99344950D01*
X130014292Y-99420364D01*
X130014279Y-99420371D01*
X129850418Y-99529860D01*
X129850414Y-99529863D01*
X129711063Y-99669214D01*
X129711060Y-99669218D01*
X129601571Y-99833079D01*
X129601564Y-99833092D01*
X129526150Y-100015160D01*
X129526147Y-100015170D01*
X129487700Y-100208456D01*
X129487700Y-100208459D01*
X129487700Y-100405541D01*
X129487700Y-100405543D01*
X129487699Y-100405543D01*
X129526147Y-100598829D01*
X129526150Y-100598839D01*
X129566272Y-100695702D01*
X129573741Y-100765171D01*
X129542466Y-100827650D01*
X129539392Y-100830835D01*
X126815489Y-103554740D01*
X126759541Y-103610687D01*
X126759535Y-103610695D01*
X126719982Y-103679204D01*
X126719979Y-103679209D01*
X126709711Y-103717529D01*
X126700877Y-103750501D01*
X126699500Y-103755639D01*
X126699500Y-139241323D01*
X126679815Y-139308362D01*
X126663182Y-139329004D01*
X126599500Y-139392686D01*
X126533608Y-139506812D01*
X126499500Y-139634108D01*
X126499500Y-139765891D01*
X126533608Y-139893187D01*
X126557457Y-139934494D01*
X126599500Y-140007314D01*
X126599502Y-140007316D01*
X126663181Y-140070995D01*
X126677884Y-140097922D01*
X126694477Y-140123741D01*
X126695368Y-140129941D01*
X126696666Y-140132318D01*
X126699500Y-140158676D01*
X126699500Y-140309567D01*
X126679815Y-140376606D01*
X126627011Y-140422361D01*
X126557853Y-140432305D01*
X126494297Y-140403280D01*
X126487819Y-140397248D01*
X126423852Y-140333281D01*
X126423846Y-140333276D01*
X126412306Y-140326614D01*
X126355330Y-140293719D01*
X126355329Y-140293718D01*
X126311253Y-140281908D01*
X126278901Y-140273239D01*
X125657523Y-140273239D01*
X125578399Y-140273239D01*
X125501971Y-140293717D01*
X125433450Y-140333279D01*
X125433447Y-140333281D01*
X124364446Y-141402281D01*
X124303123Y-141435766D01*
X124277269Y-141438599D01*
X120268012Y-141454904D01*
X120200893Y-141435492D01*
X120154924Y-141382875D01*
X120143509Y-141330898D01*
X120145391Y-123801548D01*
X121937300Y-123801548D01*
X121937300Y-124006251D01*
X121969322Y-124208434D01*
X122032581Y-124403123D01*
X122067882Y-124472403D01*
X122115361Y-124565586D01*
X122125515Y-124585513D01*
X122245828Y-124751113D01*
X122390586Y-124895871D01*
X122537197Y-125002388D01*
X122556190Y-125016187D01*
X122738581Y-125109120D01*
X122846652Y-125144234D01*
X122851618Y-125145848D01*
X122909294Y-125185286D01*
X122936492Y-125249644D01*
X122937300Y-125263779D01*
X122937300Y-127624021D01*
X122917615Y-127691060D01*
X122864811Y-127736815D01*
X122851618Y-127741952D01*
X122738578Y-127778681D01*
X122556186Y-127871615D01*
X122390586Y-127991928D01*
X122245828Y-128136686D01*
X122125515Y-128302286D01*
X122032581Y-128484676D01*
X121969322Y-128679365D01*
X121937300Y-128881548D01*
X121937300Y-129086251D01*
X121969322Y-129288434D01*
X122032581Y-129483123D01*
X122125515Y-129665513D01*
X122245828Y-129831113D01*
X122390586Y-129975871D01*
X122545549Y-130088456D01*
X122556190Y-130096187D01*
X122672407Y-130155403D01*
X122738576Y-130189118D01*
X122738578Y-130189118D01*
X122738581Y-130189120D01*
X122842937Y-130223027D01*
X122933265Y-130252377D01*
X123034357Y-130268388D01*
X123135448Y-130284400D01*
X123135449Y-130284400D01*
X123340151Y-130284400D01*
X123340152Y-130284400D01*
X123542334Y-130252377D01*
X123737019Y-130189120D01*
X123919410Y-130096187D01*
X124012390Y-130028632D01*
X124085013Y-129975871D01*
X124085015Y-129975868D01*
X124085019Y-129975866D01*
X124229766Y-129831119D01*
X124229768Y-129831115D01*
X124229771Y-129831113D01*
X124282532Y-129758490D01*
X124350087Y-129665510D01*
X124443020Y-129483119D01*
X124506277Y-129288434D01*
X124538300Y-129086252D01*
X124538300Y-128881548D01*
X124518421Y-128756040D01*
X124506277Y-128679365D01*
X124443018Y-128484676D01*
X124395089Y-128390612D01*
X124350087Y-128302290D01*
X124342356Y-128291649D01*
X124229771Y-128136686D01*
X124085013Y-127991928D01*
X123919413Y-127871615D01*
X123919412Y-127871614D01*
X123919410Y-127871613D01*
X123737019Y-127778680D01*
X123623982Y-127741952D01*
X123566306Y-127702514D01*
X123539108Y-127638156D01*
X123538300Y-127624021D01*
X123538300Y-125263779D01*
X123557985Y-125196740D01*
X123610789Y-125150985D01*
X123623982Y-125145848D01*
X123627792Y-125144609D01*
X123737019Y-125109120D01*
X123919410Y-125016187D01*
X124025939Y-124938790D01*
X124085013Y-124895871D01*
X124085015Y-124895868D01*
X124085019Y-124895866D01*
X124229766Y-124751119D01*
X124229768Y-124751115D01*
X124229771Y-124751113D01*
X124335162Y-124606052D01*
X124350087Y-124585510D01*
X124443020Y-124403119D01*
X124506277Y-124208434D01*
X124538300Y-124006252D01*
X124538300Y-123801548D01*
X124506277Y-123599366D01*
X124443020Y-123404681D01*
X124443018Y-123404678D01*
X124443018Y-123404676D01*
X124388458Y-123297597D01*
X124350087Y-123222290D01*
X124311364Y-123168992D01*
X124229771Y-123056686D01*
X124085013Y-122911928D01*
X123919413Y-122791615D01*
X123919412Y-122791614D01*
X123919410Y-122791613D01*
X123862453Y-122762591D01*
X123737023Y-122698681D01*
X123542334Y-122635422D01*
X123358171Y-122606254D01*
X123340152Y-122603400D01*
X123135448Y-122603400D01*
X123117435Y-122606253D01*
X122933265Y-122635422D01*
X122738576Y-122698681D01*
X122556186Y-122791615D01*
X122390586Y-122911928D01*
X122245828Y-123056686D01*
X122125515Y-123222286D01*
X122032581Y-123404676D01*
X121969322Y-123599365D01*
X121937300Y-123801548D01*
X120145391Y-123801548D01*
X120148462Y-95204682D01*
X129188200Y-95204682D01*
X129188200Y-95409317D01*
X129220209Y-95611417D01*
X129283444Y-95806031D01*
X129376341Y-95988350D01*
X129376347Y-95988359D01*
X129408723Y-96032921D01*
X129408724Y-96032922D01*
X130088200Y-95353446D01*
X130088200Y-95359661D01*
X130115459Y-95461394D01*
X130168120Y-95552606D01*
X130242594Y-95627080D01*
X130333806Y-95679741D01*
X130435539Y-95707000D01*
X130441753Y-95707000D01*
X129762276Y-96386474D01*
X129806850Y-96418859D01*
X129989168Y-96511755D01*
X130183782Y-96574990D01*
X130385883Y-96607000D01*
X130590517Y-96607000D01*
X130792617Y-96574990D01*
X130987231Y-96511755D01*
X131169549Y-96418859D01*
X131214121Y-96386474D01*
X130534647Y-95707000D01*
X130540861Y-95707000D01*
X130642594Y-95679741D01*
X130733806Y-95627080D01*
X130808280Y-95552606D01*
X130860941Y-95461394D01*
X130888200Y-95359661D01*
X130888200Y-95353448D01*
X131567674Y-96032922D01*
X131567674Y-96032921D01*
X131600059Y-95988349D01*
X131692955Y-95806031D01*
X131756190Y-95611417D01*
X131788200Y-95409317D01*
X131788200Y-95204682D01*
X131756190Y-95002582D01*
X131692955Y-94807968D01*
X131600059Y-94625650D01*
X131567674Y-94581077D01*
X131567674Y-94581076D01*
X130888200Y-95260551D01*
X130888200Y-95254339D01*
X130860941Y-95152606D01*
X130808280Y-95061394D01*
X130733806Y-94986920D01*
X130642594Y-94934259D01*
X130540861Y-94907000D01*
X130534646Y-94907000D01*
X131214122Y-94227524D01*
X131214121Y-94227523D01*
X131169559Y-94195147D01*
X131169550Y-94195141D01*
X130987231Y-94102244D01*
X130792617Y-94039009D01*
X130590517Y-94007000D01*
X130385883Y-94007000D01*
X130183782Y-94039009D01*
X129989168Y-94102244D01*
X129806844Y-94195143D01*
X129762277Y-94227523D01*
X129762277Y-94227524D01*
X130441754Y-94907000D01*
X130435539Y-94907000D01*
X130333806Y-94934259D01*
X130242594Y-94986920D01*
X130168120Y-95061394D01*
X130115459Y-95152606D01*
X130088200Y-95254339D01*
X130088200Y-95260553D01*
X129408724Y-94581077D01*
X129408723Y-94581077D01*
X129376343Y-94625644D01*
X129283444Y-94807968D01*
X129220209Y-95002582D01*
X129188200Y-95204682D01*
X120148462Y-95204682D01*
X120150966Y-71889943D01*
X127317299Y-71889943D01*
X127355747Y-72083229D01*
X127355750Y-72083239D01*
X127431164Y-72265307D01*
X127431171Y-72265320D01*
X127540660Y-72429181D01*
X127540663Y-72429185D01*
X127680014Y-72568536D01*
X127680018Y-72568539D01*
X127843879Y-72678028D01*
X127843892Y-72678035D01*
X127988544Y-72737951D01*
X128025965Y-72753451D01*
X128025969Y-72753451D01*
X128025970Y-72753452D01*
X128219256Y-72791900D01*
X128219259Y-72791900D01*
X128416343Y-72791900D01*
X128553083Y-72764700D01*
X128609635Y-72753451D01*
X128791714Y-72678032D01*
X128955582Y-72568539D01*
X129094939Y-72429182D01*
X129204432Y-72265314D01*
X129279851Y-72083235D01*
X129318300Y-71889941D01*
X129318300Y-71692859D01*
X129318300Y-71692856D01*
X129279852Y-71499570D01*
X129279851Y-71499569D01*
X129279851Y-71499565D01*
X129279849Y-71499560D01*
X129204435Y-71317492D01*
X129204428Y-71317479D01*
X129094939Y-71153618D01*
X129094936Y-71153614D01*
X128955585Y-71014263D01*
X128955581Y-71014260D01*
X128791720Y-70904771D01*
X128791707Y-70904764D01*
X128609639Y-70829350D01*
X128609629Y-70829347D01*
X128416343Y-70790900D01*
X128416341Y-70790900D01*
X128219259Y-70790900D01*
X128219257Y-70790900D01*
X128025970Y-70829347D01*
X128025960Y-70829350D01*
X127843892Y-70904764D01*
X127843879Y-70904771D01*
X127680018Y-71014260D01*
X127680014Y-71014263D01*
X127540663Y-71153614D01*
X127540660Y-71153618D01*
X127431171Y-71317479D01*
X127431164Y-71317492D01*
X127355750Y-71499560D01*
X127355747Y-71499570D01*
X127317300Y-71692856D01*
X127317300Y-71692859D01*
X127317300Y-71889941D01*
X127317300Y-71889943D01*
X127317299Y-71889943D01*
X120150966Y-71889943D01*
X120151127Y-70393156D01*
X145597302Y-70393156D01*
X145597302Y-70734667D01*
X145635536Y-71074004D01*
X145635538Y-71074020D01*
X145711528Y-71406956D01*
X145711532Y-71406968D01*
X145824317Y-71729287D01*
X145824326Y-71729309D01*
X145972488Y-72036971D01*
X145972492Y-72036977D01*
X146154182Y-72326134D01*
X146313030Y-72525323D01*
X146347493Y-72568539D01*
X146367105Y-72593131D01*
X146608583Y-72834609D01*
X146875580Y-73047532D01*
X147135538Y-73210875D01*
X147164742Y-73229225D01*
X147472404Y-73377387D01*
X147472413Y-73377390D01*
X147472420Y-73377394D01*
X147472426Y-73377396D01*
X147794745Y-73490181D01*
X147794757Y-73490185D01*
X148127697Y-73566176D01*
X148467047Y-73604411D01*
X148467048Y-73604412D01*
X148467051Y-73604412D01*
X148808556Y-73604412D01*
X148808556Y-73604411D01*
X149147907Y-73566176D01*
X149480847Y-73490185D01*
X149803184Y-73377394D01*
X149927988Y-73317292D01*
X149965114Y-73299413D01*
X164507300Y-73299413D01*
X164507300Y-73488386D01*
X164536859Y-73675018D01*
X164595254Y-73854736D01*
X164681040Y-74023099D01*
X164792110Y-74175973D01*
X164925727Y-74309590D01*
X165078601Y-74420660D01*
X165158147Y-74461190D01*
X165246963Y-74506445D01*
X165246965Y-74506445D01*
X165246968Y-74506447D01*
X165343297Y-74537746D01*
X165426681Y-74564840D01*
X165613314Y-74594400D01*
X165613319Y-74594400D01*
X165802286Y-74594400D01*
X165988918Y-74564840D01*
X166168632Y-74506447D01*
X166336999Y-74420660D01*
X166489873Y-74309590D01*
X166623490Y-74175973D01*
X166734560Y-74023099D01*
X166820347Y-73854732D01*
X166878740Y-73675018D01*
X166881778Y-73655834D01*
X166908300Y-73488386D01*
X166908300Y-73299413D01*
X166878740Y-73112781D01*
X166849190Y-73021838D01*
X166820347Y-72933068D01*
X166820345Y-72933065D01*
X166820345Y-72933063D01*
X166763215Y-72820940D01*
X166734560Y-72764701D01*
X166623490Y-72611827D01*
X166489873Y-72478210D01*
X166336999Y-72367140D01*
X166168636Y-72281354D01*
X165988918Y-72222959D01*
X165802286Y-72193400D01*
X165802281Y-72193400D01*
X165613319Y-72193400D01*
X165613314Y-72193400D01*
X165426681Y-72222959D01*
X165246963Y-72281354D01*
X165078600Y-72367140D01*
X165042892Y-72393084D01*
X164925727Y-72478210D01*
X164925725Y-72478212D01*
X164925724Y-72478212D01*
X164792112Y-72611824D01*
X164792112Y-72611825D01*
X164792110Y-72611827D01*
X164744410Y-72677479D01*
X164681040Y-72764700D01*
X164595254Y-72933063D01*
X164536859Y-73112781D01*
X164507300Y-73299413D01*
X149965114Y-73299413D01*
X150110861Y-73229225D01*
X150110861Y-73229224D01*
X150110867Y-73229222D01*
X150179860Y-73185871D01*
X150208624Y-73167796D01*
X150400024Y-73047532D01*
X150667021Y-72834609D01*
X150908499Y-72593131D01*
X151121422Y-72326134D01*
X151303112Y-72036977D01*
X151451284Y-71729294D01*
X151564075Y-71406957D01*
X151640066Y-71074017D01*
X151678302Y-70734663D01*
X151678302Y-70393161D01*
X151640066Y-70053807D01*
X151564075Y-69720867D01*
X151451284Y-69398530D01*
X151451280Y-69398523D01*
X151451277Y-69398514D01*
X151303115Y-69090852D01*
X151163169Y-68868130D01*
X151121422Y-68801690D01*
X150908499Y-68534693D01*
X150667021Y-68293215D01*
X150400024Y-68080292D01*
X150110867Y-67898602D01*
X150110868Y-67898602D01*
X150110861Y-67898598D01*
X149803199Y-67750436D01*
X149803177Y-67750427D01*
X149480858Y-67637642D01*
X149480846Y-67637638D01*
X149147910Y-67561648D01*
X149147894Y-67561646D01*
X148808557Y-67523412D01*
X148808553Y-67523412D01*
X148467051Y-67523412D01*
X148467046Y-67523412D01*
X148127709Y-67561646D01*
X148127693Y-67561648D01*
X147794757Y-67637638D01*
X147794745Y-67637642D01*
X147472426Y-67750427D01*
X147472404Y-67750436D01*
X147164742Y-67898598D01*
X146875581Y-68080291D01*
X146608583Y-68293214D01*
X146367104Y-68534693D01*
X146154181Y-68801691D01*
X145972488Y-69090852D01*
X145824326Y-69398514D01*
X145824317Y-69398536D01*
X145711532Y-69720855D01*
X145711528Y-69720867D01*
X145635538Y-70053803D01*
X145635536Y-70053819D01*
X145597302Y-70393156D01*
X120151127Y-70393156D01*
X120151475Y-67149749D01*
X120151477Y-67149745D01*
X120151482Y-67090801D01*
X120152263Y-67076931D01*
X120158926Y-67017842D01*
X120162452Y-66986570D01*
X120168628Y-66959515D01*
X120196355Y-66880288D01*
X120208401Y-66855280D01*
X120253053Y-66784220D01*
X120270359Y-66762517D01*
X120329713Y-66703162D01*
X120351407Y-66685861D01*
X120422472Y-66641204D01*
X120447478Y-66629160D01*
X120526701Y-66601432D01*
X120553763Y-66595253D01*
X120643922Y-66585086D01*
X120657818Y-66584305D01*
X176631645Y-66584305D01*
X176645531Y-66585085D01*
G37*
%TD.AperFunction*%
%TA.AperFunction,Conductor*%
G36*
X149283734Y-105067002D02*
G01*
X149339667Y-105108874D01*
X149364084Y-105174338D01*
X149364400Y-105183184D01*
X149364400Y-106520862D01*
X149384879Y-106597289D01*
X149418384Y-106655321D01*
X149423505Y-106664192D01*
X149423507Y-106664196D01*
X149424439Y-106665811D01*
X149424441Y-106665813D01*
X151456181Y-108697552D01*
X151489666Y-108758875D01*
X151492500Y-108785233D01*
X151492500Y-109601842D01*
X151472815Y-109668881D01*
X151420011Y-109714636D01*
X151350853Y-109724580D01*
X151287297Y-109695555D01*
X151263506Y-109667814D01*
X151189524Y-109550074D01*
X151121422Y-109441690D01*
X150908499Y-109174693D01*
X150667021Y-108933215D01*
X150400024Y-108720292D01*
X150149106Y-108562629D01*
X150110861Y-108538598D01*
X149803199Y-108390436D01*
X149803177Y-108390427D01*
X149480858Y-108277642D01*
X149480846Y-108277638D01*
X149147910Y-108201648D01*
X149147894Y-108201646D01*
X148808557Y-108163412D01*
X148808553Y-108163412D01*
X148467051Y-108163412D01*
X148467046Y-108163412D01*
X148127709Y-108201646D01*
X148127693Y-108201648D01*
X147794757Y-108277638D01*
X147794745Y-108277642D01*
X147472426Y-108390427D01*
X147472404Y-108390436D01*
X147164742Y-108538598D01*
X146875581Y-108720291D01*
X146608583Y-108933214D01*
X146367104Y-109174693D01*
X146154181Y-109441691D01*
X145972488Y-109730852D01*
X145824326Y-110038514D01*
X145824317Y-110038536D01*
X145711532Y-110360855D01*
X145711528Y-110360867D01*
X145635538Y-110693803D01*
X145635536Y-110693819D01*
X145597302Y-111033156D01*
X145597302Y-111374667D01*
X145635536Y-111714004D01*
X145635538Y-111714020D01*
X145711528Y-112046956D01*
X145711532Y-112046968D01*
X145824317Y-112369287D01*
X145824326Y-112369309D01*
X145972488Y-112676971D01*
X145972492Y-112676977D01*
X146154182Y-112966134D01*
X146367105Y-113233131D01*
X146608583Y-113474609D01*
X146875580Y-113687532D01*
X147064757Y-113806400D01*
X147164742Y-113869225D01*
X147472404Y-114017387D01*
X147472413Y-114017390D01*
X147472420Y-114017394D01*
X147472426Y-114017396D01*
X147794745Y-114130181D01*
X147794757Y-114130185D01*
X148127697Y-114206176D01*
X148467047Y-114244411D01*
X148467048Y-114244412D01*
X148467051Y-114244412D01*
X148808556Y-114244412D01*
X148808556Y-114244411D01*
X149147907Y-114206176D01*
X149480847Y-114130185D01*
X149803184Y-114017394D01*
X150110867Y-113869222D01*
X150400024Y-113687532D01*
X150667021Y-113474609D01*
X150908499Y-113233131D01*
X151121422Y-112966134D01*
X151263506Y-112740008D01*
X151315841Y-112693718D01*
X151384894Y-112683070D01*
X151448743Y-112711445D01*
X151487115Y-112769834D01*
X151492500Y-112805981D01*
X151492500Y-138054923D01*
X151472815Y-138121962D01*
X151456182Y-138142604D01*
X151392500Y-138206286D01*
X151326608Y-138320412D01*
X151300219Y-138418900D01*
X151292500Y-138447708D01*
X151292500Y-138579492D01*
X151303913Y-138622086D01*
X151326608Y-138706787D01*
X151352723Y-138752018D01*
X151392500Y-138820914D01*
X151485686Y-138914100D01*
X151599814Y-138979992D01*
X151599822Y-138979994D01*
X151604149Y-138981787D01*
X151658555Y-139025625D01*
X151680624Y-139091918D01*
X151663349Y-139159618D01*
X151644384Y-139184032D01*
X151327293Y-139501123D01*
X151265970Y-139534608D01*
X151239612Y-139537442D01*
X151149554Y-139537442D01*
X151022258Y-139571550D01*
X150908132Y-139637442D01*
X150908129Y-139637444D01*
X150814948Y-139730625D01*
X150814946Y-139730628D01*
X150749054Y-139844754D01*
X150717456Y-139962681D01*
X150714946Y-139972050D01*
X150714946Y-140103834D01*
X150722578Y-140132318D01*
X150749054Y-140231129D01*
X150770192Y-140267740D01*
X150814946Y-140345256D01*
X150908132Y-140438442D01*
X151022260Y-140504334D01*
X151149554Y-140538442D01*
X151149556Y-140538442D01*
X151281336Y-140538442D01*
X151281338Y-140538442D01*
X151408632Y-140504334D01*
X151522760Y-140438442D01*
X151615946Y-140345256D01*
X151681838Y-140231128D01*
X151715946Y-140103834D01*
X151715946Y-140013774D01*
X151735631Y-139946735D01*
X151752265Y-139926093D01*
X152174659Y-139503699D01*
X152638360Y-139039999D01*
X152653313Y-139014100D01*
X152677921Y-138971477D01*
X152698400Y-138895050D01*
X152698400Y-137309184D01*
X152718085Y-137242145D01*
X152770889Y-137196390D01*
X152840047Y-137186446D01*
X152903603Y-137215471D01*
X152910081Y-137221503D01*
X153018814Y-137330236D01*
X153018818Y-137330239D01*
X153182679Y-137439728D01*
X153182692Y-137439735D01*
X153364760Y-137515149D01*
X153364765Y-137515151D01*
X153364769Y-137515151D01*
X153364770Y-137515152D01*
X153558056Y-137553600D01*
X153558059Y-137553600D01*
X153755143Y-137553600D01*
X153885182Y-137527732D01*
X153948435Y-137515151D01*
X154130514Y-137439732D01*
X154294382Y-137330239D01*
X154433739Y-137190882D01*
X154433740Y-137190881D01*
X154459098Y-137152930D01*
X154512710Y-137108125D01*
X154582035Y-137099418D01*
X154645062Y-137129572D01*
X154681782Y-137189015D01*
X154686200Y-137221821D01*
X154686200Y-139860723D01*
X154666515Y-139927762D01*
X154649882Y-139948404D01*
X154586200Y-140012086D01*
X154520308Y-140126212D01*
X154487347Y-140249226D01*
X154486200Y-140253508D01*
X154486200Y-140385292D01*
X154503254Y-140448939D01*
X154520308Y-140512587D01*
X154523604Y-140518295D01*
X154586200Y-140626714D01*
X154679386Y-140719900D01*
X154745348Y-140757983D01*
X154793399Y-140785726D01*
X154793514Y-140785792D01*
X154874494Y-140807490D01*
X154879678Y-140810649D01*
X154885734Y-140811083D01*
X154909164Y-140828622D01*
X154934155Y-140843855D01*
X154936807Y-140849315D01*
X154941668Y-140852954D01*
X154951896Y-140880378D01*
X154964684Y-140906702D01*
X154963963Y-140912729D01*
X154966085Y-140918418D01*
X154959863Y-140947016D01*
X154956389Y-140976077D01*
X154952193Y-140982276D01*
X154951233Y-140986691D01*
X154930084Y-141014944D01*
X154803289Y-141141740D01*
X154803288Y-141141740D01*
X154803287Y-141141741D01*
X154747339Y-141197689D01*
X154715262Y-141253249D01*
X154664694Y-141301464D01*
X154608379Y-141315247D01*
X147792804Y-141342965D01*
X147725685Y-141323553D01*
X147679716Y-141270936D01*
X147668300Y-141218966D01*
X147668300Y-140725187D01*
X147687985Y-140658148D01*
X147740789Y-140612393D01*
X147809947Y-140602449D01*
X147854305Y-140617803D01*
X147861211Y-140621791D01*
X147861213Y-140621791D01*
X147861214Y-140621792D01*
X147988508Y-140655900D01*
X147988510Y-140655900D01*
X148120290Y-140655900D01*
X148120292Y-140655900D01*
X148247586Y-140621792D01*
X148361714Y-140555900D01*
X148454900Y-140462714D01*
X148520792Y-140348586D01*
X148554900Y-140221292D01*
X148554900Y-140131232D01*
X148574585Y-140064193D01*
X148591219Y-140043551D01*
X149744790Y-138889980D01*
X150947312Y-137687459D01*
X150986874Y-137618936D01*
X151007352Y-137542510D01*
X151007352Y-137463386D01*
X151007352Y-120050945D01*
X151027037Y-119983906D01*
X151043671Y-119963264D01*
X151107352Y-119899583D01*
X151173244Y-119785455D01*
X151207352Y-119658161D01*
X151207352Y-119526377D01*
X151173244Y-119399083D01*
X151107352Y-119284955D01*
X151014166Y-119191769D01*
X150957102Y-119158823D01*
X150900039Y-119125877D01*
X150836391Y-119108823D01*
X150772744Y-119091769D01*
X150640960Y-119091769D01*
X150513664Y-119125877D01*
X150399538Y-119191769D01*
X150399535Y-119191771D01*
X150306354Y-119284952D01*
X150306352Y-119284955D01*
X150240460Y-119399081D01*
X150206352Y-119526377D01*
X150206352Y-119658160D01*
X150240460Y-119785456D01*
X150273406Y-119842519D01*
X150306352Y-119899583D01*
X150306354Y-119899585D01*
X150370033Y-119963264D01*
X150403518Y-120024587D01*
X150406352Y-120050945D01*
X150406352Y-137327114D01*
X150386667Y-137394153D01*
X150370033Y-137414795D01*
X148166247Y-139618581D01*
X148104924Y-139652066D01*
X148078566Y-139654900D01*
X147988508Y-139654900D01*
X147861211Y-139689008D01*
X147854299Y-139693000D01*
X147786399Y-139709471D01*
X147720372Y-139686619D01*
X147677182Y-139631697D01*
X147668300Y-139585612D01*
X147668300Y-137359084D01*
X147687985Y-137292045D01*
X147740789Y-137246290D01*
X147809947Y-137236346D01*
X147873503Y-137265371D01*
X147879981Y-137271403D01*
X147938814Y-137330236D01*
X147938818Y-137330239D01*
X148102679Y-137439728D01*
X148102692Y-137439735D01*
X148284760Y-137515149D01*
X148284765Y-137515151D01*
X148284769Y-137515151D01*
X148284770Y-137515152D01*
X148478056Y-137553600D01*
X148478059Y-137553600D01*
X148675143Y-137553600D01*
X148805182Y-137527732D01*
X148868435Y-137515151D01*
X149050514Y-137439732D01*
X149214382Y-137330239D01*
X149353739Y-137190882D01*
X149463232Y-137027014D01*
X149538651Y-136844935D01*
X149565044Y-136712250D01*
X149577100Y-136651643D01*
X149577100Y-136454556D01*
X149538652Y-136261270D01*
X149538651Y-136261269D01*
X149538651Y-136261265D01*
X149473300Y-136103492D01*
X149463235Y-136079192D01*
X149463228Y-136079179D01*
X149353739Y-135915318D01*
X149353736Y-135915314D01*
X149214385Y-135775963D01*
X149214381Y-135775960D01*
X149050520Y-135666471D01*
X149050507Y-135666464D01*
X148868439Y-135591050D01*
X148868429Y-135591047D01*
X148675143Y-135552600D01*
X148675141Y-135552600D01*
X148478059Y-135552600D01*
X148478057Y-135552600D01*
X148284770Y-135591047D01*
X148284760Y-135591050D01*
X148102692Y-135666464D01*
X148102679Y-135666471D01*
X147938818Y-135775960D01*
X147938814Y-135775963D01*
X147879981Y-135834797D01*
X147818658Y-135868282D01*
X147748966Y-135863298D01*
X147693033Y-135821426D01*
X147668616Y-135755962D01*
X147668300Y-135747116D01*
X147668300Y-131635840D01*
X147668300Y-131635838D01*
X147647822Y-131559412D01*
X147608260Y-131490889D01*
X144813019Y-128695648D01*
X144779534Y-128634325D01*
X144776700Y-128607967D01*
X144776700Y-128517910D01*
X144776700Y-128517908D01*
X144742592Y-128390614D01*
X144676700Y-128276486D01*
X144583514Y-128183300D01*
X144524458Y-128149204D01*
X144469387Y-128117408D01*
X144405739Y-128100354D01*
X144342092Y-128083300D01*
X144228533Y-128083300D01*
X144161494Y-128063615D01*
X144115739Y-128010811D01*
X144105795Y-127941653D01*
X144134820Y-127878097D01*
X144140852Y-127871619D01*
X144477224Y-127535247D01*
X144838760Y-127173711D01*
X144878322Y-127105188D01*
X144898800Y-127028762D01*
X144898800Y-126949638D01*
X144898800Y-124478338D01*
X144897209Y-124472400D01*
X144878322Y-124401912D01*
X144838760Y-124333389D01*
X141715819Y-121210448D01*
X141682334Y-121149125D01*
X141679500Y-121122767D01*
X141679500Y-120737033D01*
X141699185Y-120669994D01*
X141751989Y-120624239D01*
X141821147Y-120614295D01*
X141884703Y-120643320D01*
X141891181Y-120649352D01*
X147539781Y-126297952D01*
X147573266Y-126359275D01*
X147576100Y-126385633D01*
X147576100Y-126491641D01*
X147576100Y-126491643D01*
X147576099Y-126491643D01*
X147614547Y-126684929D01*
X147614550Y-126684939D01*
X147689964Y-126867007D01*
X147689971Y-126867020D01*
X147799460Y-127030881D01*
X147799463Y-127030885D01*
X147938814Y-127170236D01*
X147938818Y-127170239D01*
X148102679Y-127279728D01*
X148102692Y-127279735D01*
X148252426Y-127341756D01*
X148284765Y-127355151D01*
X148284769Y-127355151D01*
X148284770Y-127355152D01*
X148478056Y-127393600D01*
X148478059Y-127393600D01*
X148675143Y-127393600D01*
X148805182Y-127367732D01*
X148868435Y-127355151D01*
X149050514Y-127279732D01*
X149214382Y-127170239D01*
X149353739Y-127030882D01*
X149463232Y-126867014D01*
X149538651Y-126684935D01*
X149577100Y-126491641D01*
X149577100Y-126294559D01*
X149577100Y-126294556D01*
X149538652Y-126101270D01*
X149538651Y-126101269D01*
X149538651Y-126101265D01*
X149528200Y-126076033D01*
X149463235Y-125919192D01*
X149463228Y-125919179D01*
X149353739Y-125755318D01*
X149353736Y-125755314D01*
X149214385Y-125615963D01*
X149214381Y-125615960D01*
X149050520Y-125506471D01*
X149050507Y-125506464D01*
X148868439Y-125431050D01*
X148868429Y-125431047D01*
X148675143Y-125392600D01*
X148675141Y-125392600D01*
X148478059Y-125392600D01*
X148478057Y-125392600D01*
X148284770Y-125431047D01*
X148284760Y-125431050D01*
X148102692Y-125506464D01*
X148102679Y-125506471D01*
X147938818Y-125615960D01*
X147910954Y-125643824D01*
X147849630Y-125677308D01*
X147779939Y-125672322D01*
X147735593Y-125643822D01*
X145629385Y-123537614D01*
X145595900Y-123476291D01*
X145600884Y-123406599D01*
X145642756Y-123350666D01*
X145655066Y-123342546D01*
X145694723Y-123319649D01*
X145732914Y-123297600D01*
X145826100Y-123204414D01*
X145891992Y-123090286D01*
X145926100Y-122962992D01*
X145926100Y-122831208D01*
X145891992Y-122703914D01*
X145826100Y-122589786D01*
X145732914Y-122496600D01*
X145675850Y-122463654D01*
X145618787Y-122430708D01*
X145555139Y-122413654D01*
X145491492Y-122396600D01*
X145401433Y-122396600D01*
X145334394Y-122376915D01*
X145313752Y-122360281D01*
X145048819Y-122095348D01*
X145015334Y-122034025D01*
X145012500Y-122007667D01*
X145012500Y-108757649D01*
X145032185Y-108690610D01*
X145084989Y-108644855D01*
X145154147Y-108634911D01*
X145168580Y-108637871D01*
X145247808Y-108659100D01*
X145247810Y-108659100D01*
X145379590Y-108659100D01*
X145379592Y-108659100D01*
X145506886Y-108624992D01*
X145621014Y-108559100D01*
X145714200Y-108465914D01*
X145780092Y-108351786D01*
X145814200Y-108224492D01*
X145814200Y-108134432D01*
X145833885Y-108067393D01*
X145850519Y-108046751D01*
X146670476Y-107226794D01*
X147560160Y-106337111D01*
X147581586Y-106300000D01*
X147599721Y-106268589D01*
X147620200Y-106192162D01*
X147620200Y-105267294D01*
X147639885Y-105200255D01*
X147692689Y-105154500D01*
X147761847Y-105144556D01*
X147813091Y-105164192D01*
X147974179Y-105271828D01*
X147974192Y-105271835D01*
X148156260Y-105347249D01*
X148156265Y-105347251D01*
X148156269Y-105347251D01*
X148156270Y-105347252D01*
X148349556Y-105385700D01*
X148349559Y-105385700D01*
X148546643Y-105385700D01*
X148697801Y-105355632D01*
X148739935Y-105347251D01*
X148922014Y-105271832D01*
X149085882Y-105162339D01*
X149117019Y-105131202D01*
X149152719Y-105095503D01*
X149214042Y-105062018D01*
X149283734Y-105067002D01*
G37*
%TD.AperFunction*%
%TA.AperFunction,Conductor*%
G36*
X165254201Y-104787046D02*
G01*
X165265465Y-104787449D01*
X165285410Y-104801298D01*
X165307503Y-104811388D01*
X165315086Y-104821905D01*
X165322856Y-104827300D01*
X165338557Y-104853765D01*
X165338598Y-104853744D01*
X165339085Y-104854656D01*
X165340861Y-104857649D01*
X165341181Y-104858421D01*
X165341470Y-104859118D01*
X165341471Y-104859120D01*
X165450960Y-105022981D01*
X165450963Y-105022985D01*
X165590314Y-105162336D01*
X165590318Y-105162339D01*
X165754179Y-105271828D01*
X165754192Y-105271835D01*
X165936260Y-105347249D01*
X165936265Y-105347251D01*
X165936269Y-105347251D01*
X165936270Y-105347252D01*
X166129556Y-105385700D01*
X166129559Y-105385700D01*
X166326643Y-105385700D01*
X166477801Y-105355632D01*
X166519935Y-105347251D01*
X166702014Y-105271832D01*
X166865882Y-105162339D01*
X167005239Y-105022982D01*
X167017597Y-105004487D01*
X167071208Y-104959681D01*
X167140533Y-104950972D01*
X167203561Y-104981126D01*
X167240281Y-105040568D01*
X167244700Y-105073376D01*
X167244700Y-106414367D01*
X167225015Y-106481406D01*
X167208381Y-106502048D01*
X166204141Y-107506287D01*
X166204135Y-107506295D01*
X166164582Y-107574804D01*
X166164579Y-107574809D01*
X166163264Y-107579717D01*
X166145033Y-107647758D01*
X166144100Y-107651239D01*
X166144100Y-128061523D01*
X166124415Y-128128562D01*
X166107782Y-128149204D01*
X166044100Y-128212886D01*
X165978208Y-128327012D01*
X165944100Y-128454308D01*
X165944100Y-128586092D01*
X165957024Y-128634325D01*
X165978208Y-128713387D01*
X166002834Y-128756040D01*
X166044100Y-128827514D01*
X166137286Y-128920700D01*
X166251414Y-128986592D01*
X166378708Y-129020700D01*
X166378710Y-129020700D01*
X166510489Y-129020700D01*
X166510492Y-129020700D01*
X166589708Y-128999474D01*
X166659556Y-129001137D01*
X166717419Y-129040299D01*
X166744923Y-129104528D01*
X166745800Y-129119249D01*
X166745800Y-136225967D01*
X166726115Y-136293006D01*
X166709481Y-136313648D01*
X162367341Y-140655787D01*
X162367335Y-140655795D01*
X162327782Y-140724304D01*
X162327779Y-140724309D01*
X162307300Y-140800739D01*
X162307300Y-141160440D01*
X162287615Y-141227479D01*
X162234811Y-141273234D01*
X162183804Y-141284439D01*
X161915348Y-141285531D01*
X161848229Y-141266119D01*
X161802260Y-141213502D01*
X161792035Y-141144384D01*
X161794389Y-141132789D01*
X161794600Y-141131190D01*
X161794600Y-140999410D01*
X161794600Y-140999408D01*
X161760492Y-140872114D01*
X161694600Y-140757986D01*
X161641857Y-140705243D01*
X161608372Y-140643920D01*
X161613356Y-140574228D01*
X161655228Y-140518295D01*
X161697443Y-140497787D01*
X161742586Y-140485692D01*
X161856714Y-140419800D01*
X161949900Y-140326614D01*
X162015792Y-140212486D01*
X162049900Y-140085192D01*
X162049900Y-139953408D01*
X162015792Y-139826114D01*
X161949900Y-139711986D01*
X161895419Y-139657505D01*
X161861934Y-139596182D01*
X161859100Y-139569824D01*
X161859100Y-138530733D01*
X161878785Y-138463694D01*
X161931589Y-138417939D01*
X162000747Y-138407995D01*
X162064303Y-138437020D01*
X162070781Y-138443052D01*
X162435281Y-138807552D01*
X162468766Y-138868875D01*
X162471600Y-138895233D01*
X162471600Y-138985292D01*
X162483798Y-139030816D01*
X162505708Y-139112587D01*
X162514335Y-139127529D01*
X162571600Y-139226714D01*
X162664786Y-139319900D01*
X162732790Y-139359162D01*
X162768542Y-139379804D01*
X162778914Y-139385792D01*
X162906208Y-139419900D01*
X162906210Y-139419900D01*
X163037990Y-139419900D01*
X163037992Y-139419900D01*
X163165286Y-139385792D01*
X163279414Y-139319900D01*
X163372600Y-139226714D01*
X163438492Y-139112586D01*
X163472600Y-138985292D01*
X163472600Y-138853508D01*
X163438492Y-138726214D01*
X163372600Y-138612086D01*
X163279414Y-138518900D01*
X163183795Y-138463694D01*
X163165287Y-138453008D01*
X163101639Y-138435954D01*
X163037992Y-138418900D01*
X162947933Y-138418900D01*
X162880894Y-138399215D01*
X162860252Y-138382581D01*
X162320019Y-137842348D01*
X162286534Y-137781025D01*
X162283700Y-137754667D01*
X162283700Y-136651643D01*
X162816099Y-136651643D01*
X162854547Y-136844929D01*
X162854550Y-136844939D01*
X162929964Y-137027007D01*
X162929971Y-137027020D01*
X163039460Y-137190881D01*
X163039463Y-137190885D01*
X163178814Y-137330236D01*
X163178818Y-137330239D01*
X163342679Y-137439728D01*
X163342692Y-137439735D01*
X163524760Y-137515149D01*
X163524765Y-137515151D01*
X163524769Y-137515151D01*
X163524770Y-137515152D01*
X163718056Y-137553600D01*
X163718059Y-137553600D01*
X163915143Y-137553600D01*
X164045182Y-137527732D01*
X164108435Y-137515151D01*
X164290514Y-137439732D01*
X164454382Y-137330239D01*
X164593739Y-137190882D01*
X164703232Y-137027014D01*
X164778651Y-136844935D01*
X164805044Y-136712250D01*
X164817100Y-136651643D01*
X164817100Y-136454556D01*
X164778652Y-136261270D01*
X164778651Y-136261269D01*
X164778651Y-136261265D01*
X164713300Y-136103492D01*
X164703235Y-136079192D01*
X164703228Y-136079179D01*
X164593739Y-135915318D01*
X164593736Y-135915314D01*
X164454385Y-135775963D01*
X164454381Y-135775960D01*
X164290520Y-135666471D01*
X164290507Y-135666464D01*
X164108439Y-135591050D01*
X164108429Y-135591047D01*
X163915143Y-135552600D01*
X163915141Y-135552600D01*
X163718059Y-135552600D01*
X163718057Y-135552600D01*
X163524770Y-135591047D01*
X163524760Y-135591050D01*
X163342692Y-135666464D01*
X163342679Y-135666471D01*
X163178818Y-135775960D01*
X163178814Y-135775963D01*
X163039463Y-135915314D01*
X163039460Y-135915318D01*
X162929971Y-136079179D01*
X162929964Y-136079192D01*
X162854550Y-136261260D01*
X162854547Y-136261270D01*
X162816100Y-136454556D01*
X162816100Y-136454559D01*
X162816100Y-136651641D01*
X162816100Y-136651643D01*
X162816099Y-136651643D01*
X162283700Y-136651643D01*
X162283700Y-125584533D01*
X162303385Y-125517494D01*
X162356189Y-125471739D01*
X162425347Y-125461795D01*
X162488903Y-125490820D01*
X162495381Y-125496852D01*
X162867792Y-125869263D01*
X162901277Y-125930586D01*
X162896293Y-126000278D01*
X162894673Y-126004395D01*
X162854548Y-126101268D01*
X162854547Y-126101271D01*
X162816100Y-126294556D01*
X162816100Y-126294559D01*
X162816100Y-126491641D01*
X162816100Y-126491643D01*
X162816099Y-126491643D01*
X162854547Y-126684929D01*
X162854550Y-126684939D01*
X162929964Y-126867007D01*
X162929971Y-126867020D01*
X163039460Y-127030881D01*
X163039463Y-127030885D01*
X163178814Y-127170236D01*
X163178818Y-127170239D01*
X163342679Y-127279728D01*
X163342692Y-127279735D01*
X163492426Y-127341756D01*
X163524765Y-127355151D01*
X163524769Y-127355151D01*
X163524770Y-127355152D01*
X163718056Y-127393600D01*
X163718059Y-127393600D01*
X163915143Y-127393600D01*
X164045182Y-127367732D01*
X164108435Y-127355151D01*
X164290514Y-127279732D01*
X164454382Y-127170239D01*
X164593739Y-127030882D01*
X164703232Y-126867014D01*
X164778651Y-126684935D01*
X164817100Y-126491641D01*
X164817100Y-126294559D01*
X164817100Y-126294556D01*
X164778652Y-126101270D01*
X164778651Y-126101269D01*
X164778651Y-126101265D01*
X164768200Y-126076033D01*
X164703235Y-125919192D01*
X164703228Y-125919179D01*
X164593739Y-125755318D01*
X164593736Y-125755314D01*
X164454385Y-125615963D01*
X164454381Y-125615960D01*
X164290520Y-125506471D01*
X164290507Y-125506464D01*
X164108439Y-125431050D01*
X164108429Y-125431047D01*
X163915143Y-125392600D01*
X163915141Y-125392600D01*
X163718059Y-125392600D01*
X163718057Y-125392600D01*
X163524771Y-125431047D01*
X163524768Y-125431048D01*
X163524766Y-125431048D01*
X163524765Y-125431049D01*
X163492793Y-125444292D01*
X163427895Y-125471173D01*
X163358426Y-125478640D01*
X163295947Y-125447365D01*
X163292763Y-125444292D01*
X162756419Y-124907948D01*
X162722934Y-124846625D01*
X162720100Y-124820267D01*
X162720100Y-105131484D01*
X162739785Y-105064445D01*
X162792589Y-105018690D01*
X162861747Y-105008746D01*
X162925303Y-105037771D01*
X162931781Y-105043803D01*
X163050314Y-105162336D01*
X163050318Y-105162339D01*
X163214179Y-105271828D01*
X163214192Y-105271835D01*
X163396260Y-105347249D01*
X163396265Y-105347251D01*
X163396269Y-105347251D01*
X163396270Y-105347252D01*
X163589556Y-105385700D01*
X163589559Y-105385700D01*
X163786643Y-105385700D01*
X163937801Y-105355632D01*
X163979935Y-105347251D01*
X164162014Y-105271832D01*
X164308409Y-105174013D01*
X164375086Y-105153136D01*
X164442467Y-105171620D01*
X164489157Y-105223599D01*
X164501300Y-105277116D01*
X164501300Y-122337866D01*
X164501689Y-122339315D01*
X164501658Y-122340584D01*
X164502361Y-122345918D01*
X164501529Y-122346027D01*
X164500025Y-122409165D01*
X164489301Y-122433406D01*
X164445419Y-122509410D01*
X164445419Y-122509411D01*
X164445419Y-122509412D01*
X164445418Y-122509414D01*
X164419470Y-122606253D01*
X164411310Y-122636708D01*
X164411310Y-122768491D01*
X164445418Y-122895787D01*
X164454741Y-122911934D01*
X164511310Y-123009914D01*
X164604496Y-123103100D01*
X164718624Y-123168992D01*
X164845918Y-123203100D01*
X164845920Y-123203100D01*
X164977700Y-123203100D01*
X164977702Y-123203100D01*
X165104996Y-123168992D01*
X165219124Y-123103100D01*
X165312310Y-123009914D01*
X165378202Y-122895786D01*
X165412310Y-122768492D01*
X165412310Y-122636708D01*
X165378202Y-122509414D01*
X165312310Y-122395286D01*
X165219124Y-122302100D01*
X165215425Y-122299964D01*
X165170039Y-122254577D01*
X165152270Y-122223799D01*
X165138619Y-122210148D01*
X165105134Y-122148825D01*
X165102300Y-122122467D01*
X165102300Y-104905101D01*
X165105475Y-104894286D01*
X165104271Y-104883078D01*
X165115144Y-104861358D01*
X165121985Y-104838062D01*
X165130501Y-104830682D01*
X165135549Y-104820600D01*
X165156440Y-104808206D01*
X165174789Y-104792307D01*
X165185944Y-104790703D01*
X165195640Y-104784951D01*
X165219909Y-104785819D01*
X165243947Y-104782363D01*
X165254201Y-104787046D01*
G37*
%TD.AperFunction*%
%TA.AperFunction,Conductor*%
G36*
X144085576Y-129051855D02*
G01*
X144085747Y-129051831D01*
X144085868Y-129051855D01*
X144085921Y-129051856D01*
X144093133Y-129052903D01*
X144210308Y-129084300D01*
X144309326Y-129084300D01*
X144318188Y-129085587D01*
X144381702Y-129114702D01*
X144388048Y-129120619D01*
X147030981Y-131763552D01*
X147064466Y-131824875D01*
X147067300Y-131851233D01*
X147067300Y-139311423D01*
X147047615Y-139378462D01*
X146994811Y-139424217D01*
X146925653Y-139434161D01*
X146862097Y-139405136D01*
X146855619Y-139399104D01*
X146836319Y-139379804D01*
X146802834Y-139318481D01*
X146800000Y-139292123D01*
X146800000Y-134183140D01*
X146800000Y-134183138D01*
X146779522Y-134106712D01*
X146739960Y-134038189D01*
X143980419Y-131278648D01*
X143946934Y-131217325D01*
X143944100Y-131190967D01*
X143944100Y-129174569D01*
X143949147Y-129157379D01*
X143949173Y-129139466D01*
X143958786Y-129124553D01*
X143963785Y-129107530D01*
X143977322Y-129095799D01*
X143987030Y-129080741D01*
X144003181Y-129073392D01*
X144016589Y-129061775D01*
X144034319Y-129059225D01*
X144050627Y-129051806D01*
X144085576Y-129051855D01*
G37*
%TD.AperFunction*%
%TA.AperFunction,Conductor*%
G36*
X173448100Y-104437861D02*
G01*
X173475359Y-104539594D01*
X173528020Y-104630806D01*
X173602494Y-104705280D01*
X173693706Y-104757941D01*
X173795439Y-104785200D01*
X173801653Y-104785200D01*
X173122176Y-105464674D01*
X173166750Y-105497059D01*
X173349068Y-105589955D01*
X173543682Y-105653190D01*
X173745783Y-105685200D01*
X173950417Y-105685200D01*
X174152517Y-105653190D01*
X174347131Y-105589955D01*
X174529449Y-105497059D01*
X174574021Y-105464674D01*
X173894547Y-104785200D01*
X173900761Y-104785200D01*
X174002494Y-104757941D01*
X174093706Y-104705280D01*
X174168180Y-104630806D01*
X174220841Y-104539594D01*
X174248100Y-104437861D01*
X174248100Y-104431647D01*
X174923181Y-105106728D01*
X174956666Y-105168051D01*
X174959500Y-105194409D01*
X174959500Y-138714166D01*
X174939815Y-138781205D01*
X174923181Y-138801847D01*
X174614081Y-139110947D01*
X174552758Y-139144432D01*
X174483066Y-139139448D01*
X174427133Y-139097576D01*
X174402716Y-139032112D01*
X174402400Y-139023266D01*
X174402400Y-107945639D01*
X174398963Y-107932811D01*
X174381921Y-107869211D01*
X174368865Y-107846597D01*
X174342364Y-107800695D01*
X174342358Y-107800687D01*
X173929712Y-107388041D01*
X173929704Y-107388035D01*
X173861195Y-107348482D01*
X173861190Y-107348479D01*
X173835713Y-107341652D01*
X173784762Y-107328000D01*
X173143038Y-107328000D01*
X173104824Y-107338239D01*
X173066609Y-107348479D01*
X173066604Y-107348482D01*
X172998095Y-107388035D01*
X172998087Y-107388041D01*
X172948881Y-107437248D01*
X172887558Y-107470733D01*
X172817866Y-107465749D01*
X172761933Y-107423877D01*
X172737516Y-107358413D01*
X172737200Y-107349567D01*
X172737200Y-105193908D01*
X172756885Y-105126869D01*
X172773519Y-105106227D01*
X173448100Y-104431646D01*
X173448100Y-104437861D01*
G37*
%TD.AperFunction*%
%TA.AperFunction,Conductor*%
G36*
X172077367Y-105161664D02*
G01*
X172124057Y-105213643D01*
X172136200Y-105267160D01*
X172136200Y-108548467D01*
X172116515Y-108615506D01*
X172099881Y-108636148D01*
X172098841Y-108637187D01*
X172098835Y-108637195D01*
X172059282Y-108705704D01*
X172059279Y-108705709D01*
X172051733Y-108733871D01*
X172041186Y-108773236D01*
X172038800Y-108782139D01*
X172038800Y-137663466D01*
X172019115Y-137730505D01*
X172002481Y-137751147D01*
X171566947Y-138186681D01*
X171546613Y-138197784D01*
X171528844Y-138212658D01*
X171513519Y-138215854D01*
X171505624Y-138220166D01*
X171494814Y-138222021D01*
X171487068Y-138223000D01*
X171389208Y-138223000D01*
X171301837Y-138246410D01*
X171293448Y-138247471D01*
X171266965Y-138243200D01*
X171240142Y-138242562D01*
X171232991Y-138237722D01*
X171224470Y-138236348D01*
X171204502Y-138218439D01*
X171182280Y-138203399D01*
X171178881Y-138195461D01*
X171172455Y-138189698D01*
X171165337Y-138163833D01*
X171154777Y-138139170D01*
X171153900Y-138124450D01*
X171153900Y-112373585D01*
X171173585Y-112306546D01*
X171192505Y-112285985D01*
X171191467Y-112284947D01*
X171226900Y-112249514D01*
X171290400Y-112186014D01*
X171356292Y-112071886D01*
X171390400Y-111944592D01*
X171390400Y-111812808D01*
X171356292Y-111685514D01*
X171290400Y-111571386D01*
X171197214Y-111478200D01*
X171140150Y-111445254D01*
X171083087Y-111412308D01*
X171019439Y-111395254D01*
X170955792Y-111378200D01*
X170824008Y-111378200D01*
X170696714Y-111412308D01*
X170696713Y-111412308D01*
X170696711Y-111412309D01*
X170696710Y-111412309D01*
X170580300Y-111479519D01*
X170512400Y-111495992D01*
X170446373Y-111473139D01*
X170403182Y-111418218D01*
X170394300Y-111372132D01*
X170394300Y-109618376D01*
X170413985Y-109551337D01*
X170430619Y-109530695D01*
X170453184Y-109508130D01*
X170494300Y-109467014D01*
X170560192Y-109352886D01*
X170594300Y-109225592D01*
X170594300Y-109093808D01*
X170560192Y-108966514D01*
X170494300Y-108852386D01*
X170401114Y-108759200D01*
X170308469Y-108705711D01*
X170286987Y-108693308D01*
X170223339Y-108676254D01*
X170159692Y-108659200D01*
X170027908Y-108659200D01*
X169900612Y-108693308D01*
X169786486Y-108759200D01*
X169786483Y-108759202D01*
X169693302Y-108852383D01*
X169693300Y-108852386D01*
X169627408Y-108966512D01*
X169593300Y-109093808D01*
X169593300Y-109225592D01*
X169610354Y-109289239D01*
X169627408Y-109352887D01*
X169640025Y-109374740D01*
X169693300Y-109467014D01*
X169693302Y-109467016D01*
X169756981Y-109530695D01*
X169790466Y-109592018D01*
X169793300Y-109618376D01*
X169793300Y-125575516D01*
X169773615Y-125642555D01*
X169720811Y-125688310D01*
X169651653Y-125698254D01*
X169588097Y-125669229D01*
X169581619Y-125663197D01*
X169534385Y-125615963D01*
X169534381Y-125615960D01*
X169370520Y-125506471D01*
X169370507Y-125506464D01*
X169188439Y-125431050D01*
X169188429Y-125431047D01*
X168995143Y-125392600D01*
X168995141Y-125392600D01*
X168798059Y-125392600D01*
X168798057Y-125392600D01*
X168604770Y-125431047D01*
X168604760Y-125431050D01*
X168422692Y-125506464D01*
X168422679Y-125506471D01*
X168258818Y-125615960D01*
X168258814Y-125615963D01*
X168156681Y-125718097D01*
X168095358Y-125751582D01*
X168025666Y-125746598D01*
X167969733Y-125704726D01*
X167945316Y-125639262D01*
X167945000Y-125630416D01*
X167945000Y-108224632D01*
X167964685Y-108157593D01*
X167981314Y-108136956D01*
X170784265Y-105334004D01*
X170845586Y-105300521D01*
X170915278Y-105305505D01*
X170919354Y-105307109D01*
X171016265Y-105347251D01*
X171016269Y-105347251D01*
X171016270Y-105347252D01*
X171209556Y-105385700D01*
X171209559Y-105385700D01*
X171406643Y-105385700D01*
X171557801Y-105355632D01*
X171599935Y-105347251D01*
X171782014Y-105271832D01*
X171943309Y-105164057D01*
X172009986Y-105143180D01*
X172077367Y-105161664D01*
G37*
%TD.AperFunction*%
%TA.AperFunction,Conductor*%
G36*
X152747203Y-126840896D02*
G01*
X152769102Y-126865718D01*
X152879460Y-127030882D01*
X153018814Y-127170236D01*
X153018818Y-127170239D01*
X153182679Y-127279728D01*
X153182692Y-127279735D01*
X153332426Y-127341756D01*
X153364765Y-127355151D01*
X153364769Y-127355151D01*
X153364770Y-127355152D01*
X153558056Y-127393600D01*
X153558059Y-127393600D01*
X153755143Y-127393600D01*
X153885182Y-127367732D01*
X153948435Y-127355151D01*
X154130514Y-127279732D01*
X154294382Y-127170239D01*
X154433739Y-127030882D01*
X154433740Y-127030881D01*
X154459098Y-126992930D01*
X154512710Y-126948125D01*
X154582035Y-126939418D01*
X154645062Y-126969572D01*
X154681782Y-127029015D01*
X154686200Y-127061821D01*
X154686200Y-135884378D01*
X154666515Y-135951417D01*
X154613711Y-135997172D01*
X154544553Y-136007116D01*
X154480997Y-135978091D01*
X154459098Y-135953270D01*
X154433736Y-135915314D01*
X154294385Y-135775963D01*
X154294381Y-135775960D01*
X154130520Y-135666471D01*
X154130507Y-135666464D01*
X153948439Y-135591050D01*
X153948429Y-135591047D01*
X153755143Y-135552600D01*
X153755141Y-135552600D01*
X153558059Y-135552600D01*
X153558057Y-135552600D01*
X153364770Y-135591047D01*
X153364760Y-135591050D01*
X153182692Y-135666464D01*
X153182679Y-135666471D01*
X153018818Y-135775960D01*
X153018814Y-135775963D01*
X152879463Y-135915314D01*
X152879460Y-135915318D01*
X152769102Y-136080481D01*
X152715490Y-136125286D01*
X152646165Y-136133993D01*
X152583137Y-136103839D01*
X152546418Y-136044396D01*
X152542000Y-136011590D01*
X152542000Y-126934609D01*
X152561685Y-126867570D01*
X152614489Y-126821815D01*
X152683647Y-126811871D01*
X152747203Y-126840896D01*
G37*
%TD.AperFunction*%
%TA.AperFunction,Conductor*%
G36*
X168073314Y-127034962D02*
G01*
X168086647Y-127033046D01*
X168106790Y-127042245D01*
X168128427Y-127046952D01*
X168146152Y-127060220D01*
X168150203Y-127062071D01*
X168156681Y-127068103D01*
X168258814Y-127170236D01*
X168258818Y-127170239D01*
X168422679Y-127279728D01*
X168422692Y-127279735D01*
X168572426Y-127341756D01*
X168604765Y-127355151D01*
X168604769Y-127355151D01*
X168604770Y-127355152D01*
X168798056Y-127393600D01*
X168798059Y-127393600D01*
X168995143Y-127393600D01*
X169125182Y-127367732D01*
X169188435Y-127355151D01*
X169370514Y-127279732D01*
X169534382Y-127170239D01*
X169548837Y-127155784D01*
X169581619Y-127123003D01*
X169642942Y-127089518D01*
X169712634Y-127094502D01*
X169768567Y-127136374D01*
X169792984Y-127201838D01*
X169793300Y-127210684D01*
X169793300Y-135735516D01*
X169773615Y-135802555D01*
X169720811Y-135848310D01*
X169651653Y-135858254D01*
X169588097Y-135829229D01*
X169581619Y-135823197D01*
X169534385Y-135775963D01*
X169534381Y-135775960D01*
X169370520Y-135666471D01*
X169370507Y-135666464D01*
X169188439Y-135591050D01*
X169188429Y-135591047D01*
X168995143Y-135552600D01*
X168995141Y-135552600D01*
X168798059Y-135552600D01*
X168798057Y-135552600D01*
X168604770Y-135591047D01*
X168604760Y-135591050D01*
X168422692Y-135666464D01*
X168422679Y-135666471D01*
X168258818Y-135775960D01*
X168258814Y-135775963D01*
X168156681Y-135878097D01*
X168095358Y-135911582D01*
X168025666Y-135906598D01*
X167969733Y-135864726D01*
X167945316Y-135799262D01*
X167945000Y-135790416D01*
X167945000Y-127155784D01*
X167951238Y-127134538D01*
X167952818Y-127112450D01*
X167960890Y-127101666D01*
X167964685Y-127088745D01*
X167981418Y-127074245D01*
X167994690Y-127056517D01*
X168007310Y-127051809D01*
X168017489Y-127042990D01*
X168039406Y-127039838D01*
X168060154Y-127032100D01*
X168073314Y-127034962D01*
G37*
%TD.AperFunction*%
%TA.AperFunction,Conductor*%
G36*
X158014301Y-109122255D02*
G01*
X158091608Y-109166889D01*
X158091609Y-109166889D01*
X158091614Y-109166892D01*
X158218908Y-109201000D01*
X158218910Y-109201000D01*
X158308967Y-109201000D01*
X158376006Y-109220685D01*
X158396648Y-109237319D01*
X160820081Y-111660752D01*
X160853566Y-111722075D01*
X160856400Y-111748433D01*
X160856400Y-128593567D01*
X160836715Y-128660606D01*
X160820081Y-128681248D01*
X160689341Y-128811987D01*
X160689335Y-128811995D01*
X160649782Y-128880504D01*
X160649779Y-128880509D01*
X160629300Y-128956939D01*
X160629300Y-135084462D01*
X160609615Y-135151501D01*
X160556811Y-135197256D01*
X160487653Y-135207200D01*
X160424097Y-135178175D01*
X160417619Y-135172143D01*
X160375116Y-135129640D01*
X160375114Y-135129638D01*
X160296867Y-135084462D01*
X160260987Y-135063746D01*
X160197339Y-135046692D01*
X160133692Y-135029638D01*
X160001908Y-135029638D01*
X159874612Y-135063746D01*
X159760486Y-135129638D01*
X159760483Y-135129640D01*
X159667302Y-135222821D01*
X159667300Y-135222824D01*
X159601408Y-135336950D01*
X159567300Y-135464246D01*
X159567300Y-135596029D01*
X159583997Y-135658345D01*
X159582334Y-135728195D01*
X159543171Y-135786058D01*
X159478942Y-135813561D01*
X159410040Y-135801974D01*
X159376541Y-135778119D01*
X159374385Y-135775963D01*
X159374381Y-135775960D01*
X159210520Y-135666471D01*
X159210507Y-135666464D01*
X159028439Y-135591050D01*
X159028429Y-135591047D01*
X158835143Y-135552600D01*
X158835141Y-135552600D01*
X158638059Y-135552600D01*
X158638057Y-135552600D01*
X158444770Y-135591047D01*
X158444760Y-135591050D01*
X158262692Y-135666464D01*
X158262679Y-135666471D01*
X158098818Y-135775960D01*
X158098814Y-135775963D01*
X158039981Y-135834797D01*
X157978658Y-135868282D01*
X157908966Y-135863298D01*
X157853033Y-135821426D01*
X157828616Y-135755962D01*
X157828300Y-135747116D01*
X157828300Y-127199084D01*
X157847985Y-127132045D01*
X157900789Y-127086290D01*
X157969947Y-127076346D01*
X158033503Y-127105371D01*
X158039981Y-127111403D01*
X158098814Y-127170236D01*
X158098818Y-127170239D01*
X158262679Y-127279728D01*
X158262692Y-127279735D01*
X158412426Y-127341756D01*
X158444765Y-127355151D01*
X158444769Y-127355151D01*
X158444770Y-127355152D01*
X158638056Y-127393600D01*
X158638059Y-127393600D01*
X158835143Y-127393600D01*
X158965182Y-127367732D01*
X159028435Y-127355151D01*
X159210514Y-127279732D01*
X159374382Y-127170239D01*
X159513739Y-127030882D01*
X159623232Y-126867014D01*
X159698651Y-126684935D01*
X159737100Y-126491641D01*
X159737100Y-126294559D01*
X159737100Y-126294556D01*
X159698652Y-126101270D01*
X159698651Y-126101269D01*
X159698651Y-126101265D01*
X159688200Y-126076033D01*
X159623235Y-125919192D01*
X159623228Y-125919179D01*
X159513739Y-125755318D01*
X159513736Y-125755314D01*
X159374385Y-125615963D01*
X159374381Y-125615960D01*
X159210520Y-125506471D01*
X159210507Y-125506464D01*
X159028439Y-125431050D01*
X159028429Y-125431047D01*
X158835143Y-125392600D01*
X158835141Y-125392600D01*
X158638059Y-125392600D01*
X158638057Y-125392600D01*
X158444770Y-125431047D01*
X158444760Y-125431050D01*
X158262692Y-125506464D01*
X158262679Y-125506471D01*
X158098818Y-125615960D01*
X158098814Y-125615963D01*
X158039981Y-125674797D01*
X157978658Y-125708282D01*
X157908966Y-125703298D01*
X157853033Y-125661426D01*
X157828616Y-125595962D01*
X157828300Y-125587116D01*
X157828300Y-109229641D01*
X157847985Y-109162602D01*
X157900789Y-109116847D01*
X157969947Y-109106903D01*
X158014301Y-109122255D01*
G37*
%TD.AperFunction*%
%TA.AperFunction,Conductor*%
G36*
X142421707Y-104845590D02*
G01*
X142422847Y-104845427D01*
X142453678Y-104859507D01*
X142484717Y-104873018D01*
X142485728Y-104874143D01*
X142486403Y-104874452D01*
X142508302Y-104899274D01*
X142590960Y-105022982D01*
X142730314Y-105162336D01*
X142730318Y-105162339D01*
X142894179Y-105271828D01*
X142894192Y-105271835D01*
X143076260Y-105347249D01*
X143076265Y-105347251D01*
X143175228Y-105366936D01*
X143237139Y-105399320D01*
X143271713Y-105460036D01*
X143275037Y-105488553D01*
X143275037Y-107525475D01*
X143255352Y-107592514D01*
X143238719Y-107613156D01*
X143175037Y-107676838D01*
X143109145Y-107790964D01*
X143075037Y-107918260D01*
X143075037Y-108050043D01*
X143109145Y-108177339D01*
X143136368Y-108224490D01*
X143175037Y-108291466D01*
X143268223Y-108384652D01*
X143382351Y-108450544D01*
X143509645Y-108484652D01*
X143509647Y-108484652D01*
X143641427Y-108484652D01*
X143641429Y-108484652D01*
X143768723Y-108450544D01*
X143882851Y-108384652D01*
X143976037Y-108291466D01*
X144041929Y-108177338D01*
X144076037Y-108050044D01*
X144076037Y-107918260D01*
X144041929Y-107790966D01*
X143976037Y-107676838D01*
X143912355Y-107613156D01*
X143878871Y-107551832D01*
X143876037Y-107525475D01*
X143876037Y-105315377D01*
X143895722Y-105248338D01*
X143931144Y-105212276D01*
X144005882Y-105162339D01*
X144145239Y-105022982D01*
X144184398Y-104964377D01*
X144238010Y-104919572D01*
X144307335Y-104910865D01*
X144370363Y-104941019D01*
X144407082Y-105000462D01*
X144411500Y-105033268D01*
X144411500Y-122020367D01*
X144391815Y-122087406D01*
X144339011Y-122133161D01*
X144269853Y-122143105D01*
X144206297Y-122114080D01*
X144199819Y-122108048D01*
X142317519Y-120225748D01*
X142284034Y-120164425D01*
X142281200Y-120138067D01*
X142281200Y-104968165D01*
X142290743Y-104935664D01*
X142299705Y-104902998D01*
X142300561Y-104902228D01*
X142300885Y-104901126D01*
X142326469Y-104878957D01*
X142351684Y-104856308D01*
X142352820Y-104856123D01*
X142353689Y-104855371D01*
X142387220Y-104850549D01*
X142420654Y-104845132D01*
X142421707Y-104845590D01*
G37*
%TD.AperFunction*%
%TA.AperFunction,Conductor*%
G36*
X160222883Y-104864233D02*
G01*
X160237412Y-104865272D01*
X160254277Y-104877897D01*
X160273595Y-104886306D01*
X160290192Y-104904784D01*
X160293345Y-104907144D01*
X160297180Y-104912563D01*
X160370960Y-105022981D01*
X160370963Y-105022985D01*
X160510314Y-105162336D01*
X160510318Y-105162339D01*
X160674179Y-105271828D01*
X160674192Y-105271835D01*
X160856260Y-105347249D01*
X160856265Y-105347251D01*
X160856269Y-105347251D01*
X160856270Y-105347252D01*
X161049556Y-105385700D01*
X161049559Y-105385700D01*
X161246643Y-105385700D01*
X161397801Y-105355632D01*
X161439935Y-105347251D01*
X161511248Y-105317711D01*
X161580716Y-105310243D01*
X161643195Y-105341518D01*
X161678848Y-105401606D01*
X161682700Y-105432273D01*
X161682700Y-110523167D01*
X161663015Y-110590206D01*
X161610211Y-110635961D01*
X161541053Y-110645905D01*
X161477497Y-110616880D01*
X161471019Y-110610848D01*
X157505858Y-106645687D01*
X157497698Y-106631392D01*
X157487028Y-106621499D01*
X157479226Y-106599031D01*
X157473454Y-106588919D01*
X157470300Y-106576667D01*
X157470300Y-106571908D01*
X157439089Y-106455428D01*
X157438957Y-106454913D01*
X157440112Y-106420568D01*
X157440930Y-106386244D01*
X157441285Y-106385718D01*
X157441307Y-106385083D01*
X157460843Y-106356820D01*
X157480092Y-106328381D01*
X157480676Y-106328130D01*
X157481037Y-106327609D01*
X157512738Y-106314401D01*
X157544321Y-106300877D01*
X157545345Y-106300815D01*
X157545533Y-106300738D01*
X157545813Y-106300788D01*
X157559042Y-106300000D01*
X158615260Y-106300000D01*
X158615262Y-106300000D01*
X158691689Y-106279521D01*
X158760211Y-106239960D01*
X158816160Y-106184011D01*
X160106399Y-104893771D01*
X160124886Y-104883677D01*
X160140561Y-104869597D01*
X160154938Y-104867267D01*
X160167720Y-104860288D01*
X160188734Y-104861790D01*
X160209531Y-104858421D01*
X160222883Y-104864233D01*
G37*
%TD.AperFunction*%
%TA.AperFunction,Conductor*%
G36*
X172942403Y-89598534D02*
G01*
X172964302Y-89623356D01*
X173070960Y-89782981D01*
X173070963Y-89782985D01*
X173210314Y-89922336D01*
X173210318Y-89922339D01*
X173374179Y-90031828D01*
X173374192Y-90031835D01*
X173524288Y-90094006D01*
X173556265Y-90107251D01*
X173556269Y-90107251D01*
X173556270Y-90107252D01*
X173749556Y-90145700D01*
X173749559Y-90145700D01*
X173946643Y-90145700D01*
X174109595Y-90113286D01*
X174139935Y-90107251D01*
X174236802Y-90067126D01*
X174306269Y-90059657D01*
X174368749Y-90090931D01*
X174371935Y-90094006D01*
X174923181Y-90645252D01*
X174956666Y-90706575D01*
X174959500Y-90732933D01*
X174959500Y-103575989D01*
X174939815Y-103643028D01*
X174923181Y-103663670D01*
X174248100Y-104338751D01*
X174248100Y-104332539D01*
X174220841Y-104230806D01*
X174168180Y-104139594D01*
X174093706Y-104065120D01*
X174002494Y-104012459D01*
X173900761Y-103985200D01*
X173894546Y-103985200D01*
X174574022Y-103305724D01*
X174574021Y-103305723D01*
X174529459Y-103273347D01*
X174529450Y-103273341D01*
X174347131Y-103180444D01*
X174152517Y-103117209D01*
X173950417Y-103085200D01*
X173745783Y-103085200D01*
X173543682Y-103117209D01*
X173349068Y-103180444D01*
X173166744Y-103273343D01*
X173122177Y-103305723D01*
X173122177Y-103305724D01*
X173801654Y-103985200D01*
X173795439Y-103985200D01*
X173693706Y-104012459D01*
X173602494Y-104065120D01*
X173528020Y-104139594D01*
X173475359Y-104230806D01*
X173448100Y-104332539D01*
X173448100Y-104338752D01*
X172773519Y-103664171D01*
X172758815Y-103637243D01*
X172742223Y-103611425D01*
X172741331Y-103605224D01*
X172740034Y-103602848D01*
X172737200Y-103576490D01*
X172737200Y-89692247D01*
X172756885Y-89625208D01*
X172809689Y-89579453D01*
X172878847Y-89569509D01*
X172942403Y-89598534D01*
G37*
%TD.AperFunction*%
%TA.AperFunction,Conductor*%
G36*
X146978063Y-89599699D02*
G01*
X147014782Y-89659142D01*
X147019200Y-89691948D01*
X147019200Y-103838451D01*
X146999515Y-103905490D01*
X146946711Y-103951245D01*
X146877553Y-103961189D01*
X146813997Y-103932164D01*
X146792098Y-103907342D01*
X146685239Y-103747418D01*
X146685236Y-103747414D01*
X146545885Y-103608063D01*
X146545881Y-103608060D01*
X146382020Y-103498571D01*
X146382007Y-103498564D01*
X146199939Y-103423150D01*
X146199929Y-103423147D01*
X146006643Y-103384700D01*
X146006641Y-103384700D01*
X145809559Y-103384700D01*
X145809557Y-103384700D01*
X145616270Y-103423147D01*
X145616260Y-103423150D01*
X145434192Y-103498564D01*
X145434179Y-103498571D01*
X145270318Y-103608060D01*
X145270314Y-103608063D01*
X145224181Y-103654197D01*
X145162858Y-103687682D01*
X145093166Y-103682698D01*
X145037233Y-103640826D01*
X145012816Y-103575362D01*
X145012500Y-103566516D01*
X145012500Y-90517132D01*
X145032185Y-90450093D01*
X145048815Y-90429455D01*
X145384265Y-90094004D01*
X145445586Y-90060521D01*
X145515277Y-90065505D01*
X145519354Y-90067109D01*
X145616265Y-90107251D01*
X145616269Y-90107251D01*
X145616270Y-90107252D01*
X145809556Y-90145700D01*
X145809559Y-90145700D01*
X146006643Y-90145700D01*
X146169595Y-90113286D01*
X146199935Y-90107251D01*
X146382014Y-90031832D01*
X146545882Y-89922339D01*
X146685239Y-89782982D01*
X146746066Y-89691948D01*
X146792098Y-89623057D01*
X146845710Y-89578252D01*
X146915035Y-89569545D01*
X146978063Y-89599699D01*
G37*
%TD.AperFunction*%
%TA.AperFunction,Conductor*%
G36*
X150111280Y-88326863D02*
G01*
X150121364Y-88325597D01*
X150144240Y-88336541D01*
X150168568Y-88343685D01*
X150175221Y-88351363D01*
X150184392Y-88355751D01*
X150197722Y-88377330D01*
X150214323Y-88396489D01*
X150215769Y-88406546D01*
X150221111Y-88415194D01*
X150220658Y-88440550D01*
X150224267Y-88465647D01*
X150220012Y-88476750D01*
X150219864Y-88485053D01*
X150204631Y-88516891D01*
X150101471Y-88671279D01*
X150101464Y-88671292D01*
X150026050Y-88853360D01*
X150026047Y-88853370D01*
X149987600Y-89046656D01*
X149987600Y-89046659D01*
X149987600Y-89243741D01*
X149987600Y-89243743D01*
X149987599Y-89243743D01*
X150026047Y-89437029D01*
X150026050Y-89437039D01*
X150101464Y-89619107D01*
X150101471Y-89619120D01*
X150210960Y-89782981D01*
X150210963Y-89782985D01*
X150350314Y-89922336D01*
X150350318Y-89922339D01*
X150514179Y-90031828D01*
X150514192Y-90031835D01*
X150664288Y-90094006D01*
X150696265Y-90107251D01*
X150696269Y-90107251D01*
X150696270Y-90107252D01*
X150889556Y-90145700D01*
X150889559Y-90145700D01*
X151086643Y-90145700D01*
X151249595Y-90113286D01*
X151279935Y-90107251D01*
X151376802Y-90067126D01*
X151446269Y-90059657D01*
X151508749Y-90090931D01*
X151511935Y-90094006D01*
X151904681Y-90486752D01*
X151938166Y-90548075D01*
X151941000Y-90574433D01*
X151941000Y-103623816D01*
X151921315Y-103690855D01*
X151868511Y-103736610D01*
X151799353Y-103746554D01*
X151735797Y-103717529D01*
X151729319Y-103711497D01*
X151625885Y-103608063D01*
X151625881Y-103608060D01*
X151462020Y-103498571D01*
X151462007Y-103498564D01*
X151279939Y-103423150D01*
X151279929Y-103423147D01*
X151086643Y-103384700D01*
X151086641Y-103384700D01*
X150889559Y-103384700D01*
X150889557Y-103384700D01*
X150696270Y-103423147D01*
X150696260Y-103423150D01*
X150514192Y-103498564D01*
X150514179Y-103498571D01*
X150350318Y-103608060D01*
X150350314Y-103608063D01*
X150210963Y-103747414D01*
X150210960Y-103747418D01*
X150192502Y-103775043D01*
X150138889Y-103819848D01*
X150069564Y-103828555D01*
X150006537Y-103798400D01*
X149969818Y-103738957D01*
X149965400Y-103706152D01*
X149965400Y-90322439D01*
X149963846Y-90316640D01*
X149944921Y-90246011D01*
X149938009Y-90234039D01*
X149905364Y-90177495D01*
X149905358Y-90177487D01*
X149396906Y-89669035D01*
X149363421Y-89607712D01*
X149368405Y-89538020D01*
X149370010Y-89533943D01*
X149410151Y-89437035D01*
X149448600Y-89243741D01*
X149448600Y-89046659D01*
X149448600Y-89046656D01*
X149410152Y-88853370D01*
X149410151Y-88853369D01*
X149410151Y-88853365D01*
X149410149Y-88853360D01*
X149334735Y-88671292D01*
X149334728Y-88671279D01*
X149231569Y-88516891D01*
X149210691Y-88450213D01*
X149229176Y-88382833D01*
X149281154Y-88336143D01*
X149334671Y-88324000D01*
X150101529Y-88324000D01*
X150111280Y-88326863D01*
G37*
%TD.AperFunction*%
%TA.AperFunction,Conductor*%
G36*
X164442467Y-89931620D02*
G01*
X164489157Y-89983599D01*
X164501300Y-90037116D01*
X164501300Y-103493283D01*
X164481615Y-103560322D01*
X164428811Y-103606077D01*
X164359653Y-103616021D01*
X164308409Y-103596385D01*
X164162020Y-103498571D01*
X164162007Y-103498564D01*
X163979939Y-103423150D01*
X163979929Y-103423147D01*
X163786643Y-103384700D01*
X163786641Y-103384700D01*
X163589559Y-103384700D01*
X163589557Y-103384700D01*
X163396270Y-103423147D01*
X163396260Y-103423150D01*
X163214192Y-103498564D01*
X163214179Y-103498571D01*
X163050318Y-103608060D01*
X163050314Y-103608063D01*
X162931781Y-103726597D01*
X162870458Y-103760082D01*
X162800766Y-103755098D01*
X162744833Y-103713226D01*
X162720416Y-103647762D01*
X162720100Y-103638916D01*
X162720100Y-94758876D01*
X162739785Y-94691837D01*
X162756419Y-94671195D01*
X162820100Y-94607514D01*
X162885992Y-94493386D01*
X162920100Y-94366092D01*
X162920100Y-94234308D01*
X162885992Y-94107014D01*
X162820100Y-93992886D01*
X162726914Y-93899700D01*
X162669850Y-93866754D01*
X162612787Y-93833808D01*
X162549139Y-93816754D01*
X162485492Y-93799700D01*
X162353708Y-93799700D01*
X162226412Y-93833808D01*
X162112286Y-93899700D01*
X162112283Y-93899702D01*
X162019102Y-93992883D01*
X162019100Y-93992886D01*
X161953208Y-94107012D01*
X161919100Y-94234308D01*
X161919100Y-94366091D01*
X161953208Y-94493387D01*
X161985987Y-94550160D01*
X162019100Y-94607514D01*
X162019102Y-94607516D01*
X162082781Y-94671195D01*
X162116266Y-94732518D01*
X162119100Y-94758876D01*
X162119100Y-103641916D01*
X162099415Y-103708955D01*
X162046611Y-103754710D01*
X161977453Y-103764654D01*
X161913897Y-103735629D01*
X161907419Y-103729597D01*
X161785885Y-103608063D01*
X161785881Y-103608060D01*
X161622020Y-103498571D01*
X161622007Y-103498564D01*
X161439939Y-103423150D01*
X161439929Y-103423147D01*
X161246643Y-103384700D01*
X161246641Y-103384700D01*
X161049559Y-103384700D01*
X161049557Y-103384700D01*
X160856270Y-103423147D01*
X160856260Y-103423150D01*
X160674192Y-103498564D01*
X160674179Y-103498571D01*
X160510318Y-103608060D01*
X160510314Y-103608063D01*
X160390281Y-103728097D01*
X160328958Y-103761582D01*
X160259266Y-103756598D01*
X160203333Y-103714726D01*
X160178916Y-103649262D01*
X160178600Y-103640416D01*
X160178600Y-94784432D01*
X160198285Y-94717393D01*
X160214914Y-94696756D01*
X163336280Y-91575389D01*
X163397601Y-91541906D01*
X163456048Y-91543296D01*
X163493008Y-91553200D01*
X163493011Y-91553200D01*
X163624790Y-91553200D01*
X163624792Y-91553200D01*
X163752086Y-91519092D01*
X163866214Y-91453200D01*
X163959400Y-91360014D01*
X164025292Y-91245886D01*
X164059400Y-91118592D01*
X164059400Y-90986808D01*
X164025292Y-90859514D01*
X163959400Y-90745386D01*
X163866214Y-90652200D01*
X163809150Y-90619254D01*
X163752087Y-90586308D01*
X163688439Y-90569254D01*
X163624792Y-90552200D01*
X163493008Y-90552200D01*
X163365712Y-90586308D01*
X163251586Y-90652200D01*
X163251583Y-90652202D01*
X163158402Y-90745383D01*
X163158400Y-90745386D01*
X163092509Y-90859512D01*
X163060952Y-90977283D01*
X163028858Y-91032870D01*
X159693589Y-94368140D01*
X159637641Y-94424087D01*
X159637635Y-94424095D01*
X159598082Y-94492604D01*
X159598079Y-94492609D01*
X159597871Y-94493386D01*
X159582659Y-94550160D01*
X159577600Y-94569039D01*
X159577600Y-103640416D01*
X159557915Y-103707455D01*
X159505111Y-103753210D01*
X159435953Y-103763154D01*
X159372397Y-103734129D01*
X159365919Y-103728097D01*
X159245885Y-103608063D01*
X159245881Y-103608060D01*
X159082020Y-103498571D01*
X159082007Y-103498564D01*
X158899939Y-103423150D01*
X158899929Y-103423147D01*
X158706643Y-103384700D01*
X158706641Y-103384700D01*
X158509559Y-103384700D01*
X158509557Y-103384700D01*
X158316270Y-103423147D01*
X158316260Y-103423150D01*
X158134192Y-103498564D01*
X158134174Y-103498574D01*
X157973090Y-103606207D01*
X157906413Y-103627085D01*
X157839033Y-103608600D01*
X157792343Y-103556621D01*
X157780200Y-103503105D01*
X157780200Y-95529432D01*
X157799885Y-95462393D01*
X157816514Y-95441756D01*
X163164265Y-90094004D01*
X163225586Y-90060521D01*
X163295278Y-90065505D01*
X163299354Y-90067109D01*
X163396265Y-90107251D01*
X163396269Y-90107251D01*
X163396270Y-90107252D01*
X163589556Y-90145700D01*
X163589559Y-90145700D01*
X163786643Y-90145700D01*
X163949595Y-90113286D01*
X163979935Y-90107251D01*
X164162014Y-90031832D01*
X164308409Y-89934013D01*
X164375086Y-89913136D01*
X164442467Y-89931620D01*
G37*
%TD.AperFunction*%
%TA.AperFunction,Conductor*%
G36*
X147813091Y-89924192D02*
G01*
X147974179Y-90031828D01*
X147974192Y-90031835D01*
X148124288Y-90094006D01*
X148156265Y-90107251D01*
X148156269Y-90107251D01*
X148156270Y-90107252D01*
X148349556Y-90145700D01*
X148349559Y-90145700D01*
X148546643Y-90145700D01*
X148709595Y-90113286D01*
X148739935Y-90107251D01*
X148836802Y-90067126D01*
X148906269Y-90059657D01*
X148968749Y-90090931D01*
X148971935Y-90094006D01*
X149328081Y-90450152D01*
X149361566Y-90511475D01*
X149364400Y-90537833D01*
X149364400Y-103587216D01*
X149344715Y-103654255D01*
X149291911Y-103700010D01*
X149222753Y-103709954D01*
X149159197Y-103680929D01*
X149152719Y-103674897D01*
X149085885Y-103608063D01*
X149085881Y-103608060D01*
X148922020Y-103498571D01*
X148922007Y-103498564D01*
X148739939Y-103423150D01*
X148739929Y-103423147D01*
X148546643Y-103384700D01*
X148546641Y-103384700D01*
X148349559Y-103384700D01*
X148349557Y-103384700D01*
X148156270Y-103423147D01*
X148156260Y-103423150D01*
X147974192Y-103498564D01*
X147974174Y-103498574D01*
X147813090Y-103606207D01*
X147746413Y-103627085D01*
X147679033Y-103608600D01*
X147632343Y-103556621D01*
X147620200Y-103503105D01*
X147620200Y-90027294D01*
X147639885Y-89960255D01*
X147692689Y-89914500D01*
X147761847Y-89904556D01*
X147813091Y-89924192D01*
G37*
%TD.AperFunction*%
%TA.AperFunction,Conductor*%
G36*
X172077367Y-89921664D02*
G01*
X172124057Y-89973643D01*
X172136200Y-90027160D01*
X172136200Y-103503239D01*
X172116515Y-103570278D01*
X172063711Y-103616033D01*
X171994553Y-103625977D01*
X171943309Y-103606341D01*
X171782020Y-103498571D01*
X171782007Y-103498564D01*
X171599939Y-103423150D01*
X171599929Y-103423147D01*
X171406643Y-103384700D01*
X171406641Y-103384700D01*
X171209559Y-103384700D01*
X171209557Y-103384700D01*
X171016270Y-103423147D01*
X171016260Y-103423150D01*
X170834192Y-103498564D01*
X170834174Y-103498574D01*
X170673090Y-103606207D01*
X170606413Y-103627085D01*
X170539033Y-103608600D01*
X170492343Y-103556621D01*
X170480200Y-103503105D01*
X170480200Y-90449432D01*
X170499885Y-90382393D01*
X170516515Y-90361755D01*
X170784265Y-90094004D01*
X170845586Y-90060521D01*
X170915277Y-90065505D01*
X170919354Y-90067109D01*
X171016265Y-90107251D01*
X171016269Y-90107251D01*
X171016270Y-90107252D01*
X171209556Y-90145700D01*
X171209559Y-90145700D01*
X171406643Y-90145700D01*
X171569595Y-90113286D01*
X171599935Y-90107251D01*
X171782014Y-90031832D01*
X171943309Y-89924057D01*
X172009986Y-89903180D01*
X172077367Y-89921664D01*
G37*
%TD.AperFunction*%
%TA.AperFunction,Conductor*%
G36*
X132625186Y-80456951D02*
G01*
X132716450Y-80523259D01*
X132898768Y-80616155D01*
X133093382Y-80679390D01*
X133295483Y-80711400D01*
X133500117Y-80711400D01*
X133702217Y-80679390D01*
X133896831Y-80616155D01*
X134079153Y-80523257D01*
X134117914Y-80495096D01*
X134183720Y-80471615D01*
X134251774Y-80487440D01*
X134300469Y-80537545D01*
X134314800Y-80595413D01*
X134314800Y-94550162D01*
X134330168Y-94607514D01*
X134335280Y-94626593D01*
X134336654Y-94629909D01*
X134336978Y-94632930D01*
X134337383Y-94634439D01*
X134337147Y-94634502D01*
X134344121Y-94699378D01*
X134312845Y-94761857D01*
X134252755Y-94797508D01*
X134182930Y-94795013D01*
X134134411Y-94765040D01*
X132464619Y-93095248D01*
X132431134Y-93033925D01*
X132428300Y-93007567D01*
X132428300Y-80557269D01*
X132447985Y-80490230D01*
X132500789Y-80444475D01*
X132569947Y-80434531D01*
X132625186Y-80456951D01*
G37*
%TD.AperFunction*%
%TA.AperFunction,Conductor*%
G36*
X135112686Y-80418807D02*
G01*
X135256450Y-80523259D01*
X135438768Y-80616155D01*
X135633382Y-80679390D01*
X135835483Y-80711400D01*
X136040117Y-80711400D01*
X136242217Y-80679390D01*
X136436831Y-80616155D01*
X136619150Y-80523259D01*
X136651713Y-80499600D01*
X136717519Y-80476119D01*
X136785573Y-80491943D01*
X136834269Y-80542048D01*
X136848600Y-80599917D01*
X136848600Y-88582587D01*
X136828915Y-88649626D01*
X136776111Y-88695381D01*
X136706953Y-88705325D01*
X136643397Y-88676300D01*
X136621498Y-88651478D01*
X136525239Y-88507418D01*
X136525236Y-88507414D01*
X136385885Y-88368063D01*
X136385881Y-88368060D01*
X136222020Y-88258571D01*
X136222007Y-88258564D01*
X136039939Y-88183150D01*
X136039929Y-88183147D01*
X135846643Y-88144700D01*
X135846641Y-88144700D01*
X135649559Y-88144700D01*
X135649557Y-88144700D01*
X135456270Y-88183147D01*
X135456260Y-88183150D01*
X135274192Y-88258564D01*
X135274174Y-88258574D01*
X135108690Y-88369147D01*
X135042013Y-88390025D01*
X134974633Y-88371540D01*
X134927943Y-88319561D01*
X134915800Y-88266045D01*
X134915800Y-80519125D01*
X134935485Y-80452086D01*
X134988289Y-80406331D01*
X135057447Y-80396387D01*
X135112686Y-80418807D01*
G37*
%TD.AperFunction*%
M02*
